P1
# Bitte die Buchstaben A, a, k, g zeichnen.
# 1 = schwarz, 0 = weiss
# https://en.wikipedia.org/wiki/Netpbm_format
40 10
1 1 1 1 1 1 1 1 1 1   0 0 0 0 0 0 0 0 0 0   0 0 0 0 0 0 0 0 0 0   0 0 0 0 0 0 0 0 0 0
1 0 0 0 0 0 0 0 0 1   0 0 0 0 0 0 0 0 0 0   0 0 0 0 0 0 0 0 0 0   0 0 0 0 0 0 0 0 0 0
1 0 0 0 0 0 0 0 0 1   0 0 0 0 0 0 0 0 0 0   0 0 0 0 0 0 0 0 0 0   0 0 0 0 0 0 0 0 0 0
1 0 0 0 0 0 0 0 0 1   0 0 0 0 0 0 0 0 0 0   0 0 0 0 0 0 0 0 0 0   0 0 0 0 0 0 0 0 0 0
1 0 0 0 0 0 0 0 0 1   0 0 0 0 0 0 0 0 0 0   0 0 0 0 0 0 0 0 0 0   0 0 0 0 0 0 0 0 0 0
1 0 0 0 0 0 0 0 0 1   0 0 0 0 0 0 0 0 0 0   0 0 0 0 0 0 0 0 0 0   0 0 0 0 0 0 0 0 0 0
1 0 0 0 0 0 0 0 0 1   0 0 0 0 0 0 0 0 0 0   0 0 0 0 0 0 0 0 0 0   0 0 0 0 0 0 0 0 0 0
1 0 0 0 0 0 0 0 0 1   0 0 0 0 0 0 0 0 0 0   0 0 0 0 0 0 0 0 0 0   0 0 0 0 0 0 0 0 0 0
1 0 0 0 0 0 0 0 0 1   0 0 0 0 0 0 0 0 0 0   0 0 0 0 0 0 0 0 0 0   0 0 0 0 0 0 0 0 0 0
1 1 1 1 1 1 1 1 1 1   0 0 0 0 0 0 0 0 0 0   0 0 0 0 0 0 0 0 0 0   0 0 0 0 0 0 0 0 0 0
