P1
# to decompress pbm (from psh):
# convert -compress none original.pbm uncompressed.pbm
17 10
0 0 0 0 0 0 0 0 0 0 0 0 0 0 0 0 0
0 1 1 0 1 1 0 0 0 0 0 0 0 0 0 0 0
0 1 0 1 0 1 0 0 1 1 0 0 0 1 1 1 0
0 1 0 1 0 1 0 1 0 0 1 0 1 0 0 1 0
0 1 0 1 0 1 0 1 1 1 1 0 1 0 0 1 0
0 1 0 0 0 1 0 1 0 0 0 0 1 0 0 1 0
0 1 0 0 0 1 0 0 1 1 1 0 0 1 1 1 0
0 0 0 0 0 0 0 0 0 0 0 0 0 0 0 1 0
0 0 0 0 0 0 0 0 0 0 0 0 0 1 1 0 0
0 0 0 0 0 0 0 0 0 0 0 0 0 0 0 0 0
