<svg id="eInk" xmlns="http://www.w3.org/2000/svg" xmlns:xlink="http://www.w3.org/1999/xlink" viewBox="0 0 1017.39 410.85"><defs><style>.cls-1{fill:url(#linear-gradient);}.cls-16,.cls-17,.cls-18,.cls-19,.cls-2,.cls-20,.cls-21,.cls-22,.cls-23,.cls-24,.cls-25,.cls-26,.cls-27,.cls-28,.cls-29,.cls-43,.cls-44,.cls-45,.cls-46,.cls-47,.cls-48,.cls-49,.cls-50,.cls-51,.cls-52,.cls-53,.cls-54,.cls-55,.cls-69,.cls-70,.cls-71,.cls-72,.cls-73,.cls-74,.cls-75,.cls-76,.cls-77,.cls-78,.cls-79,.cls-80,.cls-81,.cls-82{isolation:isolate;}.cls-3,.cls-82{fill:#fff;}.cls-4{fill:url(#linear-gradient-2);}.cls-5{fill:url(#linear-gradient-3);}.cls-6{fill:url(#linear-gradient-4);}.cls-7{fill:url(#linear-gradient-5);}.cls-8{fill:url(#linear-gradient-6);}.cls-9{fill:url(#linear-gradient-7);}.cls-10{fill:url(#linear-gradient-8);}.cls-11{fill:url(#linear-gradient-9);}.cls-12{fill:url(#linear-gradient-10);}.cls-13{fill:url(#linear-gradient-11);}.cls-14{fill:url(#linear-gradient-12);}.cls-15{fill:url(#linear-gradient-13);}.cls-16,.cls-17,.cls-18,.cls-19,.cls-20,.cls-21,.cls-22,.cls-23,.cls-24,.cls-25,.cls-26,.cls-27,.cls-28,.cls-43,.cls-44,.cls-45,.cls-46,.cls-47,.cls-48,.cls-49,.cls-50,.cls-51,.cls-52,.cls-53,.cls-54,.cls-55,.cls-69,.cls-70,.cls-71,.cls-72,.cls-73,.cls-74,.cls-75,.cls-76,.cls-77,.cls-78,.cls-79,.cls-80,.cls-81{opacity:0.3;}.cls-16{fill:url(#linear-gradient-14);}.cls-17{fill:url(#linear-gradient-15);}.cls-18{fill:url(#linear-gradient-16);}.cls-19{fill:url(#linear-gradient-17);}.cls-20{fill:url(#linear-gradient-18);}.cls-21{fill:url(#linear-gradient-19);}.cls-22{fill:url(#linear-gradient-20);}.cls-23{fill:url(#linear-gradient-21);}.cls-24{fill:url(#linear-gradient-22);}.cls-25{fill:url(#linear-gradient-23);}.cls-26{fill:url(#linear-gradient-24);}.cls-27{fill:url(#linear-gradient-25);}.cls-28{fill:url(#linear-gradient-26);}.cls-29,.cls-83{fill:none;}.cls-29,.cls-82,.cls-83{stroke:#231f20;}.cls-29{stroke-width:6px;}.cls-30{fill:url(#linear-gradient-27);}.cls-31{fill:url(#linear-gradient-28);}.cls-32{fill:url(#linear-gradient-29);}.cls-33{fill:url(#linear-gradient-30);}.cls-34{fill:url(#linear-gradient-31);}.cls-35{fill:url(#linear-gradient-32);}.cls-36{fill:url(#linear-gradient-33);}.cls-37{fill:url(#linear-gradient-34);}.cls-38{fill:url(#linear-gradient-35);}.cls-39{fill:url(#linear-gradient-36);}.cls-40{fill:url(#linear-gradient-37);}.cls-41{fill:url(#linear-gradient-38);}.cls-42{fill:url(#linear-gradient-39);}.cls-43{fill:url(#linear-gradient-40);}.cls-44{fill:url(#linear-gradient-41);}.cls-45{fill:url(#linear-gradient-42);}.cls-46{fill:url(#linear-gradient-43);}.cls-47{fill:url(#linear-gradient-44);}.cls-48{fill:url(#linear-gradient-45);}.cls-49{fill:url(#linear-gradient-46);}.cls-50{fill:url(#linear-gradient-47);}.cls-51{fill:url(#linear-gradient-48);}.cls-52{fill:url(#linear-gradient-49);}.cls-53{fill:url(#linear-gradient-50);}.cls-54{fill:url(#linear-gradient-51);}.cls-55{fill:url(#linear-gradient-52);}.cls-56{fill:url(#linear-gradient-53);}.cls-57{fill:url(#linear-gradient-54);}.cls-58{fill:url(#linear-gradient-55);}.cls-59{fill:url(#linear-gradient-56);}.cls-60{fill:url(#linear-gradient-57);}.cls-61{fill:url(#linear-gradient-58);}.cls-62{fill:url(#linear-gradient-59);}.cls-63{fill:url(#linear-gradient-60);}.cls-64{fill:url(#linear-gradient-61);}.cls-65{fill:url(#linear-gradient-62);}.cls-66{fill:url(#linear-gradient-63);}.cls-67{fill:url(#linear-gradient-64);}.cls-68{fill:url(#linear-gradient-65);}.cls-69{fill:url(#linear-gradient-66);}.cls-70{fill:url(#linear-gradient-67);}.cls-71{fill:url(#linear-gradient-68);}.cls-72{fill:url(#linear-gradient-69);}.cls-73{fill:url(#linear-gradient-70);}.cls-74{fill:url(#linear-gradient-71);}.cls-75{fill:url(#linear-gradient-72);}.cls-76{fill:url(#linear-gradient-73);}.cls-77{fill:url(#linear-gradient-74);}.cls-78{fill:url(#linear-gradient-75);}.cls-79{fill:url(#linear-gradient-76);}.cls-80{fill:url(#linear-gradient-77);}.cls-81{fill:url(#linear-gradient-78);}.cls-82{stroke-width:3px;}.cls-83{stroke-width:4px;}</style><linearGradient id="linear-gradient" x1="-148.94" y1="-575.91" x2="12.04" y2="-395.93" gradientTransform="matrix(0.19, 0, 0, -0.19, 864.25, -2.71)" gradientUnits="userSpaceOnUse"><stop offset="0" stop-opacity="0.99"/><stop offset="1" stop-opacity="0"/></linearGradient><linearGradient id="linear-gradient-2" x1="-148.94" y1="-575.91" x2="12.04" y2="-395.92" gradientTransform="matrix(0.19, 0, 0, -0.19, 975.19, 13.98)" xlink:href="#linear-gradient"/><linearGradient id="linear-gradient-3" x1="-148.95" y1="-575.91" x2="12.04" y2="-395.92" gradientTransform="matrix(0.19, 0, 0, -0.19, 947.36, 0.06)" xlink:href="#linear-gradient"/><linearGradient id="linear-gradient-4" x1="-148.94" y1="-575.91" x2="12.05" y2="-395.92" gradientTransform="matrix(0.19, 0, 0, -0.19, 833.7, 9.34)" xlink:href="#linear-gradient"/><linearGradient id="linear-gradient-5" x1="-148.94" y1="-575.91" x2="12.05" y2="-395.92" gradientTransform="matrix(0.19, 0, 0, -0.19, 912.56, -25.46)" xlink:href="#linear-gradient"/><linearGradient id="linear-gradient-6" x1="-148.94" y1="-575.91" x2="12.04" y2="-395.93" gradientTransform="matrix(0.19, 0, 0, -0.19, 803.54, -11.54)" xlink:href="#linear-gradient"/><linearGradient id="linear-gradient-7" x1="-148.94" y1="-575.91" x2="12.05" y2="-395.92" gradientTransform="matrix(0.19, 0, 0, -0.19, 873.13, -30.1)" xlink:href="#linear-gradient"/><linearGradient id="linear-gradient-8" x1="-148.94" y1="-575.91" x2="12.04" y2="-395.93" gradientTransform="matrix(0.19, 0, 0, -0.19, 838.34, -27.78)" xlink:href="#linear-gradient"/><linearGradient id="linear-gradient-9" x1="-148.94" y1="-575.91" x2="12.05" y2="-395.92" gradientTransform="matrix(0.19, 0, 0, -0.19, 924.16, 20.94)" xlink:href="#linear-gradient"/><linearGradient id="linear-gradient-10" x1="-148.94" y1="-575.91" x2="12.05" y2="-395.92" gradientTransform="matrix(0.19, 0, 0, -0.19, 891.69, 2.38)" xlink:href="#linear-gradient"/><linearGradient id="linear-gradient-11" x1="-148.94" y1="-575.91" x2="12.05" y2="-395.92" gradientTransform="matrix(0.19, 0, 0, -0.19, 775.7, 9.34)" xlink:href="#linear-gradient"/><linearGradient id="linear-gradient-12" x1="-148.94" y1="-575.91" x2="12.05" y2="-395.93" gradientTransform="matrix(0.19, 0, 0, -0.19, 869.24, 29.57)" xlink:href="#linear-gradient"/><linearGradient id="linear-gradient-13" x1="-148.94" y1="-575.91" x2="12.05" y2="-395.93" gradientTransform="matrix(0.19, 0, 0, -0.19, 804.29, 27.25)" xlink:href="#linear-gradient"/><linearGradient id="linear-gradient-14" x1="217.5" y1="-478.95" x2="246.78" y2="-478.95" gradientTransform="matrix(1.15, 0, 0, -1.15, 491.83, -239.82)" gradientUnits="userSpaceOnUse"><stop offset="0"/><stop offset="1" stop-opacity="0"/></linearGradient><linearGradient id="linear-gradient-15" x1="217.5" y1="-478.95" x2="246.78" y2="-478.95" gradientTransform="matrix(1.15, 0, 0, -1.15, 699.71, -261.6)" xlink:href="#linear-gradient-14"/><linearGradient id="linear-gradient-16" x1="217.5" y1="-478.95" x2="246.78" y2="-478.95" gradientTransform="matrix(1.15, 0, 0, -1.15, 525.74, -256.96)" xlink:href="#linear-gradient-14"/><linearGradient id="linear-gradient-17" x1="217.5" y1="-478.95" x2="246.78" y2="-478.95" gradientTransform="matrix(1.15, 0, 0, -1.15, 467.75, -268.56)" xlink:href="#linear-gradient-14"/><linearGradient id="linear-gradient-18" x1="217.5" y1="-478.95" x2="246.78" y2="-478.95" gradientTransform="matrix(1.15, 0, 0, -1.15, 660.28, -263.92)" xlink:href="#linear-gradient-14"/><linearGradient id="linear-gradient-19" x1="217.5" y1="-478.95" x2="246.78" y2="-478.95" gradientTransform="matrix(1.15, 0, 0, -1.15, 623.16, -247.68)" xlink:href="#linear-gradient-14"/><linearGradient id="linear-gradient-20" x1="217.5" y1="-478.95" x2="246.78" y2="-478.95" gradientTransform="matrix(1.15, 0, 0, -1.15, 671.87, -231.44)" xlink:href="#linear-gradient-14"/><linearGradient id="linear-gradient-21" x1="217.5" y1="-478.95" x2="246.78" y2="-478.95" gradientTransform="matrix(1.15, 0, 0, -1.15, 637.08, -217.53)" xlink:href="#linear-gradient-14"/><linearGradient id="linear-gradient-22" x1="217.5" y1="-478.95" x2="246.78" y2="-478.95" gradientTransform="matrix(1.15, 0, 0, -1.15, 593.01, -236.08)" xlink:href="#linear-gradient-14"/><linearGradient id="linear-gradient-23" x1="217.5" y1="-478.95" x2="246.78" y2="-478.95" gradientTransform="matrix(1.15, 0, 0, -1.15, 595.33, -201.29)" xlink:href="#linear-gradient-14"/><linearGradient id="linear-gradient-24" x1="217.5" y1="-478.95" x2="246.78" y2="-478.95" gradientTransform="matrix(1.15, 0, 0, -1.15, 555.89, -238.4)" xlink:href="#linear-gradient-14"/><linearGradient id="linear-gradient-25" x1="217.5" y1="-478.95" x2="246.78" y2="-478.95" gradientTransform="matrix(1.15, 0, 0, -1.15, 525.74, -219.84)" xlink:href="#linear-gradient-14"/><linearGradient id="linear-gradient-26" x1="217.5" y1="-478.95" x2="246.78" y2="-478.95" gradientTransform="matrix(1.15, 0, 0, -1.15, 558.21, -203.61)" xlink:href="#linear-gradient-14"/><linearGradient id="linear-gradient-27" x1="-148.94" y1="-575.91" x2="12.05" y2="-395.92" gradientTransform="matrix(0.19, 0, 0, -0.19, 555.02, 245.94)" xlink:href="#linear-gradient"/><linearGradient id="linear-gradient-28" x1="-148.94" y1="-575.91" x2="12.05" y2="-395.92" gradientTransform="matrix(0.19, 0, 0, -0.19, 448.32, 213.46)" xlink:href="#linear-gradient"/><linearGradient id="linear-gradient-29" x1="-148.94" y1="-575.91" x2="12.05" y2="-395.92" gradientTransform="matrix(0.19, 0, 0, -0.19, 508.63, 213.46)" xlink:href="#linear-gradient"/><linearGradient id="linear-gradient-30" x1="-148.94" y1="-575.9" x2="12.05" y2="-395.92" gradientTransform="matrix(0.19, 0, 0, -0.19, 517.91, 245.94)" xlink:href="#linear-gradient"/><linearGradient id="linear-gradient-31" x1="-148.94" y1="-575.91" x2="12.05" y2="-395.92" gradientTransform="matrix(0.19, 0, 0, -0.19, 480.8, 234.34)" xlink:href="#linear-gradient"/><linearGradient id="linear-gradient-32" x1="-148.93" y1="-575.91" x2="12.05" y2="-395.92" gradientTransform="matrix(0.19, 0, 0, -0.19, 616.09, 219.78)" xlink:href="#linear-gradient"/><linearGradient id="linear-gradient-33" x1="-148.94" y1="-575.91" x2="12.05" y2="-395.92" gradientTransform="matrix(0.19, 0, 0, -0.19, 574.33, 205.86)" xlink:href="#linear-gradient"/><linearGradient id="linear-gradient-34" x1="-148.94" y1="-575.91" x2="12.05" y2="-395.92" gradientTransform="matrix(0.19, 0, 0, -0.19, 588.25, 238.34)" xlink:href="#linear-gradient"/><linearGradient id="linear-gradient-35" x1="-148.94" y1="-575.91" x2="12.04" y2="-395.92" gradientTransform="matrix(0.19, 0, 0, -0.19, 544.18, 215.14)" xlink:href="#linear-gradient"/><linearGradient id="linear-gradient-36" x1="-148.94" y1="-575.9" x2="12.05" y2="-395.92" gradientTransform="matrix(0.19, 0, 0, -0.19, 423.56, 189.62)" xlink:href="#linear-gradient"/><linearGradient id="linear-gradient-37" x1="-148.94" y1="-575.91" x2="12.05" y2="-395.92" gradientTransform="matrix(0.19, 0, 0, -0.19, 476.91, 198.9)" xlink:href="#linear-gradient"/><linearGradient id="linear-gradient-38" x1="-148.94" y1="-575.91" x2="12.05" y2="-395.92" gradientTransform="matrix(0.19, 0, 0, -0.19, 530.26, 184.98)" xlink:href="#linear-gradient"/><linearGradient id="linear-gradient-39" x1="-148.94" y1="-575.91" x2="12.05" y2="-395.93" gradientTransform="matrix(0.19, 0, 0, -0.19, 643.92, 198.9)" xlink:href="#linear-gradient"/><linearGradient id="linear-gradient-40" x1="217.5" y1="-478.95" x2="246.78" y2="-478.95" gradientTransform="matrix(1.15, 0, 0, -1.15, 131.08, -410.06)" xlink:href="#linear-gradient-14"/><linearGradient id="linear-gradient-41" x1="217.5" y1="-478.95" x2="246.78" y2="-478.95" gradientTransform="matrix(1.15, 0, 0, -1.15, 307.38, -430.94)" xlink:href="#linear-gradient-14"/><linearGradient id="linear-gradient-42" x1="217.5" y1="-478.95" x2="246.78" y2="-478.95" gradientTransform="matrix(1.15, 0, 0, -1.15, 177.48, -421.66)" xlink:href="#linear-gradient-14"/><linearGradient id="linear-gradient-43" x1="217.5" y1="-478.95" x2="246.78" y2="-478.95" gradientTransform="matrix(1.15, 0, 0, -1.15, 279.54, -451.81)" xlink:href="#linear-gradient-14"/><linearGradient id="linear-gradient-44" x1="217.5" y1="-478.95" x2="246.78" y2="-478.95" gradientTransform="matrix(1.15, 0, 0, -1.15, 244.75, -449.49)" xlink:href="#linear-gradient-14"/><linearGradient id="linear-gradient-45" x1="217.5" y1="-478.95" x2="246.78" y2="-478.95" gradientTransform="matrix(1.15, 0, 0, -1.15, 209.95, -444.85)" xlink:href="#linear-gradient-14"/><linearGradient id="linear-gradient-46" x1="217.5" y1="-478.95" x2="246.78" y2="-478.95" gradientTransform="matrix(1.15, 0, 0, -1.15, 351.45, -440.21)" xlink:href="#linear-gradient-14"/><linearGradient id="linear-gradient-47" x1="217.5" y1="-478.95" x2="246.78" y2="-478.95" gradientTransform="matrix(1.15, 0, 0, -1.15, 323.61, -463.41)" xlink:href="#linear-gradient-14"/><linearGradient id="linear-gradient-48" x1="217.5" y1="-478.95" x2="246.78" y2="-478.95" gradientTransform="matrix(1.15, 0, 0, -1.15, 291.14, -479.65)" xlink:href="#linear-gradient-14"/><linearGradient id="linear-gradient-49" x1="217.5" y1="-478.95" x2="246.78" y2="-478.95" gradientTransform="matrix(1.15, 0, 0, -1.15, 151.96, -444.85)" xlink:href="#linear-gradient-14"/><linearGradient id="linear-gradient-50" x1="217.5" y1="-478.95" x2="246.78" y2="-478.95" gradientTransform="matrix(1.15, 0, 0, -1.15, 254.02, -484.29)" xlink:href="#linear-gradient-14"/><linearGradient id="linear-gradient-51" x1="217.5" y1="-478.95" x2="246.78" y2="-478.95" gradientTransform="matrix(1.15, 0, 0, -1.15, 182.12, -468.05)" xlink:href="#linear-gradient-14"/><linearGradient id="linear-gradient-52" x1="217.5" y1="-478.95" x2="246.78" y2="-478.95" gradientTransform="matrix(1.15, 0, 0, -1.15, 219.23, -481.97)" xlink:href="#linear-gradient-14"/><linearGradient id="linear-gradient-53" x1="-148.94" y1="-575.91" x2="12.05" y2="-395.92" gradientTransform="matrix(0.19, 0, 0, -0.19, 184.65, -5.89)" xlink:href="#linear-gradient"/><linearGradient id="linear-gradient-54" x1="-148.94" y1="-575.91" x2="12.05" y2="-395.93" gradientTransform="matrix(0.19, 0, 0, -0.19, 295.59, 10.8)" xlink:href="#linear-gradient"/><linearGradient id="linear-gradient-55" x1="-148.94" y1="-575.91" x2="12.05" y2="-395.92" gradientTransform="matrix(0.19, 0, 0, -0.19, 267.75, -3.12)" xlink:href="#linear-gradient"/><linearGradient id="linear-gradient-56" x1="-148.94" y1="-575.91" x2="12.05" y2="-395.92" gradientTransform="matrix(0.19, 0, 0, -0.19, 154.09, 6.16)" xlink:href="#linear-gradient"/><linearGradient id="linear-gradient-57" x1="-148.94" y1="-575.91" x2="12.05" y2="-395.92" gradientTransform="matrix(0.19, 0, 0, -0.19, 232.96, -28.64)" xlink:href="#linear-gradient"/><linearGradient id="linear-gradient-58" x1="-148.94" y1="-575.91" x2="12.05" y2="-395.92" gradientTransform="matrix(0.19, 0, 0, -0.19, 123.94, -14.72)" xlink:href="#linear-gradient"/><linearGradient id="linear-gradient-59" x1="-148.94" y1="-575.91" x2="12.05" y2="-395.92" gradientTransform="matrix(0.19, 0, 0, -0.19, 193.53, -33.28)" xlink:href="#linear-gradient"/><linearGradient id="linear-gradient-60" x1="-148.94" y1="-575.91" x2="12.05" y2="-395.93" gradientTransform="matrix(0.19, 0, 0, -0.19, 158.73, -30.96)" xlink:href="#linear-gradient"/><linearGradient id="linear-gradient-61" x1="-148.94" y1="-575.91" x2="12.05" y2="-395.92" gradientTransform="matrix(0.19, 0, 0, -0.19, 244.56, 17.76)" xlink:href="#linear-gradient"/><linearGradient id="linear-gradient-62" x1="-148.94" y1="-575.91" x2="12.04" y2="-395.92" gradientTransform="matrix(0.19, 0, 0, -0.19, 212.08, -0.8)" xlink:href="#linear-gradient"/><linearGradient id="linear-gradient-63" x1="-148.94" y1="-575.91" x2="12.05" y2="-395.92" gradientTransform="matrix(0.19, 0, 0, -0.19, 96.1, 6.16)" xlink:href="#linear-gradient"/><linearGradient id="linear-gradient-64" x1="-148.94" y1="-575.91" x2="12.05" y2="-395.92" gradientTransform="matrix(0.19, 0, 0, -0.19, 189.64, 26.39)" xlink:href="#linear-gradient"/><linearGradient id="linear-gradient-65" x1="-148.94" y1="-575.91" x2="12.05" y2="-395.92" gradientTransform="matrix(0.19, 0, 0, -0.19, 124.69, 24.07)" xlink:href="#linear-gradient"/><linearGradient id="linear-gradient-66" x1="217.5" y1="-478.95" x2="246.78" y2="-478.95" gradientTransform="matrix(1.15, 0, 0, -1.15, -187.77, -243)" xlink:href="#linear-gradient-14"/><linearGradient id="linear-gradient-67" x1="217.5" y1="-478.95" x2="246.78" y2="-478.95" gradientTransform="matrix(1.15, 0, 0, -1.15, 20.11, -264.78)" xlink:href="#linear-gradient-14"/><linearGradient id="linear-gradient-68" x1="217.5" y1="-478.95" x2="246.78" y2="-478.95" gradientTransform="matrix(1.15, 0, 0, -1.15, -153.87, -260.14)" xlink:href="#linear-gradient-14"/><linearGradient id="linear-gradient-69" x1="217.5" y1="-478.95" x2="246.78" y2="-478.95" gradientTransform="matrix(1.15, 0, 0, -1.15, -211.86, -271.74)" xlink:href="#linear-gradient-14"/><linearGradient id="linear-gradient-70" x1="217.5" y1="-478.95" x2="246.78" y2="-478.95" gradientTransform="matrix(1.15, 0, 0, -1.15, -19.33, -267.1)" xlink:href="#linear-gradient-14"/><linearGradient id="linear-gradient-71" x1="217.5" y1="-478.95" x2="246.78" y2="-478.95" gradientTransform="matrix(1.15, 0, 0, -1.15, -56.44, -250.86)" xlink:href="#linear-gradient-14"/><linearGradient id="linear-gradient-72" x1="217.5" y1="-478.95" x2="246.78" y2="-478.95" gradientTransform="matrix(1.15, 0, 0, -1.15, -7.73, -234.62)" xlink:href="#linear-gradient-14"/><linearGradient id="linear-gradient-73" x1="217.5" y1="-478.95" x2="246.78" y2="-478.95" gradientTransform="matrix(1.15, 0, 0, -1.15, -42.52, -220.7)" xlink:href="#linear-gradient-14"/><linearGradient id="linear-gradient-74" x1="217.5" y1="-478.95" x2="246.78" y2="-478.95" gradientTransform="matrix(1.15, 0, 0, -1.15, -86.6, -239.26)" xlink:href="#linear-gradient-14"/><linearGradient id="linear-gradient-75" x1="217.5" y1="-478.95" x2="246.78" y2="-478.95" gradientTransform="matrix(1.15, 0, 0, -1.15, -84.28, -204.47)" xlink:href="#linear-gradient-14"/><linearGradient id="linear-gradient-76" x1="217.5" y1="-478.95" x2="246.78" y2="-478.95" gradientTransform="matrix(1.15, 0, 0, -1.15, -123.71, -241.58)" xlink:href="#linear-gradient-14"/><linearGradient id="linear-gradient-77" x1="217.5" y1="-478.95" x2="246.78" y2="-478.95" gradientTransform="matrix(1.15, 0, 0, -1.15, -153.87, -223.02)" xlink:href="#linear-gradient-14"/><linearGradient id="linear-gradient-78" x1="217.5" y1="-478.95" x2="246.78" y2="-478.95" gradientTransform="matrix(1.15, 0, 0, -1.15, -121.39, -206.79)" xlink:href="#linear-gradient-14"/></defs><title>eInk-principle</title><path id="path2556" class="cls-1" d="M860.74,96.89A16.89,16.89,0,1,1,843.85,80,16.89,16.89,0,0,1,860.74,96.89Z"/><g class="cls-2"><path class="cls-3" d="M842.43,106V97.71h-8.18V94.27h8.18V86.09h3.49v8.18h8.18v3.44h-8.18V106Z"/></g><path id="path2564" class="cls-4" d="M971.68,113.58A16.88,16.88,0,1,1,954.8,96.7,16.88,16.88,0,0,1,971.68,113.58Z"/><g class="cls-2"><path class="cls-3" d="M953.38,122.65v-8.24h-8.19V111h8.19v-8.18h3.48V111h8.19v3.45h-8.19v8.24Z"/></g><path id="path2572" class="cls-5" d="M943.85,99.66A16.89,16.89,0,1,1,927,82.78,16.89,16.89,0,0,1,943.85,99.66Z"/><g class="cls-2"><path class="cls-3" d="M925.54,108.73v-8.24h-8.18V97h8.18V88.86H929V97h8.18v3.45H929v8.24Z"/></g><path id="path2580" class="cls-6" d="M830.18,108.94A16.88,16.88,0,1,1,813.3,92.06,16.89,16.89,0,0,1,830.18,108.94Z"/><g class="cls-2"><path class="cls-3" d="M811.88,118v-8.24H803.7v-3.45h8.18V98.14h3.48v8.18h8.19v3.45h-8.19V118Z"/></g><path id="path2588" class="cls-7" d="M909.05,74.15a16.88,16.88,0,1,1-16.88-16.88A16.88,16.88,0,0,1,909.05,74.15Z"/><g class="cls-2"><path class="cls-3" d="M890.75,83.22V75h-8.19V71.53h8.19V63.34h3.48v8.19h8.19V75h-8.19v8.25Z"/></g><path id="path2596" class="cls-8" d="M800,88.07a16.89,16.89,0,1,1-16.88-16.89A16.88,16.88,0,0,1,800,88.07Z"/><g class="cls-2"><path class="cls-3" d="M781.72,97.13V88.89h-8.18V85.44h8.18V77.26h3.49v8.18h8.18v3.45h-8.18v8.24Z"/></g><path id="path2604" class="cls-9" d="M869.62,69.51a16.89,16.89,0,1,1-16.89-16.88A16.89,16.89,0,0,1,869.62,69.51Z"/><g class="cls-2"><path class="cls-3" d="M851.31,78.58V70.33h-8.18V66.89h8.18V58.71h3.49v8.18H863v3.44H854.8v8.25Z"/></g><path id="path2612" class="cls-10" d="M834.82,71.83A16.88,16.88,0,1,1,817.94,55,16.88,16.88,0,0,1,834.82,71.83Z"/><g class="cls-2"><path class="cls-3" d="M816.52,80.9V72.65h-8.18V69.21h8.18V61H820v8.19h8.19v3.44H820V80.9Z"/></g><path id="path2620" class="cls-11" d="M920.65,120.54a16.89,16.89,0,1,1-16.88-16.88A16.88,16.88,0,0,1,920.65,120.54Z"/><g class="cls-2"><path class="cls-3" d="M902.35,129.61v-8.24h-8.19v-3.45h8.19v-8.18h3.48v8.18H914v3.45h-8.18v8.24Z"/></g><path id="path2628" class="cls-12" d="M888.17,102A16.88,16.88,0,1,1,871.29,85.1,16.89,16.89,0,0,1,888.17,102Z"/><g class="cls-2"><path class="cls-3" d="M869.87,111.05v-8.24h-8.18V99.36h8.18V91.18h3.49v8.18h8.18v3.45h-8.18v8.24Z"/></g><path id="path2636" class="cls-13" d="M772.19,108.94a16.88,16.88,0,1,1-16.88-16.88A16.89,16.89,0,0,1,772.19,108.94Z"/><g class="cls-2"><path class="cls-3" d="M753.89,118v-8.24h-8.18v-3.45h8.18V98.14h3.48v8.18h8.19v3.45h-8.19V118Z"/></g><path id="path2644" class="cls-14" d="M865.73,129.18a16.89,16.89,0,1,1-16.88-16.89A16.88,16.88,0,0,1,865.73,129.18Z"/><g class="cls-2"><path class="cls-3" d="M847.42,138.25V130h-8.18v-3.44h8.18v-8.19h3.49v8.19h8.18V130h-8.18v8.25Z"/></g><path id="path2652" class="cls-15" d="M800.78,126.86A16.89,16.89,0,1,1,783.9,110,16.88,16.88,0,0,1,800.78,126.86Z"/><g class="cls-2"><path class="cls-3" d="M782.47,135.93v-8.25h-8.18v-3.44h8.18v-8.19H786v8.19h8.18v3.44H786v8.25Z"/></g><path id="path2660" class="cls-16" d="M774.62,310.11a16.24,16.24,0,0,1-32.48,0h0a16.24,16.24,0,0,1,32.48,0Z"/><g class="cls-2"><path d="M752.3,312v-3.72h11.34V312Z"/></g><path id="path2668" class="cls-17" d="M982.49,288.33a16.24,16.24,0,1,1-32.47,0h0a16.24,16.24,0,0,1,32.47,0Z"/><g class="cls-2"><path d="M960.18,290.17v-3.71h11.34v3.71Z"/></g><path id="path2676" class="cls-18" d="M808.52,293a16.24,16.24,0,1,1-32.47,0h0a16.24,16.24,0,0,1,32.47,0Z"/><g class="cls-2"><path d="M786.2,294.81V291.1h11.34v3.71Z"/></g><path id="path2684" class="cls-19" d="M750.53,281.37a16.24,16.24,0,0,1-32.48,0h0a16.24,16.24,0,0,1,32.48,0Z"/><g class="cls-2"><path d="M728.21,283.21V279.5h11.34v3.71Z"/></g><path id="path2692" class="cls-20" d="M943.06,286a16.24,16.24,0,0,1-32.47,0h0a16.24,16.24,0,0,1,32.47,0Z"/><g class="cls-2"><path d="M920.74,287.85v-3.71h11.34v3.71Z"/></g><path id="path2700" class="cls-21" d="M905.94,302.25a16.24,16.24,0,1,1-32.47,0h0a16.24,16.24,0,1,1,32.47,0Z"/><g class="cls-2"><path d="M883.63,304.09v-3.71H895v3.71Z"/></g><path id="path2708" class="cls-22" d="M954.66,318.49a16.24,16.24,0,0,1-32.48,0h0a16.24,16.24,0,1,1,32.48,0Z"/><g class="cls-2"><path d="M932.34,320.33v-3.72h11.34v3.72Z"/></g><path id="path2716" class="cls-23" d="M919.86,332.41a16.24,16.24,0,1,1-32.47,0h0a16.24,16.24,0,1,1,32.47,0Z"/><g class="cls-2"><path d="M897.55,334.24v-3.71h11.34v3.71Z"/></g><path id="path2724" class="cls-24" d="M875.79,313.85a16.24,16.24,0,1,1-32.47,0h0a16.24,16.24,0,1,1,32.47,0Z"/><g class="cls-2"><path d="M853.47,315.69V312h11.34v3.71Z"/></g><path id="path2732" class="cls-25" d="M878.11,348.64a16.24,16.24,0,0,1-32.48,0h0a16.24,16.24,0,0,1,32.48,0Z"/><g class="cls-2"><path d="M855.79,350.48v-3.71h11.34v3.71Z"/></g><path id="path2740" class="cls-26" d="M838.68,311.53a16.24,16.24,0,1,1-32.48,0h0a16.24,16.24,0,1,1,32.48,0Z"/><g class="cls-2"><path d="M816.36,313.37v-3.71H827.7v3.71Z"/></g><path id="path2748" class="cls-27" d="M808.52,330.09a16.24,16.24,0,1,1-32.47,0h0a16.24,16.24,0,1,1,32.47,0Z"/><g class="cls-2"><path d="M786.2,331.93v-3.72h11.34v3.72Z"/></g><path id="path2756" class="cls-28" d="M841,346.33a16.24,16.24,0,0,1-32.48,0h0a16.24,16.24,0,0,1,32.48,0Z"/><g class="cls-2"><path d="M818.68,348.16v-3.71H830v3.71Z"/></g><path id="path2818" class="cls-29" d="M1016.54,205.55a163,163,0,1,1-325.95,0v0a163,163,0,0,1,325.95-.05Z"/><path id="path3257" class="cls-30" d="M551.51,345.54a16.88,16.88,0,1,1-16.88-16.88A16.89,16.89,0,0,1,551.51,345.54Z"/><g class="cls-2"><path class="cls-3" d="M533.21,354.61v-8.24H525v-3.45h8.19v-8.18h3.48v8.18h8.19v3.45h-8.19v8.24Z"/></g><path id="path3267" class="cls-31" d="M444.81,313.07a16.89,16.89,0,1,1-16.89-16.89A16.89,16.89,0,0,1,444.81,313.07Z"/><g class="cls-2"><path class="cls-3" d="M426.5,322.14v-8.25h-8.18v-3.44h8.18v-8.19H430v8.19h8.18v3.44H430v8.25Z"/></g><path id="path3277" class="cls-32" d="M505.12,313.07a16.89,16.89,0,1,1-16.88-16.89A16.88,16.88,0,0,1,505.12,313.07Z"/><g class="cls-2"><path class="cls-3" d="M486.81,322.14v-8.25h-8.18v-3.44h8.18v-8.19h3.49v8.19h8.18v3.44H490.3v8.25Z"/></g><path id="path3287" class="cls-33" d="M514.4,345.54a16.89,16.89,0,1,1-16.89-16.88A16.89,16.89,0,0,1,514.4,345.54Z"/><g class="cls-2"><path class="cls-3" d="M496.09,354.61v-8.24h-8.18v-3.45h8.18v-8.18h3.49v8.18h8.18v3.45h-8.18v8.24Z"/></g><path id="path3297" class="cls-34" d="M477.28,333.94a16.88,16.88,0,1,1-16.88-16.88A16.89,16.89,0,0,1,477.28,333.94Z"/><g class="cls-2"><path class="cls-3" d="M459,343v-8.24H450.8v-3.45H459v-8.18h3.48v8.18h8.19v3.45h-8.19V343Z"/></g><path id="path3407" class="cls-35" d="M612.57,319.38a16.88,16.88,0,1,1-16.88-16.88A16.88,16.88,0,0,1,612.57,319.38Z"/><g class="cls-2"><path class="cls-3" d="M594.27,328.45v-8.24h-8.18v-3.45h8.18v-8.18h3.48v8.18h8.19v3.45h-8.19v8.24Z"/></g><path id="path3417" class="cls-36" d="M570.82,305.47a16.89,16.89,0,1,1-16.88-16.89A16.88,16.88,0,0,1,570.82,305.47Z"/><g class="cls-2"><path class="cls-3" d="M552.52,314.53v-8.24h-8.19v-3.45h8.19v-8.18H556v8.18h8.18v3.45H556v8.24Z"/></g><path id="path3427" class="cls-37" d="M584.74,337.94a16.89,16.89,0,1,1-16.89-16.88A16.88,16.88,0,0,1,584.74,337.94Z"/><g class="cls-2"><path class="cls-3" d="M566.43,347v-8.24h-8.18v-3.45h8.18v-8.18h3.49v8.18h8.18v3.45h-8.18V347Z"/></g><path id="path3437" class="cls-38" d="M540.66,314.74a16.88,16.88,0,1,1-16.88-16.88A16.89,16.89,0,0,1,540.66,314.74Z"/><g class="cls-2"><path class="cls-3" d="M522.36,323.81v-8.24h-8.18v-3.45h8.18v-8.18h3.49v8.18H534v3.45h-8.18v8.24Z"/></g><path id="path3447" class="cls-39" d="M420,289.23a16.88,16.88,0,1,1-16.88-16.88A16.88,16.88,0,0,1,420,289.23Z"/><g class="cls-2"><path class="cls-3" d="M401.74,298.3v-8.25h-8.18v-3.44h8.18v-8.19h3.48v8.19h8.19v3.44h-8.19v8.25Z"/></g><path id="path3457" class="cls-40" d="M473.39,298.51a16.88,16.88,0,1,1-16.88-16.89A16.88,16.88,0,0,1,473.39,298.51Z"/><g class="cls-2"><path class="cls-3" d="M455.09,307.58v-8.25h-8.18v-3.44h8.18V287.7h3.49v8.19h8.18v3.44h-8.18v8.25Z"/></g><path id="path3467" class="cls-41" d="M526.75,284.59a16.89,16.89,0,1,1-16.89-16.88A16.89,16.89,0,0,1,526.75,284.59Z"/><g class="cls-2"><path class="cls-3" d="M508.44,293.66v-8.25h-8.18V282h8.18v-8.18h3.49V282h8.18v3.44h-8.18v8.25Z"/></g><path id="path3477" class="cls-42" d="M640.41,298.51a16.89,16.89,0,1,1-16.88-16.89A16.88,16.88,0,0,1,640.41,298.51Z"/><g class="cls-2"><path class="cls-3" d="M622.1,307.58v-8.25h-8.18v-3.44h8.18V287.7h3.49v8.19h8.18v3.44h-8.18v8.25Z"/></g><path id="path4022" class="cls-43" d="M413.87,139.87a16.24,16.24,0,0,1-32.48,0h0a16.24,16.24,0,0,1,32.48,0Z"/><g class="cls-2"><path d="M391.55,141.71V138h11.34v3.71Z"/></g><path id="path4032" class="cls-44" d="M590.16,119a16.24,16.24,0,0,1-32.48,0h0a16.24,16.24,0,0,1,32.48,0Z"/><g class="cls-2"><path d="M567.84,120.83v-3.71h11.34v3.71Z"/></g><path id="path4042" class="cls-45" d="M460.26,128.28a16.24,16.24,0,0,1-32.48,0h0a16.24,16.24,0,0,1,32.48,0Z"/><g class="cls-2"><path d="M437.94,130.11V126.4h11.34v3.71Z"/></g><path id="path4112" class="cls-46" d="M562.32,98.12a16.24,16.24,0,1,1-32.47,0h0a16.24,16.24,0,1,1,32.47,0Z"/><g class="cls-2"><path d="M540,100V96.25h11.34V100Z"/></g><path id="path4122" class="cls-47" d="M527.53,100.44a16.24,16.24,0,1,1-32.48,0h0a16.24,16.24,0,1,1,32.48,0Z"/><g class="cls-2"><path d="M505.21,102.28V98.57h11.34v3.71Z"/></g><path id="path4132" class="cls-48" d="M492.73,105.08a16.24,16.24,0,1,1-32.47,0h0a16.24,16.24,0,1,1,32.47,0Z"/><g class="cls-2"><path d="M470.42,106.92V103.2h11.34v3.72Z"/></g><path id="path4142" class="cls-49" d="M634.23,109.72a16.24,16.24,0,1,1-32.47,0h0a16.24,16.24,0,1,1,32.47,0Z"/><g class="cls-2"><path d="M611.92,111.56v-3.72h11.34v3.72Z"/></g><path id="path4152" class="cls-50" d="M606.4,86.52a16.24,16.24,0,0,1-32.48,0h0a16.24,16.24,0,1,1,32.48,0Z"/><g class="cls-2"><path d="M584.08,88.36V84.65h11.34v3.71Z"/></g><path id="path4162" class="cls-51" d="M573.92,70.28a16.24,16.24,0,0,1-32.47,0h0a16.24,16.24,0,1,1,32.47,0Z"/><g class="cls-2"><path d="M551.6,72.12V68.41h11.34v3.71Z"/></g><path id="path4202" class="cls-52" d="M434.74,105.08a16.24,16.24,0,1,1-32.47,0h0a16.24,16.24,0,1,1,32.47,0Z"/><g class="cls-2"><path d="M412.43,106.92V103.2h11.34v3.72Z"/></g><path id="path4212" class="cls-53" d="M536.81,65.65a16.24,16.24,0,0,1-32.48,0h0a16.24,16.24,0,0,1,32.48,0Z"/><g class="cls-2"><path d="M514.49,67.48V63.77h11.34v3.71Z"/></g><path id="path4222" class="cls-54" d="M464.9,81.88a16.24,16.24,0,1,1-32.48,0h0a16.24,16.24,0,1,1,32.48,0Z"/><g class="cls-2"><path d="M442.58,83.72V80h11.34v3.71Z"/></g><path id="path4252" class="cls-55" d="M502,68a16.24,16.24,0,0,1-32.47,0h0A16.24,16.24,0,0,1,502,68Z"/><g class="cls-2"><path d="M479.7,69.8V66.09H491V69.8Z"/></g><path id="path2820" class="cls-29" d="M677.42,205.55a163,163,0,0,1-326,0v0a163,163,0,0,1,326-.05Z"/><path id="path2160" class="cls-56" d="M181.13,93.71a16.88,16.88,0,1,1-16.88-16.88A16.88,16.88,0,0,1,181.13,93.71Z"/><g class="cls-2"><path class="cls-3" d="M162.83,102.78V94.54h-8.19V91.09h8.19V82.91h3.48v8.18h8.19v3.45h-8.19v8.24Z"/></g><path id="path3307" class="cls-57" d="M292.08,110.4a16.89,16.89,0,1,1-16.89-16.88A16.89,16.89,0,0,1,292.08,110.4Z"/><g class="cls-2"><path class="cls-3" d="M273.77,119.47v-8.24h-8.18v-3.45h8.18V99.6h3.49v8.18h8.18v3.45h-8.18v8.24Z"/></g><path id="path3317" class="cls-58" d="M264.24,96.48A16.88,16.88,0,1,1,247.36,79.6,16.89,16.89,0,0,1,264.24,96.48Z"/><g class="cls-2"><path class="cls-3" d="M245.94,105.55V97.31h-8.19V93.86h8.19V85.68h3.48v8.18h8.19v3.45h-8.19v8.24Z"/></g><path id="path3327" class="cls-59" d="M150.58,105.76A16.89,16.89,0,1,1,133.7,88.88,16.89,16.89,0,0,1,150.58,105.76Z"/><g class="cls-2"><path class="cls-3" d="M132.27,114.83v-8.24h-8.18v-3.45h8.18V95h3.49v8.18h8.18v3.45h-8.18v8.24Z"/></g><path id="path3337" class="cls-60" d="M229.45,71a16.89,16.89,0,1,1-16.89-16.88A16.89,16.89,0,0,1,229.45,71Z"/><g class="cls-2"><path class="cls-3" d="M211.14,80V71.79H203V68.35h8.18V60.16h3.49v8.19h8.18v3.44h-8.18V80Z"/></g><path id="path3347" class="cls-61" d="M120.42,84.89A16.88,16.88,0,1,1,103.54,68,16.88,16.88,0,0,1,120.42,84.89Z"/><g class="cls-2"><path class="cls-3" d="M102.12,94V85.71H93.94V82.27h8.18V74.08h3.49v8.19h8.18v3.44h-8.18V94Z"/></g><path id="path3357" class="cls-62" d="M190,66.33a16.88,16.88,0,1,1-16.88-16.88A16.88,16.88,0,0,1,190,66.33Z"/><g class="cls-2"><path class="cls-3" d="M171.71,75.4V67.15h-8.18V63.71h8.18V55.53h3.48v8.18h8.19v3.44h-8.19V75.4Z"/></g><path id="path3367" class="cls-63" d="M155.22,68.65a16.89,16.89,0,1,1-16.88-16.88A16.88,16.88,0,0,1,155.22,68.65Z"/><g class="cls-2"><path class="cls-3" d="M136.91,77.72V69.47h-8.18V66h8.18V57.85h3.49V66h8.18v3.44H140.4v8.25Z"/></g><path id="path3377" class="cls-64" d="M241,117.36a16.88,16.88,0,1,1-16.88-16.88A16.87,16.87,0,0,1,241,117.36Z"/><g class="cls-2"><path class="cls-3" d="M222.74,126.43v-8.24h-8.18v-3.45h8.18v-8.18h3.49v8.18h8.18v3.45h-8.18v8.24Z"/></g><path id="path3387" class="cls-65" d="M208.57,98.8a16.89,16.89,0,1,1-16.88-16.88A16.89,16.89,0,0,1,208.57,98.8Z"/><g class="cls-2"><path class="cls-3" d="M190.27,107.87V99.63h-8.19V96.18h8.19V88h3.48v8.18h8.18v3.45h-8.18v8.24Z"/></g><path id="path3397" class="cls-66" d="M92.59,105.76A16.89,16.89,0,1,1,75.71,88.88,16.89,16.89,0,0,1,92.59,105.76Z"/><g class="cls-2"><path class="cls-3" d="M74.28,114.83v-8.24H66.1v-3.45h8.18V95h3.49v8.18H86v3.45H77.77v8.24Z"/></g><path id="path3487" class="cls-67" d="M186.12,126a16.88,16.88,0,1,1-16.88-16.89A16.88,16.88,0,0,1,186.12,126Z"/><g class="cls-2"><path class="cls-3" d="M167.82,135.07v-8.25h-8.18v-3.44h8.18v-8.19h3.49v8.19h8.18v3.44h-8.18v8.25Z"/></g><path id="path3497" class="cls-68" d="M121.17,123.68a16.88,16.88,0,1,1-16.88-16.89A16.88,16.88,0,0,1,121.17,123.68Z"/><g class="cls-2"><path class="cls-3" d="M102.87,132.75V124.5H94.69v-3.44h8.18v-8.19h3.49v8.19h8.18v3.44h-8.18v8.25Z"/></g><path id="path3569" class="cls-69" d="M95,306.93a16.24,16.24,0,1,1-32.47,0h0a16.24,16.24,0,1,1,32.47,0Z"/><g class="cls-2"><path d="M72.7,308.77v-3.71H84v3.71Z"/></g><path id="path4052" class="cls-70" d="M302.89,285.16a16.24,16.24,0,0,1-32.48,0h0a16.24,16.24,0,0,1,32.48,0Z"/><g class="cls-2"><path d="M280.57,287v-3.71h11.34V287Z"/></g><path id="path4062" class="cls-71" d="M128.92,289.79a16.24,16.24,0,1,1-32.48,0h0a16.24,16.24,0,0,1,32.48,0Z"/><g class="cls-2"><path d="M106.6,291.63v-3.71h11.34v3.71Z"/></g><path id="path4072" class="cls-72" d="M70.93,278.2a16.24,16.24,0,0,1-32.48,0h0a16.24,16.24,0,0,1,32.48,0Z"/><g class="cls-2"><path d="M48.61,280v-3.71H60V280Z"/></g><path id="path4082" class="cls-73" d="M263.46,282.84a16.24,16.24,0,0,1-32.48,0h0a16.24,16.24,0,1,1,32.48,0Z"/><g class="cls-2"><path d="M241.14,284.67V281h11.34v3.71Z"/></g><path id="path4092" class="cls-74" d="M226.34,299.07a16.24,16.24,0,1,1-32.47,0h0a16.24,16.24,0,0,1,32.47,0Z"/><g class="cls-2"><path d="M204,300.91V297.2h11.34v3.71Z"/></g><path id="path4102" class="cls-75" d="M275.05,315.31a16.24,16.24,0,1,1-32.47,0h0a16.24,16.24,0,1,1,32.47,0Z"/><g class="cls-2"><path d="M252.74,317.15v-3.71h11.34v3.71Z"/></g><path id="path4172" class="cls-76" d="M240.26,329.23a16.24,16.24,0,1,1-32.48,0h0a16.24,16.24,0,1,1,32.48,0Z"/><g class="cls-2"><path d="M217.94,331.07v-3.72h11.34v3.72Z"/></g><path id="path4182" class="cls-77" d="M196.19,310.67a16.24,16.24,0,0,1-32.48,0h0a16.24,16.24,0,0,1,32.48,0Z"/><g class="cls-2"><path d="M173.87,312.51V308.8h11.34v3.71Z"/></g><path id="path4192" class="cls-78" d="M198.51,345.47a16.24,16.24,0,0,1-32.48,0h0a16.24,16.24,0,0,1,32.48,0Z"/><g class="cls-2"><path d="M176.19,347.3v-3.71h11.34v3.71Z"/></g><path id="path4232" class="cls-79" d="M159.07,308.35a16.24,16.24,0,1,1-32.47,0h0a16.24,16.24,0,1,1,32.47,0Z"/><g class="cls-2"><path d="M136.75,310.19v-3.71H148.1v3.71Z"/></g><path id="path4242" class="cls-80" d="M128.92,326.91a16.24,16.24,0,1,1-32.48,0h0a16.24,16.24,0,1,1,32.48,0Z"/><g class="cls-2"><path d="M106.6,328.75V325h11.34v3.72Z"/></g><path id="path4262" class="cls-81" d="M161.39,343.15a16.24,16.24,0,0,1-32.47,0h0a16.24,16.24,0,1,1,32.47,0Z"/><g class="cls-2"><path d="M139.07,345v-3.71h11.34V345Z"/></g><path id="path2816" class="cls-29" d="M336.65,205.55a163,163,0,0,1-326,0v0a163,163,0,0,1,326-.05Z"/><path id="path2930" class="cls-82" d="M.81,41.72H330.06"/><path id="path2932" class="cls-82" d="M687.33,41.72h329.24"/><path id="path2934" class="cls-82" d="M343.62,41.72H672.86"/><path id="path2936" class="cls-83" d="M687.33,370.08h329.24"/><path id="path2938" class="cls-83" d="M343.62,370.08H672.86"/><path id="path2940" class="cls-83" d="M.81,370.08H330.06"/><g class="cls-2"><path d="M165.69,405.14v-8.25h-8.18v-3.44h8.18v-8.18h3.49v8.18h8.18v3.44h-8.18v8.25Z"/></g><g class="cls-2"><path d="M503.34,401v-3.72h11.34V401Z"/></g><g class="cls-2"><path d="M845.59,405.14v-8.25H837.4v-3.44h8.19v-8.18h3.48v8.18h8.19v3.44h-8.19v8.25Z"/></g><g class="cls-2"><path d="M510.17,27.62V19.38H502V15.93h8.19V7.75h3.48v8.18h8.19v3.45h-8.19v8.24Z"/></g><g class="cls-2"><path d="M166.27,23.46V19.74h11.34v3.72Z"/></g><g class="cls-2"><path d="M846.17,23.46V19.74h11.34v3.72Z"/></g></svg>