<svg xmlns="http://www.w3.org/2000/svg" xmlns:xlink="http://www.w3.org/1999/xlink" viewBox="0 0 38.65 76.98"><defs><style>.cls-1{fill:none;}.cls-2{fill:#f5f5f5;}.cls-3{fill:#fff;}.cls-4{fill:#b9b9b9;}.cls-5{fill:#dfdfdf;}.cls-6{clip-path:url(#clip-path);}.cls-7{fill:#1d1e1c;}</style><clipPath id="clip-path"><rect class="cls-1" x="2.63" y="9.28" width="33.45" height="62.35"/></clipPath></defs><title>screensize-mobile</title><g id="Layer_2" data-name="Layer 2"><g id="Layer_1-2" data-name="Layer 1"><rect class="cls-2" x="2.63" y="9.28" width="33.45" height="62.35"/><rect class="cls-3" x="2.63" y="9.28" width="33.45" height="62.35"/><rect class="cls-4" x="20.22" y="20.15" width="15.86" height="51.48"/><rect class="cls-5" x="2.63" y="9.28" width="33.45" height="12.65"/><g class="cls-6"><path d="M29,31.38l0-.15.09-.13.06-.06.08-.09.07-.07.09-.1.09-.1.09-.08.07-.05.25-.08H30a.35.35,0,0,1,.25.21h0l0,.06v.06l.08-.09.07-.08,0-.05h0l.18-.13.12,0h.09l.13.07.1.12,0,.17h0v.16l0,.06h0l.13,0,.11.08.06.12,0,.12a.36.36,0,0,1-.14.28l0,0-.15.12L31,31.9a.73.73,0,0,1-.38.11h0l-.16,0-.11,0-.09-.08-.08.06-.08.06h0l-.14.09-.13.06-.12,0h-.23l-.16-.08L29.19,32l0-.08v-.18l-.06,0,0,0Z"/><path d="M30.72,31.38l0-.15.09-.13.06-.06.08-.09.07-.07.09-.1.09-.1.09-.08.07-.05.25-.08h.1a.35.35,0,0,1,.25.21h0l0,.06v.06l.08-.09.07-.08,0-.05h0l.18-.13.12,0h.09l.13.07.1.12,0,.17h0v.16l0,.06h0l.13,0,.11.08.06.12,0,.12a.36.36,0,0,1-.14.28l0,0-.15.12-.16.11a.73.73,0,0,1-.38.11h0l-.16,0-.11,0L32,31.87l-.08.06-.08.06h0l-.14.09-.13.06-.12,0h-.23L31,32.1,30.94,32l0-.08v-.18l-.06,0,0,0Z"/><path d="M32.47,31.38l0-.15.09-.13.06-.06.08-.09.07-.07.09-.1.09-.1.09-.08.07-.05.25-.08h.1a.35.35,0,0,1,.25.21h0l0,.06v.06l.08-.09.07-.08,0-.05h0l.18-.13.12,0h.09l.13.07.1.12,0,.17h0v.16l0,.06h0l.13,0,.11.08.06.12,0,.12a.36.36,0,0,1-.14.28l0,0-.15.12-.16.11a.73.73,0,0,1-.38.11h0l-.16,0-.11,0-.09-.08-.08.06-.08.06h0l-.14.09-.13.06-.12,0H33l-.16-.08L32.69,32l0-.08v-.18l-.06,0,0,0Z"/><path d="M34.22,31.38l0-.15.09-.13.06-.06.08-.09.07-.07.09-.1.09-.1.09-.08.07-.05.25-.08h.1a.35.35,0,0,1,.25.21h0l0,.06v.06l.08-.09.07-.08,0-.05h0l.18-.13.12,0h.09l.13.07.1.12,0,.17h0v.16l0,.06h0l.13,0,.11.08.06.12,0,.12a.36.36,0,0,1-.14.28l0,0-.15.12-.16.11a.73.73,0,0,1-.38.11h0l-.16,0-.11,0-.09-.08-.08.06-.08.06h0l-.14.09-.13.06-.12,0h-.23l-.16-.08L34.44,32l0-.08v-.18l-.06,0,0,0Z"/><path d="M29,35.31l0-.12.07-.1.11-.07,0,0,.08,0,.13-.1.19-.16.12-.11.1-.09.07-.06,0,0,.15-.08h.17a.3.3,0,0,1,.2.17l0,.1v0l0,.1h0v0l0,0,0,.06,0,.08,0,.09h0l.12,0h.12l.12,0,.09.09.05.12v.13l0,.12-.09.09-.15.1-.14.11-.15.11L30.2,36l-.1,0-.09,0-.13,0-.13,0L29.63,36l-.09-.11,0-.08V35.6l0,0h0l-.11,0-.19-.06L29,35.44l0-.11Z"/><path d="M30.29,35.31l0-.12.07-.1L30.5,35l.19-.09a2.94,2.94,0,0,0,.36-.26l.13-.11.1-.09.09-.08.22-.1h.09l.12.06.09.1,0,.16v0l0,.22,0,.06,0,.07h0l.17,0,.14.15,0,.13,0,.12-.07.11-.11.08-.2.09-.16.08-.11.06,0,0-.16,0-.21-.07L31,35.69V35.5h0a2,2,0,0,1-.33.16l-.12,0h0l-.12,0-.1-.08-.07-.11,0-.11Z"/><path d="M31.56,35.31l0-.12.07-.1.11-.07.19-.09a2.94,2.94,0,0,0,.36-.26l.13-.11.1-.09.09-.08.22-.1H33l.12.06.09.1,0,.16v0l0,.22,0,.06,0,.07h0l.17,0,.14.15,0,.13,0,.12-.07.11-.11.08-.2.09L33,35.8l-.11.06,0,0-.16,0-.21-.07-.11-.16V35.5h0a2,2,0,0,1-.33.16l-.12,0h0l-.12,0-.1-.08-.07-.11,0-.11Z"/><path d="M32.84,35.31l0-.12.07-.1.11-.07,0,0,.08,0,.13-.1.19-.16.12-.11.1-.09.07-.06,0,0,.15-.08h.17a.3.3,0,0,1,.2.17l0,.1v0l0,.1h0v0l0,0,0,.06,0,.08,0,.09h0l.12,0h.12l.12,0,.09.09.05.12v.13l0,.12-.09.09-.15.1-.14.11-.15.11L34,36l-.1,0-.09,0-.13,0-.13,0L33.47,36l-.09-.11,0-.08V35.6l0,0h0l-.11,0L33,35.6l-.12-.16,0-.11Z"/><path d="M34.12,35.33l0-.12.07-.11.11-.07.19-.1.24-.13.3-.18.31-.16a1.3,1.3,0,0,1,.33-.11l.2,0h0l.15,0a.36.36,0,0,1,.25.22l0,.15v.1l-.09.22h0l.1,0h0l.12,0,.1.07.07.11,0,.11v0l0,.12-.07.1-.11.07-.28.1-.23.08-.22.06-.15,0-.1,0-.14-.07-.09-.13,0-.13,0-.15.06-.13v0l0,0-.15.08-.15.08-.26.15-.23.11-.13,0h0l-.12,0-.11-.07-.07-.11Z"/><path d="M36.06,35.33l0-.12.07-.11.11-.07.19-.1.24-.13.3-.18.31-.16a1.3,1.3,0,0,1,.33-.11l.2,0h0l.15,0a.36.36,0,0,1,.25.22l0,.15v.1l-.09.22h0l.1,0h0l.12,0,.1.07.07.11,0,.11v0l0,.12-.07.1-.11.07-.28.1-.23.08-.22.06-.15,0-.1,0-.14-.07-.09-.13,0-.13,0-.15.06-.13v0l0,0-.15.08-.15.08-.26.15-.23.11-.13,0h0l-.12,0-.11-.07-.07-.11Z"/><path d="M29,39.27l0-.12.07-.11L29.2,39l.19-.1.24-.13.3-.18.31-.16a1.3,1.3,0,0,1,.33-.11l.2,0h0l.15,0a.36.36,0,0,1,.25.22l0,.15v.1l-.09.22h0l.1,0h0l.12,0,.1.07.07.11,0,.11v0l0,.12-.07.1-.11.07-.28.1-.23.08-.22.06-.15,0-.1,0-.14-.07-.09-.13,0-.13,0-.15.06-.13v0l0,0-.15.08-.15.08-.26.15-.23.11-.13,0h0l-.12,0-.11-.07L29,39.41Z"/><path d="M30.91,39.27l0-.15L31,39l.06-.06.08-.09.07-.07.09-.1.09-.1.09-.08.07-.05.25-.08h.1a.35.35,0,0,1,.25.21h0l0,.06v.06l.08-.09.07-.08,0-.05h0l.18-.13.12,0h.09l.13.07.1.12,0,.17h0v.16l0,.06h0l.13,0,.11.08.06.12,0,.12a.36.36,0,0,1-.14.28l0,0-.15.12-.16.11a.73.73,0,0,1-.38.11h0l-.16,0-.11,0-.09-.08-.08.06-.08.06h0l-.14.09-.13.06-.12,0H31.4L31.23,40l-.11-.14,0-.08v-.18l-.06,0,0,0Z"/><path d="M32.69,39.27l0-.12.07-.11.11-.07.19-.1.24-.13.3-.18.31-.16a1.3,1.3,0,0,1,.33-.11l.2,0h0l.15,0a.36.36,0,0,1,.25.22l0,.15v.1l-.09.22h0l.1,0h0l.12,0,.1.07.07.11,0,.11v0l0,.12-.07.1-.11.07-.28.1-.23.08-.22.06-.15,0-.1,0-.14-.07-.09-.13,0-.13,0-.15.06-.13v0l0,0-.15.08-.15.08-.26.15-.23.11-.13,0h0l-.12,0-.11-.07-.07-.11Z"/><path d="M34.63,39.27l0-.12.07-.11.11-.07.19-.1.24-.13.3-.18.31-.16a1.3,1.3,0,0,1,.33-.11l.2,0h0l.15,0a.36.36,0,0,1,.25.22l0,.15v.1l-.09.22h0l.1,0h0L37,39l.1.07.07.11,0,.11v0l0,.12-.07.1-.11.07-.28.1-.23.08-.22.06-.15,0-.1,0-.14-.07-.09-.13,0-.13,0-.15.06-.13v0l0,0-.15.08-.15.08-.26.15-.23.11-.13,0h0l-.12,0-.11-.07-.07-.11Z"/><path d="M29,43.22l0-.12.07-.11.11-.07.19-.1.24-.13.3-.18.31-.16a1.3,1.3,0,0,1,.33-.11l.2,0h0l.15,0a.36.36,0,0,1,.25.22l0,.15v.1l-.09.22h0l.1,0h0l.12,0,.1.07.07.11,0,.11v0l0,.12-.07.1-.11.07-.28.1-.23.08-.22.06-.15,0-.1,0-.14-.07-.09-.13,0-.13,0-.15.06-.13v0l0,0-.15.08-.15.08-.26.15-.23.11-.13,0h0l-.12,0-.11-.07L29,43.35Z"/><polygon points="30.94 43.2 30.97 43.08 31.05 42.98 31.13 42.91 31.21 42.82 31.38 42.66 31.55 42.52 31.66 42.44 31.75 42.38 31.99 42.33 32.09 42.34 32.25 42.43 32.35 42.58 32.37 42.71 32.35 42.85 32.33 42.89 32.32 42.92 32.49 43.11 32.51 43.22 32.51 43.24 32.48 43.36 32.41 43.47 32.29 43.53 32.1 43.6 31.96 43.65 31.9 43.68 31.85 43.69 31.79 43.71 31.7 43.72 31.62 43.71 31.48 43.64 31.39 43.53 31.27 43.55 31.19 43.54 31.02 43.44 30.95 43.33 30.94 43.23 30.94 43.2"/><path d="M31.85,43.21l0-.12.07-.1.11-.07,0,0,.08,0,.13-.1.19-.16.12-.11.1-.09.07-.06,0,0,.15-.08h.17a.3.3,0,0,1,.2.17l0,.1v0l0,.1h0v0l0,0,0,.06,0,.08,0,.09h0l.12,0h.12l.12,0,.09.09.05.12v.13l0,.12-.09.09-.15.1-.14.11-.15.11-.14.09-.1,0-.09,0-.13,0-.13,0-.12-.06-.09-.11,0-.08V43.5l0,0h0l-.11,0L32,43.49l-.12-.16,0-.11Z"/><path d="M34.73,43.21l0-.12.07-.1.11-.07.19-.09a2.94,2.94,0,0,0,.36-.26l.13-.11.1-.09.09-.08.22-.1h.09l.12.06.09.1,0,.16v0l0,.22,0,.06,0,.07h0l.17,0,.14.15,0,.13,0,.12-.07.11-.11.08-.2.09-.16.08-.11.06,0,0-.16,0-.21-.07-.11-.16V43.4h0a2,2,0,0,1-.33.16l-.12,0h0l-.12,0-.1-.08-.07-.11,0-.11Z"/><path d="M36,43.22l0-.12.07-.11.11-.07.19-.1.24-.13.3-.18.31-.16a1.3,1.3,0,0,1,.33-.11l.2,0h0l.15,0a.36.36,0,0,1,.25.22l0,.15v.1l-.09.22h0l.1,0h0l.12,0,.1.07.07.11,0,.11v0l0,.12-.07.1-.11.07-.28.1-.23.08-.22.06-.15,0-.1,0-.14-.07-.09-.13,0-.13,0-.15.06-.13v0l0,0-.15.08-.15.08-.26.15-.23.11-.13,0h0l-.12,0-.11-.07L36,43.35Z"/><path d="M29,47.16,29,47l.07-.1.11-.07.19-.09a2.94,2.94,0,0,0,.36-.26l.13-.11.1-.09.09-.08.22-.1h.09l.12.06.09.1,0,.16v0l0,.22,0,.06,0,.07h0l.17,0,.14.15,0,.13,0,.12-.07.11-.11.08-.2.09-.16.08-.11.06,0,0-.16,0-.21-.07-.11-.16v-.19h0a2,2,0,0,1-.33.16l-.12,0h0l-.12,0-.1-.08L29,47.29l0-.11Z"/><path d="M30.28,47.16l0-.12.07-.1.11-.07.19-.09a2.94,2.94,0,0,0,.36-.26l.13-.11.1-.09.09-.08.22-.1h.09l.12.06.09.1,0,.16v0l0,.22,0,.06,0,.07h0l.17,0,.14.15,0,.13,0,.12-.07.11-.11.08-.2.09-.16.08-.11.06,0,0-.16,0-.21-.07L31,47.54v-.19h0a2,2,0,0,1-.33.16l-.12,0h0l-.12,0-.1-.08-.07-.11,0-.11Z"/><polygon points="33.16 47.15 33.19 47.03 33.27 46.92 33.35 46.85 33.43 46.77 33.6 46.61 33.77 46.46 33.88 46.39 33.97 46.33 34.21 46.27 34.31 46.28 34.47 46.37 34.57 46.52 34.59 46.66 34.57 46.8 34.55 46.84 34.54 46.87 34.71 47.06 34.73 47.17 34.73 47.19 34.7 47.31 34.62 47.41 34.51 47.48 34.32 47.55 34.18 47.6 34.12 47.63 34.07 47.64 34.01 47.66 33.92 47.67 33.84 47.66 33.7 47.59 33.61 47.48 33.49 47.5 33.41 47.49 33.24 47.39 33.17 47.27 33.16 47.18 33.16 47.15"/><path d="M34.06,47.16l0-.12.07-.1.11-.07,0,0,.08,0,.13-.1.19-.16.12-.11.1-.09.07-.06,0,0,.15-.08h.17a.3.3,0,0,1,.2.17l0,.1v0l0,.1h0v0l0,0,0,.06,0,.08,0,.09h0l.12,0h.12l.12,0,.09.09.05.12v.13l0,.12-.09.09-.15.1-.14.11-.15.11-.14.09-.1,0-.09,0-.13,0-.13,0-.12-.06-.09-.11,0-.08v-.25l0,0h0l-.11,0-.19-.06-.12-.16,0-.11Z"/><path d="M35.34,47.17l0-.12.07-.11.11-.07.19-.1.24-.13.3-.18.31-.16a1.3,1.3,0,0,1,.33-.11l.2,0h0l.15,0a.36.36,0,0,1,.25.22l0,.15v.1l-.09.22h0l.1,0h0l.12,0,.1.07.07.11,0,.11v0l0,.12-.07.1-.11.07-.28.1-.23.08-.22.06-.15,0-.1,0-.14-.07-.09-.13,0-.13,0-.15.06-.13v0l0,0-.15.08-.15.08-.26.15-.23.11-.13,0h0l-.12,0-.11-.07-.07-.11Z"/><path d="M29,51.11,29,51l.07-.1.11-.07.19-.09a2.94,2.94,0,0,0,.36-.26l.13-.11.1-.09.09-.08.22-.1h.09l.12.06.09.1,0,.16v0l0,.22,0,.06,0,.07h0l.17,0,.14.15,0,.13,0,.12-.07.11-.11.08-.2.09-.16.08-.11.06,0,0-.16,0-.21-.07-.11-.16v-.19h0a2,2,0,0,1-.33.16l-.12,0h0l-.12,0-.1-.08L29,51.24l0-.11Z"/><polygon points="30.28 51.1 30.31 50.98 30.39 50.87 30.47 50.8 30.56 50.72 30.72 50.56 30.89 50.41 31 50.34 31.1 50.28 31.33 50.22 31.43 50.23 31.59 50.32 31.69 50.48 31.71 50.6 31.69 50.75 31.68 50.78 31.66 50.82 31.83 51.01 31.85 51.12 31.85 51.14 31.82 51.26 31.75 51.36 31.63 51.43 31.44 51.5 31.3 51.55 31.24 51.57 31.2 51.59 31.13 51.61 31.05 51.62 30.96 51.61 30.82 51.54 30.73 51.43 30.61 51.45 30.54 51.44 30.36 51.34 30.3 51.23 30.28 51.13 30.28 51.1"/><path d="M31.19,51.11l0-.12.07-.1.11-.07.19-.09a2.94,2.94,0,0,0,.36-.26l.13-.11.1-.09.09-.08.22-.1h.09l.12.06.09.1,0,.16v0l0,.22,0,.06,0,.07h0l.17,0,.14.15,0,.13,0,.12-.07.11-.11.08-.2.09-.16.08-.11.06,0,0-.16,0-.21-.07L32,51.48v-.19h0a2,2,0,0,1-.33.16l-.12,0h0l-.12,0-.1-.08-.07-.11,0-.11Z"/><path d="M34.06,51.11l0-.12.07-.1.11-.07.19-.09a2.94,2.94,0,0,0,.36-.26l.13-.11.1-.09.09-.08.22-.1h.09l.12.06.09.1,0,.16v0l0,.22,0,.06,0,.07h0l.17,0L36,51l0,.13,0,.12-.07.11-.11.08-.2.09-.16.08-.11.06,0,0-.16,0-.21-.07-.11-.16v-.19h0a2,2,0,0,1-.33.16l-.12,0h0l-.12,0-.1-.08-.07-.11,0-.11Z"/><path d="M35.34,51.11l0-.12.07-.1.11-.07.19-.09a2.94,2.94,0,0,0,.36-.26l.13-.11.1-.09.09-.08.22-.1h.09l.12.06.09.1,0,.16v0l0,.22,0,.06,0,.07h0l.17,0,.14.15,0,.13,0,.12-.07.11-.11.08-.2.09-.16.08-.11.06,0,0-.16,0-.21-.07-.11-.16v-.19h0a2,2,0,0,1-.33.16l-.12,0h0l-.12,0-.1-.08-.07-.11,0-.11Z"/><path d="M29,55.07l0-.12.07-.11.11-.07.19-.1.24-.13.3-.18.31-.16a1.3,1.3,0,0,1,.33-.11l.2,0h0l.15,0a.36.36,0,0,1,.25.22l0,.15v.1l-.09.22h0l.1,0h0l.12,0,.1.07.07.11,0,.11v0l0,.12-.07.1-.11.07-.28.1-.23.08-.22.06-.15,0-.1,0-.14-.07-.09-.13,0-.13,0-.15.06-.13v0l0,0L30.1,55l-.15.08-.26.15-.23.11-.13,0h0l-.12,0-.11-.07L29,55.2Z"/><path d="M30.94,55.05l0-.12.07-.1.11-.07,0,0,.08,0,.13-.1.19-.16.12-.11.1-.09.07-.06,0,0,.15-.08h.17a.3.3,0,0,1,.2.17l0,.1v0l0,.1h0v0l0,0,0,.06,0,.08,0,.09h0l.12,0h.12l.12,0,.09.09.05.12v.13l0,.12-.09.09-.15.1-.14.11-.15.11-.14.09-.1,0-.09,0-.13,0-.13,0-.12-.06-.09-.11,0-.08v-.25l0,0h0l-.11,0-.19-.06L31,55.18l0-.11Z"/><path d="M32.22,55.06l0-.12.07-.1.11-.07.19-.09A2.94,2.94,0,0,0,33,54.4l.13-.11.1-.09.09-.08.22-.1h.09l.12.06.09.1,0,.16v0l0,.22,0,.06,0,.07h0l.17,0,.14.15,0,.13,0,.12-.07.11-.11.08-.2.09-.16.08-.11.06,0,0-.16,0-.21-.07L33,55.43v-.19h0a2,2,0,0,1-.33.16l-.12,0h0l-.12,0-.1-.08-.07-.11,0-.11Z"/><path d="M35.1,55.07l0-.12.07-.11.11-.07.19-.1.24-.13.3-.18.31-.16a1.3,1.3,0,0,1,.33-.11l.2,0h0l.15,0a.36.36,0,0,1,.25.22l0,.15v.1l-.09.22h0l.1,0h0l.12,0,.1.07.07.11,0,.11v0l0,.12-.07.1-.11.07-.28.1-.23.08-.22.06-.15,0-.1,0-.14-.07-.09-.13,0-.13,0-.15.06-.13v0l0,0-.15.08L36,55.1l-.26.15-.23.11-.13,0h0l-.12,0-.11-.07-.07-.11Z"/><path d="M29,59l0-.15.09-.13.06-.06.08-.09.07-.07.09-.1.09-.1.09-.08.07-.05.25-.08H30a.35.35,0,0,1,.25.21h0l0,.06v.06l.08-.09.07-.08,0-.05h0l.18-.13.12,0h.09l.13.07.1.12,0,.17h0v.16l0,.06h0l.13,0,.11.08.06.12,0,.12a.36.36,0,0,1-.14.28l0,0-.15.12-.16.11a.73.73,0,0,1-.38.11h0l-.16,0-.11,0-.09-.08-.08.06-.08.06h0l-.14.09-.13.06-.12,0h-.23l-.16-.08-.11-.14,0-.08v-.18l-.06,0,0,0Z"/><path d="M30.72,59l0-.15.09-.13.06-.06.08-.09.07-.07.09-.1.09-.1.09-.08.07-.05.25-.08h.1a.35.35,0,0,1,.25.21h0l0,.06v.06l.08-.09.07-.08,0-.05h0l.18-.13.12,0h.09l.13.07.1.12,0,.17h0v.16l0,.06h0l.13,0,.11.08.06.12,0,.12a.36.36,0,0,1-.14.28l0,0-.15.12-.16.11a.73.73,0,0,1-.38.11h0l-.16,0-.11,0L32,59.51l-.08.06-.08.06h0l-.14.09-.13.06-.12,0h-.23L31,59.74l-.11-.14,0-.08v-.18l-.06,0,0,0Z"/><path d="M32.5,59l0-.12.07-.1.11-.07.19-.09a2.94,2.94,0,0,0,.36-.26l.13-.11.1-.09.09-.08.22-.1h.09L34,58l.09.1,0,.16v0l0,.22,0,.06,0,.07h0l.17,0,.14.15,0,.13,0,.12-.07.11-.11.08-.2.09-.16.08-.11.06,0,0-.16,0-.21-.07-.11-.16v-.19h0a2,2,0,0,1-.33.16l-.12,0h0l-.12,0-.1-.08-.07-.11,0-.11Z"/><polygon points="33.78 59 33.81 58.88 33.89 58.77 33.97 58.7 34.06 58.62 34.22 58.46 34.39 58.31 34.5 58.23 34.6 58.18 34.83 58.12 34.93 58.13 35.09 58.22 35.19 58.37 35.21 58.5 35.19 58.65 35.17 58.68 35.16 58.72 35.33 58.9 35.35 59.02 35.35 59.03 35.32 59.16 35.25 59.26 35.13 59.33 34.94 59.4 34.8 59.45 34.74 59.47 34.7 59.49 34.63 59.51 34.55 59.51 34.46 59.51 34.32 59.44 34.23 59.32 34.11 59.35 34.03 59.34 33.86 59.23 33.8 59.12 33.78 59.02 33.78 59"/><path d="M34.68,59l0-.12.07-.11.11-.07.19-.1.24-.13.3-.18.31-.16a1.3,1.3,0,0,1,.33-.11l.2,0h0l.15,0a.36.36,0,0,1,.25.22l0,.15v.1l-.09.22h0l.1,0h0l.12,0,.1.07.07.11,0,.11v0l0,.12-.07.1-.11.07-.28.1-.23.08-.22.06-.15,0-.1,0-.14-.07-.09-.13,0-.13,0-.15.06-.13v0l0,0-.15.08-.15.08-.26.15-.23.11-.13,0h0l-.12,0-.11-.07-.07-.11Z"/><path d="M29,63l0-.12.07-.1.11-.07,0,0,.08,0,.13-.1.19-.16.12-.11.1-.09.07-.06,0,0,.15-.08h.17a.3.3,0,0,1,.2.17l0,.1v0l0,.1h0v0l0,0,0,.06,0,.08,0,.09h0l.12,0h.12l.12,0,.09.09.05.12V63l0,.12-.09.09-.15.1-.14.11-.15.11-.14.09-.1,0-.09,0-.13,0-.13,0-.12-.06-.09-.11,0-.08v-.25l0,0h0l-.11,0-.19-.06L29,63.08,29,63Z"/><path d="M30.25,63l0-.15.09-.13.06-.06.08-.09.07-.07.09-.1.09-.1.09-.08.07-.05.25-.08h.1a.35.35,0,0,1,.25.21h0l0,.06v.06l.08-.09.07-.08,0-.05h0L32,62l.12,0h.09l.13.07.1.12,0,.17h0v.16l0,.06h0l.13,0,.11.08.06.12,0,.12a.36.36,0,0,1-.14.28l0,0-.15.12-.16.11a.73.73,0,0,1-.38.11h0l-.16,0-.11,0-.09-.08-.08.06-.08.06h0l-.14.09-.13.06-.12,0h-.23l-.16-.08-.11-.14,0-.08v-.18l-.06,0,0,0Z"/><path d="M32,63l0-.12.07-.1.11-.07.19-.09a2.94,2.94,0,0,0,.36-.26l.13-.11.1-.09.09-.08.22-.1h.09l.12.06.09.1,0,.16v0l0,.22,0,.06,0,.07h0l.17,0,.14.15L34,63l0,.12-.07.11-.11.08-.2.09-.16.08-.11.06,0,0-.16,0-.21-.07-.11-.16v-.19h0a2,2,0,0,1-.33.16l-.12,0h0l-.12,0-.1-.08-.07-.11L32,63Z"/><path d="M33.31,63l0-.12.07-.1.11-.07.19-.09a2.94,2.94,0,0,0,.36-.26l.13-.11.1-.09L34.4,62l.22-.1h.09l.12.06.09.1,0,.16v0l0,.22,0,.06,0,.07h0l.17,0,.14.15,0,.13,0,.12-.07.11-.11.08-.2.09-.16.08-.11.06,0,0-.16,0-.21-.07-.11-.16v-.19h0a2,2,0,0,1-.33.16l-.12,0h0l-.12,0-.1-.08-.07-.11,0-.11Z"/><path d="M34.56,63l0-.15.09-.13.06-.06.08-.09.07-.07.09-.1.09-.1.09-.08.07-.05.25-.08h.1a.35.35,0,0,1,.25.21h0l0,.06v.06L36,62.3l.07-.08,0-.05h0l.18-.13.12,0h.09l.13.07.1.12,0,.17h0v.16l0,.06h0l.13,0,.11.08.06.12L37,63a.36.36,0,0,1-.14.28l0,0-.15.12-.16.11a.73.73,0,0,1-.38.11h0l-.16,0-.11,0-.09-.08-.08.06-.08.06h0l-.14.09-.13.06-.12,0H35l-.16-.08-.11-.14,0-.08v-.18l-.06,0,0,0Z"/><path d="M29,66.92l0-.12.07-.11.11-.07.19-.1.24-.13.3-.18.31-.16a1.3,1.3,0,0,1,.33-.11l.2,0h0l.15,0a.36.36,0,0,1,.25.22l0,.15v.1l-.09.22h0l.1,0h0l.12,0,.1.07.07.11,0,.11v0l0,.12-.07.1-.11.07-.28.1-.23.08-.22.06-.15,0-.1,0-.14-.07-.09-.13,0-.13,0-.15.06-.13v0l0,0-.15.08-.15.08-.26.15-.23.11-.13,0h0l-.12,0-.11-.07L29,67Z"/><path d="M30.94,66.9l0-.12.07-.1.11-.07,0,0,.08,0,.13-.1.19-.16.12-.11.1-.09.07-.06,0,0,.15-.08h.17a.3.3,0,0,1,.2.17l0,.1v0l0,.1h0v0l0,0,0,.06,0,.08,0,.09h0l.12,0h.12l.12,0,.09.09.05.12V67l0,.12-.09.09-.15.1-.14.11-.15.11-.14.09-.1,0-.09,0-.13,0-.13,0-.12-.06-.09-.11,0-.08v-.25l0,0h0l-.11,0-.19-.06L31,67l0-.11Z"/><path d="M32.22,66.9l0-.12.07-.1.11-.07.19-.09a2.94,2.94,0,0,0,.36-.26l.13-.11.1-.09.09-.08.22-.1h.09l.12.06.09.1,0,.16v0l0,.22,0,.06,0,.07h0l.17,0,.14.15,0,.13,0,.12-.07.11-.11.08-.2.09-.16.08-.11.06,0,0-.16,0-.21-.07L33,67.28v-.19h0a2,2,0,0,1-.33.16l-.12,0h0l-.12,0-.1-.08L32.25,67l0-.11Z"/><path d="M35.1,66.9l0-.12.07-.1.11-.07.19-.09a2.94,2.94,0,0,0,.36-.26l.13-.11.1-.09.09-.08.22-.1h.09l.12.06.09.1,0,.16v0l0,.22,0,.06,0,.07h0l.17,0,.14.15,0,.13L37,67l-.07.11-.11.08-.2.09-.16.08-.11.06,0,0-.16,0L36,67.44l-.11-.16v-.19h0a2,2,0,0,1-.33.16l-.12,0h0l-.12,0-.1-.08L35.12,67l0-.11Z"/><path d="M29,70.86l0-.12.07-.11.11-.07.19-.1.24-.13.3-.18.31-.16a1.3,1.3,0,0,1,.33-.11l.2,0h0l.15,0a.36.36,0,0,1,.25.22l0,.15v.1l-.09.22h0l.1,0h0l.12,0,.1.07.07.11,0,.11v0l0,.12-.07.1-.11.07-.28.1-.23.08-.22.06-.15,0-.1,0-.14-.07-.09-.13,0-.13,0-.15.06-.13v0l0,0-.15.08-.15.08-.26.15-.23.11-.13,0h0l-.12,0-.11-.07L29,71Z"/><path d="M30.91,70.86l0-.15.09-.13.06-.06.08-.09.07-.07.09-.1.09-.1.09-.08.07-.05.25-.08h.1a.35.35,0,0,1,.25.21h0l0,.06v.06l.08-.09.07-.08,0-.05h0l.18-.13.12,0h.09L33,70l.1.12,0,.17h0v.16l0,.06h0l.13,0,.11.08.06.12,0,.12a.36.36,0,0,1-.14.28l0,0-.15.12-.16.11a.73.73,0,0,1-.38.11h0l-.16,0-.11,0-.09-.08-.08.06-.08.06h0l-.14.09-.13.06-.12,0H31.4l-.16-.08-.11-.14,0-.08v-.18l-.06,0,0,0Z"/><path d="M32.69,70.85l0-.12.07-.1.11-.07.19-.09a2.94,2.94,0,0,0,.36-.26l.13-.11.1-.09.09-.08.22-.1h.09l.12.06.09.1,0,.16v0l0,.22,0,.06,0,.07h0l.17,0,.14.15,0,.13,0,.12-.07.11-.11.08-.2.09-.16.08-.11.06,0,0-.16,0-.21-.07-.11-.16V71h0a2,2,0,0,1-.33.16l-.12,0h0l-.12,0-.1-.08L32.71,71l0-.11Z"/><path d="M35.57,70.85l0-.12.07-.1.11-.07.19-.09a2.94,2.94,0,0,0,.36-.26l.13-.11.1-.09.09-.08.22-.1H37l.12.06.09.1,0,.16v0l0,.22,0,.06,0,.07h0l.17,0,.14.15,0,.13,0,.12-.07.11-.11.08-.2.09-.16.08-.11.06,0,0-.16,0-.21-.07-.11-.16V71h0a2,2,0,0,1-.33.16l-.12,0h0l-.12,0-.1-.08L35.59,71l0-.11Z"/><path d="M0,32.13,0,32l.1-.14.15-.1.26-.13a4.27,4.27,0,0,0,.5-.36l.18-.15L1.38,31l.13-.12a.44.44,0,0,1,.31-.13l.13,0,.16.08.12.14.06.23v0a1.91,1.91,0,0,1-.05.31l0,.09,0,.09h0l.24.06a.47.47,0,0,1,.19.21l0,.18,0,.16-.09.15-.15.1-.28.13-.22.11-.15.08-.06,0L1.5,33a.43.43,0,0,1-.29-.1l-.15-.22,0-.14,0-.12h0a2.79,2.79,0,0,1-.45.23l-.16,0h0l-.17,0-.14-.1L0,32.31l0-.15Z"/><path d="M1.77,32.13l0-.17.1-.14.15-.1.05,0,.11-.07.18-.13.27-.22.17-.16L3,31l.09-.09,0,0,.2-.12.11,0,.12,0a.42.42,0,0,1,.28.23l0,.14v.07l0,.14h0v0l0,.07,0,.09,0,.11,0,.12h0l.17-.07h.17l.16.07.13.13.07.17v.17l-.07.16-.13.13L4,32.67l-.2.15L3.63,33l-.2.13-.14.07-.13,0-.18,0-.17,0-.17-.08L2.52,33l0-.12v-.35l-.06,0-.06,0-.16,0A.46.46,0,0,1,2,32.52a.44.44,0,0,1-.17-.22l0-.15Z"/><path d="M3.54,32.15l0-.17.09-.15.15-.1.26-.14.33-.18.42-.24A4.46,4.46,0,0,1,5.26,31a1.84,1.84,0,0,1,.45-.16,1.27,1.27,0,0,1,.27,0H6l.2,0a.49.49,0,0,1,.34.31l0,.2,0,.14a1.73,1.73,0,0,1-.12.31h.06l.14,0h0l.17,0,.14.1L7.1,32l0,.16v0l0,.17-.1.14-.16.09-.39.14-.32.11-.31.08-.21,0-.14,0-.2-.1-.12-.18,0-.18,0-.21L5.22,32l0,0,0,0-.21.12-.2.11-.36.21-.32.16L4,32.6H4l-.16,0-.15-.09-.1-.15Z"/><path d="M1.21,38.6l0-.21.13-.18.08-.09L1.58,38l.09-.1.13-.14.13-.13.13-.11.1-.07a.66.66,0,0,1,.35-.11l.14,0a.48.48,0,0,1,.35.3H3l0,.08,0,.08.11-.13.09-.11.06-.07v0h0a.61.61,0,0,1,.25-.18l.17,0h.12l.18.1.14.17.06.23v0l0,.14V38l0,.09h0l.18.05.15.11.09.16,0,.17a.49.49,0,0,1-.19.39l0,0-.2.17L4,39.33a1,1,0,0,1-.52.16h0l-.22,0-.15-.06L3,39.29l-.1.08-.11.08h0l-.2.12-.18.08-.16,0H1.89l-.23-.12-.15-.2,0-.12v-.11l0-.14L1.39,39l-.07-.07A.51.51,0,0,1,1.21,38.6Z"/><path d="M.22,45.06l0-.21.13-.18.08-.09.11-.13.09-.1.13-.14.13-.13L1.07,44l.1-.07a.66.66,0,0,1,.35-.11l.14,0a.48.48,0,0,1,.35.3H2l0,.08,0,.08.11-.13L2.25,44,2.32,44v0h0a.61.61,0,0,1,.25-.18l.17,0h.12l.18.1L3.2,44l.06.23v0l0,.14v.08l0,.09h0l.18.05.15.11.09.16,0,.17a.49.49,0,0,1-.19.39l0,0-.2.17L3,45.79a1,1,0,0,1-.52.16h0l-.22,0-.15-.06L2,45.75l-.1.08-.11.08h0l-.2.12-.18.08-.16,0H.89l-.23-.12-.15-.2,0-.12v-.11l0-.14-.09-.06-.07-.07A.51.51,0,0,1,.22,45.06Z"/><path d="M2.69,45l0-.17.11-.14.11-.09.12-.12.23-.22.23-.2L3.68,44l.13-.08a.74.74,0,0,1,.33-.08l.14,0,.22.12.14.21,0,.18,0,.2,0,0,0,.05a.47.47,0,0,1,.24.25l0,.16v0l0,.17-.1.14-.16.09-.26.1-.2.07-.09,0-.06,0-.1,0H3.62l-.19-.09-.13-.16-.16,0H3a.43.43,0,0,1-.24-.14l-.09-.16,0-.14Z"/><path d="M3.94,45l0-.17.1-.14.15-.1.26-.13a4.27,4.27,0,0,0,.5-.36L5.18,44l.14-.12.13-.12a.44.44,0,0,1,.31-.13l.13,0,.16.08.12.14.06.23v0a1.91,1.91,0,0,1-.05.31l0,.09,0,.09h0l.24.06a.47.47,0,0,1,.19.21l0,.18,0,.16-.09.15-.15.1-.28.13-.22.11-.15.08-.06,0-.22.06a.43.43,0,0,1-.29-.1L5,45.57l0-.14,0-.12H5a2.79,2.79,0,0,1-.45.23l-.16,0h0l-.17,0-.14-.1L4,45.22l0-.15Z"/><path d="M1.38,51.49l0-.17.1-.14.15-.1.05,0L1.84,51,2,50.86l.27-.22.17-.16.14-.13.09-.09,0,0,.2-.12.11,0,.12,0a.42.42,0,0,1,.28.23l0,.14v.07l0,.14h0v0l0,.07,0,.09,0,.11,0,.12h0l.17-.07h.17l.16.07.13.13.07.17v.17L4,51.77l-.13.13L3.65,52l-.2.15-.21.16-.2.13-.14.07-.13,0-.18,0-.17,0-.17-.08-.12-.15,0-.12v-.35l-.06,0-.06,0-.16,0a.46.46,0,0,1-.26-.08.44.44,0,0,1-.17-.22l0-.15Z"/><path d="M3.15,51.52l0-.17.09-.15.15-.1L3.69,51,4,50.78l.42-.24a4.46,4.46,0,0,1,.43-.22,1.84,1.84,0,0,1,.45-.16,1.27,1.27,0,0,1,.27,0h0l.2,0a.49.49,0,0,1,.34.31l0,.2,0,.14a1.73,1.73,0,0,1-.12.31h.06l.14,0h0l.17,0,.14.1.09.15,0,.16v0l0,.17-.1.14-.16.09L6,52.08l-.32.11-.31.08-.21,0-.14,0-.2-.1L4.75,52l0-.18,0-.21.08-.18,0,0,0,0-.21.12-.2.11-.36.21-.32.16-.18,0h0l-.16,0-.15-.09-.1-.15Z"/><path d="M5.55,15.34l0-.21L5.73,15l.08-.09.11-.13.09-.1.13-.14.13-.13.13-.11.1-.07a.66.66,0,0,1,.35-.11l.14,0a.48.48,0,0,1,.35.3h0l0,.08,0,.08.11-.13.09-.11.06-.07v0h0A.61.61,0,0,1,7.92,14l.17,0h.12l.18.1.14.17.06.23v0l0,.14v.08l0,.09h0l.18.05.15.11.09.16,0,.17a.49.49,0,0,1-.19.39l0,0-.2.17-.23.16a1,1,0,0,1-.52.16h0l-.22,0-.15-.06L7.31,16l-.1.08-.11.08h0l-.2.12-.18.08-.16,0H6.23L6,16.34l-.15-.2,0-.12v-.11l0-.14-.09-.06-.07-.07A.51.51,0,0,1,5.55,15.34Z"/><path d="M8,15.34l0-.21L8.15,15l.08-.09.11-.13.09-.1.13-.14.13-.13.13-.11.1-.07a.66.66,0,0,1,.35-.11l.14,0a.48.48,0,0,1,.35.3h0l0,.08,0,.08.11-.13L10,14.3l.06-.07v0h0a.61.61,0,0,1,.25-.18l.17,0h.12l.18.1.14.17.06.23v0l0,.14v.08l0,.09h0l.18.05.15.11.09.16,0,.17a.49.49,0,0,1-.19.39l0,0-.2.17-.23.16a1,1,0,0,1-.52.16h0l-.22,0-.15-.06L9.73,16l-.1.08-.11.08h0l-.2.12-.18.08-.16,0H8.65l-.23-.12-.15-.2,0-.12v-.11l0-.14-.09-.06-.07-.07A.51.51,0,0,1,8,15.34Z"/><path d="M10.44,15.34l0-.17.09-.15.15-.1.26-.14.33-.18.42-.24a4.46,4.46,0,0,1,.43-.22A1.84,1.84,0,0,1,12.6,14a1.27,1.27,0,0,1,.27,0h0l.2,0a.49.49,0,0,1,.34.31l0,.2,0,.14a1.73,1.73,0,0,1-.12.31h.06l.14,0h0l.17,0,.14.1.09.15,0,.16v0l0,.17-.1.14-.16.09-.39.14L13,16l-.31.08-.21,0-.14,0-.2-.1L12,15.81l0-.18,0-.21.08-.18,0,0,0,0-.21.12-.2.11-.36.21-.32.16-.18,0h0l-.16,0-.15-.09-.1-.15Z"/><path d="M13.08,15.34l0-.21.13-.18.08-.09.11-.13.09-.1.13-.14.13-.13.13-.11.1-.07a.66.66,0,0,1,.35-.11l.14,0a.48.48,0,0,1,.35.3h0l0,.08,0,.08.11-.13.09-.11.06-.07v0h0a.61.61,0,0,1,.25-.18l.17,0h.12l.18.1.14.17.06.23v0l0,.14v.08l0,.09h0l.18.05.15.11.09.16,0,.17a.49.49,0,0,1-.19.39l0,0-.2.17-.23.16a1,1,0,0,1-.52.16h0l-.22,0L15,16.13,14.84,16l-.1.08-.11.08h0l-.2.12-.18.08-.16,0h-.32l-.23-.12-.15-.2,0-.12v-.11l0-.14-.09-.06-.07-.07A.51.51,0,0,1,13.08,15.34Z"/><path d="M15.55,15.31l0-.17L15.7,15l.11-.09.12-.12.23-.22.23-.2.15-.11.13-.08A.74.74,0,0,1,17,14.1l.14,0,.22.12.14.21,0,.18,0,.2,0,0,0,.05a.47.47,0,0,1,.24.25l0,.16v0l0,.17-.1.14-.16.09-.26.1-.2.07-.09,0-.06,0-.1,0h-.23l-.19-.09-.13-.16-.16,0h-.1a.43.43,0,0,1-.24-.14l-.09-.16,0-.14Z"/><path d="M27,15.32l0-.17.1-.14.15-.1.05,0,.11-.07.18-.13.27-.22.17-.16.14-.13.09-.09,0,0,.2-.12.11,0,.12,0a.42.42,0,0,1,.28.23l0,.14v.07l0,.14h0v0l0,.07,0,.09,0,.11L29,15h0l.17-.07h.17l.16.07.13.13.07.17v.17l-.07.16-.13.13-.21.14-.2.15-.21.16-.2.13-.14.07-.13,0-.18,0-.17,0-.17-.08-.12-.15,0-.12v-.35l-.06,0-.06,0-.16,0a.46.46,0,0,1-.26-.08.44.44,0,0,1-.17-.22l0-.15Z"/><path d="M28.8,15.34l0-.17.09-.15.15-.1.26-.14.33-.18.42-.24a4.46,4.46,0,0,1,.43-.22A1.84,1.84,0,0,1,31,14a1.27,1.27,0,0,1,.27,0h0l.2,0a.49.49,0,0,1,.34.31l0,.2,0,.14a1.73,1.73,0,0,1-.12.31h.06l.14,0h0l.17,0,.14.1.09.15,0,.16v0l0,.17-.1.14-.16.09-.39.14-.32.11-.31.08-.21,0-.14,0-.2-.1-.12-.18,0-.18,0-.21.08-.18,0,0,0,0-.21.12-.2.11-.36.21-.32.16-.18,0h0l-.16,0-.15-.09-.1-.15Z"/><path d="M31.44,15.34l0-.21.13-.18.08-.09.11-.13.09-.1L32,14.5l.13-.13.13-.11.1-.07a.66.66,0,0,1,.35-.11l.14,0a.48.48,0,0,1,.35.3h0l0,.08,0,.08.11-.13.09-.11.06-.07v0h0a.61.61,0,0,1,.25-.18L34,14h.12l.18.1.14.17.06.23v0l0,.14v.08l0,.09h0l.18.05.15.11.09.16,0,.17a.49.49,0,0,1-.19.39l0,0-.2.17-.23.16a1,1,0,0,1-.52.16h0l-.22,0-.15-.06L33.2,16l-.1.08-.11.08h0l-.2.12-.18.08-.16,0h-.32l-.23-.12-.15-.2,0-.12v-.11l0-.14-.09-.06-.07-.07A.51.51,0,0,1,31.44,15.34Z"/><path d="M33.91,15.34l0-.17L34,15l.15-.1.26-.14.33-.18.42-.24a4.46,4.46,0,0,1,.43-.22,1.84,1.84,0,0,1,.45-.16,1.27,1.27,0,0,1,.27,0h0l.2,0a.49.49,0,0,1,.34.31l0,.2,0,.14a1.73,1.73,0,0,1-.12.31h.06l.14,0h0l.17,0,.14.1.09.15,0,.16v0l0,.17-.1.14-.16.09-.39.14-.32.11-.31.08-.21,0-.14,0-.2-.1-.12-.18,0-.18,0-.21.08-.18,0,0,0,0-.21.12-.2.11-.36.21-.32.16-.18,0h0l-.16,0-.15-.09-.1-.15Z"/></g><path class="cls-7" d="M2.3,14.85H1.68a.51.51,0,0,1-.51-.51V11.28a.51.51,0,0,1,.51-.51H2.3a.51.51,0,0,1,.51.51v3.06A.51.51,0,0,1,2.3,14.85Zm-.5-.62h.38V11.4H1.8Z"/><rect class="cls-7" x="1.17" y="18.11" width="1.21" height="3.07" rx="0.44" ry="0.44"/><rect class="cls-7" x="1.17" y="24.39" width="1.21" height="3.07" rx="0.44" ry="0.44"/><path class="cls-7" d="M32.48,77H7.14a5.47,5.47,0,0,1-5.46-5.46V6A5.47,5.47,0,0,1,7.14.57H32.48A5.47,5.47,0,0,1,37.94,6V71.51A5.47,5.47,0,0,1,32.48,77ZM7.14,1.19A4.84,4.84,0,0,0,2.3,6V71.51a4.84,4.84,0,0,0,4.84,4.84H32.48a4.84,4.84,0,0,0,4.84-4.84V6a4.84,4.84,0,0,0-4.84-4.84Z"/><rect class="cls-7" x="25.65" width="6.49" height="1.13" rx="0.49" ry="0.49"/><path class="cls-3" d="M32.48.88H7.14A5.15,5.15,0,0,0,2,6V71.51a5.15,5.15,0,0,0,5.15,5.15H32.48a5.15,5.15,0,0,0,5.15-5.15V6A5.15,5.15,0,0,0,32.48.88m2.74,65.31H4.39V11.47H35.22Z"/><path class="cls-7" d="M32.48,77H7.14a5.47,5.47,0,0,1-5.46-5.46V6A5.47,5.47,0,0,1,7.14.57H32.48A5.47,5.47,0,0,1,37.94,6V71.52A5.47,5.47,0,0,1,32.48,77ZM7.14,1.19A4.84,4.84,0,0,0,2.3,6V71.52a4.84,4.84,0,0,0,4.84,4.84H32.48a4.84,4.84,0,0,0,4.84-4.84V6a4.84,4.84,0,0,0-4.84-4.84Zm28.4,65.31H4.08V11.16H35.54ZM4.71,65.88h30.2V11.78H4.71Z"/><path class="cls-7" d="M19.8,74.68A3.74,3.74,0,1,1,22.94,73,3.72,3.72,0,0,1,19.8,74.68Zm0-6.86a3.12,3.12,0,1,0,1.7.51A3.11,3.11,0,0,0,19.81,67.82Z"/><path class="cls-7" d="M20.39,72.33H19.23a.82.82,0,0,1-.82-.82V70.35a.82.82,0,0,1,.82-.82h1.16a.82.82,0,0,1,.82.82v1.16A.82.82,0,0,1,20.39,72.33Zm-1.16-2.17a.19.19,0,0,0-.19.19v1.16a.19.19,0,0,0,.19.19h1.16a.19.19,0,0,0,.19-.19V70.35a.19.19,0,0,0-.19-.19Z"/><path class="cls-7" d="M19.81,5.41h-.06a1,1,0,0,1-.6-1.77,1,1,0,0,1,1.68.82,1,1,0,0,1-1,.95Zm0-1.4a.39.39,0,0,0-.29.64.38.38,0,0,0,.26.13.36.36,0,0,0,.28-.1.38.38,0,0,0,.13-.26A.38.38,0,0,0,19.81,4Z"/><path class="cls-7" d="M22.41,8.33h-5.2a1.1,1.1,0,0,1-1.1-1.1V7.14A1.1,1.1,0,0,1,17.21,6h5.2a1.1,1.1,0,0,1,1.1,1.1v.09A1.1,1.1,0,0,1,22.41,8.33Zm-5.2-1.66a.47.47,0,0,0-.47.47v.09a.47.47,0,0,0,.47.47h5.2a.47.47,0,0,0,.47-.47V7.14a.47.47,0,0,0-.47-.47Z"/></g></g></svg>