<svg xmlns="http://www.w3.org/2000/svg" viewBox="0 0 1017.39 410.85"><defs><style>.cls-1{fill:#ee3125;}.cls-2{fill:#60bb46;}.cls-3{fill:#3b3092;}.cls-4{fill:#fff;}</style></defs><title>tft-principle</title><g id="TFT"><rect class="cls-1" y="41.72" width="108" height="324"/><rect class="cls-2" x="108" y="41.72" width="108" height="324"/><rect class="cls-3" x="216" y="41.72" width="108" height="324"/><path class="cls-4" d="M42.1,195.88v27.61H34.38V157.1H52.59q12.22,0,18,4.68t5.84,14.08q0,13.17-13.35,17.8l18,29.83H72L56,195.88Zm0-6.63H52.68q8.18,0,12-3.24t3.82-9.74q0-6.59-3.89-9.49t-12.46-2.91h-10Z"/><path class="cls-4" d="M166.47,188.71H189V221a71.72,71.72,0,0,1-10.72,2.55,82.22,82.22,0,0,1-12.62.86q-15.07,0-23.48-9t-8.4-25.13A38,38,0,0,1,138,172.16a28.09,28.09,0,0,1,12-11.9,38.77,38.77,0,0,1,18.3-4.11,49.87,49.87,0,0,1,19.8,3.91l-3,6.81a44.18,44.18,0,0,0-17.31-3.82q-12.12,0-18.93,7.22t-6.81,20q0,13.44,6.56,20.39t19.27,6.95a57.23,57.23,0,0,0,13.49-1.59V195.61H166.47Z"/><path class="cls-4" d="M249,157.1h18.75q13.22,0,19.12,4t5.9,12.49a14.4,14.4,0,0,1-3.29,9.74c-2.19,2.56-5.4,4.22-9.6,5v.46Q295,191.29,295,204.6q0,8.91-6,13.9t-16.82,5H249Zm7.72,28.43h12.71q8.18,0,11.76-2.57t3.59-8.65q0-5.58-4-8.06t-12.71-2.47H256.72Zm0,6.54v24.84h13.85q8,0,12.1-3.11t4.06-9.74q0-6.18-4.15-9.08t-12.65-2.91Z"/><path class="cls-4" d="M42.1,195.88v27.61H34.38V157.1H52.59q12.22,0,18,4.68t5.84,14.08q0,13.17-13.35,17.8l18,29.83H72L56,195.88Zm0-6.63H52.68q8.18,0,12-3.24t3.82-9.74q0-6.59-3.89-9.49t-12.46-2.91h-10Z"/><path class="cls-4" d="M166.47,188.71H189V221a71.72,71.72,0,0,1-10.72,2.55,82.22,82.22,0,0,1-12.62.86q-15.07,0-23.48-9t-8.4-25.13A38,38,0,0,1,138,172.16a28.09,28.09,0,0,1,12-11.9,38.77,38.77,0,0,1,18.3-4.11,49.87,49.87,0,0,1,19.8,3.91l-3,6.81a44.18,44.18,0,0,0-17.31-3.82q-12.12,0-18.93,7.22t-6.81,20q0,13.44,6.56,20.39t19.27,6.95a57.23,57.23,0,0,0,13.49-1.59V195.61H166.47Z"/><path class="cls-4" d="M249,157.1h18.75q13.22,0,19.12,4t5.9,12.49a14.4,14.4,0,0,1-3.29,9.74c-2.19,2.56-5.4,4.22-9.6,5v.46Q295,191.29,295,204.6q0,8.91-6,13.9t-16.82,5H249Zm7.72,28.43h12.71q8.18,0,11.76-2.57t3.59-8.65q0-5.58-4-8.06t-12.71-2.47H256.72Zm0,6.54v24.84h13.85q8,0,12.1-3.11t4.06-9.74q0-6.18-4.15-9.08t-12.65-2.91Z"/><rect class="cls-1" x="692.46" y="41.72" width="108" height="324"/><rect class="cls-2" x="800.46" y="41.72" width="108" height="324"/><rect class="cls-3" x="908.46" y="41.72" width="108" height="324"/><path class="cls-4" d="M734.56,195.88v27.61h-7.72V157.1h18.21q12.21,0,18.05,4.68t5.84,14.08q0,13.17-13.35,17.8l18,29.83h-9.12l-16.08-27.61Zm0-6.63h10.58q8.18,0,12-3.24t3.81-9.74q0-6.59-3.88-9.49t-12.46-2.91h-10Z"/><path class="cls-4" d="M858.93,188.71H881.5V221a71.72,71.72,0,0,1-10.72,2.55,82.22,82.22,0,0,1-12.62.86q-15.07,0-23.48-9t-8.4-25.13a38,38,0,0,1,4.16-18.14,28.09,28.09,0,0,1,12-11.9,38.77,38.77,0,0,1,18.3-4.11,49.87,49.87,0,0,1,19.8,3.91l-3,6.81a44.18,44.18,0,0,0-17.31-3.82q-12.12,0-18.93,7.22t-6.81,20q0,13.44,6.56,20.39t19.27,6.95a57.23,57.23,0,0,0,13.49-1.59V195.61H858.93Z"/><path class="cls-4" d="M941.46,157.1h18.75q13.21,0,19.12,4t5.9,12.49a14.45,14.45,0,0,1-3.29,9.74c-2.19,2.56-5.4,4.22-9.6,5v.46q15.12,2.58,15.12,15.89,0,8.91-6,13.9t-16.82,5H941.46Zm7.72,28.43h12.71q8.18,0,11.76-2.57t3.59-8.65q0-5.58-4-8.06t-12.71-2.47H949.18Zm0,6.54v24.84H963q8,0,12.1-3.11t4.06-9.74q0-6.18-4.15-9.08t-12.65-2.91Z"/><path class="cls-4" d="M734.56,195.88v27.61h-7.72V157.1h18.21q12.21,0,18.05,4.68t5.84,14.08q0,13.17-13.35,17.8l18,29.83h-9.12l-16.08-27.61Zm0-6.63h10.58q8.18,0,12-3.24t3.81-9.74q0-6.59-3.88-9.49t-12.46-2.91h-10Z"/><path class="cls-4" d="M858.93,188.71H881.5V221a71.72,71.72,0,0,1-10.72,2.55,82.22,82.22,0,0,1-12.62.86q-15.07,0-23.48-9t-8.4-25.13a38,38,0,0,1,4.16-18.14,28.09,28.09,0,0,1,12-11.9,38.77,38.77,0,0,1,18.3-4.11,49.87,49.87,0,0,1,19.8,3.91l-3,6.81a44.18,44.18,0,0,0-17.31-3.82q-12.12,0-18.93,7.22t-6.81,20q0,13.44,6.56,20.39t19.27,6.95a57.23,57.23,0,0,0,13.49-1.59V195.61H858.93Z"/><path class="cls-4" d="M941.46,157.1h18.75q13.21,0,19.12,4t5.9,12.49a14.45,14.45,0,0,1-3.29,9.74c-2.19,2.56-5.4,4.22-9.6,5v.46q15.12,2.58,15.12,15.89,0,8.91-6,13.9t-16.82,5H941.46Zm7.72,28.43h12.71q8.18,0,11.76-2.57t3.59-8.65q0-5.58-4-8.06t-12.71-2.47H949.18Zm0,6.54v24.84H963q8,0,12.1-3.11t4.06-9.74q0-6.18-4.15-9.08t-12.65-2.91Z"/><rect class="cls-1" x="346.23" y="41.72" width="108" height="324"/><rect class="cls-2" x="454.23" y="41.72" width="108" height="324"/><rect class="cls-3" x="562.23" y="41.72" width="108" height="324"/><path class="cls-4" d="M388.33,195.88v27.61h-7.72V157.1h18.21q12.23,0,18.05,4.68t5.84,14.08q0,13.17-13.35,17.8l18,29.83h-9.13l-16.08-27.61Zm0-6.63h10.58q8.18,0,12-3.24t3.82-9.74q0-6.59-3.89-9.49t-12.46-2.91h-10Z"/><path class="cls-4" d="M512.7,188.71h22.57V221a71.72,71.72,0,0,1-10.72,2.55,82.22,82.22,0,0,1-12.62.86q-15.07,0-23.48-9t-8.4-25.13a38,38,0,0,1,4.16-18.14,28.09,28.09,0,0,1,12-11.9,38.77,38.77,0,0,1,18.3-4.11,49.87,49.87,0,0,1,19.8,3.91l-3,6.81a44.1,44.1,0,0,0-17.3-3.82q-12.12,0-18.93,7.22t-6.81,20q0,13.44,6.56,20.39t19.27,6.95a57.23,57.23,0,0,0,13.49-1.59V195.61H512.7Z"/><path class="cls-4" d="M595.23,157.1H614q13.21,0,19.12,4t5.9,12.49a14.4,14.4,0,0,1-3.29,9.74c-2.19,2.56-5.4,4.22-9.6,5v.46q15.12,2.58,15.12,15.89,0,8.91-6,13.9t-16.82,5H595.23ZM603,185.53h12.71q8.18,0,11.76-2.57t3.59-8.65q0-5.58-4-8.06t-12.72-2.47H603Zm0,6.54v24.84H616.8q8,0,12.1-3.11t4.06-9.74q0-6.18-4.15-9.08t-12.65-2.91Z"/><path class="cls-4" d="M388.33,195.88v27.61h-7.72V157.1h18.21q12.23,0,18.05,4.68t5.84,14.08q0,13.17-13.35,17.8l18,29.83h-9.13l-16.08-27.61Zm0-6.63h10.58q8.18,0,12-3.24t3.82-9.74q0-6.59-3.89-9.49t-12.46-2.91h-10Z"/><path class="cls-4" d="M512.7,188.71h22.57V221a71.72,71.72,0,0,1-10.72,2.55,82.22,82.22,0,0,1-12.62.86q-15.07,0-23.48-9t-8.4-25.13a38,38,0,0,1,4.16-18.14,28.09,28.09,0,0,1,12-11.9,38.77,38.77,0,0,1,18.3-4.11,49.87,49.87,0,0,1,19.8,3.91l-3,6.81a44.1,44.1,0,0,0-17.3-3.82q-12.12,0-18.93,7.22t-6.81,20q0,13.44,6.56,20.39t19.27,6.95a57.23,57.23,0,0,0,13.49-1.59V195.61H512.7Z"/><path class="cls-4" d="M595.23,157.1H614q13.21,0,19.12,4t5.9,12.49a14.4,14.4,0,0,1-3.29,9.74c-2.19,2.56-5.4,4.22-9.6,5v.46q15.12,2.58,15.12,15.89,0,8.91-6,13.9t-16.82,5H595.23ZM603,185.53h12.71q8.18,0,11.76-2.57t3.59-8.65q0-5.58-4-8.06t-12.72-2.47H603Zm0,6.54v24.84H616.8q8,0,12.1-3.11t4.06-9.74q0-6.18-4.15-9.08t-12.65-2.91Z"/></g></svg>