<svg xmlns="http://www.w3.org/2000/svg" viewBox="0 0 950 396"><defs><style>.cls-1,.cls-4{fill:none;}.cls-1{stroke:#000;opacity:0.2;}.cls-1,.cls-3,.cls-4{stroke-miterlimit:10;stroke-width:2px;}.cls-2{opacity:0.7;}.cls-3,.cls-5{fill:#005b72;}.cls-3,.cls-4{stroke:#005b72;}.cls-6{fill:#fff;}</style></defs><title>font-lines</title><g id="lines"><line class="cls-1" y1="290" x2="950" y2="290"/><line class="cls-1" y1="179" x2="950" y2="179"/><line class="cls-1" y1="171" x2="950" y2="171"/><line class="cls-1" y1="158" x2="950" y2="158"/><line class="cls-1" y1="206" x2="950" y2="206"/><line class="cls-1" y1="327" x2="950" y2="327"/><line class="cls-1" y1="333" x2="950" y2="333"/></g><g id="font"><path d="M268.24,247.4l-28.93-40.62h14.35l21.94,31.89,21.87-31.89h14.2L282.74,247.4,313.18,290H298.91L275.6,256.28,252.06,290H237.79Z"/><path d="M415.84,290H402.93V237.76H344.47V290H331.56V179h12.91v47.23h58.46V179h12.91Z"/><path d="M483.11,291.51a36,36,0,0,1-14.84-3A27.86,27.86,0,0,1,457,279.29h-.91a111.18,111.18,0,0,1,.91,13.82v34.24h-12.6V206.78h10.25l1.74,11.39H457a29.21,29.21,0,0,1,11.31-9.87,34.35,34.35,0,0,1,14.81-3q16.56,0,25.55,11.31t9,31.74q0,20.51-9.15,31.85T483.11,291.51ZM481.29,216q-12.77,0-18.45,7.06T457,245.5v2.81q0,17.54,5.85,25.09T481.59,281a19.52,19.52,0,0,0,16.9-8.73q6.11-8.73,6.11-24.07,0-15.57-6.11-23.88T481.29,216Z"/><path d="M552.28,290h-12.6V171.85h12.6Z"/></g><g id="caption"><g class="cls-2"><rect class="cls-3" x="587" y="206" width="7" height="84"/><path class="cls-4" d="M608.5,112V222.64c0,5.5-3.18,13.18-7.07,17.07L590.13,251"/><circle class="cls-5" cx="608.5" cy="112" r="20"/><path class="cls-6" d="M615.41,122.79,612.75,116h-8.59l-2.63,6.81H599l8.46-21.5h2.1l8.42,21.5ZM612,113.74l-2.49-6.64q-.48-1.26-1-3.09a28.75,28.75,0,0,1-.93,3.09L605,113.74Z"/></g><g class="cls-2"><rect class="cls-3" x="687" y="179" width="7" height="111"/><path class="cls-4" d="M708.5,112V222.64c0,5.5-3.18,13.18-7.07,17.07L690.13,251"/><circle class="cls-5" cx="708.5" cy="112" r="20"/><path class="cls-6" d="M711.15,103.29a7,7,0,0,0-5.57,2.35,9.46,9.46,0,0,0-2.05,6.44,9.71,9.71,0,0,0,2,6.5,7,7,0,0,0,5.62,2.29,19,19,0,0,0,5.11-.81v2.19a15.86,15.86,0,0,1-5.49.83,9.3,9.3,0,0,1-7.3-2.87c-1.72-1.91-2.57-4.63-2.57-8.16a12.8,12.8,0,0,1,1.24-5.8,8.85,8.85,0,0,1,3.57-3.84,10.8,10.8,0,0,1,5.5-1.34,13.27,13.27,0,0,1,5.89,1.23L716,104.43A11.36,11.36,0,0,0,711.15,103.29Z"/></g><g class="cls-2"><rect class="cls-3" x="737" y="171" width="7" height="119"/><path class="cls-4" d="M758.5,112V222.64c0,5.5-3.18,13.18-7.07,17.07L740.13,251"/><circle class="cls-5" cx="758.5" cy="112" r="20"/><path class="cls-6" d="M767.6,111.88q0,5.3-2.87,8.1c-1.92,1.87-4.69,2.81-8.29,2.81h-5.93V101.37h6.56c3.33,0,5.92.93,7.77,2.77S767.6,108.57,767.6,111.88ZM765,112q0-4.18-2.1-6.31c-1.41-1.42-3.49-2.12-6.25-2.12H753v17.11h3q4.46,0,6.7-2.19T765,112Z"/></g><g class="cls-2"><rect class="cls-3" x="787" y="171" width="7" height="8"/><path class="cls-4" d="M808.5,112v38.64c0,5.5-3.18,13.18-7.07,17.07L790.13,179"/><circle class="cls-5" cx="808.5" cy="112" r="20"/><path class="cls-6" d="M815,122.79H803.1V101.37H815v2.21h-9.45v6.9h8.88v2.2h-8.88v7.88H815Z"/></g><g class="cls-2"><rect class="cls-3" x="837" y="158" width="7" height="175"/><path class="cls-4" d="M858.5,112V222.64c0,5.5-3.18,13.18-7.07,17.07L840.13,251"/><circle class="cls-5" cx="858.5" cy="112" r="20"/><path class="cls-6" d="M856.19,122.79H853.7V101.37h11.94v2.21h-9.45v7.84h8.88v2.21h-8.88Z"/></g><g class="cls-2"><rect class="cls-3" x="887" y="158" width="7" height="13"/><rect class="cls-3" x="887" y="327" width="7" height="6"/><path class="cls-4" d="M908.5,112V304.06c0,5.5-3.18,13.18-7.07,17.07l-11.3,11.3"/><path class="cls-4" d="M908.5,112v28.64c0,5.5-3.18,13.18-7.07,17.07L890.13,169"/><circle class="cls-5" cx="908.5" cy="112" r="20"/><path class="cls-6" d="M909.94,111.57h7.28V122a22.77,22.77,0,0,1-3.45.82,25.87,25.87,0,0,1-4.08.28,9.86,9.86,0,0,1-7.57-2.89q-2.72-2.89-2.71-8.11a12.26,12.26,0,0,1,1.34-5.85,9.05,9.05,0,0,1,3.86-3.84,12.55,12.55,0,0,1,5.9-1.32,16.12,16.12,0,0,1,6.39,1.26l-1,2.19a14.24,14.24,0,0,0-5.58-1.23,8,8,0,0,0-6.11,2.33,9.06,9.06,0,0,0-2.19,6.46q0,4.33,2.11,6.58a8.19,8.19,0,0,0,6.22,2.24,18.49,18.49,0,0,0,4.35-.51v-6.6h-4.79Z"/></g><g class="cls-2"><rect class="cls-3" x="637" y="290" width="7" height="37"/><path class="cls-4" d="M658.5,112V285.64c0,5.5-3.18,13.18-7.07,17.07L640.13,314"/><circle class="cls-5" cx="658.5" cy="112" r="20"/><path class="cls-6" d="M651.72,101.37h6.06q4.26,0,6.16,1.28a4.5,4.5,0,0,1,1.91,4,4.65,4.65,0,0,1-1.07,3.14,5.09,5.09,0,0,1-3.09,1.6v.15q4.88.83,4.87,5.13a5.5,5.5,0,0,1-1.94,4.48,8.26,8.26,0,0,1-5.42,1.61h-7.48Zm2.49,9.17h4.11a6.61,6.61,0,0,0,3.79-.83,3.2,3.2,0,0,0,1.16-2.79,2.83,2.83,0,0,0-1.29-2.6,8.1,8.1,0,0,0-4.1-.79h-3.67Zm0,2.11v8h4.47a6.38,6.38,0,0,0,3.91-1,3.71,3.71,0,0,0,1.31-3.14,3.33,3.33,0,0,0-1.34-2.93,7.15,7.15,0,0,0-4.08-.94Z"/></g><g class="cls-2"><line class="cls-4" x1="40" y1="112" x2="40" y2="333"/><circle class="cls-5" cx="40" cy="112" r="20"/><path class="cls-6" d="M41.9,122.79H39.52V107.53c0-1.27,0-2.48.12-3.61-.2.21-.43.42-.69.65s-1.41,1.17-3.48,2.85l-1.29-1.67,5.67-4.38h2Z"/><circle class="cls-5" cx="40" cy="333" r="5"/></g><g class="cls-2"><line class="cls-4" x1="90" y1="112" x2="90" y2="327"/><circle class="cls-5" cx="90" cy="112" r="20"/><path class="cls-6" d="M97,122.79H82.89v-2.1L88.53,115a40.79,40.79,0,0,0,3.4-3.73,10,10,0,0,0,1.23-2.16,6.31,6.31,0,0,0,.41-2.27,3.61,3.61,0,0,0-1-2.72,4,4,0,0,0-2.89-1,7.35,7.35,0,0,0-2.53.43,10.29,10.29,0,0,0-2.65,1.6l-1.29-1.65a9.86,9.86,0,0,1,6.44-2.46,6.8,6.8,0,0,1,4.73,1.54,5.3,5.3,0,0,1,1.72,4.15,8,8,0,0,1-1.15,4,25.33,25.33,0,0,1-4.27,5L86,120.42v.11H97Z"/><circle class="cls-5" cx="90" cy="327" r="5"/></g><g class="cls-2"><line class="cls-4" x1="140" y1="112" x2="140" y2="290"/><circle class="cls-5" cx="140" cy="112" r="20"/><path class="cls-6" d="M146.16,106.41a4.88,4.88,0,0,1-1.15,3.36,5.73,5.73,0,0,1-3.26,1.74v.12a6.08,6.08,0,0,1,3.82,1.64,4.83,4.83,0,0,1,1.25,3.45,5.58,5.58,0,0,1-2.13,4.71,9.62,9.62,0,0,1-6,1.65,17.57,17.57,0,0,1-3.11-.25,10.58,10.58,0,0,1-2.75-.91v-2.31a14,14,0,0,0,5.95,1.41q5.55,0,5.55-4.35,0-3.9-6.12-3.9h-2.11v-2.1h2.14a6.43,6.43,0,0,0,4-1.1,3.65,3.65,0,0,0,1.46-3.07,3,3,0,0,0-1.08-2.46,4.39,4.39,0,0,0-2.92-.89,8.8,8.8,0,0,0-2.65.38,11.72,11.72,0,0,0-2.84,1.4l-1.23-1.64a10.19,10.19,0,0,1,3-1.63,10.86,10.86,0,0,1,3.62-.59,7.42,7.42,0,0,1,4.85,1.42A4.83,4.83,0,0,1,146.16,106.41Z"/><circle class="cls-5" cx="140" cy="290" r="5"/></g><g class="cls-2"><line class="cls-4" x1="190" y1="112" x2="190" y2="206"/><circle class="cls-5" cx="190" cy="112" r="20"/><path class="cls-6" d="M198,117.87H194.8v4.92h-2.33v-4.92H182.05v-2.13l10.17-14.48h2.58v14.4H198Zm-5.51-2.21v-7.12c0-1.4.05-3,.14-4.74h-.11a21.49,21.49,0,0,1-1.32,2.33l-6.7,9.53Z"/><circle class="cls-5" cx="190" cy="206" r="5"/></g><g class="cls-2"><line class="cls-4" x1="240" y1="112" x2="240" y2="179"/><circle class="cls-5" cx="240" cy="112" r="20"/><path class="cls-6" d="M239.58,109.71a7.93,7.93,0,0,1,5.33,1.67,5.77,5.77,0,0,1,1.94,4.6,6.64,6.64,0,0,1-2.12,5.21,8.46,8.46,0,0,1-5.84,1.89,10.65,10.65,0,0,1-5.52-1.16v-2.34a8.18,8.18,0,0,0,2.55,1,12.59,12.59,0,0,0,3,.38,6,6,0,0,0,4-1.22,4.36,4.36,0,0,0,1.43-3.51q0-4.49-5.5-4.49a22.47,22.47,0,0,0-3.72.43l-1.26-.81.81-10h10.65v2.24h-8.57l-.54,6.43A17.37,17.37,0,0,1,239.58,109.71Z"/><circle class="cls-5" cx="240" cy="179" r="5"/></g><g class="cls-2"><line class="cls-4" x1="290" y1="112" x2="290" y2="171"/><circle class="cls-5" cx="290" cy="112" r="20"/><path class="cls-6" d="M283.14,113.63c0-4.21.82-7.35,2.45-9.44s4.06-3.12,7.26-3.12a10,10,0,0,1,2.61.27v2.1a8.2,8.2,0,0,0-2.58-.37,6.5,6.5,0,0,0-5.26,2.15c-1.21,1.43-1.88,3.68-2,6.74h.17a5.62,5.62,0,0,1,5.1-2.52,6,6,0,0,1,4.55,1.75,6.56,6.56,0,0,1,1.66,4.73,7.3,7.3,0,0,1-1.82,5.25,6.48,6.48,0,0,1-4.93,1.91,6.3,6.3,0,0,1-5.27-2.5A11,11,0,0,1,283.14,113.63Zm7.19,7.39a4.08,4.08,0,0,0,3.23-1.31,5.58,5.58,0,0,0,1.15-3.79,4.89,4.89,0,0,0-1.07-3.34,4,4,0,0,0-3.19-1.22,5.28,5.28,0,0,0-2.42.55,4.39,4.39,0,0,0-1.75,1.49,3.39,3.39,0,0,0-.65,2,6.8,6.8,0,0,0,.58,2.81,4.88,4.88,0,0,0,1.67,2.06A4.1,4.1,0,0,0,290.33,121Z"/><circle class="cls-5" cx="290" cy="171" r="5"/></g><g class="cls-2"><line class="cls-4" x1="340" y1="112" x2="340" y2="158"/><circle class="cls-5" cx="340" cy="112" r="20"/><path class="cls-6" d="M335.6,122.79l8.88-19.18H332.8v-2.24h14.25v1.95l-8.76,19.47Z"/><circle class="cls-5" cx="340" cy="158" r="5"/></g></g></svg>