<svg xmlns="http://www.w3.org/2000/svg" viewBox="0 0 1200 400"><defs><style>.cls-1,.cls-4{fill:none;stroke-miterlimit:10;stroke-width:4px;}.cls-1{stroke:#000;opacity:0.2;}.cls-2{opacity:0.7;}.cls-3{fill:#005b72;}.cls-4{stroke:#005b72;}.cls-5{fill:#fff;}</style></defs><title>font-anatomy-02</title><g id="lines"><line class="cls-1" x1="3" y1="292" x2="1203" y2="292"/></g><g id="font"><path d="M38.55,290v-2.64l13.2-6.61V190.33l-13.2-6.59V181.1H79.8v2.64l-13.2,6.59v38.95h56.1V190.33l-13.2-6.59V181.1h41.25v2.64l-13.2,6.59v90.42l13.2,6.61V290H109.5v-2.64l13.2-6.61v-42.4H66.6v42.4l13.2,6.61V290Z"/><path d="M187.22,291.64a18.66,18.66,0,0,1-12.87-4.53q-5.11-4.55-5.12-12.62a19.08,19.08,0,0,1,6-14q6-5.94,20.22-9.24l15.67-3.63V235.54a12.51,12.51,0,0,0-4.54-9.65,15.08,15.08,0,0,0-10.31-4q-6.27,0-8.74,3.38a14.92,14.92,0,0,0-2.48,9v4.63l-.82.82h-8.58c-2.87,0-4.29-1.54-4.29-4.62q0-8.42,8.74-14a54,54,0,0,1,9.65-4.95,29.08,29.08,0,0,1,10.81-2,35.48,35.48,0,0,1,16.25,3.79q7.51,3.8,7.51,14.19v46.86q2.47,2.81,9.24,2.81h6.27l.5.33v.49a18.81,18.81,0,0,1-5.86,6.35,16.08,16.08,0,0,1-9.49,2.72q-9.9,0-12.87-9.89h-1a34.67,34.67,0,0,1-10.64,7.09A32.53,32.53,0,0,1,187.22,291.64Zm-5.12-20.45q0,10.23,12.38,10.23a43.6,43.6,0,0,0,16.66-3.8V253.2q-19.63,3.8-24.34,8.09A13.08,13.08,0,0,0,182.1,271.19Z"/><path d="M250.08,290v-2.64l10.4-5.28V232.91l-9.9-8.58v-1.16L271,214.1h1l1.48,12.2h.83q12-12.2,24.25-12.2a24.84,24.84,0,0,1,13.53,3.54,16.42,16.42,0,0,1,7.26,10.65h.5a60,60,0,0,1,12.95-10.73,26.13,26.13,0,0,1,13.28-3.46q9.24,0,15.26,4.86t6,14.44v48.68l10.39,5.28V290H342.48v-2.64l11.72-5.28V241.16q0-7.26-4.38-11.06a16.35,16.35,0,0,0-11.13-3.8q-12.22,0-18.81,7.26v48.52l11.38,5.28V290H295.62v-2.64l11.06-5.28V241.16q0-7.26-4.38-11.06a16.35,16.35,0,0,0-11.13-3.8,33.44,33.44,0,0,0-9.24,1.49,20.85,20.85,0,0,0-8.25,4.29v50l10.72,5.28V290Z"/><path d="M399.41,291.64V185.06l-9.91-8.58v-1.16l22.12-9.07h1v58.08h.66Q425.47,214.1,438,214.1a26,26,0,0,1,20.63,9.4q8.08,9.41,8.08,25.74,0,20.29-11.13,31.35t-27.47,11.05a61.43,61.43,0,0,1-12.63-1.23,86.93,86.93,0,0,1-11-3.05l-4.13,4.28Zm29.53-66.16a29.9,29.9,0,0,0-16.34,5V277a30.65,30.65,0,0,0,19.81,6.76q8.56,0,14.84-7.09T453.53,253q0-14.37-7.18-21A24.81,24.81,0,0,0,428.94,225.48Z"/><path d="M511.93,291.64q-9.74,0-15.92-4.86t-6.19-14.44V223.5l-10.39-5.12v-2.63H503v48.83q0,7.28,4.54,11.06t11.8,3.8a37.11,37.11,0,0,0,9.82-1.49,20.92,20.92,0,0,0,8.49-4.29V223.5L526,218.38v-2.63h24.91v66.82l11.72,4.79V290H537.67V279.6h-.82Q524.81,291.65,511.93,291.64Z"/><path d="M576,290v-2.64l10.4-5.28V232.91l-9.9-8.58v-1.16l20.46-9.07h1l1.48,14H600q5.61-9.24,10.07-11.63a18.07,18.07,0,0,1,8.58-2.39,14.69,14.69,0,0,1,5.94,1.48,19,19,0,0,1,3.38,2,3.29,3.29,0,0,1,1.57,2.64,7.26,7.26,0,0,1-.66,3l-3.3,8.08h-1.16l-6.27-2.47a11.11,11.11,0,0,0-3.54-1c-1.16-.11-2.29-.17-3.39-.17q-6.93,0-11.71,7.1v47.36l11.71,5.28V290Z"/><path d="M675.45,266.56a33.3,33.3,0,0,1-13.37-2.63Q656,266.24,656,272q0,8.25,11.71,8.25h19.8q23.43,0,23.43,20.95,0,10.56-10.39,19.48t-28.22,8.9q-15.67,0-22.52-5.69T642.94,310a18.59,18.59,0,0,1,3-10.56l11.39-7.59v-.66q-12.87-2.47-12.87-13.53a14.31,14.31,0,0,1,4.29-10.56l8.91-4.62v-1q-11.57-7.59-11.55-21.12a24.12,24.12,0,0,1,8.41-18.64q8.41-7.59,21-7.59a35.75,35.75,0,0,1,14.52,3l24.75-1.31v8.91l-15.35-1-.66.66a22.71,22.71,0,0,1,6.11,16,24.08,24.08,0,0,1-8.42,18.73Q688,266.56,675.45,266.56Zm-20.79,41.59a15.07,15.07,0,0,0,5.69,12A20.93,20.93,0,0,0,674.29,325q11.06,0,17.82-6.27t6.77-14.2q0-7.26-3.88-10.06t-13.94-2.81H662.58Q654.66,296.42,654.66,308.15ZM677.1,259.8a11.88,11.88,0,0,0,10.39-5.69,23.39,23.39,0,0,0,3.8-13.28q0-9.08-4.95-14.61a15.59,15.59,0,0,0-12.05-5.52,12.29,12.29,0,0,0-10.89,5.69,23.66,23.66,0,0,0-3.79,13.44,21,21,0,0,0,4.95,14.28A15.91,15.91,0,0,0,677.1,259.8Z"/><path d="M764.05,291.64q-16,0-25.24-9.73t-9.24-25.74q0-18.48,10.55-30.28t24.59-11.79q13,0,20.54,9.07t7.51,26.07l-.82.82H742.6a36.12,36.12,0,0,0,6.6,20.38q6.27,8.83,21.95,8.83,9.06,0,21.28-6.6h.5v1.65a34.56,34.56,0,0,1-11.31,12.21A30.43,30.43,0,0,1,764.05,291.64Zm-2-70.28q-16.67,0-19.14,21.11h37.29Q776.59,221.37,762.07,221.36Z"/><path d="M810.08,290v-2.64l10.4-5.28V223.5H807.61v-7.75h12.87v-6.61q0-4,2.56-11a65.93,65.93,0,0,1,7.5-14.44,48.27,48.27,0,0,1,12-12.37,26.31,26.31,0,0,1,15.75-5,10.93,10.93,0,0,1,3.14.49,26.58,26.58,0,0,1,2.8,1q4.95,2.15,4.95,4.62a7.26,7.26,0,0,1-.66,3l-3.3,8.09H864l-4.46-1.82a29.18,29.18,0,0,0-10.72-1.82q-9.08,0-12.13,5.7t-3.05,17.07v13.21h21.78v7.75H833.68v58.91l11.71,4.95V290Z"/><path d="M902.15,291.64q-16.17,0-26.23-11.05t-10.07-27.72q0-16.67,10.07-27.72t26.23-11.05q16.17,0,26.24,11.05t10.06,27.72q0,16.67-10.06,27.72T902.15,291.64Zm2.31-7.09q10.06,0,14.61-8.83a42.17,42.17,0,0,0,4.53-19.55,53.77,53.77,0,0,0-5.44-24.09q-5.45-11.06-18-11.05-10.23,0-14.85,8.82a41.56,41.56,0,0,0-4.62,19.56,52.32,52.32,0,0,0,5.61,24.17Q891.92,284.54,904.46,284.55Z"/><path d="M954.62,290v-2.64l10.4-5.28V232.91l-9.9-8.58v-1.16l20.46-9.07h1l1.48,12.2h.83q12.21-12.2,25.08-12.2,9.74,0,15.92,4.86t6.19,14.44v48.68l10.39,5.28V290h-35.31v-2.64l11.72-5.28V241.16q0-7.26-4.54-11.06t-11.8-3.8a37.11,37.11,0,0,0-9.82,1.49,20.92,20.92,0,0,0-8.49,4.29v50l11.71,5.28V290Z"/><path d="M1077.05,291.64a19.32,19.32,0,0,1-12.54-4.28q-5.28-4.29-5.28-12.05V223.5H1045.7v-1l14-6.76,11.72-18.15h1v18.15h21.78v7.75h-21.78v49a6.6,6.6,0,0,0,3.79,6.28,19,19,0,0,0,8.91,2,43.72,43.72,0,0,0,10.56-1.15h.5v1.65q-1.65,3.79-6.52,7.1T1077.05,291.64Z"/><path d="M1136.28,291.64a59.6,59.6,0,0,1-13.36-1.31,50,50,0,0,1-11.39-4.29V267.55h2.31l5.28,9.08q5.12,9.08,16.67,9.08,14,0,14-11.72,0-7.1-5.11-10t-13.7-6.85q-8.41-3.8-13-8.33T1113.51,236q0-9.07,7.35-15.51t16.08-6.43a40.13,40.13,0,0,1,11.22,1.48,61.92,61.92,0,0,1,10.4,4.13v18h-2.31L1150.8,229q-5.11-8.43-13.2-8.42-12.37,0-12.37,10.56,0,5.61,4,8.5a78.25,78.25,0,0,0,11.8,6.52,120.61,120.61,0,0,1,13.61,7.42q6.51,4.12,6.52,15.68,0,11.06-8.42,16.74T1136.28,291.64Z"/></g><g id="caption"><g class="cls-2"><circle class="cls-3" cx="97" cy="235" r="20"/><circle class="cls-3" cx="163" cy="72" r="40"/><path class="cls-4" d="M97,234.5V158c0-11,6.36-26.36,14.14-34.14L163,72"/></g><path class="cls-5" d="M176.93,94H148.78V89.81l11.28-11.34A81.59,81.59,0,0,0,166.85,71a18.51,18.51,0,0,0,2.46-4.33,12.38,12.38,0,0,0,.82-4.55,7.19,7.19,0,0,0-2.08-5.43,8,8,0,0,0-5.77-2,14.61,14.61,0,0,0-5.05.88,20.1,20.1,0,0,0-5.32,3.2l-2.58-3.32a19.77,19.77,0,0,1,12.89-4.92q6,0,9.47,3.09A10.65,10.65,0,0,1,175.11,62,16.1,16.1,0,0,1,172.83,70q-2.28,4-8.56,10.07l-9.37,9.17v.24h22Z"/><g class="cls-2"><circle class="cls-3" cx="267" cy="288" r="20"/><circle class="cls-3" cx="292" cy="72" r="40"/><path class="cls-4" d="M267,287.5l12.5-11.75C286.38,269.29,292,255,292,244V72"/></g><path class="cls-5" d="M304.32,61.25A9.8,9.8,0,0,1,302,68a11.52,11.52,0,0,1-6.52,3.48v.24q5.16.64,7.65,3.28a9.64,9.64,0,0,1,2.49,6.91q0,6.12-4.25,9.42t-12.07,3.3a34.26,34.26,0,0,1-6.23-.52,21.28,21.28,0,0,1-5.49-1.8V87.64a28,28,0,0,0,11.9,2.82q11.1,0,11.1-8.71,0-7.78-12.25-7.79h-4.22V69.77h4.28a12.9,12.9,0,0,0,7.94-2.21,7.27,7.27,0,0,0,2.93-6.14,6.06,6.06,0,0,0-2.15-4.92,8.91,8.91,0,0,0-5.85-1.79,18.3,18.3,0,0,0-5.3.76,23.59,23.59,0,0,0-5.68,2.82L277.83,55a20.52,20.52,0,0,1,6.08-3.27,22.19,22.19,0,0,1,7.26-1.19q6.24,0,9.69,2.86A9.61,9.61,0,0,1,304.32,61.25Z"/><g class="cls-2"><circle class="cls-3" cx="690" cy="321" r="20"/><circle class="cls-3" cx="690" cy="72" r="40"/><line class="cls-4" x1="690" y1="320.5" x2="690" y2="71.5"/></g><path class="cls-5" d="M676.27,75.69q0-12.63,4.91-18.88t14.52-6.26a19.31,19.31,0,0,1,5.21.56V55.3a16.59,16.59,0,0,0-5.15-.73q-6.88,0-10.52,4.29t-4,13.49h.36q3.21-5,10.19-5,5.78,0,9.1,3.49t3.32,9.46q0,6.67-3.64,10.5a13,13,0,0,1-9.86,3.83,12.67,12.67,0,0,1-10.55-5Q676.27,84.6,676.27,75.69Zm14.39,14.77a8.14,8.14,0,0,0,6.46-2.63q2.29-2.62,2.3-7.57a9.75,9.75,0,0,0-2.14-6.68q-2.14-2.43-6.39-2.43a10.8,10.8,0,0,0-4.83,1.08,9,9,0,0,0-3.5,3,6.92,6.92,0,0,0-1.31,4,13.58,13.58,0,0,0,1.18,5.62,9.89,9.89,0,0,0,3.32,4.13A8.27,8.27,0,0,0,690.66,90.46Z"/><g class="cls-2"><circle class="cls-3" cx="889" cy="72" r="40"/><polyline class="cls-4" points="913.8 296.87 889 209 889 71.5"/></g><path class="cls-5" d="M880.2,94,898,55.65H874.6V51.17h28.51v3.89L885.59,94Z"/><g class="cls-2"><circle class="cls-3" cx="539" cy="216" r="20"/><circle class="cls-3" cx="539" cy="72" r="40"/><line class="cls-4" x1="539" y1="215.5" x2="539" y2="71.5"/></g><path class="cls-5" d="M538.17,67.84q6.76,0,10.64,3.35a11.52,11.52,0,0,1,3.89,9.19q0,6.65-4.24,10.43t-11.67,3.78q-7.24,0-11-2.32V87.58a16.87,16.87,0,0,0,5.1,2.07,25,25,0,0,0,6,.75c3.43,0,6.11-.81,8-2.44a8.73,8.73,0,0,0,2.86-7q0-9-11-9a43.26,43.26,0,0,0-7.44.85l-2.52-1.61,1.61-20h21.3v4.48H532.54l-1.08,12.86A34,34,0,0,1,538.17,67.84Z"/><g class="cls-2"><circle class="cls-3" cx="403" cy="170" r="20"/><circle class="cls-3" cx="403" cy="72" r="40"/><line class="cls-4" x1="403" y1="169.5" x2="403" y2="71.5"/></g><path class="cls-5" d="M419,84.16h-6.36V94h-4.65V84.16H387.11V79.91l20.33-29h5.15v28.8H419Zm-11-4.43V65.49c0-2.79.09-5.94.29-9.46H408a44,44,0,0,1-2.64,4.66L392,79.73Z"/><g class="cls-2"><circle class="cls-3" cx="59" cy="210" r="20"/><circle class="cls-3" cx="59" cy="72" r="40"/><line class="cls-4" x1="59" y1="209.5" x2="59" y2="71.5"/></g><path class="cls-5" d="M62.79,94H58.05V63.47c0-2.54.07-4.94.23-7.2-.41.41-.87.84-1.37,1.28s-2.84,2.36-7,5.72l-2.58-3.34,11.34-8.76h4.1Z"/></g></svg>