<svg id="Layer_1" data-name="Layer 1" xmlns="http://www.w3.org/2000/svg" viewBox="0 0 289.14 198"><defs><style>.cls-1{fill:#fff;}.cls-2{font-size:9px;font-family:OpenSans-Bold, Open Sans;font-weight:700;}.cls-2,.cls-6{fill:#20201e;}.cls-3{letter-spacing:0em;}.cls-4{letter-spacing:0em;}.cls-5{fill:none;stroke:#20201e;stroke-width:3px;}.cls-6{font-size:7px;font-family:OpenSans, Open Sans;}.cls-7{letter-spacing:0.01em;}</style></defs><title>category</title><rect class="cls-1" x="1.5" y="3.5" width="184.09" height="23"/><text class="cls-2" transform="translate(67.32 18.44)"><tspan class="cls-3">K</tspan><tspan class="cls-4" x="6.01" y="0">a</tspan><tspan class="cls-3" x="11.49" y="0">t</tspan><tspan class="cls-4" x="15.44" y="0">eg</tspan><tspan class="cls-3" x="25.93" y="0">ori</tspan><tspan class="cls-4" x="38.44" y="0">e </tspan><tspan x="46.19" y="0">A</tspan></text><rect class="cls-5" x="1.5" y="3.5" width="184.09" height="23"/><text class="cls-6" transform="translate(0 39.36)">www.test.ch/A/</text><rect class="cls-1" x="52.53" y="51.5" width="133.06" height="23"/><text class="cls-2" transform="translate(94.86 66.44)"><tspan class="cls-3">Th</tspan><tspan class="cls-7" x="11.2" y="0">em</tspan><tspan class="cls-3" x="25.44" y="0">a</tspan><tspan class="cls-4" x="30.92" y="0" xml:space="preserve"> A</tspan><tspan class="cls-3" x="39.55" y="0">.</tspan><tspan x="42.16" y="0">A</tspan></text><rect class="cls-5" x="52.53" y="51.5" width="133.06" height="23"/><text class="cls-6" transform="translate(51.03 87.36)">www.test.ch/A/A.html</text><rect class="cls-1" x="52.53" y="105.5" width="133.06" height="23"/><text class="cls-2" transform="translate(94.94 120.44)"><tspan class="cls-3">Th</tspan><tspan class="cls-7" x="11.2" y="0">em</tspan><tspan class="cls-3" x="25.44" y="0">a</tspan><tspan class="cls-4" x="30.92" y="0" xml:space="preserve"> A</tspan><tspan class="cls-3" x="39.55" y="0">.</tspan><tspan x="42.16" y="0">B</tspan></text><rect class="cls-5" x="52.53" y="105.5" width="133.06" height="23"/><text class="cls-6" transform="translate(51.03 141.36)">www.test.ch/A/B.html</text><rect class="cls-1" x="52.53" y="159.5" width="133.06" height="23"/><text class="cls-2" transform="translate(95.09 174.44)"><tspan class="cls-3">Th</tspan><tspan class="cls-7" x="11.2" y="0">em</tspan><tspan class="cls-3" x="25.44" y="0">a</tspan><tspan class="cls-4" x="30.92" y="0" xml:space="preserve"> A</tspan><tspan class="cls-3" x="39.55" y="0">.</tspan><tspan x="42.16" y="0">C</tspan></text><rect class="cls-5" x="52.53" y="159.5" width="133.06" height="23"/><text class="cls-6" transform="translate(51.03 195.36)">www.test.ch/A/C.html</text><polyline class="cls-5" points="35.52 46 35.52 62.5 51.03 62.5"/><polyline class="cls-5" points="35.52 58 35.52 116.5 51.03 116.5"/><polyline class="cls-5" points="35.52 112 35.52 170.5 51.03 170.5"/></svg>