<svg id="Layer_1" data-name="Layer 1" xmlns="http://www.w3.org/2000/svg" xmlns:xlink="http://www.w3.org/1999/xlink" viewBox="0 0 330 156.51"><defs><style>.cls-1,.cls-13,.cls-15{fill:none;}.cls-2{fill:#f5f5f5;}.cls-3{fill:#fff;}.cls-4{fill:#b8b8b8;}.cls-5{font-size:4.38px;}.cls-11,.cls-5{font-family:RedactedScript-Bold, Redacted Script;}.cls-11,.cls-14,.cls-5{font-weight:700;}.cls-6{letter-spacing:-0.14em;}.cls-7{letter-spacing:-0.35em;}.cls-8{letter-spacing:-0.35em;}.cls-9{letter-spacing:0em;}.cls-10{clip-path:url(#clip-path);}.cls-11{font-size:6.06px;}.cls-12{font-size:5.55px;font-family:RedactedScript, Redacted Script;}.cls-13{stroke:#232321;stroke-miterlimit:10;stroke-width:0.63px;}.cls-14{font-size:7px;font-family:OpenSans-Bold, Open Sans;}.cls-14,.cls-16{fill:#20201e;}.cls-15{stroke:#20201e;}</style><clipPath id="clip-path"><rect class="cls-1" x="27.32" y="14" width="172.37" height="112.11"/></clipPath></defs><title>navigation_compact</title><rect class="cls-2" x="5.43" y="8.38" width="216.14" height="121.54"/><rect class="cls-3" x="27.32" y="14" width="172.37" height="112.11"/><rect class="cls-4" x="84.89" y="14" width="114.8" height="112.11"/><text class="cls-5" transform="translate(97.01 30.97)">Acea di volor samus aut arcid quo volore </text><text class="cls-5" transform="translate(97.01 36.22)">voluptatur sitatur? Nequamusdae parum </text><text class="cls-5" transform="translate(97.01 41.47)">reprae. Itia volupta non providis nam fugi-</text><text class="cls-5" transform="translate(97.01 46.72)">tiu ntotatu rescim rat.</text><text class="cls-5" transform="translate(97.01 51.97)">Mo iusanihit exeria soluption nos ese por </text><text class="cls-5" transform="translate(97.01 57.23)">mil mo consed ex eosto dolupta quiderfe-</text><text class="cls-5" transform="translate(97.01 62.48)">rum quas que non eatium laborit dolores </text><text class="cls-5" transform="translate(97.01 67.73)">denitios ipsaperrore modi dolorum quia </text><text class="cls-5" transform="translate(97.01 72.98)">vellaborum rehent voluptur? Evellate eos </text><text class="cls-5" transform="translate(97.01 78.23)">sum lam alias ex etur?</text><text class="cls-5" transform="translate(97.01 83.48)">Tem nim facearitas erum estrupit vel-</text><text class="cls-5" transform="translate(97.01 88.74)">luptae nobit poreperro quae volorit lab </text><text class="cls-5" transform="translate(97.01 93.99)">ipiet vit, aut vendanditat.</text><text class="cls-5" transform="translate(97.01 99.24)">Icius, volorio et aut et of<tspan class="cls-6" x="52.33" y="0">ﬁ</tspan><tspan class="cls-7" x="52.94" y="0"> </tspan><tspan x="53.54" y="0">ciunt of</tspan><tspan class="cls-6" x="68.09" y="0">ﬁ</tspan><tspan class="cls-8" x="68.7" y="0"> </tspan><tspan class="cls-9" x="69.3" y="0">cimen-</tspan></text><text class="cls-5" transform="translate(97.01 104.49)">dem aniam quatur sitat alit velis quo qui </text><text class="cls-5" transform="translate(97.01 109.74)">aliquis delliciam re nes rehenda sus et </text><text class="cls-5" transform="translate(97.01 115)">antem. Ut poreici pictes volut aliae vo-</text><text class="cls-5" transform="translate(97.01 120.25)">lestius, sitiatur aut alit optae dolenih </text><text class="cls-5" transform="translate(97.01 125.5)">icitiuriore apitate nis que nam neturia </text><g class="cls-10"><text class="cls-5" transform="translate(97.01 130.75)">volore quatur am, explabo. Us, consequos </text><text class="cls-5" transform="translate(97.01 136)">nus aut reiur ad moluptassit fuga. Id ut </text><text class="cls-5" transform="translate(97.01 141.25)">ulla vel iur sum am, optibus ciderfe rum-</text><text class="cls-5" transform="translate(97.01 146.51)">que si voluptatus, simi, of<tspan class="cls-6" x="51.76" y="0">ﬁ</tspan><tspan class="cls-7" x="52.36" y="0"> </tspan><tspan x="52.97" y="0">cid ex et har-</tspan></text><text class="cls-5" transform="translate(97.01 151.76)">umque molores tinctore, sa porerum que </text><text class="cls-5" transform="translate(97.01 157.01)">eatur? Epel iniamus mo etur as asperum, </text></g><text class="cls-11" transform="translate(39.44 32.31)">volus </text><text class="cls-11" transform="translate(39.44 42.25)">aasdf asdf</text><text class="cls-12" transform="translate(45.5 50.32)">volor amus </text><text class="cls-12" transform="translate(45.5 57.06)">autarcid </text><text class="cls-12" transform="translate(45.5 63.79)">qusdsadfo </text><text class="cls-12" transform="translate(45.5 72.37)">oluptatur</text><text class="cls-11" transform="translate(39.44 80.96)">utarcid </text><text class="cls-11" transform="translate(39.44 90.89)">qusdsadfo </text><text class="cls-11" transform="translate(39.44 100.82)">oluptatur</text><rect class="cls-3" x="96.36" y="125.8" width="33.37" height="28.3"/><rect class="cls-13" x="96.36" y="125.8" width="33.37" height="28.3"/><rect class="cls-3" x="84.01" y="149.05" width="58.06" height="7.15"/><rect class="cls-13" x="84.01" y="149.05" width="58.06" height="7.15"/><path class="cls-3" d="M5.2,4.8H220.89a4.89,4.89,0,0,1,4.89,4.89v118.8a4.89,4.89,0,0,1-4.89,4.89H5.2a4.89,4.89,0,0,1-4.89-4.89V9.68A4.89,4.89,0,0,1,5.2,4.8m8,117.38H213V15.84H13.15Z"/><path class="cls-13" d="M5.2,4.8H220.88a4.89,4.89,0,0,1,4.89,4.89v118.8a4.89,4.89,0,0,1-4.89,4.89H5.2a4.89,4.89,0,0,1-4.89-4.89V9.68A4.89,4.89,0,0,1,5.2,4.8Zm8,117.38H213V15.84H13.15Z"/><text class="cls-14" transform="translate(255.9 31.36)">Navigation (Level 1)</text><text class="cls-14" transform="translate(255.9 50.37)">Navigation (Level 2)</text><text class="cls-14" transform="translate(255.9 97.36)">Inhalt</text><line class="cls-15" x1="252.79" y1="28.99" x2="58.64" y2="28.99"/><path class="cls-16" d="M58.64,33a4,4,0,1,0-4-4,4,4,0,0,0,4,4"/><line class="cls-15" x1="252.79" y1="52.96" x2="58.64" y2="52.96"/><path class="cls-16" d="M58.64,57a4,4,0,1,0-4-4,4,4,0,0,0,4,4"/><line class="cls-15" x1="252.79" y1="94.9" x2="189.61" y2="94.9"/><path class="cls-16" d="M189.61,98.9a4,4,0,1,0-4-4,4,4,0,0,0,4,4"/></svg>