<svg id="Layer_1" data-name="Layer 1" xmlns="http://www.w3.org/2000/svg" viewBox="0 0 289.14 301.25"><defs><style>.cls-1{fill:#fff;}.cls-2{font-size:9px;}.cls-2,.cls-6,.cls-7{fill:#20201e;}.cls-2,.cls-6{font-family:OpenSans-Bold, Open Sans;font-weight:700;}.cls-3{letter-spacing:0em;}.cls-4{letter-spacing:0em;}.cls-5{fill:none;stroke:#20201e;stroke-width:3px;}.cls-6,.cls-7{font-size:7px;}.cls-7{font-family:OpenSans, Open Sans;}.cls-8{letter-spacing:0.01em;}</style></defs><title>subcategory</title><rect class="cls-1" x="1.5" y="5.5" width="184.09" height="23"/><text class="cls-2" transform="translate(67.32 20.44)"><tspan class="cls-3">K</tspan><tspan class="cls-4" x="6.01" y="0">a</tspan><tspan class="cls-3" x="11.49" y="0">t</tspan><tspan class="cls-4" x="15.44" y="0">eg</tspan><tspan class="cls-3" x="25.93" y="0">ori</tspan><tspan class="cls-4" x="38.44" y="0">e </tspan><tspan x="46.19" y="0">A</tspan></text><rect class="cls-5" x="1.5" y="5.5" width="184.09" height="23"/><text class="cls-6" transform="translate(204.09 11.36)">Level 1 – Kategorie</text><text class="cls-6" transform="translate(204.09 167.36)">Level 2 – Unterkategorie</text><text class="cls-7" transform="translate(0 41.36)">www.test.ch/A/</text><rect class="cls-1" x="52.52" y="53.5" width="133.06" height="23"/><text class="cls-2" transform="translate(94.85 68.44)"><tspan class="cls-3">Th</tspan><tspan class="cls-8" x="11.2" y="0">em</tspan><tspan class="cls-3" x="25.44" y="0">a</tspan><tspan class="cls-4" x="30.92" y="0" xml:space="preserve"> A</tspan><tspan class="cls-3" x="39.55" y="0">.</tspan><tspan x="42.16" y="0">A</tspan></text><rect class="cls-5" x="52.52" y="53.5" width="133.06" height="23"/><text class="cls-7" transform="translate(51.02 89.36)">www.test.ch/A/A.html</text><rect class="cls-1" x="52.52" y="107.5" width="133.06" height="23"/><text class="cls-2" transform="translate(94.94 122.44)"><tspan class="cls-3">Th</tspan><tspan class="cls-8" x="11.2" y="0">em</tspan><tspan class="cls-3" x="25.44" y="0">a</tspan><tspan class="cls-4" x="30.92" y="0" xml:space="preserve"> A</tspan><tspan class="cls-3" x="39.55" y="0">.</tspan><tspan x="42.16" y="0">B</tspan></text><rect class="cls-5" x="52.52" y="107.5" width="133.06" height="23"/><text class="cls-7" transform="translate(51.02 143.36)">www.test.ch/A/B.html</text><rect class="cls-1" x="52.52" y="161.5" width="133.06" height="23"/><text class="cls-2" transform="translate(75.71 176.44)"><tspan class="cls-4">U</tspan><tspan class="cls-3" x="6.85" y="0">nt</tspan><tspan class="cls-4" x="16.74" y="0">e</tspan><tspan class="cls-3" x="22.1" y="0">rk</tspan><tspan class="cls-4" x="31.84" y="0">a</tspan><tspan class="cls-3" x="37.32" y="0">t</tspan><tspan class="cls-4" x="41.27" y="0">eg</tspan><tspan class="cls-3" x="51.76" y="0">ori</tspan><tspan class="cls-4" x="64.27" y="0">e A</tspan><tspan class="cls-3" x="78.27" y="0">.</tspan><tspan x="80.88" y="0">C</tspan></text><rect class="cls-5" x="52.52" y="161.5" width="133.06" height="23"/><text class="cls-7" transform="translate(51.02 197.36)">www.test.ch/A/C/</text><polyline class="cls-5" points="35.52 48 35.52 64.5 51.02 64.5"/><polyline class="cls-5" points="35.52 60 35.52 118.5 51.02 118.5"/><polyline class="cls-5" points="35.52 114 35.52 172.5 51.02 172.5"/><rect class="cls-1" x="103.55" y="209.5" width="82.04" height="23"/><text class="cls-2" transform="translate(116.17 224.44)"><tspan class="cls-3">Th</tspan><tspan class="cls-8" x="11.2" y="0">ema A</tspan><tspan class="cls-3" x="39.56" y="0">.C.</tspan><tspan x="50.54" y="0">A</tspan></text><rect class="cls-5" x="103.55" y="209.5" width="82.04" height="23"/><text class="cls-7" transform="translate(102.05 245.36)">www.test.ch/A/C/A.html</text><rect class="cls-1" x="103.55" y="263.5" width="82.04" height="23"/><text class="cls-2" transform="translate(116.25 278.44)"><tspan class="cls-3">Th</tspan><tspan class="cls-8" x="11.2" y="0">ema A</tspan><tspan class="cls-3" x="39.56" y="0">.C.</tspan><tspan x="50.54" y="0">B</tspan></text><rect class="cls-5" x="103.55" y="263.5" width="82.04" height="23"/><text class="cls-7" transform="translate(102.05 299.36)">www.test.ch/A/C/B.html</text><polyline class="cls-5" points="86.54 204 86.54 220.5 102.05 220.5"/><polyline class="cls-5" points="86.54 216 86.54 274.5 102.05 274.5"/></svg>