<svg xmlns="http://www.w3.org/2000/svg" viewBox="0 0 314.62 369"><title>Metapolator</title><g id="spot1"><path d="M162.56,15c0-4.6-.4-9.89-4.39-7.58s-4.34,8-4.39,12.65Zm-8.77,9.64c0,4.6.35,9.91,4.39,7.58,2.7-1.56,3.76-4.77,4.12-8l7.49-1.73a21.9,21.9,0,0,1-1.86,5.09c-2.3,4.48-6.16,7.11-9.75,9.18s-7.49,3.92-9.79,2.09c-2.57-2.07-2.57-7.21-2.57-11.94s0-9.86,2.57-14.9c2.3-4.48,6.16-7.11,9.79-9.21s7.44-3.89,9.75-2.07c2.61,2,2.61,7.18,2.61,11.91v2.29Z"/><path d="M116.93,41.63l10.76-6.21c0-2.92-.22-5.92-1.11-7.65-.75-1.34-2.48-1.26-4.25-.24a9.91,9.91,0,0,0-4.25,5.15,30.19,30.19,0,0,0-1.15,9m5.4,11.82a9.91,9.91,0,0,0,4.25-5.15,18.78,18.78,0,0,0,.8-3.61l6.56-1.5a21.91,21.91,0,0,1-1.86,5.09c-2.3,4.48-6.16,7.11-9.75,9.18s-7.49,3.92-9.79,2.09C110,57.48,110,52.35,110,47.62s0-9.86,2.57-14.9c2.3-4.48,6.16-7.11,9.79-9.21s7.44-3.89,9.75-2.07c2.61,2,2.61,7.18,2.61,11.91v2L116.93,45.59c0,2.92.22,5.92,1.15,7.62.75,1.34,2.48,1.26,4.25.24"/><path d="M80.12,63.14l12.76-7.37c0-3.18-.22-6.48-1.33-8.23-1-1.42-3-1.06-5,.12a11.68,11.68,0,0,0-5,5.71,30.17,30.17,0,0,0-1.33,9.76M86.5,74.75a11.81,11.81,0,0,0,5-5.76,18.83,18.83,0,0,0,.93-3.79l5.63-1.32A21.93,21.93,0,0,1,96.24,69c-2.3,4.48-6.16,7.11-9.75,9.18S79,82.07,76.71,80.25c-2.57-2.08-2.57-7.21-2.57-11.94s0-9.86,2.57-14.9c2.3-4.48,6.16-7.11,9.79-9.21s7.44-3.89,9.75-2.07c2.61,2,2.61,7.18,2.61,11.91v1.73L80.12,66.59c0,3.18.22,6.48,1.33,8.23,1,1.42,3,1.11,5-.07"/><path d="M43.26,84.72,58,76.2c0-3.46-.18-7-1.51-8.84-1.2-1.55-3.54-1-5.85.38a13.4,13.4,0,0,0-5.85,6.37c-1.37,3.38-1.55,7.15-1.55,10.6M50.65,96a13.5,13.5,0,0,0,5.85-6.37,20,20,0,0,0,1.06-4l4.7-1.08a21.9,21.9,0,0,1-1.86,5.09c-2.3,4.48-6.16,7.11-9.75,9.18s-7.49,3.91-9.79,2.09C38.3,98.87,38.3,93.74,38.3,89s0-9.86,2.57-14.9C43.17,69.63,47,67,50.65,64.9S58.1,61,60.4,62.83C63,64.88,63,70,63,74.74v1.42L43.26,87.57c0,3.46.18,7,1.55,8.81,1.15,1.57,3.54,1,5.85-.38"/><path d="M6.44,106.28c3.81-2.2,12.18-7.08,16.74-9.72,0-3.71-.18-7.57-1.77-9.4-1.37-1.65-4-.77-6.6.71a15.3,15.3,0,0,0-6.64,6.94c-1.55,3.64-1.73,7.76-1.73,11.47m8.37,11a15.06,15.06,0,0,0,6.6-6.91,18.3,18.3,0,0,0,1.24-4.22l3.77-.85a21.89,21.89,0,0,1-1.86,5.09c-2.3,4.48-6.16,7.11-9.75,9.18S7.33,123.46,5,121.64c-2.57-2.08-2.57-7.21-2.57-11.94s0-9.86,2.57-14.9c2.3-4.48,6.16-7.11,9.79-9.21s7.44-3.89,9.75-2.07c2.61,2,2.61,7.18,2.61,11.91V96.6l-20.73,12c0,3.71.18,7.57,1.73,9.42,1.42,1.62,4.08.75,6.64-.74"/><path d="M198.81,34.48c-.1-4.44-1-9-5.12-6.59s-5,7.89-5.12,12.5ZM188.58,45.32c.1,4.44,1,9,5.12,6.59,2.77-1.6,4.16-4.92,4.73-8.16l6.84-.93a24,24,0,0,1-1.82,4.56,24.06,24.06,0,0,1-9.75,9.47c-3.63,2.1-7.46,3.59-9.8,1.82-2.63-2-2.87-6.79-2.87-11.45s.24-9.74,2.87-14.77c2.34-4.53,6.17-7.46,9.8-9.55s7.41-3.56,9.75-1.74c2.68,2,2.87,6.79,2.87,11.45a21.71,21.71,0,0,1,0,2.47Z"/><path d="M152,61.74l11.76-6.79c0-2.61-.29-5.1-1.34-6.69-.91-1.34-2.68-1.25-4.54-.18a10.73,10.73,0,0,0-4.54,5.42A24.33,24.33,0,0,0,152,61.74m5.88,11.36a11,11,0,0,0,4.54-5.47,22,22,0,0,0,.86-3.24l6.17-.87a24.08,24.08,0,0,1-1.82,4.56,24.07,24.07,0,0,1-9.75,9.47c-3.63,2.1-7.46,3.59-9.8,1.82-2.63-2-2.87-6.79-2.87-11.45s.24-9.74,2.87-14.77c2.34-4.53,6.17-7.46,9.8-9.55s7.41-3.56,9.75-1.74c2.68,2,2.87,6.79,2.87,11.45a16.79,16.79,0,0,1,0,2.19L152,66.18c0,2.61.29,5,1.34,6.69.86,1.37,2.68,1.31,4.54.23"/><path d="M115.38,83.14l13.24-7.65c0-2.83-.29-5.54-1.48-7.26-1.05-1.37-3.06-1.14-5.11,0a12.23,12.23,0,0,0-5.12,5.86,24.64,24.64,0,0,0-1.53,9M122,94.28a12.23,12.23,0,0,0,5.11-5.92,23.18,23.18,0,0,0,1-3.43l5.45-.73a22.25,22.25,0,0,1-11.57,14c-3.63,2.1-7.46,3.59-9.8,1.82-2.63-2-2.87-6.79-2.87-11.45s.24-9.74,2.87-14.77c2.34-4.53,6.17-7.45,9.8-9.55s7.41-3.56,9.75-1.74c2.68,2,2.87,6.79,2.87,11.45,0,0,0,2,0,2L115.38,87.09c0,2.83.29,5.48,1.53,7.18,1,1.45,3.06,1.2,5.12,0"/><path d="M78.83,104.46,93.55,96c0-3-.29-6-1.67-7.7-1.19-1.5-3.44-1.08-5.69.21a13.38,13.38,0,0,0-5.69,6.36,25.1,25.1,0,0,0-1.67,9.63m7.36,11a13.75,13.75,0,0,0,5.69-6.36,22.57,22.57,0,0,0,1.1-3.54l4.78-.68a22.25,22.25,0,0,1-11.57,14c-3.63,2.1-7.46,3.59-9.8,1.82-2.63-2-2.87-6.79-2.87-11.45s.24-9.74,2.87-14.77c2.34-4.53,6.17-7.46,9.8-9.55s7.41-3.56,9.75-1.74c2.68,2,2.87,6.79,2.87,11.45v1.7l-20,11.54c0,3,.29,6,1.67,7.76,1.15,1.48,3.44,1.08,5.69-.21"/><path d="M42.22,125.87l16.25-9.38c0-3.26-.29-6.42-1.86-8.25-1.34-1.59-3.82-1-6.26.43A15,15,0,0,0,44,115.5a25.74,25.74,0,0,0-1.82,10.37m8.13,10.78v3c-3.63,2.1-7.46,3.59-9.8,1.82-2.63-2-2.87-6.79-2.87-11.45s.24-9.74,2.87-14.77c2.34-4.53,6.17-7.46,9.8-9.55s7.41-3.57,9.75-1.74c2.68,2,2.87,6.79,2.87,11.45v1.48l-20.75,12c0,3.26.24,6.45,1.82,8.28,1.39,1.5,3.87.95,6.31-.46m0,0v3a22.25,22.25,0,0,0,11.57-14l-4.11.56a16.4,16.4,0,0,1-1.2,3.71,15,15,0,0,1-6.26,6.8"/><path d="M5.62,147.23,23.4,137c0-3.54-.29-6.91-2.06-8.74-1.48-1.61-4.21-.86-6.84.66a16.46,16.46,0,0,0-6.88,7.27c-1.77,3.87-2,7.5-2,11.09m8.89,10.61a16.29,16.29,0,0,0,6.84-7.24,21.9,21.9,0,0,0,1.34-3.84l3.39-.48a24,24,0,0,1-1.82,4.56,24.07,24.07,0,0,1-9.75,9.47c-3.63,2.1-7.46,3.59-9.8,1.82-2.63-2-2.87-6.79-2.87-11.46s.24-9.74,2.87-14.77c2.34-4.53,6.17-7.46,9.8-9.55s7.41-3.56,9.75-1.74c2.68,2,2.87,6.79,2.87,11.45v1.21L5.62,149.69c0,3.48.24,6.94,2,8.83,1.53,1.58,4.21.86,6.88-.68"/><path d="M235.26,53.74c-.26-4.27-1.87-7.81-5.93-5.47S223.66,56,223.4,60.59ZM223.4,66c.26,4.33,1.87,7.81,5.93,5.47,2.76-1.59,4.63-4.94,5.36-8.16l6.14-.26A24.35,24.35,0,0,1,239.16,67a25.32,25.32,0,0,1-9.83,9.85c-3.69,2.13-7.44,3.28-9.83,1.5-2.65-1.87-3.22-6.31-3.22-10.91a30.22,30.22,0,0,1,3.22-14.69,25,25,0,0,1,9.83-9.85c3.64-2.1,7.38-3.25,9.83-1.5,2.65,1.87,3.17,6.34,3.17,11v2.69Z"/><path d="M187,81.85l13-7.51c-.1-2.27-.47-4.38-1.56-5.72s-3-1.21-4.94-.07a12.3,12.3,0,0,0-4.94,5.78A21.43,21.43,0,0,0,187,81.85m6.5,10.81a12.47,12.47,0,0,0,4.94-5.84,21.06,21.06,0,0,0,.94-2.81l5.62-.26a24.36,24.36,0,0,1-1.67,3.94,25.32,25.32,0,0,1-9.83,9.85c-3.69,2.13-7.44,3.28-9.83,1.5-2.65-1.87-3.22-6.31-3.22-10.91a30.22,30.22,0,0,1,3.22-14.69,25.05,25.05,0,0,1,9.83-9.85c3.64-2.1,7.38-3.25,9.83-1.5,2.65,1.87,3.17,6.34,3.17,11v2.45L187,86.81c.1,2.27.47,4.38,1.56,5.72s3,1.27,4.94.13"/><path d="M150.52,103.14l14.2-8.2c-.1-2.51-.47-4.8-1.72-6.23s-3.22-1.18-5.36,0a13.45,13.45,0,0,0-5.41,6.17,23.05,23.05,0,0,0-1.72,8.21m7.12,10.63c3.22-1.86,5.41-5.39,6.4-9.12l5.1-.2a24.4,24.4,0,0,1-1.66,3.94,25.33,25.33,0,0,1-9.83,9.85c-3.69,2.13-7.44,3.28-9.83,1.5-2.65-1.87-3.22-6.31-3.22-10.91a30.22,30.22,0,0,1,3.22-14.69,25.05,25.05,0,0,1,9.83-9.85c3.64-2.1,7.38-3.25,9.83-1.5,2.65,1.87,3.17,6.34,3.17,11V96l-20.13,11.62c.1,2.51.52,4.77,1.72,6.23s3.28,1.15,5.41-.08"/><path d="M114.11,124.41l15.34-8.86c-.1-2.74-.47-5.22-1.82-6.71s-3.54-1.12-5.82.2a14.44,14.44,0,0,0-5.82,6.53,22.36,22.36,0,0,0-1.87,8.84m7.7,10.53a15.79,15.79,0,0,0,6.86-9.57l4.63-.23a24.37,24.37,0,0,1-1.66,3.94,25.32,25.32,0,0,1-9.83,9.85c-3.69,2.13-7.44,3.28-9.83,1.5-2.65-1.87-3.22-6.31-3.22-10.91A30.22,30.22,0,0,1,112,114.84,25,25,0,0,1,121.8,105c3.64-2.1,7.38-3.25,9.83-1.5,2.65,1.87,3.17,6.34,3.17,11v2l-20.7,12c.1,2.68.47,5.22,1.87,6.68,1.25,1.43,3.54,1.18,5.82-.14"/><path d="M77.64,145.7c4-2.31,12-7,16.59-9.64-.1-2.92-.52-5.61-2-7.15s-3.85-1.06-6.29.35a15.74,15.74,0,0,0-6.29,6.92,24,24,0,0,0-2,9.53M86,156.05A16.38,16.38,0,0,0,93.35,146l4.11-.16a24.41,24.41,0,0,1-1.66,3.94A25.32,25.32,0,0,1,86,159.63c-3.69,2.13-7.44,3.28-9.83,1.5-2.65-1.87-3.22-6.31-3.22-10.91a30.22,30.22,0,0,1,3.22-14.69A25,25,0,0,1,86,125.68c3.64-2.1,7.38-3.25,9.83-1.5,2.65,1.87,3.17,6.34,3.17,11V137L77.64,149.28c.1,2.86.52,5.61,2,7.12s3.85,1.06,6.29-.35"/><path d="M41.23,166.9,59,156.63c-.1-3.1-.57-6-2.18-7.63s-4.11-1-6.71.53a16.87,16.87,0,0,0-6.76,7.25,25.35,25.35,0,0,0-2.13,10.12m8.89,10.32a16.72,16.72,0,0,0,6.71-7.27,23,23,0,0,0,1.2-3.26l3.59-.16A24.4,24.4,0,0,1,60,170.47a25.34,25.34,0,0,1-9.83,9.85c-3.69,2.13-7.44,3.28-9.83,1.5-2.65-1.87-3.22-6.31-3.22-10.91a30.22,30.22,0,0,1,3.22-14.69,25.05,25.05,0,0,1,9.83-9.85c3.64-2.1,7.38-3.25,9.83-1.5,2.65,1.87,3.17,6.34,3.17,11v1.55L41.23,170.06c.1,3.1.52,6,2.13,7.66s4.16,1,6.76-.5"/><path d="M4.76,188.19l19-11c-.1-3.34-.57-6.47-2.29-8.11s-4.42-1-7.18.62a18,18,0,0,0-7.18,7.66,25.82,25.82,0,0,0-2.34,10.78m9.52,10.14a18,18,0,0,0,7.18-7.66,21.27,21.27,0,0,0,1.25-3.29l3.07-.16a24.46,24.46,0,0,1-1.66,3.95A25.33,25.33,0,0,1,14.28,201c-3.69,2.13-7.44,3.28-9.83,1.5-2.65-1.87-3.22-6.31-3.22-10.91a30.22,30.22,0,0,1,3.22-14.69,25.05,25.05,0,0,1,9.83-9.85c3.64-2.1,7.38-3.25,9.83-1.5,2.65,1.87,3.17,6.34,3.17,11v1.31l-22.52,13c.1,3.28.57,6.47,2.34,8.08s4.42,1,7.18-.62"/><path d="M271.7,73.06c-.51-4-2.79-6.49-6.77-4.19s-6.32,7.43-6.83,12ZM258.1,86.79c.51,4.08,2.79,6.55,6.83,4.22a14.82,14.82,0,0,0,6-8l5.46.37c-.46,1.11-1,2.26-1.54,3.37a26.6,26.6,0,0,1-9.9,10.16c-3.7,2.14-7.45,3-9.9,1.28-2.67-1.85-3.53-5.93-3.53-10.5A30,30,0,0,1,255,73.15a26.17,26.17,0,0,1,9.9-10.22c3.7-2.14,7.4-3,9.9-1.21s3.53,5.93,3.53,10.44V75.1Z"/><path d="M236.38,93.65c-.46-4.44-3-7-7.28-4.54a14.48,14.48,0,0,0-5.52,6.19,20.8,20.8,0,0,0-1.82,6.8Zm-7.28,18.44a14.29,14.29,0,0,0,5.46-6.16c.34-.72.63-1.47.91-2.22l5.07.34c-.46,1.11-1,2.26-1.54,3.37a26.61,26.61,0,0,1-9.9,10.16c-3.7,2.14-7.46,3-9.9,1.28-2.68-1.85-3.53-5.93-3.53-10.5a30,30,0,0,1,3.53-14.51,26.17,26.17,0,0,1,9.9-10.22c3.7-2.14,7.4-3,9.9-1.21s3.53,5.93,3.53,10.43v2.74l-20.77,12a7.74,7.74,0,0,0,1.82,4.7c1.31,1.2,3.36,1.07,5.52-.18"/><path d="M185.45,123.32l15.54-9c-.23-2.15-.74-4-1.93-5.15-1.37-1.3-3.58-1.06-5.8.22a15.15,15.15,0,0,0-5.86,6.52,21.49,21.49,0,0,0-1.94,7.39m7.8,9.93a15.13,15.13,0,0,0,5.8-6.49c.4-.82.68-1.57,1-2.32l4.67.31c-.46,1.11-1,2.26-1.54,3.37a26.6,26.6,0,0,1-9.9,10.16c-3.7,2.14-7.46,3-9.9,1.28-2.67-1.85-3.53-5.93-3.53-10.5a30,30,0,0,1,3.53-14.51,26.18,26.18,0,0,1,9.9-10.22c3.7-2.13,7.4-3,9.9-1.21s3.53,5.93,3.53,10.44v2.55l-21.23,12.25c.23,2.15.74,4,1.94,5.15,1.37,1.3,3.58,1.06,5.86-.25"/><path d="M149.16,144.47l16.5-9.53c-.23-2.35-.8-4.37-2.11-5.58-1.48-1.3-3.76-1.1-6.15.28a16.38,16.38,0,0,0-6.2,6.85,21.31,21.31,0,0,0-2,8m8.25,9.86a16.9,16.9,0,0,0,7.11-9.13l4.32.25c-.46,1.11-1,2.26-1.54,3.37a26.6,26.6,0,0,1-9.9,10.16c-3.7,2.14-7.45,3-9.9,1.28-2.67-1.85-3.53-5.93-3.53-10.5a30,30,0,0,1,3.53-14.51,26.17,26.17,0,0,1,9.9-10.22c3.7-2.14,7.4-3,9.9-1.21s3.53,5.93,3.53,10.43v2.35L149.16,149.1c.23,2.35.74,4.4,2,5.61,1.48,1.3,3.81,1,6.2-.38"/><path d="M112.8,165.65l17.53-10.12c-.17-2.58-.85-4.73-2.28-6s-4-1-6.49.41a17.42,17.42,0,0,0-6.54,7.11,22.47,22.47,0,0,0-2.22,8.59m8.76,9.83a17.93,17.93,0,0,0,7.51-9.63l3.93.28c-.46,1.11-1,2.26-1.54,3.37a26.6,26.6,0,0,1-9.9,10.16c-3.7,2.14-7.45,3-9.9,1.28-2.67-1.85-3.53-5.93-3.53-10.5a30,30,0,0,1,3.53-14.51,26.18,26.18,0,0,1,9.9-10.22c3.7-2.13,7.4-3,9.9-1.21s3.53,5.93,3.53,10.44V157L112.8,169.83c.17,2.58.8,4.76,2.22,6,1.59,1.37,4,1.06,6.54-.38"/><path d="M76.51,186.8l18.44-10.64c-.17-2.71-.85-5.12-2.39-6.46s-4.21-1-6.83.48a18.5,18.5,0,0,0-6.89,7.44,23.67,23.67,0,0,0-2.33,9.18m9.22,9.76a18.8,18.8,0,0,0,7.91-10l3.53.25c-.46,1.11-1,2.26-1.54,3.37a26.59,26.59,0,0,1-9.9,10.16c-3.7,2.14-7.46,3-9.9,1.28-2.67-1.85-3.53-5.93-3.53-10.5a30,30,0,0,1,3.53-14.51,26.62,26.62,0,0,1,9.9-10.22c3.7-2.14,7.4-2.9,9.9-1.21s3.53,5.93,3.53,10.43v1.89L76.51,190.59c.17,2.77.8,5.16,2.33,6.49s4.27,1,6.89-.51"/><path d="M40.21,208l19.35-11.17c-.17-3-.8-5.55-2.5-6.91s-4.44-1-7.17.55a18.74,18.74,0,0,0-7.23,7.76A24.35,24.35,0,0,0,40.21,208m9.67,9.7a20.24,20.24,0,0,0,8.31-10.41l3.13.22c-.46,1.11-1,2.26-1.54,3.37A26.6,26.6,0,0,1,49.88,221c-3.7,2.14-7.45,3-9.9,1.28-2.67-1.85-3.53-5.93-3.53-10.5A30,30,0,0,1,40,197.31a26.63,26.63,0,0,1,9.9-10.22c3.7-2.14,7.4-2.9,9.9-1.21s3.53,5.93,3.53,10.44V198l-23.1,13.34c.17,2.91.8,5.55,2.45,6.95s4.44,1,7.23-.58"/><path d="M3.86,229.2l20.32-11.73c-.17-3.17-.85-5.91-2.62-7.37s-4.67-1-7.51.68a19.42,19.42,0,0,0-7.51,8A24.82,24.82,0,0,0,3.86,229.2M14,238.8A21,21,0,0,0,22.75,228l2.73.19c-.45,1.11-1,2.26-1.54,3.37A26.6,26.6,0,0,1,14,241.74c-3.7,2.13-7.45,3-9.9,1.28-2.67-1.85-3.53-5.93-3.53-10.5A30,30,0,0,1,4.14,218,26.62,26.62,0,0,1,14,207.78c3.7-2.14,7.4-2.9,9.9-1.21s3.53,5.93,3.53,10.44v1.5L3.86,232.14c.17,3.1.85,5.91,2.67,7.34s4.61,1,7.51-.68"/><path d="M308.58,92c-.88-3.54-4-4.93-7.87-2.68s-7,7.29-7.87,11.77Zm-15.74,15.59c.88,3.46,3.9,5,7.87,2.68a16.4,16.4,0,0,0,5.92-6.38l.63-1.3,4.85.89c-.44.91-.88,1.88-1.38,2.75a27.74,27.74,0,0,1-10,10.55c-3.78,2.18-7.49,2.74-10.07,1s-3.9-5.48-3.9-10a30.62,30.62,0,0,1,3.9-14.46,28,28,0,0,1,10.07-10.58c3.78-2.18,7.43-2.7,10-1s3.9,5.48,3.9,10v3.25Z"/><path d="M273.11,112.74c-.88-3.83-4-5.55-8.25-3.11s-7.43,7.83-8.31,12.67Zm-16.56,15.63c.88,3.83,4.09,5.51,8.31,3.08a17.8,17.8,0,0,0,6.86-8.08l4.53.85c-.44.9-.88,1.88-1.38,2.75a27.73,27.73,0,0,1-10,10.55c-3.78,2.18-7.49,2.74-10.07,1s-3.9-5.48-3.9-10a30.62,30.62,0,0,1,3.9-14.46,28,28,0,0,1,10.07-10.58c3.78-2.18,7.43-2.7,10-1s3.9,5.48,3.9,10v3Z"/><path d="M237.65,133.43c-.82-4.22-4.16-6.05-8.63-3.47a17.41,17.41,0,0,0-6.42,6.89,20.73,20.73,0,0,0-2.27,6.58Zm-17.31,15.63c.82,4.22,4,6.13,8.69,3.44a18.09,18.09,0,0,0,6.42-6.81c.25-.51.5-1.08.76-1.59l4.22.82c-.44.91-.88,1.88-1.38,2.75a27.74,27.74,0,0,1-10,10.55c-3.78,2.18-7.49,2.74-10.07,1s-3.9-5.48-3.9-10a30.62,30.62,0,0,1,3.9-14.46A28,28,0,0,1,229,124.25c3.78-2.18,7.43-2.7,10-1s3.9,5.48,3.9,10V136Z"/><path d="M202.25,154c-.75-4.55-4.28-6.56-9.07-3.8s-8.31,8.77-9.13,14.3Zm-18.2,15.85c.82,4.58,4.22,6.6,9.13,3.76a19.66,19.66,0,0,0,7.49-8.8l3.9.78c-.44.9-.88,1.88-1.38,2.75a27.73,27.73,0,0,1-10,10.55c-3.78,2.18-7.49,2.74-10.07,1s-3.9-5.48-3.9-10a30.61,30.61,0,0,1,3.9-14.46,28,28,0,0,1,10.07-10.58c3.78-2.18,7.43-2.7,10-1s3.9,5.48,3.9,10v2.67Z"/><path d="M166.79,174.7c-.75-4.91-4.34-7.1-9.44-4.16s-8.69,9.28-9.51,15.1Zm-19,15.85c.82,4.87,4.34,7.17,9.51,4.19a20.16,20.16,0,0,0,7.74-9.17l3.65.71c-.44.91-.88,1.88-1.38,2.75a27.74,27.74,0,0,1-10,10.55c-3.78,2.18-7.49,2.74-10.07,1s-3.9-5.48-3.9-10a30.62,30.62,0,0,1,3.9-14.46,28,28,0,0,1,10.07-10.58c3.78-2.18,7.43-2.7,10-1s3.9,5.48,3.9,10V177Z"/><path d="M131.39,195.36c-.69-5.24-4.53-7.64-9.88-4.55s-9.19,9.86-9.88,16Zm-19.77,15.89c.69,5.31,4.47,7.68,9.88,4.55a20.89,20.89,0,0,0,8.06-9.42l3.34.6c-.44.9-.88,1.88-1.39,2.75a27.72,27.72,0,0,1-10,10.55c-3.78,2.18-7.49,2.74-10.07,1s-3.9-5.48-3.9-10a30.61,30.61,0,0,1,3.9-14.46,28,28,0,0,1,10.07-10.58c3.78-2.18,7.43-2.7,10-1s3.9,5.48,3.9,10v2.24Z"/><path d="M95.86,216.08c-.63-5.63-4.6-8.26-10.2-5S76,221.47,75.4,227.9ZM75.4,231.94c.63,5.7,4.6,8.26,10.26,5A21.81,21.81,0,0,0,94,227.11l3,.57c-.44.9-.88,1.88-1.39,2.75a27.73,27.73,0,0,1-10,10.55c-3.78,2.18-7.49,2.74-10.07,1s-3.9-5.48-3.9-10a30.61,30.61,0,0,1,3.9-14.46A28,28,0,0,1,85.66,207c3.78-2.18,7.43-2.7,10-1s3.9,5.48,3.9,10v2Z"/><path d="M60.46,236.74c-.63-6-4.72-8.76-10.64-5.34s-10.07,10.95-10.7,17.67ZM39.12,252.67c.63,6,4.72,8.76,10.7,5.31a22.73,22.73,0,0,0,8.69-10.15l2.71.53c-.44.9-.88,1.88-1.39,2.75a27.72,27.72,0,0,1-10,10.55c-3.78,2.18-7.49,2.74-10.07,1s-3.9-5.48-3.9-10a30.62,30.62,0,0,1,3.9-14.46,28,28,0,0,1,10.07-10.58c3.78-2.18,7.43-2.7,10-1s3.9,5.48,3.9,10v1.81Z"/><path d="M25,257.43c-.57-6.32-4.91-9.3-11-5.78S3.53,263.11,3,270.15Zm-22,16c.57,6.39,4.85,9.27,11,5.7a23.85,23.85,0,0,0,9-10.54l2.39.5c-.44.9-.88,1.88-1.38,2.75a27.73,27.73,0,0,1-10,10.55c-3.78,2.18-7.49,2.74-10.07,1s-3.9-5.48-3.9-10A30.62,30.62,0,0,1,3.9,259,28,28,0,0,1,14,248.4c3.78-2.18,7.43-2.7,10-1s3.9,5.48,3.9,10V259Z"/><path d="M292.54,141.82,308,132.91a6.22,6.22,0,0,0-1.32-3.79c-1.13-1.08-3-.64-4.91.45l-2.9,1.67a12,12,0,0,0-4.91,5.22,17.36,17.36,0,0,0-1.39,5.35m20.34.9c-1.45,6.18-6,11.15-11.14,14.09l-2.9,1.67c-3.53,2-7.18,3.28-9.44,1.48-2.52-2.09-2.83-6.74-2.83-11.37s.31-9.65,2.83-14.64a23.49,23.49,0,0,1,9.44-9.43l2.9-1.67c3.53-2,7.11-3.24,9.38-1.44,2.58,2,2.9,6.71,2.9,11.33v3.32l-21.47,12.4a6.65,6.65,0,0,0,1.39,3.75c1.07,1.12,3,.71,4.91-.38l2.9-1.67a12.33,12.33,0,0,0,4.91-5.29c.19-.4.31-.83.5-1.3Z"/><path d="M256.26,163l16.31-9.41a6.71,6.71,0,0,0-1.45-4.29c-1.13-1.22-3.15-.71-5.16.45l-3.08,1.78A12.62,12.62,0,0,0,257.7,157a16.48,16.48,0,0,0-1.45,6m9.7,8.27a13,13,0,0,0,5.79-7l5.35-.85a24.51,24.51,0,0,1-1.83,4.74,22.88,22.88,0,0,1-9.32,9.35l-3.08,1.78c-3.46,2-7.11,3.24-9.32,1.41-2.52-2.09-2.83-6.75-2.83-11.37s.32-9.65,2.83-14.64a23,23,0,0,1,9.32-9.35l3.08-1.78c3.53-2,7.12-3.24,9.32-1.41,2.58,2,2.9,6.71,2.9,11.33v3.11l-21.91,12.65a6.72,6.72,0,0,0,1.45,4.29c1.2,1.19,3.21.67,5.16-.45Z"/><path d="M219.91,184.25l17.31-10c-.13-2-.5-3.83-1.57-4.87-1.26-1.22-3.34-.75-5.48.49L227,171.73a13.16,13.16,0,0,0-5.41,5.8,18.08,18.08,0,0,0-1.64,6.72m7.05,10,3.21-1.85a13.39,13.39,0,0,0,5.48-5.84c.25-.58.44-1.12.69-1.7l4.91-.81a24.46,24.46,0,0,1-1.83,4.74,22.92,22.92,0,0,1-9.25,9.32L227,200c-3.46,2-7.05,3.13-9.26,1.37-2.58-2.12-2.83-6.75-2.83-11.37s.25-9.54,2.83-14.64A23.25,23.25,0,0,1,227,166l3.21-1.85c3.53-2,7.11-3.17,9.25-1.37,2.58,2.12,2.9,6.71,2.9,11.33v2.82c0,.07-16,9.23-22.41,12.94.13,2,.57,3.79,1.64,4.83,1.2,1.26,3.34.75,5.41-.45"/><path d="M183.63,205.42l18.2-10.5c-.13-2.24-.5-4.26-1.7-5.45s-3.53-.71-5.67.53l-3.4,2a13.9,13.9,0,0,0-5.73,6.05,19.41,19.41,0,0,0-1.7,7.41m10.83,8.12a13.85,13.85,0,0,0,6.42-8l4.53-.74a29.8,29.8,0,0,1-1.76,4.7,23,23,0,0,1-9.19,9.28l-3.4,2c-3.46,2-7.05,3.13-9.19,1.33-2.58-2.12-2.83-6.75-2.83-11.37s.25-9.54,2.83-14.64a22.86,22.86,0,0,1,9.19-9.28l3.4-2c3.46-2,7-3.1,9.19-1.33,2.52,2.16,2.83,6.74,2.83,11.37v2.6l-22.85,13.2c.13,2.24.5,4.26,1.7,5.45s3.53.71,5.73-.56Z"/><path d="M147.35,226.58l19.08-11c-.13-2.46-.44-4.73-1.76-6s-3.71-.75-6,.56l-3.59,2.07a14.56,14.56,0,0,0-5.92,6.31,21.41,21.41,0,0,0-1.83,8.06m11.33,8.12a14.92,14.92,0,0,0,6.8-8.55l4.09-.7a30,30,0,0,1-1.76,4.7,22.63,22.63,0,0,1-9.13,9.24l-3.59,2.07c-3.4,2-7,3.09-9.13,1.3-2.52-2.16-2.77-6.78-2.77-11.41s.25-9.54,2.77-14.6a22.78,22.78,0,0,1,9.13-9.24l3.59-2.07c3.46-2,7-3.1,9.13-1.3,2.52,2.16,2.83,6.75,2.83,11.37v2.38l-23.3,13.45c.13,2.46.57,4.66,1.83,6s3.65.78,5.92-.53Z"/><path d="M111.06,247.82l20-11.52c-.13-2.67-.5-5.2-1.89-6.57s-3.84-.75-6.23.64l-3.71,2.15a15.29,15.29,0,0,0-6.23,6.56,21.51,21.51,0,0,0-1.89,8.75m11.84,8a16,16,0,0,0,7.18-9l3.65-.66a21.66,21.66,0,0,1-10.83,13.91l-3.71,2.14c-3.4,2-6.93,3.06-9.07,1.26-2.52-2.16-2.77-6.78-2.77-11.4s.25-9.54,2.77-14.6a22.55,22.55,0,0,1,9.07-9.21l3.71-2.14c3.4-2,7-3.1,9.07-1.26,2.52,2.16,2.83,6.74,2.83,11.37v2.09L111.06,252c.06,2.71.5,5.2,1.89,6.57s3.84.75,6.23-.64Z"/><path d="M74.78,269l20.84-12c-.06-2.93-.44-5.67-2-7.11s-4-.78-6.55.67l-3.84,2.22a15.61,15.61,0,0,0-6.48,6.85,21.76,21.76,0,0,0-2,9.4m12.34,8a16.47,16.47,0,0,0,7.56-9.56l3.21-.55a25,25,0,0,1-1.7,4.67,22.56,22.56,0,0,1-9.07,9.21l-3.84,2.22c-3.4,2-6.93,3.06-9,1.22-2.52-2.16-2.77-6.78-2.77-11.41s.25-9.54,2.77-14.6a22.16,22.16,0,0,1,9-9.17l3.84-2.22c3.4-2,6.93-3.06,9.07-1.26,2.46,2.19,2.77,6.78,2.77,11.41v1.88l-24.18,14c.06,2.93.44,5.67,2,7.07s4,.82,6.48-.64Z"/><path d="M38.5,290.22l21.72-12.54c-.06-3.14-.44-6.1-2.08-7.69s-4.16-.85-6.74.64l-4,2.33a16.55,16.55,0,0,0-6.8,7.18,24,24,0,0,0-2.08,10.08m8.88,10.19,4-2.33a16.5,16.5,0,0,0,6.74-7.14A19.84,19.84,0,0,0,59.28,288l2.77-.52a25,25,0,0,1-1.7,4.67,22.09,22.09,0,0,1-8.94,9.14l-4,2.33c-3.4,2-6.86,3-9,1.22-2.46-2.2-2.71-6.82-2.71-11.44s.25-9.54,2.71-14.57a22.32,22.32,0,0,1,9-9.17l4-2.33c3.34-1.93,6.86-3,8.94-1.19,2.46,2.2,2.77,6.78,2.77,11.41v1.66L38.5,293.47c.06,3.14.5,6,2.08,7.62s4.16.85,6.8-.67"/><path d="M292.49,182.28l14.86-8.58a9.09,9.09,0,0,0-.82-4.22c-.75-1.08-2.33-.61-3.84.27l-5.54,3.2a8.3,8.3,0,0,0-3.84,4.17,16.56,16.56,0,0,0-.82,5.17m10.2,7.69a8.49,8.49,0,0,0,4.16-5.22l6.17-2.41a20.35,20.35,0,0,1-1.64,6.22c-1.89,4.12-5.41,6.38-8.69,8.27l-5.54,3.2c-3.27,1.89-6.86,3.75-8.75,1.8s-2-7.8-2-12.56,0-10.55,2-14.89c1.89-4.12,5.48-6.41,8.75-8.3l5.54-3.2c3.27-1.89,6.8-3.71,8.69-1.77s2,7.8,2,12.56v3.47l-20.9,12.07a9.1,9.1,0,0,0,.82,4.22c.69,1.12,2.27.64,3.84-.27Z"/><path d="M256.08,203.66l15.93-9.2c-.06-2.06-.25-4-.88-5.05s-2.46-.61-4.09.34l-6,3.45a9.07,9.07,0,0,0-4.09,4.39,20.41,20.41,0,0,0-.88,6.07m11,7.47a8.83,8.83,0,0,0,4.53-5.87l5.6-2.22a20.36,20.36,0,0,1-1.64,6.22c-1.83,4-5.29,6.3-8.5,8.16l-6,3.45c-3.21,1.85-6.67,3.56-8.5,1.66-2-2-2-7.79-2-12.56s0-10.55,2-14.89c1.83-4,5.29-6.3,8.5-8.16l6-3.45c3.21-1.85,6.67-3.56,8.5-1.66,2,2,2,7.79,2,12.56v3.11l-21.47,12.4c.06,2.06.25,4,.88,5.05s2.52.57,4.09-.34Z"/><path d="M219.67,225l17.12-9.89c-.06-2.35-.31-4.66-1.07-5.74s-2.64-.64-4.34.34L225,213.36a9.75,9.75,0,0,0-4.34,4.68,23.71,23.71,0,0,0-1,6.94m11.71,7.4a9.77,9.77,0,0,0,4.91-6.59l5.1-2.08a22,22,0,0,1-1.64,6.22c-1.76,4-5.23,6.27-8.37,8.09L225,241.68c-3.15,1.82-6.55,3.49-8.37,1.58s-2-7.83-2-12.6,0-10.55,2-14.85c1.83-4,5.23-6.27,8.37-8.09l6.36-3.67c3.15-1.82,6.61-3.53,8.37-1.58,2,2.05,2,7.83,2,12.6v2.82l-22,12.72c.06,2.35.32,4.66,1,5.78s2.64.64,4.34-.34Z"/><path d="M183.27,246.28l18.2-10.5c-.06-2.64-.25-5.27-1.07-6.53s-2.83-.6-4.66.45L189,233.58a9.84,9.84,0,0,0-4.6,4.89,23.8,23.8,0,0,0-1.13,7.81M189,257.42l6.74-3.89a10.16,10.16,0,0,0,4.66-4.93,18.88,18.88,0,0,0,.63-2.39l4.53-1.82a23.62,23.62,0,0,1-1.57,6.18c-1.76,4-5.1,6.2-8.25,8L189,262.48c-3.08,1.78-6.48,3.46-8.18,1.47-2-2.05-2-7.83-2-12.6s0-10.55,2-14.85c1.7-3.94,5.1-6.2,8.18-8l6.74-3.89c3.15-1.82,6.49-3.46,8.25-1.51s1.89,7.87,1.89,12.64v2.53l-22.6,13c.06,2.64.25,5.27,1.13,6.5s2.77.64,4.6-.41"/><path d="M146.92,267.55l19.2-11.09c-.06-2.85-.25-5.85-1.13-7.22s-3-.68-4.91.45L153,253.8a10.54,10.54,0,0,0-4.91,5.22,28.08,28.08,0,0,0-1.13,8.53m13.16,7.14a10.57,10.57,0,0,0,5.6-7.93l4-1.68a21.69,21.69,0,0,1-1.57,6.18c-1.64,3.83-5,6.12-8.06,7.9L153,283.28c-3.08,1.78-6.36,3.31-8.06,1.4C143,282.59,143,276.81,143,272s0-10.55,1.89-14.82c1.7-3.87,5-6.12,8.06-7.9l7.11-4.11c3.09-1.78,6.42-3.35,8.06-1.4,1.89,2.09,1.89,7.87,1.89,12.64v2.24L146.92,272c.06,2.85.25,5.85,1.13,7.22s3,.68,4.91-.45Z"/><path d="M110.58,288.83l20.27-11.71c0-3.18-.19-6.54-1.26-7.94s-3.08-.75-5.16.45L116.94,274a11.23,11.23,0,0,0-5.16,5.51c-1,2.6-1.2,6.18-1.2,9.36m6.36,11.43,7.49-4.33a11.11,11.11,0,0,0,5.16-5.51,15,15,0,0,0,.82-3.22l3.46-1.42a21.41,21.41,0,0,1-1.51,6.15c-1.64,3.83-4.91,6.09-7.93,7.83l-7.49,4.33c-3,1.75-6.3,3.27-7.93,1.33-1.83-2.12-1.83-7.9-1.83-12.67s0-10.55,1.83-14.78c1.64-3.83,4.91-6.09,7.93-7.83l7.49-4.33c3-1.75,6.3-3.27,7.93-1.33,1.83,2.13,1.83,7.9,1.83,12.67v2l-23.61,13.63c0,3.18.19,6.54,1.2,8s3.15.71,5.16-.45"/><path d="M74.17,310.21l21.34-12.32c0-3.47-.19-7.19-1.26-8.81s-3.34-.67-5.48.56l-7.87,4.54a11.75,11.75,0,0,0-5.41,5.73c-1.13,2.89-1.32,6.83-1.32,10.3m6.74,11.43,7.87-4.54a12.07,12.07,0,0,0,5.48-5.76,19.83,19.83,0,0,0,.88-3.69l2.9-1.17a21.38,21.38,0,0,1-1.51,6.15c-1.57,3.73-4.78,6-7.74,7.72l-7.87,4.54c-3,1.71-6.17,3.13-7.74,1.22-1.83-2.12-1.83-7.9-1.83-12.67s0-10.55,1.83-14.78c1.57-3.73,4.79-6,7.74-7.72l7.87-4.54c3-1.71,6.17-3.13,7.74-1.22,1.83,2.12,1.83,7.9,1.83,12.67v1.66l-24.18,14c0,3.47.19,7.12,1.32,8.7s3.27.71,5.41-.53"/><path d="M292.32,222.89l14.29-8.25a23.7,23.7,0,0,0-.44-4.73c-.38-.94-1.57-.46-2.71.19l-7.93,4.58a5.47,5.47,0,0,0-2.77,3,32.8,32.8,0,0,0-.44,5.24m11.14,7a5.05,5.05,0,0,0,3-4.45l6.23-3.17c-.19,3.07-.5,5.93-1.26,7.66-1.32,3.22-5,5.33-7.93,7l-7.93,4.58c-3,1.75-6.67,3.85-8,2.16S286.15,235,286.15,230s0-12.07,1.39-15.32,5-5.33,8-7.07l7.93-4.58c3-1.71,6.61-3.82,7.93-2.12s1.38,8.74,1.38,13.72v3.54L292.32,230a23.78,23.78,0,0,0,.44,4.73c.38.94,1.64.43,2.77-.23Z"/><path d="M255.85,244.31l15.61-9c-.06-2.42-.13-4.84-.5-5.71s-1.76-.5-3,.19l-8.69,5a5.84,5.84,0,0,0-3,3.23,37.27,37.27,0,0,0-.5,6.29M268,251.16a5.85,5.85,0,0,0,3.27-5.36l5.54-2.84a25.69,25.69,0,0,1-1.2,7.63c-1.26,3.18-4.72,5.18-7.62,6.85l-8.69,5c-2.9,1.67-6.36,3.67-7.68,2s-1.32-8.77-1.32-13.76,0-12.07,1.32-15.29,4.79-5.22,7.68-6.89l8.69-5c2.9-1.67,6.36-3.67,7.62-1.94s1.32,8.77,1.32,13.76v3.18l-21.09,12.18a27.45,27.45,0,0,0,.5,5.71c.38,1,1.7.54,3-.19Z"/><path d="M219.31,265.84l16.94-9.78a29.27,29.27,0,0,0-.5-6.79c-.5-1-1.89-.5-3.27.3L223.09,255a6.46,6.46,0,0,0-3.21,3.44,33.52,33.52,0,0,0-.57,7.41m3.78,12.05,9.38-5.42a6.79,6.79,0,0,0,3.27-3.55c.13-.65.25-1.66.38-2.82l4.85-2.44a25.66,25.66,0,0,1-1.13,7.59c-1.26,3.18-4.53,5.07-7.37,6.71l-9.38,5.42c-2.83,1.64-6.11,3.53-7.37,1.8s-1.26-8.81-1.26-13.79,0-12.06,1.26-15.25,4.53-5.07,7.37-6.71l9.38-5.42c2.83-1.64,6.11-3.53,7.37-1.8S241.1,251,241.1,256v2.75l-21.79,12.58c0,2.82.13,5.78.57,6.75s1.89.57,3.21-.19"/><path d="M182.84,287.25l18.26-10.54c0-3.18-.13-6.57-.63-7.66-.44-1.26-2-.64-3.46.19l-10.14,5.85a6.78,6.78,0,0,0-3.46,3.81,42.23,42.23,0,0,0-.57,8.35m4,12.27L197,293.67c1.45-.84,3-2,3.46-3.8a14.18,14.18,0,0,0,.44-3.36l4.22-2.15a27.75,27.75,0,0,1-1.07,7.55c-1.2,3.15-4.34,5-7.05,6.53l-10.14,5.85c-2.71,1.56-5.85,3.38-7.05,1.61s-1.2-8.85-1.2-13.83,0-12.07,1.2-15.21,4.34-5,7.05-6.53L197,264.48c2.71-1.56,5.86-3.38,7.05-1.62s1.2,8.85,1.2,13.83v2.38L182.84,292c0,3.18.13,6.57.57,7.69s2,.64,3.46-.19"/><path d="M146.31,308.71l19.58-11.3c0-3.47-.12-7.37-.63-8.67s-2.2-.61-3.71.27l-10.89,6.29c-1.51.87-3.21,2.14-3.71,4s-.63,5.93-.63,9.39m4.34,12.52,10.89-6.29c1.51-.87,3.21-2.21,3.71-4.09a18.67,18.67,0,0,0,.5-4l3.53-1.82a27.81,27.81,0,0,1-1,7.52c-1.13,3.11-4.16,4.86-6.74,6.35l-10.89,6.29c-2.58,1.49-5.54,3.2-6.67,1.4s-1.2-8.92-1.2-13.83,0-12.06,1.2-15.21,4.09-4.82,6.67-6.31L161.54,285c2.58-1.49,5.6-3.24,6.74-1.43s1.13,9,1.13,13.87v2l-23.11,13.34c0,3.47.13,7.37.63,8.67s2.2.68,3.71-.19"/><path d="M109.84,330.2l20.9-12.07c0-3.76-.06-8.34-.69-9.71s-2.33-.68-4,.27l-11.65,6.72c-1.57.91-3.4,2.25-4,4.31s-.63,6.72-.63,10.48m4.6,12.66,11.65-6.73c1.64-.94,3.4-2.25,4-4.31a24.38,24.38,0,0,0,.57-4.66l2.83-1.42a30.48,30.48,0,0,1-.94,7.48c-1.13,3.11-3.9,4.71-6.42,6.16l-11.65,6.72c-2.46,1.42-5.29,3.05-6.36,1.21s-1.13-9-1.13-13.87,0-12.07,1.13-15.18,3.9-4.71,6.36-6.13l11.65-6.72c2.52-1.45,5.29-3.05,6.42-1.25s1.07,9,1.07,13.9v1.66l-23.74,13.7c0,3.76.06,8.34.63,9.68s2.39.64,4-.27"/><path d="M305.87,255.58c0-3.61.5-6.43-1.76-5.12L294,256.27c-2.27,1.31-1.76,3.55-1.76,7.16Zm-13.6,15.08c0,3.61-.5,6.43,1.76,5.12L304.11,270c1.76-1,1.57-1.92,1.7-4.23l6.3-3.49c-.06,3.94-.25,7.73-.75,9.11-.82,2.13-4.53,4.28-7.24,5.84L294,283c-2.77,1.6-6.48,3.74-7.24,2.52s-.82-9.64-.82-14.84,0-13.58.82-15.79,4.47-4.24,7.24-5.84l10.07-5.82c2.71-1.56,6.42-3.71,7.24-2.52s.82,9.64.82,14.84v3.61Z"/><path d="M255.55,285.14l15.3-8.83c0-2.82-.06-5.74-.19-6.47s-1-.5-1.76-.07l-11.33,6.54a3.62,3.62,0,0,0-1.83,2.14c-.12.87-.19,3.87-.19,6.68m13.35,6.16c2.14-1.24,1.83-2.43,2-5.32l5.41-3.05c-.06,3.94-.25,7.73-.69,9.07-.75,2.1-4.15,4.06-6.67,5.51l-11.33,6.54c-2.58,1.49-6,3.45-6.67,2.19s-.76-9.68-.76-14.88,0-13.58.76-15.75,4.09-4,6.67-5.51l11.33-6.54c2.52-1.45,5.92-3.42,6.67-2.19s.76,9.68.76,14.88v3.11l-20.78,12c0,2.82.06,5.74.19,6.47s1,.5,1.83,0Z"/><path d="M218.83,306.84,235.89,297c0-3.32-.06-7-.19-7.84s-1.13-.5-2,0l-12.59,7.27a3.75,3.75,0,0,0-2,2.32,79.71,79.71,0,0,0-.25,8.09m14.86,5.73c2.52-1.45,2.08-2.79,2.2-6.4l4.53-2.54c-.06,3.94-.19,7.69-.63,9-.69,2.06-3.78,3.84-6.11,5.19l-12.59,7.27c-2.39,1.38-5.48,3.16-6.11,1.86s-.69-9.71-.69-14.92,0-13.58.69-15.72,3.71-3.81,6.11-5.19l12.59-7.27c2.33-1.34,5.41-3.13,6.11-1.86s.69,9.71.69,14.92v2.6L218.83,312a70.45,70.45,0,0,0,.25,7.8c.19.83,1.13.5,2,0Z"/><path d="M182.17,328.52l18.76-10.83c0-3.68-.06-8.27-.25-9.25s-1.26-.5-2.2,0l-13.91,8a4.08,4.08,0,0,0-2.2,2.5c-.13,1.16-.19,5.82-.19,9.5m16.31,5.4c2.83-1.64,2.39-3.4,2.39-7.52l3.71-2.07c-.06,3.94-.19,7.7-.57,9-.63,2-3.34,3.59-5.54,4.86l-13.91,8c-2.14,1.24-4.91,2.84-5.48,1.5s-.63-9.82-.63-15,0-13.58.63-15.68,3.34-3.59,5.48-4.82l13.91-8c2.2-1.27,4.91-2.83,5.54-1.54s.63,9.82.63,15v2.09l-22.48,13c0,3.68.06,8.27.19,9.28s1.26.5,2.2,0Z"/><path d="M145.44,350.22,166,338.37a104.21,104.21,0,0,0-.32-10.58c-.19-1-1.32-.61-2.39,0l-15.17,8.76a4.45,4.45,0,0,0-2.39,2.75c-.25,1.37-.25,6.79-.25,10.91m17.82,5c3.15-1.82,2.64-4.06,2.64-8.61l2.83-1.64a63.81,63.81,0,0,1-.5,9c-.57,2-3,3.37-5,4.53l-15.17,8.76c-2,1.13-4.41,2.54-4.91,1.17s-.57-9.86-.57-15,0-13.58.57-15.64,3-3.37,4.91-4.5l15.17-8.76c2-1.16,4.41-2.54,5-1.21s.57,9.86.57,15V340l-23.36,13.49c0,4.12.06,9.43.25,10.55s1.32.61,2.39,0Z"/></g></svg>