<svg xmlns="http://www.w3.org/2000/svg" viewBox="0 0 493.23 256.77"><defs><style>.cls-1,.cls-3,.cls-4{fill:none;stroke:#1a1a18;stroke-width:3px;}.cls-11,.cls-12,.cls-2,.cls-6{fill:#1a1a18;}.cls-3{stroke-dasharray:12.65 12.65;}.cls-4{stroke-dasharray:11.47 11.47;}.cls-13,.cls-5{fill:#fff;}.cls-13,.cls-6{font-size:9px;}.cls-11,.cls-13,.cls-6{font-family:OpenSans-Bold, Open Sans;font-weight:700;}.cls-7{letter-spacing:0em;}.cls-8{letter-spacing:0.01em;}.cls-9{letter-spacing:0em;}.cls-10{letter-spacing:0em;}.cls-11,.cls-12{font-size:7px;}.cls-12{font-family:OpenSans, Open Sans;}</style></defs><title>dns-server</title><g id="Layer_2" data-name="Layer 2"><g id="Layer_1-2" data-name="Layer 1"><line class="cls-1" x1="76.54" y1="49.65" x2="198.89" y2="49.65"/><polygon class="cls-2" points="204.09 49.65 196.14 42.26 196.14 57.05 204.09 49.65"/><line class="cls-3" x1="294.34" y1="49.65" x2="408.19" y2="49.65"/><polygon class="cls-2" points="289.13 49.65 297.09 57.05 297.09 42.26 289.13 49.65"/><line class="cls-4" x1="450.71" y1="67.75" x2="450.71" y2="170.97"/><polygon class="cls-2" points="450.71 62.54 443.31 70.5 458.11 70.5 450.71 62.54"/><line class="cls-1" x1="238.11" y1="162.98" x2="238.11" y2="49.13"/><polygon class="cls-2" points="238.11 168.18 245.51 160.22 230.71 160.22 238.11 168.18"/><line class="cls-1" x1="255.12" y1="169.98" x2="255.12" y2="67.75"/><polygon class="cls-2" points="255.12 62.54 247.72 70.5 262.51 70.5 255.12 62.54"/><rect class="cls-5" x="1.5" y="38.15" width="82.04" height="23"/><text class="cls-6" transform="translate(30.62 53.1)"><tspan class="cls-7">Ci</tspan><tspan class="cls-8" x="8.55" y="0">e</tspan><tspan class="cls-9" x="13.92" y="0">n</tspan><tspan x="19.87" y="0">t</tspan></text><rect class="cls-1" x="1.5" y="38.15" width="82.04" height="23"/><rect class="cls-5" x="205.59" y="38.15" width="82.04" height="23"/><text class="cls-6" transform="translate(221.05 53.1)"><tspan class="cls-7">D</tspan><tspan class="cls-10" x="6.7" y="0">NS-Se</tspan><tspan class="cls-9" x="32.37" y="0">r</tspan><tspan class="cls-10" x="36.49" y="0">ve</tspan><tspan x="47.02" y="0">r</tspan></text><rect class="cls-1" x="205.59" y="38.15" width="82.04" height="23"/><rect class="cls-5" x="205.59" y="170.15" width="141.57" height="23"/><text class="cls-6" transform="translate(222.44 185.1)"><tspan class="cls-7">ns</tspan><tspan class="cls-8" x="10.46" y="0">1</tspan><tspan class="cls-9" x="15.64" y="0">.h</tspan><tspan class="cls-10" x="24.2" y="0">a</tspan><tspan class="cls-7" x="29.68" y="0">ns.host</tspan><tspan class="cls-10" x="62.75" y="0">e</tspan><tspan class="cls-7" x="68.11" y="0">uro</tspan><tspan class="cls-10" x="83.8" y="0">pe</tspan><tspan class="cls-7" x="94.9" y="0">.</tspan><tspan class="cls-10" x="97.5" y="0">d</tspan><tspan x="103.24" y="0">e</tspan></text><rect class="cls-1" x="205.59" y="170.15" width="141.57" height="23"/><rect class="cls-5" x="409.69" y="38.15" width="82.04" height="23"/><text class="cls-6" transform="translate(425.02 53.1)"><tspan class="cls-7">root</tspan><tspan class="cls-10" x="19.28" y="0">-Se</tspan><tspan class="cls-7" x="32.59" y="0">r</tspan><tspan class="cls-10" x="36.71" y="0">ve</tspan><tspan x="47.24" y="0">r</tspan></text><rect class="cls-1" x="409.69" y="38.15" width="82.04" height="23"/><rect class="cls-5" x="358.67" y="170.15" width="133.06" height="23"/><text class="cls-6" transform="translate(404.48 185.1)"><tspan class="cls-7">R</tspan><tspan class="cls-10" x="5.98" y="0">eg</tspan><tspan class="cls-7" x="16.47" y="0">istr</tspan><tspan class="cls-10" x="31.83" y="0">a</tspan><tspan x="37.31" y="0">r</tspan></text><rect class="cls-1" x="358.67" y="170.15" width="133.06" height="23"/><text class="cls-11" transform="translate(148.82 150.01)">Wo liegt signalwerk.ch?</text><text class="cls-12" transform="translate(102.04 6.01)">Client fragt beim DNS </text><text class="cls-12" transform="translate(174.12 6.01)"> </text><text class="cls-12" transform="translate(102.04 18.01)">nach einer Domain</text><text class="cls-11" transform="translate(102.04 30.01)">Wo liegt signalwerk.ch?</text><text class="cls-11" transform="translate(323.71 67.33)">Nameserver für signalwerk.ch:</text><text class="cls-11" transform="translate(323.71 79.33)">ns1.hans.hosteurope.de</text><text class="cls-11" transform="translate(323.71 91.33)">ns2.hans.hosteurope.de</text><text class="cls-12" transform="translate(378.71 206.72)">Registrar meldet die </text><text class="cls-12" transform="translate(446.33 206.72)"> </text><text class="cls-12" transform="translate(378.71 218.72)">DNS-Einträge an die root-Server</text><text class="cls-11" transform="translate(378.71 230.72)">Nameserver für signalwerk.ch:</text><text class="cls-11" transform="translate(378.71 242.72)">ns1.hans.hosteurope.de</text><text class="cls-11" transform="translate(378.71 254.71)">ns2.hans.hosteurope.de</text><text class="cls-12" transform="translate(323.71 6)">DNS-Server erfragt beim root Server </text><text class="cls-12" transform="translate(443.61 6)"> </text><text class="cls-12" transform="translate(323.71 18)">in regelmässigen Abständen</text><text class="cls-12" transform="translate(323.71 29.99)">die DNS-Einträge für alle Domains.</text><text class="cls-11" transform="translate(263.62 124.99)">Antwort: 87.230.27.223</text><text class="cls-11" transform="translate(102.04 115.79)">Antwort: 87.230.27.223</text><path class="cls-1" d="M68.59,71.16c21.9,19.26,45.54,27.33,75.48,27.33S201.56,87,223.46,67.72"/><polygon class="cls-2" points="64.68 67.72 65.78 78.53 75.54 67.42 64.68 67.72"/><path class="cls-2" d="M144.57,60a9.92,9.92,0,1,0-9.92-9.92A9.92,9.92,0,0,0,144.57,60"/><text class="cls-13" transform="translate(141.98 53.51)">1</text><path class="cls-2" d="M238.11,144.65a9.92,9.92,0,1,0-9.92-9.92,9.92,9.92,0,0,0,9.92,9.92"/><text class="cls-13" transform="translate(235.12 138.17)">2</text><path class="cls-2" d="M255.12,117.57a9.92,9.92,0,1,0-9.92-9.92,9.92,9.92,0,0,0,9.92,9.92"/><text class="cls-13" transform="translate(252.13 111.09)">3</text><path class="cls-2" d="M144.57,108.65a9.92,9.92,0,1,0-9.92-9.92,9.92,9.92,0,0,0,9.92,9.92"/><text class="cls-13" transform="translate(141.58 102.17)">4</text></g></g></svg>