<svg xmlns="http://www.w3.org/2000/svg" viewBox="0 0 289.13 359.17"><defs><style>.cls-1{fill:none;stroke:#1a1a18;stroke-width:3px;}.cls-2,.cls-4,.cls-7,.cls-9{fill:#1a1a18;}.cls-3{fill:#fff;}.cls-4{font-size:9px;}.cls-4,.cls-7{font-family:OpenSans-Bold, Open Sans;font-weight:700;}.cls-5{letter-spacing:0em;}.cls-6{letter-spacing:0em;}.cls-7,.cls-9{font-size:7px;}.cls-8{letter-spacing:0em;}.cls-9{font-family:OpenSans, Open Sans;}</style></defs><title>dns-host</title><g id="Layer_2" data-name="Layer 2"><g id="Layer_1-2" data-name="Layer 1"><line class="cls-1" x1="76.54" y1="180.45" x2="198.89" y2="180.45"/><polygon class="cls-2" points="204.09 180.45 196.14 173.05 196.14 187.84 204.09 180.45"/><path class="cls-1" d="M93.2,197.35c15.11,13.29,30.21,17.79,50.87,17.79s39.66-7.94,54.78-21.23"/><polygon class="cls-2" points="89.29 193.92 90.38 204.72 100.15 193.61 89.29 193.92"/><rect class="cls-3" x="1.5" y="168.95" width="82.04" height="23"/><text class="cls-4" transform="translate(23.74 183.89)"><tspan class="cls-5">B</tspan><tspan class="cls-6" x="6.09" y="0">ro</tspan><tspan class="cls-5" x="15.82" y="0">w</tspan><tspan class="cls-6" x="23.57" y="0">s</tspan><tspan class="cls-5" x="28.08" y="0">e</tspan><tspan x="33.44" y="0">r</tspan></text><rect class="cls-1" x="1.5" y="168.95" width="82.04" height="23"/><rect class="cls-3" x="205.59" y="168.95" width="82.04" height="23"/><text class="cls-4" transform="translate(220.66 183.89)"><tspan class="cls-5">Web-Se</tspan><tspan class="cls-6" x="33.15" y="0">r</tspan><tspan class="cls-5" x="37.28" y="0">ve</tspan><tspan x="47.8" y="0">r</tspan></text><rect class="cls-1" x="205.59" y="168.95" width="82.04" height="23"/><text class="cls-7" transform="translate(89.29 138)">Erfragt die Datei </text><text class="cls-7" transform="translate(148.38 138)"> </text><text class="cls-7" transform="translate(89.29 150)">http://www.switch.ch/index.html</text><text class="cls-7" transform="translate(206.08 150)"> </text><text class="cls-7" transform="translate(89.29 161.99)">bei 130.59.138.57</text><line class="cls-1" x1="76.54" y1="43.58" x2="198.89" y2="43.58"/><polygon class="cls-2" points="204.09 43.58 196.14 36.19 196.14 50.98 204.09 43.58"/><path class="cls-1" d="M93.2,60.49c15.11,13.29,30.21,17.79,50.87,17.79s39.66-7.94,54.78-21.23"/><polygon class="cls-2" points="89.29 57.05 90.38 67.86 100.15 56.75 89.29 57.05"/><rect class="cls-3" x="1.5" y="32.08" width="82.04" height="23"/><text class="cls-4" transform="translate(23.74 47.03)"><tspan class="cls-5">B</tspan><tspan class="cls-6" x="6.09" y="0">ro</tspan><tspan class="cls-5" x="15.82" y="0">w</tspan><tspan class="cls-6" x="23.57" y="0">s</tspan><tspan class="cls-5" x="28.08" y="0">e</tspan><tspan x="33.44" y="0">r</tspan></text><rect class="cls-1" x="1.5" y="32.08" width="82.04" height="23"/><rect class="cls-3" x="205.59" y="32.08" width="82.04" height="23"/><text class="cls-4" transform="translate(221.05 47.03)"><tspan class="cls-6">D</tspan><tspan class="cls-5" x="6.7" y="0">NS-Se</tspan><tspan class="cls-8" x="32.37" y="0">r</tspan><tspan class="cls-5" x="36.49" y="0">ve</tspan><tspan x="47.02" y="0">r</tspan></text><rect class="cls-1" x="205.59" y="32.08" width="82.04" height="23"/><text class="cls-7" transform="translate(89.29 6)">Erfragt IP-Adresse für </text><text class="cls-7" transform="translate(89.29 18)">www.switch.ch</text><text class="cls-9" transform="translate(0 66.65)">Browser kennt</text><text class="cls-9" transform="translate(0 78.64)">IP-Adresse des </text><text class="cls-9" transform="translate(49.72 78.64)"> </text><text class="cls-9" transform="translate(0 90.64)">DNS-Servers</text><text class="cls-9" transform="translate(0 102.64)">über die Netzwerkeinstellungen</text><text class="cls-9" transform="translate(0 321.28)">Browser erkennt, dass in </text><text class="cls-9" transform="translate(0 333.28)">der HTML-Datei weitere </text><text class="cls-9" transform="translate(79.26 333.28)"> </text><text class="cls-9" transform="translate(0 345.27)">Resourche (Bilder, CSS, ...) </text><text class="cls-9" transform="translate(0 357.27)">gebraucht werden.</text><text class="cls-7" transform="translate(165.54 90.06)">Antwort: 130.59.138.57</text><text class="cls-7" transform="translate(165.54 102.06)">(Details siehe nächste Seite)</text><line class="cls-1" x1="76.54" y1="294.45" x2="198.89" y2="294.45"/><polygon class="cls-2" points="204.09 294.45 196.14 287.05 196.14 301.84 204.09 294.45"/><path class="cls-1" d="M93.2,311.35c15.11,13.29,30.21,17.79,50.87,17.79s39.66-7.94,54.78-21.23"/><polygon class="cls-2" points="89.29 307.92 90.38 318.72 100.15 307.61 89.29 307.92"/><rect class="cls-3" x="1.5" y="282.95" width="82.04" height="23"/><text class="cls-4" transform="translate(23.74 297.89)"><tspan class="cls-5">B</tspan><tspan class="cls-6" x="6.09" y="0">ro</tspan><tspan class="cls-5" x="15.82" y="0">w</tspan><tspan class="cls-6" x="23.57" y="0">s</tspan><tspan class="cls-5" x="28.08" y="0">e</tspan><tspan x="33.44" y="0">r</tspan></text><rect class="cls-1" x="1.5" y="282.95" width="82.04" height="23"/><rect class="cls-3" x="205.59" y="282.95" width="82.04" height="23"/><text class="cls-4" transform="translate(220.66 297.89)"><tspan class="cls-5">Web-Se</tspan><tspan class="cls-6" x="33.15" y="0">r</tspan><tspan class="cls-5" x="37.28" y="0">ve</tspan><tspan x="47.8" y="0">r</tspan></text><rect class="cls-1" x="205.59" y="282.95" width="82.04" height="23"/><text class="cls-7" transform="translate(89.29 252)">Erfragt die Datei </text><text class="cls-7" transform="translate(148.38 252)"> </text><text class="cls-7" transform="translate(89.29 264)">http://www.switch.ch/logo.png </text><text class="cls-7" transform="translate(89.29 275.99)">bei 130.59.138.57</text><text class="cls-7" transform="translate(165.54 228)">Liefert die HTML-Datei</text><text class="cls-7" transform="translate(165.54 342)">Liefert die Datei logo.png</text></g></g></svg>