<svg xmlns="http://www.w3.org/2000/svg" viewBox="0 0 462.77 294"><defs><style>.cls-1,.cls-8{fill:none;stroke:#1a1a18;}.cls-1{stroke-width:3px;}.cls-2{fill:#fff;}.cls-3{font-size:9px;}.cls-3,.cls-9{fill:#1a1a18;font-family:OpenSans-Bold, Open Sans;font-weight:700;}.cls-4{letter-spacing:0em;}.cls-5{letter-spacing:0em;}.cls-6{letter-spacing:0em;}.cls-7{letter-spacing:0.01em;}.cls-8{stroke-width:4px;}.cls-9{font-size:7px;}</style></defs><title>ISP</title><g id="Layer_2" data-name="Layer 2"><g id="Layer_1-2" data-name="Layer 1"><path class="cls-1" d="M73.72,96.59c38.58,16.1,87.09,25.72,139.83,25.72s101.25-9.62,139.83-25.72"/><path class="cls-1" d="M74.22,85.51C87.76,110.88,104.79,126,123.31,126s35.54-15.16,49.09-40.53"/><line class="cls-1" x1="204.09" y1="89" x2="204.09" y2="36"/><line class="cls-1" x1="41.52" y1="89" x2="41.52" y2="36"/><line class="cls-1" x1="384.01" y1="89" x2="384.01" y2="36"/><rect class="cls-2" x="2" y="2" width="422.53" height="50"/><text class="cls-3" transform="translate(153.14 30.44)"><tspan class="cls-4">Ve</tspan><tspan class="cls-5" x="11.26" y="0">r</tspan><tspan class="cls-4" x="15.38" y="0">b</tspan><tspan class="cls-5" x="21.12" y="0">un</tspan><tspan class="cls-4" x="33.02" y="0">d v</tspan><tspan class="cls-5" x="46.31" y="0">on</tspan><tspan class="cls-4" x="57.87" y="0"> </tspan><tspan class="cls-6" x="60.25" y="0">I</tspan><tspan class="cls-7" x="63.27" y="0">SP (</tspan><tspan class="cls-5" x="79.44" y="0">Int</tspan><tspan class="cls-4" x="92.35" y="0">e</tspan><tspan class="cls-5" x="97.71" y="0">rn</tspan><tspan class="cls-4" x="107.79" y="0">e</tspan><tspan class="cls-5" x="113.15" y="0">t</tspan><tspan x="117.09" y="0">)</tspan></text><rect class="cls-8" x="2" y="2" width="422.53" height="50"/><line class="cls-1" x1="23.2" y1="177" x2="65.2" y2="177"/><path class="cls-2" d="M21,196.5A19.5,19.5,0,1,0,1.5,177,19.5,19.5,0,0,0,21,196.5"/><text class="cls-3" transform="translate(6 180.44)"><tspan class="cls-5">Kun</tspan><tspan class="cls-4" x="17.91" y="0">d</tspan><tspan x="23.65" y="0">e</tspan></text><circle class="cls-1" cx="21" cy="177" r="19.5"/><line class="cls-1" x1="184.77" y1="177" x2="226.77" y2="177"/><path class="cls-2" d="M182.58,196.5a19.5,19.5,0,1,0-19.5-19.5,19.5,19.5,0,0,0,19.5,19.5"/><text class="cls-3" transform="translate(167.52 180.44)"><tspan class="cls-4">Se</tspan><tspan class="cls-5" x="10.36" y="0">r</tspan><tspan class="cls-4" x="14.49" y="0">ve</tspan><tspan x="25.01" y="0">r</tspan></text><circle class="cls-1" cx="182.58" cy="177" r="19.5"/><line class="cls-1" x1="364.69" y1="177" x2="406.69" y2="177"/><path class="cls-2" d="M362.49,196.5A19.5,19.5,0,1,0,343,177a19.5,19.5,0,0,0,19.5,19.5"/><text class="cls-3" transform="translate(347.49 180.44)"><tspan class="cls-5">Kun</tspan><tspan class="cls-4" x="17.91" y="0">d</tspan><tspan x="23.65" y="0">e</tspan></text><circle class="cls-1" cx="362.49" cy="177" r="19.5"/><line class="cls-1" x1="23.2" y1="225" x2="65.2" y2="225"/><path class="cls-2" d="M21,244.5A19.5,19.5,0,1,0,1.5,225,19.5,19.5,0,0,0,21,244.5"/><text class="cls-3" transform="translate(6 228.44)"><tspan class="cls-5">Kun</tspan><tspan class="cls-4" x="17.91" y="0">d</tspan><tspan x="23.65" y="0">e</tspan></text><circle class="cls-1" cx="21" cy="225" r="19.5"/><line class="cls-1" x1="184.77" y1="225" x2="226.77" y2="225"/><path class="cls-2" d="M182.58,244.5a19.5,19.5,0,1,0-19.5-19.5,19.5,19.5,0,0,0,19.5,19.5"/><text class="cls-3" transform="translate(167.52 228.44)"><tspan class="cls-4">Se</tspan><tspan class="cls-5" x="10.36" y="0">r</tspan><tspan class="cls-4" x="14.49" y="0">ve</tspan><tspan x="25.01" y="0">r</tspan></text><circle class="cls-1" cx="182.58" cy="225" r="19.5"/><line class="cls-1" x1="364.69" y1="225" x2="406.69" y2="225"/><path class="cls-2" d="M362.49,244.5A19.5,19.5,0,1,0,343,225a19.5,19.5,0,0,0,19.5,19.5"/><text class="cls-3" transform="translate(347.44 228.44)"><tspan class="cls-4">Se</tspan><tspan class="cls-5" x="10.36" y="0">r</tspan><tspan class="cls-4" x="14.49" y="0">ve</tspan><tspan x="25.01" y="0">r</tspan></text><circle class="cls-1" cx="362.49" cy="225" r="19.5"/><polyline class="cls-1" points="23.2 273 65.2 273 65.2 87.07"/><path class="cls-2" d="M21,292.5A19.5,19.5,0,1,0,1.5,273,19.5,19.5,0,0,0,21,292.5"/><text class="cls-3" transform="translate(5.94 276.44)"><tspan class="cls-4">Se</tspan><tspan class="cls-5" x="10.36" y="0">r</tspan><tspan class="cls-4" x="14.49" y="0">ve</tspan><tspan x="25.01" y="0">r</tspan></text><circle class="cls-1" cx="21" cy="273" r="19.5"/><polyline class="cls-1" points="184.77 273 226.77 273 226.77 87.07"/><path class="cls-2" d="M182.58,292.5a19.5,19.5,0,1,0-19.5-19.5,19.5,19.5,0,0,0,19.5,19.5"/><text class="cls-3" transform="translate(167.52 276.44)"><tspan class="cls-4">Se</tspan><tspan class="cls-5" x="10.36" y="0">r</tspan><tspan class="cls-4" x="14.49" y="0">ve</tspan><tspan x="25.01" y="0">r</tspan></text><circle class="cls-1" cx="182.58" cy="273" r="19.5"/><polyline class="cls-1" points="364.69 273 406.69 273 406.69 87.07"/><path class="cls-2" d="M362.49,292.5A19.5,19.5,0,1,0,343,273a19.5,19.5,0,0,0,19.5,19.5"/><text class="cls-3" transform="translate(347.44 276.44)"><tspan class="cls-4">Se</tspan><tspan class="cls-5" x="10.36" y="0">r</tspan><tspan class="cls-4" x="14.49" y="0">ve</tspan><tspan x="25.01" y="0">r</tspan></text><circle class="cls-1" cx="362.49" cy="273" r="19.5"/><rect class="cls-2" x="1.5" y="77.5" width="82.04" height="23"/><text class="cls-3" transform="translate(35.68 92.44)"><tspan class="cls-5">I</tspan><tspan class="cls-4" x="3.02" y="0">S</tspan><tspan x="8.02" y="0">P</tspan></text><rect class="cls-1" x="1.5" y="77.5" width="82.04" height="23"/><rect class="cls-2" x="163.07" y="77.5" width="82.04" height="23"/><text class="cls-3" transform="translate(197.26 92.44)"><tspan class="cls-5">I</tspan><tspan class="cls-4" x="3.02" y="0">S</tspan><tspan x="8.02" y="0">P</tspan></text><rect class="cls-1" x="163.07" y="77.5" width="82.04" height="23"/><rect class="cls-2" x="342.99" y="77.5" width="82.04" height="23"/><text class="cls-3" transform="translate(377.17 92.44)"><tspan class="cls-5">I</tspan><tspan class="cls-4" x="3.02" y="0">S</tspan><tspan x="8.02" y="0">P</tspan></text><rect class="cls-1" x="342.99" y="77.5" width="82.04" height="23"/><text class="cls-9" transform="translate(76.54 179.36)">DSL</text><text class="cls-9" transform="translate(111.68 137.36)">Peering</text><text class="cls-9" transform="translate(286.21 125.36)">Peering</text><text class="cls-9" transform="translate(238.11 179.36)">Standleitung</text><text class="cls-9" transform="translate(418.02 179.36)">DSL</text><text class="cls-9" transform="translate(76.53 227.36)">DSL</text><text class="cls-9" transform="translate(238.1 227.36)">Standleitung</text><text class="cls-9" transform="translate(418.02 227.36)">Standleitung</text><text class="cls-9" transform="translate(76.52 275.35)">Standleitung</text><text class="cls-9" transform="translate(238.1 275.35)">Standleitung</text><text class="cls-9" transform="translate(418.01 275.35)">Standleitung</text></g></g></svg>