<svg id="Layer_1" data-name="Layer 1" xmlns="http://www.w3.org/2000/svg" xmlns:xlink="http://www.w3.org/1999/xlink" viewBox="0 0 493.23 546"><defs><style>.cls-1,.cls-4{fill:none;}.cls-2{clip-path:url(#clip-path);}.cls-12,.cls-3{font-size:7px;}.cls-12,.cls-13,.cls-3,.cls-6{fill:#20201e;}.cls-3{font-family:OpenSans, Open Sans;}.cls-4{stroke:#20201e;stroke-width:3px;}.cls-5{fill:#fff;}.cls-6{font-size:9px;}.cls-12,.cls-6{font-family:OpenSans-Bold, Open Sans;font-weight:700;}.cls-7{letter-spacing:0em;}.cls-8{letter-spacing:0em;}.cls-9{letter-spacing:0em;}.cls-10{letter-spacing:0.01em;}.cls-11{fill:#e1e2e2;}</style><clipPath id="clip-path"><rect class="cls-1" width="493.23" height="546"/></clipPath></defs><title>hyrarchy</title><g class="cls-2"><text class="cls-3" transform="translate(0 155.36)">www.test.ch/A/</text></g><text class="cls-3" transform="translate(357.17 155.36)">www.test.ch/C/</text><polyline class="cls-4" points="162.99 47.09 35.52 47.09 35.52 129.21"/><polyline class="cls-4" points="302.34 47.09 392.68 47.09 392.68 126"/><text class="cls-3" transform="translate(153.07 155.36)">www.test.ch/B/</text><text class="cls-3" transform="translate(153.07 71.36)">www.test.ch</text><rect class="cls-5" x="1.5" y="119.5" width="133.06" height="23"/><text class="cls-6" transform="translate(41.81 134.44)"><tspan class="cls-7">K</tspan><tspan class="cls-8" x="6.01" y="0">a</tspan><tspan class="cls-7" x="11.49" y="0">t</tspan><tspan class="cls-8" x="15.44" y="0">eg</tspan><tspan class="cls-7" x="25.93" y="0">ori</tspan><tspan class="cls-8" x="38.44" y="0">e </tspan><tspan x="46.19" y="0">A</tspan></text><g class="cls-2"><rect class="cls-4" x="1.5" y="119.5" width="133.06" height="23"/></g><rect class="cls-5" x="358.67" y="119.5" width="133.06" height="23"/><text class="cls-6" transform="translate(399.21 134.44)"><tspan class="cls-7">Kat</tspan><tspan class="cls-8" x="15.43" y="0">eg</tspan><tspan class="cls-9" x="25.92" y="0">ori</tspan><tspan class="cls-8" x="38.43" y="0">e </tspan><tspan x="46.18" y="0">C</tspan></text><g class="cls-2"><rect class="cls-4" x="358.67" y="119.5" width="133.06" height="23"/></g><line class="cls-4" x1="188.59" y1="77.06" x2="188.59" y2="132"/><rect class="cls-5" x="154.57" y="119.5" width="184.09" height="23"/><text class="cls-6" transform="translate(220.47 134.44)"><tspan class="cls-7">Kat</tspan><tspan class="cls-8" x="15.43" y="0">eg</tspan><tspan class="cls-9" x="25.92" y="0">ori</tspan><tspan class="cls-8" x="38.43" y="0">e </tspan><tspan x="46.18" y="0">B</tspan></text><rect class="cls-4" x="154.57" y="119.5" width="184.09" height="23"/><rect class="cls-5" x="154.57" y="36.5" width="184.09" height="23"/><text class="cls-6" transform="translate(233.24 51.44)"><tspan class="cls-7">Ho</tspan><tspan class="cls-10" x="12.53" y="0">m</tspan><tspan x="21.41" y="0">e</tspan></text><rect class="cls-4" x="154.57" y="36.5" width="184.09" height="23"/><polyline class="cls-4" points="35.52 162 35.52 214.5 51.02 214.5"/><polyline class="cls-4" points="392.68 162 392.68 214.5 408.19 214.5"/><polyline class="cls-4" points="188.59 162 188.59 214.5 204.09 214.5"/><rect class="cls-5" x="52.52" y="203.5" width="82.04" height="23"/><text class="cls-6" transform="translate(69.34 218.44)"><tspan class="cls-7">Th</tspan><tspan class="cls-10" x="11.2" y="0">em</tspan><tspan class="cls-7" x="25.44" y="0">a</tspan><tspan class="cls-8" x="30.92" y="0" xml:space="preserve"> A</tspan><tspan class="cls-7" x="39.55" y="0">.</tspan><tspan x="42.16" y="0">A</tspan></text><rect class="cls-4" x="52.52" y="203.5" width="82.04" height="23"/><rect class="cls-5" x="409.69" y="203.5" width="82.04" height="23"/><text class="cls-6" transform="translate(426.75 218.44)"><tspan class="cls-7">Th</tspan><tspan class="cls-10" x="11.2" y="0">ema </tspan><tspan class="cls-7" x="33.31" y="0">C.</tspan><tspan x="41.68" y="0">A</tspan></text><g class="cls-2"><rect class="cls-4" x="409.69" y="203.5" width="82.04" height="23"/></g><text class="cls-3" transform="translate(51.02 239.36)">www.test.ch/A/A.html</text><text class="cls-3" transform="translate(408.19 239.36)">www.test.ch/C/A.html</text><rect class="cls-5" x="52.52" y="257.5" width="82.04" height="23"/><text class="cls-6" transform="translate(69.42 272.44)"><tspan class="cls-7">Th</tspan><tspan class="cls-10" x="11.2" y="0">em</tspan><tspan class="cls-7" x="25.44" y="0">a</tspan><tspan class="cls-8" x="30.92" y="0" xml:space="preserve"> A</tspan><tspan class="cls-7" x="39.55" y="0">.</tspan><tspan x="42.16" y="0">B</tspan></text><rect class="cls-4" x="52.52" y="257.5" width="82.04" height="23"/><rect class="cls-5" x="409.69" y="257.5" width="82.04" height="23"/><text class="cls-6" transform="translate(426.83 272.44)"><tspan class="cls-7">Th</tspan><tspan class="cls-10" x="11.2" y="0">ema </tspan><tspan class="cls-7" x="33.31" y="0">C.</tspan><tspan x="41.68" y="0">B</tspan></text><g class="cls-2"><rect class="cls-4" x="409.69" y="257.5" width="82.04" height="23"/></g><text class="cls-3" transform="translate(51.02 293.36)">www.test.ch/A/B.html</text><text class="cls-3" transform="translate(408.19 293.36)">www.test.ch/C/B.html</text><rect class="cls-5" x="52.52" y="311.5" width="82.04" height="23"/><text class="cls-6" transform="translate(69.58 326.44)"><tspan class="cls-7">Th</tspan><tspan class="cls-10" x="11.2" y="0">em</tspan><tspan class="cls-7" x="25.44" y="0">a</tspan><tspan class="cls-8" x="30.92" y="0" xml:space="preserve"> A</tspan><tspan class="cls-7" x="39.55" y="0">.</tspan><tspan x="42.16" y="0">C</tspan></text><rect class="cls-4" x="52.52" y="311.5" width="82.04" height="23"/><rect class="cls-5" x="409.69" y="311.5" width="82.04" height="23"/><text class="cls-6" transform="translate(426.98 326.44)"><tspan class="cls-7">Th</tspan><tspan class="cls-10" x="11.2" y="0">ema </tspan><tspan class="cls-7" x="33.31" y="0">C.</tspan><tspan x="41.68" y="0">C</tspan></text><g class="cls-2"><rect class="cls-4" x="409.69" y="311.5" width="82.04" height="23"/></g><text class="cls-3" transform="translate(51.02 347.36)">www.test.ch/A/C.html</text><text class="cls-3" transform="translate(408.19 347.36)">www.test.ch/C/C.html</text><polyline class="cls-4" points="35.52 210 35.52 268.5 51.02 268.5"/><polyline class="cls-4" points="392.68 210 392.68 268.5 408.19 268.5"/><polyline class="cls-4" points="35.52 264 35.52 322.5 51.02 322.5"/><polyline class="cls-4" points="392.68 264 392.68 322.5 408.19 322.5"/><rect class="cls-5" x="205.59" y="203.5" width="133.06" height="23"/><text class="cls-6" transform="translate(248.01 218.44)"><tspan class="cls-7">Th</tspan><tspan class="cls-10" x="11.2" y="0">ema B</tspan><tspan class="cls-7" x="39.4" y="0">.</tspan><tspan x="42" y="0">A</tspan></text><rect class="cls-4" x="205.59" y="203.5" width="133.06" height="23"/><text class="cls-3" transform="translate(204.09 239.36)">www.test.ch/B/A.html</text><rect class="cls-5" x="205.59" y="257.5" width="133.06" height="23"/><text class="cls-6" transform="translate(248.09 272.44)"><tspan class="cls-7">Th</tspan><tspan class="cls-10" x="11.2" y="0">ema B</tspan><tspan class="cls-7" x="39.4" y="0">.</tspan><tspan x="42" y="0">B</tspan></text><rect class="cls-4" x="205.59" y="257.5" width="133.06" height="23"/><text class="cls-3" transform="translate(204.09 293.36)">www.test.ch/B/B.html</text><polyline class="cls-4" points="188.59 210 188.59 268.5 204.09 268.5"/><rect class="cls-11" x="153.07" width="187.09" height="29.67"/><text class="cls-12" transform="translate(158.74 11.03)">Startseite (Homepage)</text><text class="cls-3" transform="translate(158.74 23.02)">Gibt meist einen Überblick über den Inhalt der Site.</text><rect class="cls-11" y="84" width="493.23" height="29.67"/><text class="cls-12" transform="translate(5.67 95.03)">Kategorienseiten (Level 1)</text><text class="cls-3" transform="translate(5.67 107.02)">Gliedern die einzelnen Rubriken einer Website. Auf den Kategorieseiten können wiederum Inhalte von den Unterseiten enthalten sein.</text><rect class="cls-11" x="28.35" y="168.33" width="464.88" height="29.67"/><text class="cls-12" transform="translate(34.02 179.36)">Detailseiten</text><path class="cls-13" d="M38.69,188.81A2.52,2.52,0,0,1,38,190.7a2.66,2.66,0,0,1-1.93.65H34.7v-5h1.53a2.24,2.24,0,0,1,2.46,2.45Zm-.62,0a2,2,0,0,0-.49-1.47,2,2,0,0,0-1.46-.5h-.84v4H36a2.15,2.15,0,0,0,1.56-.51A2,2,0,0,0,38.08,188.83Zm1.6-2.24a.38.38,0,0,1,.1-.29.35.35,0,0,1,.48,0,.37.37,0,0,1,.1.28.38.38,0,0,1-.1.29A.33.33,0,0,1,40,187a.33.33,0,0,1-.24-.09A.38.38,0,0,1,39.67,186.59Zm.62,4.76h-.57v-3.75h.57Zm2.79.07a1.72,1.72,0,0,1-1.31-.51,2,2,0,0,1-.48-1.4,2.17,2.17,0,0,1,.45-1.44,1.48,1.48,0,0,1,1.2-.53A1.41,1.41,0,0,1,44,188a1.78,1.78,0,0,1,.41,1.22v.36H41.87a1.48,1.48,0,0,0,.33,1,1.15,1.15,0,0,0,.89.34,3,3,0,0,0,1.2-.25v.51a3,3,0,0,1-.57.19A3.2,3.2,0,0,1,43.07,191.42ZM42.92,188a.93.93,0,0,0-.72.29,1.35,1.35,0,0,0-.32.81h2a1.25,1.25,0,0,0-.24-.82A.84.84,0,0,0,42.92,188Zm5.9,3.41a1.72,1.72,0,0,1-1.31-.51,2,2,0,0,1-.48-1.4,2.17,2.17,0,0,1,.45-1.44,1.48,1.48,0,0,1,1.2-.53,1.41,1.41,0,0,1,1.11.46,1.78,1.78,0,0,1,.41,1.22v.36H47.62a1.48,1.48,0,0,0,.33,1,1.15,1.15,0,0,0,.89.34,3,3,0,0,0,1.2-.25v.51a3,3,0,0,1-.57.19A3.2,3.2,0,0,1,48.82,191.42ZM48.67,188a.93.93,0,0,0-.72.29,1.35,1.35,0,0,0-.32.81h2a1.25,1.25,0,0,0-.24-.82A.84.84,0,0,0,48.67,188Zm2.45-1.42a.38.38,0,0,1,.1-.29.35.35,0,0,1,.48,0,.37.37,0,0,1,.1.28.38.38,0,0,1-.1.29.33.33,0,0,1-.24.09.33.33,0,0,1-.24-.09A.38.38,0,0,1,51.12,186.59Zm.62,4.76h-.57v-3.75h.57ZM56,187.61V188l-.69.08a1.22,1.22,0,0,1,.25.75,1.11,1.11,0,0,1-.38.88,1.52,1.52,0,0,1-1,.33l-.31,0a.56.56,0,0,0-.36.48.24.24,0,0,0,.13.23.92.92,0,0,0,.43.07h.66a1.48,1.48,0,0,1,.93.26.89.89,0,0,1,.33.75,1.06,1.06,0,0,1-.5.95A2.67,2.67,0,0,1,54,193a2,2,0,0,1-1.13-.27.88.88,0,0,1-.4-.77.87.87,0,0,1,.22-.59,1.11,1.11,0,0,1,.62-.34.59.59,0,0,1-.24-.2.53.53,0,0,1-.1-.32.6.6,0,0,1,.11-.36,1.15,1.15,0,0,1,.35-.3,1,1,0,0,1-.47-.41,1.2,1.2,0,0,1-.18-.66,1.21,1.21,0,0,1,.37-.95,1.51,1.51,0,0,1,1-.33,1.9,1.9,0,0,1,.53.07ZM53,192a.51.51,0,0,0,.26.46,1.41,1.41,0,0,0,.73.16,2.05,2.05,0,0,0,1.06-.21.65.65,0,0,0,.34-.58.46.46,0,0,0-.19-.42,1.46,1.46,0,0,0-.71-.12h-.68a.9.9,0,0,0-.6.18A.66.66,0,0,0,53,192Zm.31-3.18a.76.76,0,0,0,.22.59.89.89,0,0,0,.62.2.72.72,0,0,0,.83-.81.74.74,0,0,0-.84-.84.83.83,0,0,0-.62.22A.87.87,0,0,0,53.32,188.81Zm5,2.61a1.72,1.72,0,0,1-1.31-.51,2,2,0,0,1-.48-1.4,2.17,2.17,0,0,1,.45-1.44,1.48,1.48,0,0,1,1.2-.53,1.41,1.41,0,0,1,1.11.46,1.78,1.78,0,0,1,.41,1.22v.36H57.15a1.48,1.48,0,0,0,.33,1,1.15,1.15,0,0,0,.89.34,3,3,0,0,0,1.2-.25v.51a3,3,0,0,1-.57.19A3.2,3.2,0,0,1,58.35,191.42ZM58.2,188a.93.93,0,0,0-.72.29,1.35,1.35,0,0,0-.32.81h2a1.25,1.25,0,0,0-.24-.82A.84.84,0,0,0,58.2,188Zm5.06,3.34v-2.42a1,1,0,0,0-.21-.68.85.85,0,0,0-.65-.23,1.08,1.08,0,0,0-.86.32,1.6,1.6,0,0,0-.27,1v2H60.7v-3.75h.46l.09.51h0a1.16,1.16,0,0,1,.49-.43,1.59,1.59,0,0,1,.7-.15,1.42,1.42,0,0,1,1,.33,1.39,1.39,0,0,1,.34,1v2.44Zm2.94-.4.29,0,.22,0v.43a1,1,0,0,1-.27.07l-.32,0q-1.09,0-1.09-1.15V188H64.5v-.27l.54-.24.24-.8h.33v.87h1.09V188H65.61v2.2a.76.76,0,0,0,.16.52A.56.56,0,0,0,66.21,191Zm1.83.4h-.57V186H68Zm1.16-4.76a.38.38,0,0,1,.1-.29.35.35,0,0,1,.48,0,.37.37,0,0,1,.1.28.38.38,0,0,1-.1.29.33.33,0,0,1-.24.09.33.33,0,0,1-.24-.09A.38.38,0,0,1,69.19,186.59Zm.62,4.76h-.57v-3.75h.57Zm3.65-.13a2,2,0,0,1-.95.19,1.6,1.6,0,0,1-1.26-.5,2.06,2.06,0,0,1-.45-1.42,2.12,2.12,0,0,1,.45-1.45,1.63,1.63,0,0,1,1.29-.51,2.56,2.56,0,0,1,.54.06,1.78,1.78,0,0,1,.42.14l-.17.48a2.67,2.67,0,0,0-.41-.12,1.83,1.83,0,0,0-.39,0q-1.14,0-1.14,1.46a1.73,1.73,0,0,0,.28,1.06,1,1,0,0,0,.83.37,2.52,2.52,0,0,0,1-.2v.5Zm3.45.13v-2.42a1,1,0,0,0-.21-.68A.85.85,0,0,0,76,188a1.07,1.07,0,0,0-.86.32,1.63,1.63,0,0,0-.27,1.05v2h-.57V186h.57v1.61a3.51,3.51,0,0,1,0,.48h0a1.16,1.16,0,0,1,.48-.43,1.55,1.55,0,0,1,.71-.16,1.45,1.45,0,0,1,1,.33,1.37,1.37,0,0,1,.34,1v2.44Zm3.32.07a1.72,1.72,0,0,1-1.31-.51,2,2,0,0,1-.48-1.4,2.17,2.17,0,0,1,.45-1.44,1.48,1.48,0,0,1,1.2-.53,1.41,1.41,0,0,1,1.11.46,1.78,1.78,0,0,1,.41,1.22v.36H79a1.48,1.48,0,0,0,.33,1,1.15,1.15,0,0,0,.89.34,3,3,0,0,0,1.2-.25v.51a3,3,0,0,1-.57.19A3.2,3.2,0,0,1,80.22,191.42ZM80.07,188a.93.93,0,0,0-.72.29,1.35,1.35,0,0,0-.32.81h2a1.25,1.25,0,0,0-.24-.82A.84.84,0,0,0,80.07,188Zm5.06,3.34v-2.42a1,1,0,0,0-.21-.68.85.85,0,0,0-.65-.23,1.08,1.08,0,0,0-.86.32,1.6,1.6,0,0,0-.27,1v2h-.57v-3.75H83l.09.51h0a1.16,1.16,0,0,1,.49-.43,1.59,1.59,0,0,1,.7-.15,1.42,1.42,0,0,1,1,.33,1.39,1.39,0,0,1,.34,1v2.44Zm3.64,0v-5h.58v5Zm4.43,0v-2.42a1,1,0,0,0-.21-.68.85.85,0,0,0-.65-.23,1.08,1.08,0,0,0-.86.32,1.6,1.6,0,0,0-.27,1v2h-.57v-3.75h.46l.09.51h0a1.16,1.16,0,0,1,.49-.43,1.59,1.59,0,0,1,.7-.15,1.42,1.42,0,0,1,1,.33,1.39,1.39,0,0,1,.34,1v2.44Zm4.3,0v-2.42a1,1,0,0,0-.21-.68.85.85,0,0,0-.65-.23,1.07,1.07,0,0,0-.86.32,1.63,1.63,0,0,0-.27,1.05v2h-.57V186h.57v1.61a3.51,3.51,0,0,1,0,.48h0a1.16,1.16,0,0,1,.48-.43,1.55,1.55,0,0,1,.71-.16,1.45,1.45,0,0,1,1,.33,1.37,1.37,0,0,1,.34,1v2.44Zm4,0-.11-.53h0a1.58,1.58,0,0,1-.56.48,1.7,1.7,0,0,1-.7.12,1.25,1.25,0,0,1-.87-.29,1,1,0,0,1-.32-.82q0-1.13,1.81-1.19l.64,0v-.23a1,1,0,0,0-.19-.65.78.78,0,0,0-.61-.21,2.47,2.47,0,0,0-1.06.29l-.17-.43a2.67,2.67,0,0,1,.61-.24,2.63,2.63,0,0,1,.66-.09,1.43,1.43,0,0,1,1,.3,1.24,1.24,0,0,1,.32,1v2.56Zm-1.28-.4a1.15,1.15,0,0,0,.83-.29,1.07,1.07,0,0,0,.3-.81v-.34l-.57,0a2.06,2.06,0,0,0-1,.21.63.63,0,0,0-.3.58.58.58,0,0,0,.19.47A.77.77,0,0,0,100.26,191Zm3.44.4h-.57V186h.57Zm2.41-.4.29,0,.22,0v.43a1,1,0,0,1-.27.07l-.32,0q-1.09,0-1.09-1.15V188h-.54v-.27l.54-.24.24-.8h.33v.87h1.09V188h-1.09v2.2a.76.76,0,0,0,.16.52A.56.56,0,0,0,106.11,191Zm2.84.47a1.72,1.72,0,0,1-1.31-.51,2,2,0,0,1-.48-1.4,2.17,2.17,0,0,1,.45-1.44,1.48,1.48,0,0,1,1.2-.53,1.41,1.41,0,0,1,1.11.46,1.78,1.78,0,0,1,.41,1.22v.36h-2.58a1.48,1.48,0,0,0,.33,1,1.15,1.15,0,0,0,.89.34,3,3,0,0,0,1.2-.25v.51a3,3,0,0,1-.57.19A3.2,3.2,0,0,1,109,191.42ZM108.8,188a.93.93,0,0,0-.72.29,1.35,1.35,0,0,0-.32.81h2a1.25,1.25,0,0,0-.24-.82A.84.84,0,0,0,108.8,188Zm4.89.09a1.35,1.35,0,0,1,1.18-.56,1.39,1.39,0,0,1,1.15.5,2.7,2.7,0,0,1,0,2.86,1.39,1.39,0,0,1-1.14.51,1.62,1.62,0,0,1-.67-.14,1.26,1.26,0,0,1-.51-.42h0l-.12.48h-.41V186h.57v1.29q0,.43,0,.78Zm1.09-.09a1,1,0,0,0-.84.33,2.57,2.57,0,0,0,0,2.25,1,1,0,0,0,.84.34.88.88,0,0,0,.78-.38,2,2,0,0,0,.26-1.1,1.88,1.88,0,0,0-.26-1.09A.91.91,0,0,0,114.78,188Zm4.21,3.4a1.72,1.72,0,0,1-1.31-.51,2,2,0,0,1-.48-1.4,2.17,2.17,0,0,1,.45-1.44,1.48,1.48,0,0,1,1.2-.53A1.41,1.41,0,0,1,120,188a1.78,1.78,0,0,1,.41,1.22v.36h-2.58a1.48,1.48,0,0,0,.33,1,1.15,1.15,0,0,0,.89.34,3,3,0,0,0,1.2-.25v.51a3,3,0,0,1-.57.19A3.2,3.2,0,0,1,119,191.42Zm-.15-3.41a.93.93,0,0,0-.72.29,1.35,1.35,0,0,0-.32.81h2a1.25,1.25,0,0,0-.24-.82A.84.84,0,0,0,118.84,188Zm4.19,0h-1v3.31h-.57V188h-.67v-.26l.67-.21v-.21q0-1.38,1.21-1.38a2.48,2.48,0,0,1,.7.12l-.15.45a1.88,1.88,0,0,0-.56-.11.55.55,0,0,0-.48.21,1.19,1.19,0,0,0-.15.69v.24h1Zm.64-1.46a.38.38,0,0,1,.1-.29.35.35,0,0,1,.48,0,.37.37,0,0,1,.1.28.38.38,0,0,1-.1.29.33.33,0,0,1-.24.09.33.33,0,0,1-.24-.09A.38.38,0,0,1,123.66,186.59Zm.62,4.76h-.57v-3.75h.57Zm3.77,0v-2.42a1,1,0,0,0-.21-.68.85.85,0,0,0-.65-.23,1.08,1.08,0,0,0-.86.32,1.6,1.6,0,0,0-.27,1v2h-.57v-3.75h.46l.09.51h0a1.16,1.16,0,0,1,.49-.43,1.59,1.59,0,0,1,.7-.15,1.42,1.42,0,0,1,1,.33,1.39,1.39,0,0,1,.34,1v2.44Zm4.28-.5h0a1.33,1.33,0,0,1-1.18.57,1.39,1.39,0,0,1-1.14-.5,2.21,2.21,0,0,1-.41-1.43,2.25,2.25,0,0,1,.41-1.44,1.38,1.38,0,0,1,1.14-.51,1.36,1.36,0,0,1,1.17.55h0l0-.27V186h.57v5.32h-.46Zm-1.13.1a1,1,0,0,0,.84-.32,1.6,1.6,0,0,0,.26-1v-.12a1.88,1.88,0,0,0-.26-1.14,1,1,0,0,0-.85-.34.87.87,0,0,0-.76.39,1.93,1.93,0,0,0-.26,1.1,1.85,1.85,0,0,0,.26,1.08A.89.89,0,0,0,131.19,190.95Zm4.46.48a1.72,1.72,0,0,1-1.31-.51,2,2,0,0,1-.48-1.4,2.17,2.17,0,0,1,.45-1.44,1.48,1.48,0,0,1,1.2-.53,1.41,1.41,0,0,1,1.11.46,1.78,1.78,0,0,1,.41,1.22v.36h-2.58a1.48,1.48,0,0,0,.33,1,1.15,1.15,0,0,0,.89.34,3,3,0,0,0,1.2-.25v.51a3,3,0,0,1-.57.19A3.2,3.2,0,0,1,135.65,191.42ZM135.5,188a.93.93,0,0,0-.72.29,1.35,1.35,0,0,0-.32.81h2a1.25,1.25,0,0,0-.24-.82A.84.84,0,0,0,135.5,188Zm5.06,3.34v-2.42a1,1,0,0,0-.21-.68.85.85,0,0,0-.65-.23,1.08,1.08,0,0,0-.86.32,1.6,1.6,0,0,0-.27,1v2H138v-3.75h.46l.09.51h0a1.16,1.16,0,0,1,.49-.43,1.59,1.59,0,0,1,.7-.15,1.42,1.42,0,0,1,1,.33,1.39,1.39,0,0,1,.34,1v2.44Zm6-1a.94.94,0,0,1-.39.81,1.83,1.83,0,0,1-1.09.28,2.38,2.38,0,0,1-1.16-.24v-.53a2.81,2.81,0,0,0,.58.22,2.42,2.42,0,0,0,.6.08,1.35,1.35,0,0,0,.68-.14.49.49,0,0,0,0-.81,3,3,0,0,0-.74-.37,4,4,0,0,1-.74-.34A1,1,0,0,1,144,189a.86.86,0,0,1-.11-.44.84.84,0,0,1,.37-.72,1.74,1.74,0,0,1,1-.26,3,3,0,0,1,1.18.25l-.2.46a2.71,2.71,0,0,0-1-.23,1.18,1.18,0,0,0-.61.13.39.39,0,0,0-.21.35.42.42,0,0,0,.08.26.76.76,0,0,0,.25.2,5.53,5.53,0,0,0,.66.28,2.45,2.45,0,0,1,.9.49A.86.86,0,0,1,146.53,190.33Zm.87-3.74a.38.38,0,0,1,.1-.29.35.35,0,0,1,.48,0,.37.37,0,0,1,.1.28.38.38,0,0,1-.1.29.33.33,0,0,1-.24.09.33.33,0,0,1-.24-.09A.38.38,0,0,1,147.4,186.59Zm.62,4.76h-.57v-3.75H148Zm3.65-.13a2,2,0,0,1-.95.19,1.6,1.6,0,0,1-1.26-.5,2.06,2.06,0,0,1-.45-1.42,2.12,2.12,0,0,1,.45-1.45,1.63,1.63,0,0,1,1.29-.51,2.56,2.56,0,0,1,.54.06,1.78,1.78,0,0,1,.42.14l-.17.48a2.67,2.67,0,0,0-.41-.12,1.83,1.83,0,0,0-.39,0q-1.14,0-1.14,1.46a1.73,1.73,0,0,0,.28,1.06,1,1,0,0,0,.83.37,2.52,2.52,0,0,0,1-.2v.5Zm3.45.13v-2.42a1,1,0,0,0-.21-.68.85.85,0,0,0-.65-.23,1.07,1.07,0,0,0-.86.32,1.63,1.63,0,0,0-.27,1.05v2h-.57V186h.57v1.61a3.51,3.51,0,0,1,0,.48h0a1.16,1.16,0,0,1,.48-.43,1.55,1.55,0,0,1,.71-.16,1.45,1.45,0,0,1,1,.33,1.37,1.37,0,0,1,.34,1v2.44Zm5.86,0-.11-.53h0a1.58,1.58,0,0,1-.56.48,1.7,1.7,0,0,1-.7.12,1.25,1.25,0,0,1-.87-.29,1,1,0,0,1-.32-.82q0-1.13,1.81-1.19l.64,0v-.23a1,1,0,0,0-.19-.65A.78.78,0,0,0,160,188a2.47,2.47,0,0,0-1.06.29l-.17-.43a2.67,2.67,0,0,1,.61-.24,2.63,2.63,0,0,1,.66-.09,1.43,1.43,0,0,1,1,.3,1.24,1.24,0,0,1,.32,1v2.56Zm-1.28-.4a1.15,1.15,0,0,0,.83-.29,1.07,1.07,0,0,0,.3-.81v-.34l-.57,0a2.06,2.06,0,0,0-1,.21.63.63,0,0,0-.3.58.58.58,0,0,0,.19.47A.77.77,0,0,0,159.69,191Zm3.4-3.35V190a1,1,0,0,0,.21.68.85.85,0,0,0,.65.23,1.07,1.07,0,0,0,.86-.32,1.62,1.62,0,0,0,.27-1v-2h.57v3.75h-.47l-.08-.5h0a1.13,1.13,0,0,1-.48.42,1.63,1.63,0,0,1-.71.15,1.43,1.43,0,0,1-1-.32,1.38,1.38,0,0,1-.34-1v-2.45Zm5.45.44h-1v3.31H167V188h-.67v-.26l.67-.21v-.21q0-1.38,1.21-1.38a2.48,2.48,0,0,1,.7.12l-.15.45a1.88,1.88,0,0,0-.56-.11.55.55,0,0,0-.48.21,1.19,1.19,0,0,0-.15.69v.24h1Zm5.05,2.8h0a1.33,1.33,0,0,1-1.18.57,1.39,1.39,0,0,1-1.14-.5,2.21,2.21,0,0,1-.41-1.43,2.25,2.25,0,0,1,.41-1.44,1.38,1.38,0,0,1,1.14-.51,1.36,1.36,0,0,1,1.17.55h0l0-.27V186h.57v5.32h-.46Zm-1.13.1a1,1,0,0,0,.84-.32,1.6,1.6,0,0,0,.26-1v-.12a1.88,1.88,0,0,0-.26-1.14,1,1,0,0,0-.85-.34.87.87,0,0,0-.76.39,1.93,1.93,0,0,0-.26,1.1,1.85,1.85,0,0,0,.26,1.08A.89.89,0,0,0,172.47,190.95Zm4.46.48a1.72,1.72,0,0,1-1.31-.51,2,2,0,0,1-.48-1.4,2.17,2.17,0,0,1,.45-1.44,1.48,1.48,0,0,1,1.2-.53,1.41,1.41,0,0,1,1.11.46,1.78,1.78,0,0,1,.41,1.22v.36h-2.58a1.48,1.48,0,0,0,.33,1,1.15,1.15,0,0,0,.89.34,3,3,0,0,0,1.2-.25v.51a3,3,0,0,1-.57.19A3.2,3.2,0,0,1,176.93,191.42Zm-.15-3.41a.93.93,0,0,0-.72.29,1.35,1.35,0,0,0-.32.81h2a1.25,1.25,0,0,0-.24-.82A.84.84,0,0,0,176.77,188Zm5.06,3.34v-2.42a1,1,0,0,0-.21-.68A.85.85,0,0,0,181,188a1.08,1.08,0,0,0-.86.32,1.6,1.6,0,0,0-.27,1v2h-.57v-3.75h.46l.09.51h0a1.16,1.16,0,0,1,.49-.43,1.59,1.59,0,0,1,.7-.15,1.42,1.42,0,0,1,1,.33,1.39,1.39,0,0,1,.34,1v2.44Zm7.63-2.55a2.52,2.52,0,0,1-.67,1.89,2.66,2.66,0,0,1-1.93.65h-1.38v-5H187a2.24,2.24,0,0,1,2.46,2.45Zm-.62,0a2,2,0,0,0-.49-1.47,2,2,0,0,0-1.46-.5h-.84v4h.71a2.15,2.15,0,0,0,1.56-.51A2,2,0,0,0,188.85,188.83Zm3.23,2.59a1.72,1.72,0,0,1-1.31-.51,2,2,0,0,1-.48-1.4,2.17,2.17,0,0,1,.45-1.44,1.48,1.48,0,0,1,1.2-.53A1.41,1.41,0,0,1,193,188a1.78,1.78,0,0,1,.41,1.22v.36h-2.58a1.48,1.48,0,0,0,.33,1,1.15,1.15,0,0,0,.89.34,3,3,0,0,0,1.2-.25v.51a3,3,0,0,1-.57.19A3.2,3.2,0,0,1,192.08,191.42Zm-.15-3.41a.93.93,0,0,0-.72.29,1.35,1.35,0,0,0-.32.81h2a1.25,1.25,0,0,0-.24-.82A.84.84,0,0,0,191.92,188Zm3.71,2.94.29,0,.22,0v.43a1,1,0,0,1-.27.07l-.32,0q-1.09,0-1.09-1.15V188h-.54v-.27l.54-.24.24-.8H195v.87h1.09V188H195v2.2a.76.76,0,0,0,.16.52A.56.56,0,0,0,195.63,191Zm3.56.4-.11-.53h0a1.58,1.58,0,0,1-.56.48,1.7,1.7,0,0,1-.7.12,1.25,1.25,0,0,1-.87-.29,1,1,0,0,1-.32-.82q0-1.13,1.81-1.19l.64,0v-.23a1,1,0,0,0-.19-.65.78.78,0,0,0-.61-.21,2.47,2.47,0,0,0-1.06.29l-.17-.43a2.67,2.67,0,0,1,.61-.24,2.63,2.63,0,0,1,.66-.09,1.43,1.43,0,0,1,1,.3,1.24,1.24,0,0,1,.32,1v2.56Zm-1.28-.4a1.15,1.15,0,0,0,.83-.29,1.07,1.07,0,0,0,.3-.81v-.34l-.57,0a2.06,2.06,0,0,0-1,.21.63.63,0,0,0-.3.58.58.58,0,0,0,.19.47A.77.77,0,0,0,197.91,191Zm2.82-4.36a.38.38,0,0,1,.1-.29.35.35,0,0,1,.48,0,.37.37,0,0,1,.1.28.38.38,0,0,1-.1.29.33.33,0,0,1-.24.09.33.33,0,0,1-.24-.09A.38.38,0,0,1,200.74,186.59Zm.62,4.76h-.57v-3.75h.57Zm1.77,0h-.57V186h.57Zm3.62-1a.94.94,0,0,1-.39.81,1.83,1.83,0,0,1-1.09.28,2.38,2.38,0,0,1-1.16-.24v-.53a2.81,2.81,0,0,0,.58.22,2.42,2.42,0,0,0,.6.08,1.35,1.35,0,0,0,.68-.14.49.49,0,0,0,0-.81,3,3,0,0,0-.74-.37,4,4,0,0,1-.74-.34,1,1,0,0,1-.33-.33.86.86,0,0,1-.11-.44.84.84,0,0,1,.37-.72,1.74,1.74,0,0,1,1-.26,3,3,0,0,1,1.18.25l-.2.46a2.71,2.71,0,0,0-1-.23,1.18,1.18,0,0,0-.61.13.39.39,0,0,0-.21.35.42.42,0,0,0,.08.26.76.76,0,0,0,.25.2,5.53,5.53,0,0,0,.66.28,2.45,2.45,0,0,1,.9.49A.86.86,0,0,1,206.74,190.33Zm2.51,1.09a1.72,1.72,0,0,1-1.31-.51,2,2,0,0,1-.48-1.4,2.17,2.17,0,0,1,.45-1.44,1.48,1.48,0,0,1,1.2-.53,1.41,1.41,0,0,1,1.11.46,1.78,1.78,0,0,1,.41,1.22v.36H208a1.48,1.48,0,0,0,.33,1,1.15,1.15,0,0,0,.89.34,3,3,0,0,0,1.2-.25v.51a3,3,0,0,1-.57.19A3.2,3.2,0,0,1,209.25,191.42Zm-.15-3.41a.93.93,0,0,0-.72.29,1.35,1.35,0,0,0-.32.81h2a1.25,1.25,0,0,0-.24-.82A.84.84,0,0,0,209.09,188Zm2.45-1.42a.38.38,0,0,1,.1-.29.35.35,0,0,1,.48,0,.37.37,0,0,1,.1.28.38.38,0,0,1-.1.29.33.33,0,0,1-.24.09.33.33,0,0,1-.24-.09A.38.38,0,0,1,211.54,186.59Zm.62,4.76h-.57v-3.75h.57Zm2.41-.4.29,0,.22,0v.43a1,1,0,0,1-.27.07l-.32,0q-1.09,0-1.09-1.15V188h-.54v-.27l.54-.24.24-.8H214v.87h1.09V188H214v2.2a.76.76,0,0,0,.16.52A.56.56,0,0,0,214.57,191Zm2.84.47a1.72,1.72,0,0,1-1.31-.51,2,2,0,0,1-.48-1.4,2.17,2.17,0,0,1,.45-1.44,1.48,1.48,0,0,1,1.2-.53,1.41,1.41,0,0,1,1.11.46,1.78,1.78,0,0,1,.41,1.22v.36h-2.58a1.48,1.48,0,0,0,.33,1,1.15,1.15,0,0,0,.89.34,3,3,0,0,0,1.2-.25v.51a3,3,0,0,1-.57.19A3.2,3.2,0,0,1,217.42,191.42Zm-.15-3.41a.93.93,0,0,0-.72.29,1.35,1.35,0,0,0-.32.81h2a1.25,1.25,0,0,0-.24-.82A.84.84,0,0,0,217.26,188Zm5.06,3.34v-2.42a1,1,0,0,0-.21-.68.85.85,0,0,0-.65-.23,1.08,1.08,0,0,0-.86.32,1.6,1.6,0,0,0-.27,1v2h-.57v-3.75h.46l.09.51h0a1.16,1.16,0,0,1,.49-.43,1.59,1.59,0,0,1,.7-.15,1.42,1.42,0,0,1,1,.33,1.39,1.39,0,0,1,.34,1v2.44ZM224,191a.51.51,0,0,1,.1-.35.38.38,0,0,1,.3-.12.4.4,0,0,1,.31.12.49.49,0,0,1,.11.35.48.48,0,0,1-.11.34.45.45,0,0,1-.6,0A.47.47,0,0,1,224,191Zm7.64.36H231V189h-2.63v2.35h-.58v-5h.58v2.13H231v-2.13h.58Zm1.24-4.76a.38.38,0,0,1,.1-.29.35.35,0,0,1,.48,0,.37.37,0,0,1,.1.28.38.38,0,0,1-.1.29.33.33,0,0,1-.24.09.33.33,0,0,1-.24-.09A.38.38,0,0,1,232.86,186.59Zm.62,4.76h-.57v-3.75h.57Zm2.79.07a1.72,1.72,0,0,1-1.31-.51,2,2,0,0,1-.48-1.4,2.17,2.17,0,0,1,.45-1.44,1.48,1.48,0,0,1,1.2-.53,1.41,1.41,0,0,1,1.11.46,1.78,1.78,0,0,1,.41,1.22v.36h-2.58a1.48,1.48,0,0,0,.33,1,1.15,1.15,0,0,0,.89.34,3,3,0,0,0,1.2-.25v.51a3,3,0,0,1-.57.19A3.2,3.2,0,0,1,236.26,191.42Zm-.15-3.41a.93.93,0,0,0-.72.29,1.35,1.35,0,0,0-.32.81h2a1.25,1.25,0,0,0-.24-.82A.84.84,0,0,0,236.11,188Zm4.21-.48a2.22,2.22,0,0,1,.45,0l-.08.53a1.93,1.93,0,0,0-.41-.05,1,1,0,0,0-.78.37,1.35,1.35,0,0,0-.32.92v2h-.57v-3.75h.47l.06.69h0a1.65,1.65,0,0,1,.5-.56A1.13,1.13,0,0,1,240.31,187.54Zm6,3.81-.69-2.2q-.06-.2-.24-.92h0q-.14.6-.24.92l-.71,2.19h-.66l-1-3.75h.59l.55,2.15a8.72,8.72,0,0,1,.22,1h0q0-.19.12-.5t.15-.49l.69-2.15h.62l.67,2.15a7.26,7.26,0,0,1,.26,1h0a3.61,3.61,0,0,1,.07-.38q.06-.26.71-2.76H248l-1,3.75Zm2.34-4.76a.38.38,0,0,1,.1-.29.35.35,0,0,1,.48,0,.37.37,0,0,1,.1.28.38.38,0,0,1-.1.29.33.33,0,0,1-.24.09.33.33,0,0,1-.24-.09A.38.38,0,0,1,248.68,186.59Zm.62,4.76h-.57v-3.75h.57Zm2.91-3.81a2.22,2.22,0,0,1,.45,0l-.08.53a1.93,1.93,0,0,0-.41-.05,1,1,0,0,0-.78.37,1.35,1.35,0,0,0-.32.92v2h-.57v-3.75H251l.06.69h0a1.65,1.65,0,0,1,.5-.56A1.13,1.13,0,0,1,252.21,187.54Zm3.7,3.31h0a1.33,1.33,0,0,1-1.18.57,1.39,1.39,0,0,1-1.14-.5,2.21,2.21,0,0,1-.41-1.43,2.25,2.25,0,0,1,.41-1.44,1.38,1.38,0,0,1,1.14-.51,1.36,1.36,0,0,1,1.17.55h0l0-.27V186h.57v5.32H256Zm-1.13.1a1,1,0,0,0,.84-.32,1.6,1.6,0,0,0,.26-1v-.12a1.88,1.88,0,0,0-.26-1.14,1,1,0,0,0-.85-.34.87.87,0,0,0-.76.39,1.93,1.93,0,0,0-.26,1.1,1.85,1.85,0,0,0,.26,1.08A.89.89,0,0,0,254.77,190.95Zm7.25-.1h0a1.33,1.33,0,0,1-1.18.57,1.39,1.39,0,0,1-1.14-.5,2.21,2.21,0,0,1-.41-1.43,2.25,2.25,0,0,1,.41-1.44,1.38,1.38,0,0,1,1.14-.51,1.36,1.36,0,0,1,1.17.55h0l0-.27V186h.57v5.32h-.46Zm-1.13.1a1,1,0,0,0,.84-.32,1.6,1.6,0,0,0,.26-1v-.12a1.88,1.88,0,0,0-.26-1.14,1,1,0,0,0-.85-.34.87.87,0,0,0-.76.39,1.93,1.93,0,0,0-.26,1.1,1.85,1.85,0,0,0,.26,1.08A.89.89,0,0,0,260.88,190.95Zm2.83-4.35a.38.38,0,0,1,.1-.29.35.35,0,0,1,.48,0,.37.37,0,0,1,.1.28.38.38,0,0,1-.1.29.33.33,0,0,1-.24.09.33.33,0,0,1-.24-.09A.38.38,0,0,1,263.71,186.59Zm.62,4.76h-.57v-3.75h.57Zm2.79.07a1.72,1.72,0,0,1-1.31-.51,2,2,0,0,1-.48-1.4,2.17,2.17,0,0,1,.45-1.44,1.48,1.48,0,0,1,1.2-.53,1.41,1.41,0,0,1,1.11.46,1.78,1.78,0,0,1,.41,1.22v.36h-2.58a1.48,1.48,0,0,0,.33,1,1.15,1.15,0,0,0,.89.34,3,3,0,0,0,1.2-.25v.51a3,3,0,0,1-.57.19A3.2,3.2,0,0,1,267.11,191.42ZM267,188a.93.93,0,0,0-.72.29,1.35,1.35,0,0,0-.32.81h2a1.25,1.25,0,0,0-.24-.82A.84.84,0,0,0,267,188Zm4.4,3.34v-5h.58v5Zm4.43,0v-2.42a1,1,0,0,0-.21-.68.85.85,0,0,0-.65-.23,1.08,1.08,0,0,0-.86.32,1.6,1.6,0,0,0-.27,1v2h-.57v-3.75h.46l.09.51h0a1.16,1.16,0,0,1,.49-.43,1.59,1.59,0,0,1,.7-.15,1.42,1.42,0,0,1,1,.33,1.39,1.39,0,0,1,.34,1v2.44Zm3.42-3.31h-1v3.31h-.57V188H277v-.26l.67-.21v-.21q0-1.38,1.21-1.38a2.48,2.48,0,0,1,.7.12l-.15.45a1.88,1.88,0,0,0-.56-.11.55.55,0,0,0-.48.21,1.19,1.19,0,0,0-.15.69v.24h1Zm3.92,1.43a2.07,2.07,0,0,1-.46,1.43,1.63,1.63,0,0,1-1.27.51,1.69,1.69,0,0,1-.89-.24,1.56,1.56,0,0,1-.6-.68,2.36,2.36,0,0,1-.21-1,2.06,2.06,0,0,1,.46-1.43,1.62,1.62,0,0,1,1.27-.51,1.58,1.58,0,0,1,1.25.52A2.06,2.06,0,0,1,283.13,189.48Zm-2.85,0a1.78,1.78,0,0,0,.29,1.09,1.14,1.14,0,0,0,1.69,0,1.77,1.77,0,0,0,.29-1.1,1.74,1.74,0,0,0-.29-1.09,1,1,0,0,0-.85-.37,1,1,0,0,0-.84.37A1.76,1.76,0,0,0,280.28,189.48Zm5.56-1.94a2.22,2.22,0,0,1,.45,0l-.08.53a1.93,1.93,0,0,0-.41-.05,1,1,0,0,0-.78.37,1.35,1.35,0,0,0-.32.92v2h-.57v-3.75h.47l.06.69h0a1.65,1.65,0,0,1,.5-.56A1.13,1.13,0,0,1,285.84,187.54Zm5.92,3.81v-2.44a1,1,0,0,0-.19-.67A.74.74,0,0,0,291,188a1,1,0,0,0-.78.3,1.45,1.45,0,0,0-.25.94v2.09h-.57v-2.44a1,1,0,0,0-.19-.67.74.74,0,0,0-.6-.22.93.93,0,0,0-.78.32,1.73,1.73,0,0,0-.25,1v2H287v-3.75h.46l.09.51h0a1.12,1.12,0,0,1,.45-.43,1.38,1.38,0,0,1,.65-.15,1.11,1.11,0,0,1,1.15.64h0a1.19,1.19,0,0,1,.49-.46,1.51,1.51,0,0,1,.72-.17,1.27,1.27,0,0,1,1,.33,1.46,1.46,0,0,1,.32,1v2.44Zm4,0-.11-.53h0a1.58,1.58,0,0,1-.56.48,1.7,1.7,0,0,1-.7.12,1.25,1.25,0,0,1-.87-.29,1,1,0,0,1-.32-.82q0-1.13,1.81-1.19l.64,0v-.23a1,1,0,0,0-.19-.65.78.78,0,0,0-.61-.21,2.47,2.47,0,0,0-1.06.29l-.17-.43a2.67,2.67,0,0,1,.61-.24,2.63,2.63,0,0,1,.66-.09,1.43,1.43,0,0,1,1,.3,1.24,1.24,0,0,1,.32,1v2.56Zm-1.28-.4a1.15,1.15,0,0,0,.83-.29,1.07,1.07,0,0,0,.3-.81v-.34l-.57,0a2.06,2.06,0,0,0-1,.21.63.63,0,0,0-.3.58.58.58,0,0,0,.19.47A.77.77,0,0,0,294.51,191Zm4.08,0,.29,0,.22,0v.43a1,1,0,0,1-.27.07l-.32,0q-1.09,0-1.09-1.15V188h-.54v-.27l.54-.24.24-.8H298v.87h1.09V188H298v2.2a.76.76,0,0,0,.16.52A.56.56,0,0,0,298.59,191Zm1.21-4.36a.38.38,0,0,1,.1-.29.35.35,0,0,1,.48,0,.37.37,0,0,1,.1.28.38.38,0,0,1-.1.29.33.33,0,0,1-.24.09.33.33,0,0,1-.24-.09A.38.38,0,0,1,299.81,186.59Zm.62,4.76h-.57v-3.75h.57Zm4.44-1.88a2.07,2.07,0,0,1-.46,1.43,1.63,1.63,0,0,1-1.27.51,1.69,1.69,0,0,1-.89-.24,1.56,1.56,0,0,1-.6-.68,2.36,2.36,0,0,1-.21-1,2.06,2.06,0,0,1,.46-1.43,1.62,1.62,0,0,1,1.27-.51,1.58,1.58,0,0,1,1.25.52A2.06,2.06,0,0,1,304.86,189.48Zm-2.85,0a1.78,1.78,0,0,0,.29,1.09,1.14,1.14,0,0,0,1.69,0,1.77,1.77,0,0,0,.29-1.1,1.74,1.74,0,0,0-.29-1.09,1,1,0,0,0-.85-.37,1,1,0,0,0-.84.37A1.76,1.76,0,0,0,302,189.48Zm6.41,1.88v-2.42a1,1,0,0,0-.21-.68.85.85,0,0,0-.65-.23,1.08,1.08,0,0,0-.86.32,1.6,1.6,0,0,0-.27,1v2h-.57v-3.75h.46l.09.51h0a1.16,1.16,0,0,1,.49-.43,1.59,1.59,0,0,1,.7-.15,1.42,1.42,0,0,1,1,.33,1.39,1.39,0,0,1,.34,1v2.44Zm4.37,0-1.42-3.75H312l.81,2.22a10.53,10.53,0,0,1,.32,1h0a7.64,7.64,0,0,1,.24-.75q.2-.57.9-2.48h.61l-1.42,3.75Zm4.27.07a1.72,1.72,0,0,1-1.31-.51,2,2,0,0,1-.48-1.4,2.17,2.17,0,0,1,.45-1.44,1.48,1.48,0,0,1,1.2-.53A1.41,1.41,0,0,1,318,188a1.78,1.78,0,0,1,.41,1.22v.36h-2.58a1.48,1.48,0,0,0,.33,1,1.15,1.15,0,0,0,.89.34,3,3,0,0,0,1.2-.25v.51a3,3,0,0,1-.57.19A3.2,3.2,0,0,1,317.06,191.42Zm-.15-3.41a.93.93,0,0,0-.72.29,1.35,1.35,0,0,0-.32.81h2a1.25,1.25,0,0,0-.24-.82A.84.84,0,0,0,316.91,188Zm4.21-.48a2.22,2.22,0,0,1,.45,0l-.08.53a1.93,1.93,0,0,0-.41-.05,1,1,0,0,0-.78.37,1.35,1.35,0,0,0-.32.92v2h-.57v-3.75h.47l.06.69h0a1.65,1.65,0,0,1,.5-.56A1.13,1.13,0,0,1,321.12,187.54Zm5.92,3.81v-2.44a1,1,0,0,0-.19-.67.74.74,0,0,0-.59-.22,1,1,0,0,0-.78.3,1.45,1.45,0,0,0-.25.94v2.09h-.57v-2.44a1,1,0,0,0-.19-.67.74.74,0,0,0-.6-.22.93.93,0,0,0-.78.32,1.73,1.73,0,0,0-.25,1v2h-.57v-3.75h.46l.09.51h0a1.12,1.12,0,0,1,.45-.43,1.38,1.38,0,0,1,.65-.15,1.11,1.11,0,0,1,1.15.64h0a1.19,1.19,0,0,1,.49-.46,1.51,1.51,0,0,1,.72-.17,1.27,1.27,0,0,1,1,.33,1.46,1.46,0,0,1,.32,1v2.44Zm1.69-4.76a.38.38,0,0,1,.1-.29.35.35,0,0,1,.48,0,.37.37,0,0,1,.1.28.38.38,0,0,1-.1.29.33.33,0,0,1-.24.09.33.33,0,0,1-.24-.09A.38.38,0,0,1,328.72,186.59Zm.62,4.76h-.57v-3.75h.57Zm2.41-.4.29,0,.22,0v.43a1,1,0,0,1-.27.07l-.32,0q-1.09,0-1.09-1.15V188H330v-.27l.54-.24.24-.8h.33v.87h1.09V188h-1.09v2.2a.76.76,0,0,0,.16.52A.56.56,0,0,0,331.75,191Zm2.47,0,.29,0,.22,0v.43a1,1,0,0,1-.27.07l-.32,0q-1.09,0-1.09-1.15V188h-.54v-.27l.54-.24.24-.8h.33v.87h1.09V188h-1.09v2.2a.76.76,0,0,0,.16.52A.56.56,0,0,0,334.22,191Zm2.84.47a1.72,1.72,0,0,1-1.31-.51,2,2,0,0,1-.48-1.4,2.17,2.17,0,0,1,.45-1.44,1.48,1.48,0,0,1,1.2-.53A1.41,1.41,0,0,1,338,188a1.78,1.78,0,0,1,.41,1.22v.36h-2.58a1.48,1.48,0,0,0,.33,1,1.15,1.15,0,0,0,.89.34,3,3,0,0,0,1.2-.25v.51a3,3,0,0,1-.57.19A3.2,3.2,0,0,1,337.07,191.42Zm-.15-3.41a.93.93,0,0,0-.72.29,1.35,1.35,0,0,0-.32.81h2a1.25,1.25,0,0,0-.24-.82A.84.84,0,0,0,336.91,188Zm3.07,3.34h-.57V186H340Zm2.41-.4.29,0,.22,0v.43a1,1,0,0,1-.27.07l-.32,0q-1.09,0-1.09-1.15V188h-.54v-.27l.54-.24.24-.8h.33v.87h1.09V188h-1.09v2.2a.76.76,0,0,0,.16.52A.56.56,0,0,0,342.39,191Zm1.18,0a.51.51,0,0,1,.1-.35.38.38,0,0,1,.3-.12.4.4,0,0,1,.31.12.49.49,0,0,1,.11.35.48.48,0,0,1-.11.34.45.45,0,0,1-.6,0A.47.47,0,0,1,343.57,191Z"/><rect class="cls-5" x="205.59" y="311.5" width="133.06" height="23"/><text class="cls-6" transform="translate(248.24 326.44)"><tspan class="cls-7">Th</tspan><tspan class="cls-10" x="11.2" y="0">em</tspan><tspan class="cls-7" x="25.44" y="0">a</tspan><tspan class="cls-8" x="30.92" y="0" xml:space="preserve"> B</tspan><tspan class="cls-7" x="39.39" y="0">.</tspan><tspan x="41.99" y="0">C</tspan></text><rect class="cls-4" x="205.59" y="311.5" width="133.06" height="23"/><text class="cls-3" transform="translate(204.09 347.36)">www.test.ch/B/C.html</text><polyline class="cls-4" points="188.59 264 188.59 322.5 204.09 322.5"/><rect class="cls-5" x="205.59" y="395.5" width="133.06" height="23"/><text class="cls-6" transform="translate(228.4 410.44)"><tspan class="cls-8">U</tspan><tspan class="cls-7" x="6.85" y="0">nt</tspan><tspan class="cls-8" x="16.74" y="0">e</tspan><tspan class="cls-7" x="22.1" y="0">rkat</tspan><tspan class="cls-8" x="41.26" y="0">eg</tspan><tspan class="cls-7" x="51.75" y="0">ori</tspan><tspan class="cls-8" x="64.26" y="0">e B</tspan><tspan class="cls-9" x="78.1" y="0">.</tspan><tspan x="80.7" y="0">D</tspan></text><rect class="cls-4" x="205.59" y="395.5" width="133.06" height="23"/><text class="cls-3" transform="translate(204.09 431.36)">www.test.ch/B/D/</text><polyline class="cls-4" points="188.59 314.88 188.59 406.5 204.09 406.5"/><rect class="cls-5" x="256.62" y="443.5" width="82.04" height="23"/><text class="cls-6" transform="translate(268.86 458.44)"><tspan class="cls-7">Th</tspan><tspan class="cls-10" x="11.2" y="0">ema B</tspan><tspan class="cls-7" x="39.4" y="0">.D.</tspan><tspan x="51.3" y="0">A</tspan></text><rect class="cls-4" x="256.62" y="443.5" width="82.04" height="23"/><text class="cls-3" transform="translate(255.12 479.36)">www.test.ch/B/D/A.html</text><rect class="cls-5" x="256.62" y="497.5" width="82.04" height="23"/><text class="cls-6" transform="translate(268.94 512.44)"><tspan class="cls-7">Th</tspan><tspan class="cls-10" x="11.2" y="0">ema B</tspan><tspan class="cls-7" x="39.4" y="0">.D.</tspan><tspan x="51.3" y="0">B</tspan></text><rect class="cls-4" x="256.62" y="497.5" width="82.04" height="23"/><text class="cls-3" transform="translate(255.12 533.36)">www.test.ch/BD/B.html</text><polyline class="cls-4" points="239.61 438 239.61 454.5 255.12 454.5"/><polyline class="cls-4" points="239.61 450 239.61 508.5 255.12 508.5"/><rect class="cls-11" x="181.42" y="354.33" width="158.74" height="29.67"/><text class="cls-12" transform="translate(187.09 365.36)">Unterkategorieseiten (Level 2)</text><text class="cls-3" transform="translate(187.09 377.35)">Weitere Tiefen können eingebaut werden.</text></svg>