<svg id="Layer_1" data-name="Layer 1" xmlns="http://www.w3.org/2000/svg" xmlns:xlink="http://www.w3.org/1999/xlink" viewBox="0 0 238.44 249.25"><defs><style>.cls-1,.cls-10,.cls-11,.cls-17,.cls-7{fill:none;}.cls-2{fill:#fff;}.cls-3{fill:#b8b8b8;}.cls-4{fill:#dedede;}.cls-5{font-size:6.97px;}.cls-18,.cls-5{font-family:RedactedScript-Bold, Redacted Script;}.cls-12,.cls-18,.cls-5,.cls-8{font-weight:700;}.cls-6{clip-path:url(#clip-path);}.cls-17,.cls-7{stroke:#000;}.cls-7{stroke-width:0.27px;}.cls-8{font-size:4.29px;font-family:MyriadPro-Bold, Myriad Pro;letter-spacing:0.15em;}.cls-9{letter-spacing:0em;}.cls-10,.cls-11{stroke:#232321;stroke-miterlimit:10;stroke-width:1.75px;}.cls-11{stroke-linecap:round;}.cls-12,.cls-13{font-size:7px;fill:#20201e;}.cls-12{font-family:OpenSans-Bold, Open Sans;}.cls-13{font-family:OpenSans, Open Sans;}.cls-14{clip-path:url(#clip-path-2);}.cls-15{clip-path:url(#clip-path-3);}.cls-16{fill:#5e5e5e;}.cls-17{stroke-width:0.27px;}.cls-18{font-size:7.45px;}</style><clipPath id="clip-path"><rect class="cls-1" x="9.18" y="32.63" width="85.84" height="153.45"/></clipPath><clipPath id="clip-path-2"><rect id="SVGID" class="cls-1" x="144.57" y="32.63" width="85.84" height="153.45"/></clipPath><clipPath id="clip-path-3"><rect id="SVGID-2" data-name="SVGID" class="cls-1" x="126.86" y="22.71" width="122.05" height="228"/></clipPath></defs><title>mobile_slidedown</title><rect class="cls-2" x="9.18" y="32.63" width="85.84" height="153.45"/><rect class="cls-3" x="9.18" y="49.26" width="41.31" height="41.85"/><rect class="cls-3" x="53.7" y="49.26" width="41.31" height="41.85"/><rect class="cls-4" x="9.18" y="32.63" width="85.84" height="12.88"/><text class="cls-5" transform="translate(13.2 102.59)">Acea di volor samus </text><text class="cls-5" transform="translate(13.2 110.96)">aut arcid quo volore </text><text class="cls-5" transform="translate(13.2 119.33)">voluptatur sitatur? </text><text class="cls-5" transform="translate(13.2 127.7)">Nequamusdae parum re-</text><text class="cls-5" transform="translate(13.2 136.07)">prae. Itia volupta non </text><text class="cls-5" transform="translate(13.2 144.44)">providis nam fugitiu nto-</text><text class="cls-5" transform="translate(13.2 152.8)">tatu rescim rat.</text><text class="cls-5" transform="translate(13.2 161.17)">Mo iusanihit exeria so-</text><text class="cls-5" transform="translate(13.2 169.54)">luption nos ese por mil </text><text class="cls-5" transform="translate(13.2 177.91)">mo consed ex eosto do-</text><g class="cls-6"><text class="cls-5" transform="translate(13.2 186.28)">lupta quiderferum quas </text><text class="cls-5" transform="translate(13.2 194.65)">que non eatium laborit </text><text class="cls-5" transform="translate(13.2 203.02)">dolores denitios ipsa-</text><text class="cls-5" transform="translate(13.2 211.39)">perrore modi dolorum </text><text class="cls-5" transform="translate(13.2 219.76)">quia vellaborum rehent </text><text class="cls-5" transform="translate(13.2 228.13)">voluptur? Evellate eos </text><text class="cls-5" transform="translate(13.2 236.5)">sum lam alias ex etur?</text><text class="cls-5" transform="translate(13.2 244.86)">Tem nim facearitas erum </text><text class="cls-5" transform="translate(13.2 253.23)">estrupit velluptae no-</text><path class="cls-3" d="M16.15,34.51a2.89,2.89,0,0,0-3,3v3.22a2.89,2.89,0,0,0,3,3H34.26a2.89,2.89,0,0,0,3-3V37.46a2.89,2.89,0,0,0-3-3Z"/><path class="cls-7" d="M16.15,34.51a2.89,2.89,0,0,0-3,3v3.22a2.89,2.89,0,0,0,3,3H34.26a2.89,2.89,0,0,0,3-3V37.46a2.89,2.89,0,0,0-3-3Z"/></g><text class="cls-8" transform="translate(18.61 40.64)">MEN<tspan class="cls-9" x="10.8" y="0">U</tspan></text><rect class="cls-10" x="0.88" y="31.44" width="2.83" height="9.67" rx="0.55" ry="0.55"/><rect class="cls-10" x="0.88" y="51.98" width="1.64" height="6.85" rx="0.37" ry="0.37"/><rect class="cls-10" x="0.88" y="69.6" width="1.64" height="6.85" rx="0.37" ry="0.37"/><path class="cls-11" d="M16.72,2.83h71a14.44,14.44,0,0,1,14.44,14.44v183.5A14.43,14.43,0,0,1,87.74,215.2h-71A14.43,14.43,0,0,1,2.28,200.76V17.27A14.44,14.44,0,0,1,16.72,2.83Z"/><rect class="cls-10" x="69.46" y="1.24" width="16.43" height="1.41" rx="0.5" ry="0.5"/><path class="cls-2" d="M87.74,2.83h-71A14.44,14.44,0,0,0,2.28,17.26v183.5a14.44,14.44,0,0,0,14.44,14.43h71a14.44,14.44,0,0,0,14.43-14.43V17.26A14.44,14.44,0,0,0,87.74,2.83m7.68,183H9V32.51H95.42Z"/><path class="cls-11" d="M87.74,2.83h-71A14.44,14.44,0,0,0,2.28,17.26v183.5a14.44,14.44,0,0,0,14.44,14.43h71a14.44,14.44,0,0,0,14.43-14.43V17.26A14.44,14.44,0,0,0,87.74,2.83Zm7.68,183H9V32.51H95.42Z"/><circle class="cls-10" cx="52.23" cy="199.14" r="9.61" transform="translate(-142.94 133.63) rotate(-56.75)"/><rect class="cls-10" x="49.18" y="196.09" width="6.09" height="6.1" rx="1.42" ry="1.42"/><circle class="cls-10" cx="52.23" cy="12.7" r="1.96" transform="translate(4.65 37.71) rotate(-41.4)"/><rect class="cls-10" x="42.74" y="18.17" width="18.97" height="4.64" rx="2.2" ry="2.2"/><text class="cls-12" transform="translate(9.04 235.36)">Slidedown-Liste inaktiv</text><text class="cls-13" transform="translate(9.04 247.35)">Zeigt Menu/Home/Info an.</text><rect class="cls-2" x="144.57" y="32.63" width="85.84" height="153.45"/><rect class="cls-3" x="144.57" y="49.26" width="41.31" height="41.85"/><rect class="cls-3" x="189.09" y="49.26" width="41.31" height="41.85"/><text class="cls-5" transform="translate(148.59 102.59)">Acea di volor samus </text><text class="cls-5" transform="translate(148.59 110.96)">aut arcid quo volore </text><text class="cls-5" transform="translate(148.59 119.33)">voluptatur sitatur? </text><text class="cls-5" transform="translate(148.59 127.7)">Nequamusdae parum re-</text><text class="cls-5" transform="translate(148.59 136.07)">prae. Itia volupta non </text><text class="cls-5" transform="translate(148.59 144.44)">providis nam fugitiu nto-</text><text class="cls-5" transform="translate(148.59 152.8)">tatu rescim rat.</text><text class="cls-5" transform="translate(148.59 161.17)">Mo iusanihit exeria so-</text><text class="cls-5" transform="translate(148.59 169.54)">luption nos ese por mil </text><text class="cls-5" transform="translate(148.59 177.91)">mo consed ex eosto do-</text><g class="cls-14"><text class="cls-5" transform="translate(148.59 186.28)">lupta quiderferum quas </text><text class="cls-5" transform="translate(148.59 194.65)">que non eatium laborit </text><text class="cls-5" transform="translate(148.59 203.02)">dolores denitios ipsa-</text><text class="cls-5" transform="translate(148.59 211.39)">perrore modi dolorum </text><text class="cls-5" transform="translate(148.59 219.76)">quia vellaborum rehent </text><text class="cls-5" transform="translate(148.59 228.13)">voluptur? Evellate eos </text><text class="cls-5" transform="translate(148.59 236.5)">sum lam alias ex etur?</text><text class="cls-5" transform="translate(148.59 244.86)">Tem nim facearitas erum </text><text class="cls-5" transform="translate(148.59 253.23)">estrupit velluptae no-</text><g class="cls-15"><rect class="cls-16" x="129.28" y="24.59" width="117.22" height="225.86"/></g></g><rect class="cls-4" x="144.57" y="32.63" width="85.84" height="12.88"/><g class="cls-14"><path class="cls-3" d="M151.54,34.51a2.89,2.89,0,0,0-3,3v77.12a2.89,2.89,0,0,0,3,3h71.89a2.89,2.89,0,0,0,3-3V37.46a2.89,2.89,0,0,0-3-3Z"/><path class="cls-17" d="M151.54,34.51a2.89,2.89,0,0,0-3,3v77.12a2.89,2.89,0,0,0,3,3h71.89a2.89,2.89,0,0,0,3-3V37.46a2.89,2.89,0,0,0-3-3Z"/></g><text class="cls-8" transform="translate(154 40.64)">MEN<tspan class="cls-9" x="10.8" y="0">U</tspan></text><text class="cls-18" transform="translate(155.3 55.22)">volor amus </text><text class="cls-18" transform="translate(155.3 65.77)">autar as dfcid </text><text class="cls-18" transform="translate(155.3 76.32)">qusdsadfo </text><text class="cls-18" transform="translate(155.3 86.87)">oluptatur volor </text><text class="cls-18" transform="translate(155.3 97.42)">amusautaid </text><text class="cls-18" transform="translate(155.3 107.97)">qusafsdasdfadfo </text><rect class="cls-10" x="136.27" y="31.44" width="2.83" height="9.67" rx="0.55" ry="0.55"/><rect class="cls-10" x="136.27" y="51.98" width="1.64" height="6.85" rx="0.37" ry="0.37"/><rect class="cls-10" x="136.27" y="69.6" width="1.64" height="6.85" rx="0.37" ry="0.37"/><path class="cls-11" d="M152.11,2.83h71a14.44,14.44,0,0,1,14.44,14.44v183.5a14.43,14.43,0,0,1-14.43,14.43h-71a14.43,14.43,0,0,1-14.43-14.43V17.27A14.44,14.44,0,0,1,152.11,2.83Z"/><rect class="cls-10" x="204.85" y="1.24" width="16.43" height="1.41" rx="0.5" ry="0.5"/><path class="cls-2" d="M223.13,2.83h-71a14.44,14.44,0,0,0-14.44,14.43v183.5a14.44,14.44,0,0,0,14.44,14.43h71a14.44,14.44,0,0,0,14.43-14.43V17.26A14.44,14.44,0,0,0,223.13,2.83m7.68,183H144.42V32.51h86.39Z"/><path class="cls-11" d="M223.13,2.83h-71a14.44,14.44,0,0,0-14.44,14.43v183.5a14.44,14.44,0,0,0,14.44,14.43h71a14.44,14.44,0,0,0,14.43-14.43V17.26A14.44,14.44,0,0,0,223.13,2.83Zm7.68,183H144.42V32.51h86.39Z"/><circle class="cls-10" cx="187.62" cy="199.14" r="9.61" transform="translate(-81.79 246.85) rotate(-56.75)"/><rect class="cls-10" x="184.57" y="196.09" width="6.09" height="6.1" rx="1.42" ry="1.42"/><circle class="cls-10" cx="187.62" cy="12.7" r="1.96" transform="translate(38.49 127.26) rotate(-41.4)"/><rect class="cls-10" x="178.13" y="18.17" width="18.97" height="4.64" rx="2.2" ry="2.2"/><text class="cls-12" transform="translate(144.57 235.36)">Slidedown-Liste aktiv</text><text class="cls-13" transform="translate(144.57 247.35)">Zeigt Navigation an.</text></svg>