<svg id="Layer_1" data-name="Layer 1" xmlns="http://www.w3.org/2000/svg" viewBox="0 0 90 15"><title>outline</title><path d="M7.68,10.28h-1v-4H2.17v4h-1V1.72h1V5.36H6.69V1.72h1Z"/><path d="M13.83,10.28l-.19-.91h-.05a2.88,2.88,0,0,1-.95.82,3,3,0,0,1-1.2.21A2.13,2.13,0,0,1,10,9.91a1.78,1.78,0,0,1-.55-1.4q0-1.95,3.12-2l1.09,0V6a1.61,1.61,0,0,0-.33-1.12,1.34,1.34,0,0,0-1-.36,4.25,4.25,0,0,0-1.82.49l-.3-.74a4.41,4.41,0,0,1,1.05-.41,4.32,4.32,0,0,1,1.13-.14,2.45,2.45,0,0,1,1.7.51,2.11,2.11,0,0,1,.55,1.63v4.38ZM11.64,9.6a2,2,0,0,0,1.42-.5,1.83,1.83,0,0,0,.52-1.39V7.13l-1,0a3.36,3.36,0,0,0-1.67.36,1.07,1.07,0,0,0-.52,1,1,1,0,0,0,.32.8A1.31,1.31,0,0,0,11.64,9.6Z"/><path d="M24.74,10.28V6.11A1.8,1.8,0,0,0,24.42,5a1.29,1.29,0,0,0-1-.38,1.65,1.65,0,0,0-1.35.52,2.54,2.54,0,0,0-.43,1.61v3.58h-1V6.11A1.75,1.75,0,0,0,20.32,5a1.3,1.3,0,0,0-1-.38A1.57,1.57,0,0,0,18,5.12a2.89,2.89,0,0,0-.43,1.79v3.37h-1V3.86h.79l.16.88h0A2,2,0,0,1,18.33,4a2.35,2.35,0,0,1,1.12-.27,1.91,1.91,0,0,1,2,1.09h0A2,2,0,0,1,22.3,4a2.53,2.53,0,0,1,1.24-.3,2.17,2.17,0,0,1,1.63.56,2.48,2.48,0,0,1,.55,1.79v4.19Z"/><path d="M30.71,3.76a2.36,2.36,0,0,1,2,.86,3.78,3.78,0,0,1,.71,2.45,3.8,3.8,0,0,1-.71,2.45,2.37,2.37,0,0,1-2,.88,2.88,2.88,0,0,1-1.15-.23,2.28,2.28,0,0,1-.87-.71h-.07l-.2.82h-.7V1.17h1V3.38c0,.5,0,.94,0,1.34h0A2.33,2.33,0,0,1,30.71,3.76Zm-.14.81a1.71,1.71,0,0,0-1.44.57,3.24,3.24,0,0,0-.44,1.93A3.21,3.21,0,0,0,29.14,9a1.74,1.74,0,0,0,1.45.59,1.51,1.51,0,0,0,1.34-.66,3.37,3.37,0,0,0,.44-1.88,3.23,3.23,0,0,0-.44-1.86A1.57,1.57,0,0,0,30.57,4.57Z"/><path d="M36,3.86V8a1.67,1.67,0,0,0,.36,1.17,1.43,1.43,0,0,0,1.11.39A1.85,1.85,0,0,0,38.94,9a2.8,2.8,0,0,0,.46-1.8V3.86h1v6.42h-.81l-.14-.86h0a1.91,1.91,0,0,1-.83.73,2.76,2.76,0,0,1-1.21.25,2.45,2.45,0,0,1-1.75-.56A2.36,2.36,0,0,1,35,8.06V3.86Z"/><path d="M45.37,3.74a4.49,4.49,0,0,1,.77.07L46,4.72a3.2,3.2,0,0,0-.7-.09A1.69,1.69,0,0,0,44,5.26a2.31,2.31,0,0,0-.56,1.58v3.44h-1V3.86h.8l.11,1.19h0a2.93,2.93,0,0,1,.86-1A2,2,0,0,1,45.37,3.74Z"/><path d="M52.59,3.86v.62l-1.19.14a2,2,0,0,1,.3.53,2.18,2.18,0,0,1,.13.75,1.92,1.92,0,0,1-.65,1.51A2.63,2.63,0,0,1,49.41,8a3.1,3.1,0,0,1-.54,0,1,1,0,0,0-.62.83.43.43,0,0,0,.22.39,1.62,1.62,0,0,0,.74.12h1.14A2.56,2.56,0,0,1,52,9.7,1.52,1.52,0,0,1,52.51,11a1.84,1.84,0,0,1-.85,1.63,4.63,4.63,0,0,1-2.5.56,3.41,3.41,0,0,1-1.94-.47,1.52,1.52,0,0,1-.68-1.33,1.47,1.47,0,0,1,.37-1A1.87,1.87,0,0,1,48,9.78a1,1,0,0,1-.41-.35.89.89,0,0,1-.17-.54,1.08,1.08,0,0,1,.19-.62,2.21,2.21,0,0,1,.59-.51,1.74,1.74,0,0,1-.81-.69A2.06,2.06,0,0,1,47,5.94a2.07,2.07,0,0,1,.63-1.62,2.54,2.54,0,0,1,1.79-.58,3.18,3.18,0,0,1,.91.12Zm-5.12,7.5a.87.87,0,0,0,.44.79,2.43,2.43,0,0,0,1.26.27A3.6,3.6,0,0,0,51,12.06a1.13,1.13,0,0,0,.58-1,.76.76,0,0,0-.32-.72,2.43,2.43,0,0,0-1.21-.2H48.87a1.55,1.55,0,0,0-1,.31A1.16,1.16,0,0,0,47.47,11.36ZM48,5.92a1.32,1.32,0,0,0,.38,1,1.52,1.52,0,0,0,1.06.34A1.24,1.24,0,0,0,50.87,5.9a1.29,1.29,0,0,0-1.45-1.45,1.46,1.46,0,0,0-1.05.37A1.48,1.48,0,0,0,48,5.92Z"/><path d="M56.62,10.4a2.94,2.94,0,0,1-2.24-.87,3.33,3.33,0,0,1-.83-2.4,3.73,3.73,0,0,1,.77-2.47,2.53,2.53,0,0,1,2-.92,2.42,2.42,0,0,1,1.91.8A3,3,0,0,1,59,6.63v.62H54.56A2.54,2.54,0,0,0,55.13,9a2,2,0,0,0,1.53.59,5.13,5.13,0,0,0,2.05-.43V10a4.77,4.77,0,0,1-1,.32A5.17,5.17,0,0,1,56.62,10.4Zm-.26-5.84a1.6,1.6,0,0,0-1.23.5,2.28,2.28,0,0,0-.54,1.4h3.35a2.08,2.08,0,0,0-.41-1.41A1.42,1.42,0,0,0,56.36,4.56Z"/><path d="M63.54,4.62H61.9v5.66h-1V4.62H59.78V4.18l1.15-.35V3.47Q60.93,1.1,63,1.1a4.21,4.21,0,0,1,1.2.21l-.26.78a3,3,0,0,0-1-.19.94.94,0,0,0-.81.37,2,2,0,0,0-.27,1.18v.41h1.64Z"/><path d="M70.25,7.07a3.54,3.54,0,0,1-.79,2.45,2.75,2.75,0,0,1-2.18.88,2.86,2.86,0,0,1-1.53-.4,2.65,2.65,0,0,1-1-1.16,4,4,0,0,1-.37-1.77,3.55,3.55,0,0,1,.79-2.45,2.79,2.79,0,0,1,2.18-.88,2.71,2.71,0,0,1,2.14.9A3.54,3.54,0,0,1,70.25,7.07Zm-4.89,0a3.09,3.09,0,0,0,.49,1.87,1.94,1.94,0,0,0,2.9,0,3,3,0,0,0,.5-1.87,3,3,0,0,0-.5-1.86,1.73,1.73,0,0,0-1.46-.64,1.7,1.7,0,0,0-1.44.63A3,3,0,0,0,65.36,7.07Z"/><path d="M76.35,10.28V6.13A1.7,1.7,0,0,0,76,5a1.47,1.47,0,0,0-1.12-.39,1.83,1.83,0,0,0-1.48.55,2.74,2.74,0,0,0-.47,1.79v3.37H72V3.86h.79l.16.88h0A1.93,1.93,0,0,1,73.79,4,2.78,2.78,0,0,1,75,3.74a2.45,2.45,0,0,1,1.75.56,2.4,2.4,0,0,1,.59,1.79v4.19Z"/><path d="M81.4,9.6a4,4,0,0,0,.5,0l.38-.08v.74a1.41,1.41,0,0,1-.47.13,3.86,3.86,0,0,1-.55.05c-1.24,0-1.87-.65-1.87-2V4.62h-.92V4.15l.92-.41.41-1.37h.57V3.86h1.86v.76H80.37V8.4a1.33,1.33,0,0,0,.27.89A1,1,0,0,0,81.4,9.6Z"/><path d="M87.7,8.53A1.6,1.6,0,0,1,87,9.91a3.13,3.13,0,0,1-1.88.49,4.05,4.05,0,0,1-2-.4V9.09a4.69,4.69,0,0,0,1,.37,4.16,4.16,0,0,0,1,.14,2.28,2.28,0,0,0,1.18-.25A.83.83,0,0,0,86.44,8a5,5,0,0,0-1.27-.63,6.93,6.93,0,0,1-1.27-.58,1.93,1.93,0,0,1-.57-.57,1.49,1.49,0,0,1-.18-.75,1.42,1.42,0,0,1,.64-1.24,3,3,0,0,1,1.75-.46,5,5,0,0,1,2,.43L87.22,5a4.56,4.56,0,0,0-1.75-.4,1.94,1.94,0,0,0-1,.22.65.65,0,0,0-.35.59.72.72,0,0,0,.13.44,1.39,1.39,0,0,0,.42.35,8.61,8.61,0,0,0,1.13.47,4.27,4.27,0,0,1,1.54.84A1.47,1.47,0,0,1,87.7,8.53Z"/></svg>