<svg xmlns="http://www.w3.org/2000/svg" viewBox="0 0 1200 400"><defs><style>.cls-1,.cls-4{fill:none;stroke-miterlimit:10;stroke-width:4px;}.cls-1{stroke:#000;opacity:0.2;}.cls-2{opacity:0.7;}.cls-3{fill:#005b72;}.cls-4{stroke:#005b72;}.cls-5{fill:#fff;}</style></defs><title>font-characteristics</title><g id="lines"><line class="cls-1" y1="292" x2="1200" y2="292"/><line class="cls-1" x1="805" y1="185.5" x2="1090" y2="185.5"/><line class="cls-1" x1="94" y1="177" x2="406" y2="177"/></g><g id="font"><path d="M124.37,290H111.46V237.76H53V290H40.09V179H53v47.23h58.46V179h12.91Z"/><path d="M204.09,290l-2.5-11.85H201q-6.22,7.82-12.42,10.59t-15.45,2.77q-12.37,0-19.4-6.37t-7-18.15q0-25.22,40.32-26.42l14.12-.46V235q0-9.8-4.21-14.47t-13.48-4.67q-10.41,0-23.54,6.38L156,212.55a59.23,59.23,0,0,1,13.48-5.24,58.12,58.12,0,0,1,14.69-1.9q14.88,0,22.06,6.61t7.17,21.18V290Zm-28.47-8.89q11.76,0,18.49-6.45t6.72-18.07v-7.52l-12.61.53q-15,.54-21.67,4.67t-6.65,12.87q0,6.84,4.14,10.4T175.62,281.11Z"/><path d="M345.47,290V235.86q0-9.95-4.25-14.92T328,216q-11.77,0-17.39,6.75T305,243.53V290H292.4V235.86q0-9.95-4.26-14.92t-13.28-5q-11.85,0-17.35,7.09T252,246.34V290H239.4V206.78h10.25l2,11.39h.61a24.71,24.71,0,0,1,10.06-9.49,30.68,30.68,0,0,1,14.54-3.42q19.51,0,25.51,14.12H303a26.51,26.51,0,0,1,10.78-10.32,33.46,33.46,0,0,1,16.09-3.8q14.13,0,21.15,7.25t7,23.2V290Z"/><path d="M422.76,205.41q16.41,0,25.48,11.2t9.07,31.7q0,20.51-9.15,31.85t-25.4,11.35a36,36,0,0,1-14.84-3,27.77,27.77,0,0,1-11.27-9.22h-.92L393.08,290h-9V171.85h12.61v28.7q0,9.64-.61,17.31h.61Q405.46,205.41,422.76,205.41ZM420.94,216q-12.9,0-18.6,7.4t-5.69,24.94q0,17.54,5.84,25.09T421.25,281q11.61,0,17.31-8.47t5.69-24.33q0-16.24-5.69-24.22T420.94,216Z"/><path d="M491.18,206.78v54q0,10.19,4.63,15.19t14.5,5q13.05,0,19.09-7.14t6-23.31V206.78h12.61V290H537.64l-1.82-11.17h-.68a25.17,25.17,0,0,1-10.75,9.42,36.18,36.18,0,0,1-15.68,3.26q-15.18,0-22.74-7.21t-7.55-23.08V206.78Z"/><path d="M612.74,205.26a49.07,49.07,0,0,1,9.94.91l-1.74,11.69a43,43,0,0,0-9.12-1.14q-10.1,0-17.27,8.2t-7.17,20.43V290H574.77V206.78h10.4l1.45,15.41h.6a36.74,36.74,0,0,1,11.16-12.53A25.2,25.2,0,0,1,612.74,205.26Z"/><path d="M706.35,206.78v8l-15.41,1.82a27.05,27.05,0,0,1,5.47,16.63q0,12.23-8.35,19.51T665.13,260a38.65,38.65,0,0,1-7-.6q-8.05,4.25-8,10.7a5.45,5.45,0,0,0,2.81,5c1.87,1.09,5.09,1.63,9.64,1.63h14.73q13.51,0,20.77,5.7T705.29,299q0,13.82-11.08,21.07t-32.35,7.25q-16.32,0-25.17-6.07t-8.85-17.16A19.29,19.29,0,0,1,632.7,291q4.86-5.53,13.67-7.52A13.2,13.2,0,0,1,641,279a11.9,11.9,0,0,1-2.17-7.07,13.41,13.41,0,0,1,2.43-8,25.47,25.47,0,0,1,7.67-6.6,22.51,22.51,0,0,1-10.51-9,26.53,26.53,0,0,1-4.06-14.58q0-13.66,8.2-21.07t23.23-7.4a42.4,42.4,0,0,1,11.77,1.52ZM640,304a11.3,11.3,0,0,0,5.7,10.25q5.68,3.48,16.32,3.49,15.87,0,23.5-4.75t7.63-12.87q0-6.75-4.17-9.37t-15.72-2.62H658.14q-8.58,0-13.36,4.1T640,304Zm6.84-70.54q0,8.73,4.93,13.21t13.74,4.48q18.46,0,18.46-17.92,0-18.75-18.68-18.75-8.89,0-13.67,4.78T646.83,233.43Z"/><path d="M758.59,291.51q-18.45,0-29.12-11.23t-10.66-31.21q0-20.12,9.91-32t26.61-11.84q15.63,0,24.75,10.29t9.11,27.14v8H731.87q.38,14.66,7.4,22.25t19.78,7.59a67.07,67.07,0,0,0,26.57-5.61v11.23A65.85,65.85,0,0,1,773,290.26,70.7,70.7,0,0,1,758.59,291.51Zm-3.41-75.7q-10,0-16,6.53t-7,18.07h43.51q0-11.91-5.32-18.26T755.18,215.81Z"/><path d="M848.19,216.57H827V290H814.4V216.57H799.52v-5.69l14.88-4.56v-4.63q0-30.67,26.8-30.67a55.13,55.13,0,0,1,15.49,2.65l-3.26,10.1A41.65,41.65,0,0,0,841,181.42q-7.12,0-10.55,4.74T827,201.39v5.39h21.19Z"/><path d="M935.2,248.31q0,20.35-10.25,31.78t-28.32,11.42a37.46,37.46,0,0,1-19.82-5.24,34.56,34.56,0,0,1-13.36-15q-4.71-9.8-4.71-22.93,0-20.34,10.18-31.7t28.24-11.35q17.46,0,27.75,11.62T935.2,248.31Zm-63.4,0q0,15.94,6.38,24.3T896.93,281q12.38,0,18.8-8.31t6.41-24.34q0-15.87-6.41-24.11t-19-8.23q-12.37,0-18.68,8.12T871.8,248.31Z"/><path d="M1014.24,290V236.16q0-10.17-4.63-15.18t-14.5-5Q982,216,976,223t-6.07,23.31V290H957.3V206.78h10.25l2.05,11.39h.6a25.76,25.76,0,0,1,10.86-9.53,35.34,35.34,0,0,1,15.57-3.38q15,0,22.62,7.25t7.6,23.2V290Z"/><path d="M1079.62,281.11a41.12,41.12,0,0,0,6.45-.49,40.6,40.6,0,0,0,4.93-1v9.65a23.2,23.2,0,0,1-6,1.63,45.35,45.35,0,0,1-7.18.64q-24.13,0-24.14-25.43V216.57h-11.92V210.5l11.92-5.24,5.31-17.77h7.29v19.29h24.15v9.79h-24.15v49q0,7.51,3.57,11.54T1079.62,281.11Z"/><path d="M1161.31,267.29q0,11.63-8.65,17.92t-24.3,6.3q-16.54,0-25.81-5.24V274.58a62.09,62.09,0,0,0,12.87,4.79,53.88,53.88,0,0,0,13.25,1.74q9.86,0,15.18-3.15A10.84,10.84,0,0,0,1145,260q-4.21-3.45-16.44-8.16-11.61-4.33-16.51-7.56a22.47,22.47,0,0,1-7.29-7.32,19.18,19.18,0,0,1-2.39-9.8,18.7,18.7,0,0,1,8.27-16.06q8.28-5.88,22.71-5.88a66.35,66.35,0,0,1,26.27,5.47L1155.09,221q-12.52-5.16-22.71-5.17-9,0-13.51,2.81a8.7,8.7,0,0,0-4.56,7.75,9.41,9.41,0,0,0,1.71,5.69,16.93,16.93,0,0,0,5.51,4.48,121.91,121.91,0,0,0,14.58,6.15q14.81,5.4,20,10.86A19.13,19.13,0,0,1,1161.31,267.29Z"/></g><g id="caption"><g class="cls-2"><circle class="cls-3" cx="160" cy="218" r="20"/><circle class="cls-3" cx="226" cy="72" r="40"/><polyline class="cls-4" points="160 217.5 160 138 226 72"/></g><path class="cls-5" d="M239.93,94H211.78V89.81l11.28-11.34A81.59,81.59,0,0,0,229.85,71a18.51,18.51,0,0,0,2.46-4.33,12.38,12.38,0,0,0,.82-4.55,7.19,7.19,0,0,0-2.08-5.43,8,8,0,0,0-5.77-2,14.61,14.61,0,0,0-5.05.88,20.1,20.1,0,0,0-5.32,3.2l-2.58-3.32a19.77,19.77,0,0,1,12.89-4.92q6,0,9.47,3.09A10.65,10.65,0,0,1,238.11,62,16.1,16.1,0,0,1,235.83,70q-2.28,4-8.56,10.07l-9.37,9.17v.24h22Z"/><g class="cls-2"><circle class="cls-3" cx="419" cy="72" r="40"/><line class="cls-4" x1="419" y1="247.5" x2="419" y2="71.5"/><path class="cls-3" d="M420.94,216q-12.9,0-18.6,7.4t-5.69,24.94q0,17.54,5.84,25.09T421.25,281q11.61,0,17.31-8.47t5.69-24.33q0-16.24-5.69-24.22T420.94,216Z"/></g><path class="cls-5" d="M431.32,61.25A9.8,9.8,0,0,1,429,68a11.52,11.52,0,0,1-6.52,3.48v.24q5.16.64,7.65,3.28a9.64,9.64,0,0,1,2.49,6.91q0,6.12-4.25,9.42t-12.07,3.3a34.26,34.26,0,0,1-6.23-.52,21.28,21.28,0,0,1-5.49-1.8V87.64a28,28,0,0,0,11.9,2.82q11.1,0,11.1-8.71,0-7.78-12.25-7.79h-4.22V69.77h4.28a12.9,12.9,0,0,0,7.94-2.21,7.27,7.27,0,0,0,2.93-6.14,6.06,6.06,0,0,0-2.15-4.92,8.91,8.91,0,0,0-5.85-1.79,18.3,18.3,0,0,0-5.3.76,23.59,23.59,0,0,0-5.68,2.82L404.83,55a20.52,20.52,0,0,1,6.08-3.27,22.19,22.19,0,0,1,7.26-1.19q6.24,0,9.69,2.86A9.61,9.61,0,0,1,431.32,61.25Z"/><g class="cls-2"><circle class="cls-3" cx="666" cy="211" r="20"/><circle class="cls-3" cx="666" cy="72" r="40"/><line class="cls-4" x1="666" y1="210.5" x2="666" y2="71.5"/></g><path class="cls-5" d="M682,84.16h-6.36V94h-4.65V84.16H650.11V79.91l20.33-29h5.15v28.8H682Zm-11-4.43V65.49c0-2.79.09-5.94.29-9.46H671a44,44,0,0,1-2.64,4.66L655,79.73Z"/><g class="cls-2"><circle class="cls-3" cx="785" cy="281" r="20"/><circle class="cls-3" cx="785" cy="72" r="40"/><line class="cls-4" x1="785" y1="280.5" x2="785" y2="71.5"/></g><path class="cls-5" d="M784.17,67.84q6.76,0,10.64,3.35a11.52,11.52,0,0,1,3.89,9.19q0,6.65-4.24,10.43t-11.67,3.78q-7.24,0-11-2.32V87.58a16.87,16.87,0,0,0,5.1,2.07,25,25,0,0,0,6,.75c3.43,0,6.11-.81,8-2.44a8.73,8.73,0,0,0,2.86-7q0-9-11-9a43.26,43.26,0,0,0-7.44.85l-2.52-1.61,1.61-20h21.3v4.48H778.54l-1.08,12.86A34,34,0,0,1,784.17,67.84Z"/><g class="cls-2"><circle class="cls-3" cx="1066" cy="186" r="20"/><circle class="cls-3" cx="1066" cy="72" r="40"/><line class="cls-4" x1="1066" y1="185.5" x2="1066" y2="71.5"/></g><path class="cls-5" d="M1052.27,75.69q0-12.63,4.91-18.88t14.52-6.26a19.31,19.31,0,0,1,5.21.56V55.3a16.59,16.59,0,0,0-5.15-.73q-6.88,0-10.52,4.29t-4,13.49h.36q3.21-5,10.19-5,5.78,0,9.1,3.49t3.32,9.46q0,6.67-3.64,10.5a13,13,0,0,1-9.86,3.83,12.67,12.67,0,0,1-10.55-5Q1052.27,84.6,1052.27,75.69Zm14.39,14.77a8.14,8.14,0,0,0,6.46-2.63q2.3-2.62,2.3-7.57a9.75,9.75,0,0,0-2.14-6.68q-2.15-2.43-6.39-2.43a10.8,10.8,0,0,0-4.83,1.08,9,9,0,0,0-3.5,3,6.92,6.92,0,0,0-1.31,4,13.58,13.58,0,0,0,1.18,5.62,9.89,9.89,0,0,0,3.32,4.13A8.27,8.27,0,0,0,1066.66,90.46Z"/><g class="cls-2"><circle class="cls-3" cx="117" cy="170" r="20"/><circle class="cls-3" cx="117" cy="72" r="40"/><line class="cls-4" x1="117" y1="169.5" x2="117" y2="71.5"/></g><path class="cls-5" d="M120.79,94h-4.74V63.47q0-3.81.23-7.2c-.41.41-.87.84-1.37,1.28s-2.84,2.36-7,5.72l-2.58-3.34,11.34-8.76h4.1Z"/></g></svg>