<svg xmlns="http://www.w3.org/2000/svg" viewBox="0 0 1200 400"><defs><style>.cls-1{fill:none;stroke:#000;stroke-miterlimit:10;stroke-width:4px;opacity:0.2;}.cls-2{opacity:0.7;}.cls-3{fill:#005b72;}.cls-4{fill:#fff;}</style></defs><title>font-character-forms</title><g id="lines"><line class="cls-1" y1="292" x2="1200" y2="292"/></g><g id="font"><path d="M90.12,216h17.16v74H90.12v-7.75q-10.55,9.87-22.7,9.87-15.33,0-25.36-11.08-9.95-11.32-9.94-28.25,0-16.62,9.94-27.71A32.07,32.07,0,0,1,67,214q12.9,0,23.15,10.63ZM49.58,252.79q0,10.64,5.69,17.31A18.65,18.65,0,0,0,70,276.86q9.5,0,15.34-6.53,5.85-6.75,5.85-17.16T85.34,236a19.35,19.35,0,0,0-15.18-6.61,18.85,18.85,0,0,0-14.73,6.69Q49.58,242.84,49.58,252.79Z"/><path d="M128.8,218a44.75,44.75,0,0,1,13.76-5.29A76.84,76.84,0,0,1,159,211q8.08,0,13,2.18a18.11,18.11,0,0,1,7.46,5.67,19.49,19.49,0,0,1,3.42,7.7,42,42,0,0,1,.86,8.4q0,9.33-.47,18.19t-.47,16.8q0,5.74.47,10.88a51.38,51.38,0,0,0,1.71,9.49h-9.17l-3.27-10.89h-.78a26.24,26.24,0,0,1-3.49,4.28,22.5,22.5,0,0,1-5.06,3.73,31.57,31.57,0,0,1-6.84,2.72,33.16,33.16,0,0,1-8.86,1.09,26.83,26.83,0,0,1-9.26-1.56,21.42,21.42,0,0,1-7.38-4.43,20.48,20.48,0,0,1-4.9-6.92,22.46,22.46,0,0,1-1.79-9.17,21.56,21.56,0,0,1,2.8-11.43,20.23,20.23,0,0,1,7.85-7.31,39,39,0,0,1,12.13-3.89,97.4,97.4,0,0,1,15.63-1.16h4.28a29.72,29.72,0,0,1,4.27.31q.47-4.67.47-8.4,0-8.55-3.42-12t-12.44-3.42a42.92,42.92,0,0,0-5.68.4c-2,.26-4.09.64-6.22,1.12a49.23,49.23,0,0,0-6.06,1.76,30.26,30.26,0,0,0-5.06,2.31Zm22.08,62.35a24,24,0,0,0,7.77-1.16,22.38,22.38,0,0,0,5.91-3,18.78,18.78,0,0,0,4.12-4,17.61,17.61,0,0,0,2.41-4.2V255.16c-1.45-.1-2.93-.18-4.43-.23s-3-.08-4.43-.08a78.27,78.27,0,0,0-9.41.55,29.58,29.58,0,0,0-8.09,2,14.15,14.15,0,0,0-5.59,4,9.85,9.85,0,0,0-2.1,6.45,11.52,11.52,0,0,0,3.88,8.95A14.34,14.34,0,0,0,150.88,280.35Z"/><path d="M347.55,289.08q0-2.73.68-10.25h-.83q-8.5,12.69-26,12.68-16.47,0-25.55-11.42t-9.07-31.63q0-20,9.22-31.62t25.25-11.58q16.94,0,26.27,12.6h.84l1.82-11.08h9.94v84.73q0,17.92-8.95,26.88t-27.87,9q-18.37,0-29.69-5.31V310A49.72,49.72,0,0,0,307.31,315a79.23,79.23,0,0,0,16.93,1.74q10.78,0,17.05-6.41t6.26-17.51ZM322.87,281q12.92,0,18.64-6.95t6-22.28v-3.27q0-17.16-6-24.9t-19-7.75q-10.94,0-16.74,8.51T300,248.61q0,15.87,5.73,24.11T322.87,281Z"/><path d="M455,206.78v8l-15.41,1.82A27.13,27.13,0,0,1,445,233.2q0,12.23-8.35,19.51T413.76,260a38.73,38.73,0,0,1-7-.6q-8,4.25-8,10.7a5.43,5.43,0,0,0,2.81,5q2.81,1.64,9.64,1.63h14.73q13.51,0,20.76,5.7T453.93,299q0,13.82-11.09,21.07t-32.35,7.25q-16.32,0-25.17-6.07t-8.84-17.16A19.29,19.29,0,0,1,381.34,291q4.86-5.53,13.67-7.51a13.33,13.33,0,0,1-5.36-4.48,11.89,11.89,0,0,1-2.16-7.07,13.41,13.41,0,0,1,2.43-8,25.34,25.34,0,0,1,7.67-6.6,22.53,22.53,0,0,1-10.52-9A26.53,26.53,0,0,1,383,233.73q0-13.66,8.2-21.07t23.23-7.4a42.3,42.3,0,0,1,11.77,1.52ZM388.63,304a11.31,11.31,0,0,0,5.69,10.25q5.7,3.48,16.33,3.49,15.87,0,23.5-4.75t7.63-12.87q0-6.75-4.18-9.37t-15.72-2.62H406.77q-8.58,0-13.36,4.1T388.63,304Zm6.83-70.54q0,8.73,4.94,13.21t13.74,4.48q18.45,0,18.45-17.92,0-18.75-18.68-18.75-8.88,0-13.67,4.78T395.46,233.43Z"/><path d="M565.31,270.87q0,5.44,1.87,7.77a6.35,6.35,0,0,0,5.28,2.34,34.48,34.48,0,0,0,4.36-.31,25.75,25.75,0,0,0,5.28-1.4l1.4,9.79a25.92,25.92,0,0,1-6.92,2,45.19,45.19,0,0,1-7.69.78,16.79,16.79,0,0,1-11.51-4q-4.51-4-4.51-13.45v-93.3h12.44Z"/><path d="M598.43,181.15h12.44V290H598.43Z"/><path d="M738.87,183.92h15.18V290H738.87Z"/><path d="M839.47,290h-12.3V210.88q0-9.87.61-18.68c-1.06,1.06-2.25,2.18-3.57,3.34s-7.34,6.1-18.07,14.81l-6.68-8.66L828.84,179h10.63Z"/></g><g id="caption"><g class="cls-2"><circle class="cls-3" cx="371" cy="72" r="40"/></g><path class="cls-4" d="M384.93,94H356.78V89.81l11.28-11.34A81.59,81.59,0,0,0,374.85,71a18.51,18.51,0,0,0,2.46-4.33,12.38,12.38,0,0,0,.82-4.55,7.19,7.19,0,0,0-2.08-5.43,8,8,0,0,0-5.77-2,14.61,14.61,0,0,0-5,.88,20.1,20.1,0,0,0-5.32,3.2l-2.58-3.32a19.77,19.77,0,0,1,12.89-4.92q6,0,9.47,3.09A10.65,10.65,0,0,1,383.11,62,16.1,16.1,0,0,1,380.83,70q-2.28,4-8.56,10.07l-9.37,9.17v.24h22Z"/><g class="cls-2"><circle class="cls-3" cx="787" cy="72" r="40"/></g><path class="cls-4" d="M803,84.16h-6.36V94h-4.65V84.16H771.11V79.91l20.33-29h5.15v28.8H803Zm-11-4.43V65.49c0-2.79.09-5.94.29-9.46H792a44,44,0,0,1-2.64,4.66L776,79.73Z"/><g class="cls-2"><circle class="cls-3" cx="587" cy="72" r="40"/></g><path class="cls-4" d="M599.32,61.25A9.8,9.8,0,0,1,597,68a11.52,11.52,0,0,1-6.52,3.48v.24q5.16.64,7.65,3.28a9.64,9.64,0,0,1,2.49,6.91q0,6.12-4.25,9.42t-12.07,3.3a34.26,34.26,0,0,1-6.23-.52,21.28,21.28,0,0,1-5.49-1.8V87.64a28,28,0,0,0,11.9,2.82q11.1,0,11.1-8.71,0-7.78-12.25-7.79h-4.22V69.77h4.28a12.9,12.9,0,0,0,7.94-2.21,7.27,7.27,0,0,0,2.93-6.14,6.06,6.06,0,0,0-2.15-4.92,8.91,8.91,0,0,0-5.85-1.79,18.3,18.3,0,0,0-5.3.76,23.59,23.59,0,0,0-5.68,2.82L572.83,55a20.52,20.52,0,0,1,6.08-3.27,22.19,22.19,0,0,1,7.26-1.19q6.24,0,9.69,2.86A9.61,9.61,0,0,1,599.32,61.25Z"/><g class="cls-2"><circle class="cls-3" cx="111" cy="72" r="40"/></g><path class="cls-4" d="M114.79,94h-4.74V63.47q0-3.81.23-7.2c-.41.41-.87.84-1.37,1.28s-2.84,2.36-7,5.72l-2.58-3.34,11.34-8.76h4.1Z"/></g></svg>