<?xml version="1.0" encoding="utf-8"?>
<!-- Generator: Adobe Illustrator 22.1.0, SVG Export Plug-In . SVG Version: 6.00 Build 0)  -->
<svg version="1.1" id="svg2" xmlns:svg="http://www.w3.org/2000/svg"
	 xmlns="http://www.w3.org/2000/svg" xmlns:xlink="http://www.w3.org/1999/xlink" x="0px" y="0px" viewBox="0 0 800 600"
	 style="enable-background:new 0 0 800 600;" xml:space="preserve">
<style type="text/css">
	.st0{fill:#FFFFFF;}
	.st1{fill:#C6366C;}
	.st2{fill:none;stroke:#000000;stroke-width:2;stroke-linecap:round;stroke-linejoin:round;}
	.st3{fill:none;}
	.st4{font-family:'MyriadPro-Regular';}
	.st5{font-size:29.7874px;}
	.st6{fill:none;stroke:#000000;stroke-width:4.9412;}
	.st7{enable-background:new    ;}
</style>
<path id="rect6121" d="M212.8,129.4v42v158v42h93.1v-42h41v-158h-41v-42H212.8z"/>
<path id="path2221" d="M636.2,458.1c0,59.6-48.3,108-108,108s-108-48.3-108-108s48.3-108,108-108S636.2,398.5,636.2,458.1z"/>
<path id="path2223" class="st0" d="M537.7,458.1c0,5.3-4.3,9.5-9.5,9.5s-9.5-4.3-9.5-9.5s4.3-9.5,9.5-9.5S537.7,452.9,537.7,458.1z"
	/>
<rect id="rect5148" x="412.8" y="114" width="11.7" height="272.3"/>
<rect id="rect6119" x="371.8" y="147.5" class="st1" width="17.6" height="205.3"/>
<path id="rect6126" class="st1" d="M248.7,198v50h-84.8v4h84.8v50.8h3.6v-6h9.6c0.5,2.4,2.7,4.1,5.2,4.1h36.7c2.5,0,4.6-1.8,5.2-4.1
	h41.9v-2.4H309c-0.4-2.5-2.6-4.4-5.3-4.4H267c-0.2,0-0.4,0-0.5,0c-2.4,0.2-4.3,2.1-4.7,4.4h-9.5v-13h9.6c0.5,2.4,2.7,4.1,5.2,4.1
	h36.7c2.5,0,4.6-1.8,5.2-4.1h41.9v-2.4H309c-0.4-2.5-2.6-4.4-5.3-4.4H267c-0.2,0-0.4,0-0.5,0c-2.4,0.2-4.3,2.1-4.7,4.4h-9.5v-12.9
	h9.6c0.5,2.4,2.7,4.1,5.2,4.1h36.7c2.5,0,4.6-1.8,5.2-4.1h41.9v-2.4H309c-0.4-2.5-2.6-4.4-5.3-4.4H267c-0.2,0-0.4,0-0.5,0
	c-2.4,0.2-4.3,2.1-4.7,4.4h-9.5v-12.3h9.6c0.5,2.4,2.7,4.1,5.2,4.1h36.7c2.5,0,4.6-1.8,5.2-4.1h41.9V249H309
	c-0.4-2.5-2.6-4.4-5.3-4.4H267c-0.2,0-0.4,0-0.5,0c-2.4,0.2-4.3,2.1-4.7,4.4h-9.5v-12.6h9.6c0.5,2.4,2.7,4.1,5.2,4.1h36.7
	c2.5,0,4.6-1.8,5.2-4.1h41.9V234H309c-0.4-2.5-2.6-4.4-5.3-4.4H267c-0.2,0-0.4,0-0.5,0c-2.4,0.2-4.3,2.1-4.7,4.4h-9.5v-12.7h9.6
	c0.5,2.4,2.7,4.1,5.2,4.1h36.7c2.5,0,4.6-1.8,5.2-4.1h41.9v-2.4H309c-0.4-2.5-2.6-4.4-5.3-4.4H267c-0.2,0-0.4,0-0.5,0
	c-2.4,0.2-4.3,2.1-4.7,4.4h-9.5v-13.1h9.6c0.5,2.4,2.7,4.1,5.2,4.1h36.7c2.5,0,4.6-1.8,5.2-4.1h41.9v-2.4H309
	c-0.4-2.5-2.6-4.4-5.3-4.4H267c-0.2,0-0.4,0-0.5,0c-2.4,0.2-4.3,2.1-4.7,4.4h-9.5V198H248.7z"/>
<path id="path9106" class="st2" d="M278.1,68.4l101.6,68.8"/>
<path id="path9108" d="M384.5,137.6c0,2.7-2.2,4.9-4.9,4.9c-2.7,0-4.9-2.2-4.9-4.9c0,0,0,0,0,0c0-2.7,2.2-4.9,4.9-4.9
	C382.3,132.7,384.5,134.9,384.5,137.6C384.5,137.6,384.5,137.6,384.5,137.6z"/>
<text transform="matrix(1 0 0 1 509.8287 105.4518)" class="st3 st4 st5">Papier</text>
<path id="path9072" class="st2" d="M507.6,85.4l-94.7-22.3"/>
<path id="path11048" d="M417.9,63c0,2.7-2.2,4.9-4.9,4.9c-2.7,0-4.9-2.2-4.9-4.9c0,0,0,0,0,0c0-2.7,2.2-4.9,4.9-4.9
	C415.7,58.1,417.9,60.3,417.9,63C417.9,63,417.9,63,417.9,63z"/>
<text transform="matrix(1 0 0 1 528.2035 201.1975)" class="st3 st4 st5">Anschlag</text>
<path id="path9070" class="st2" d="M516.2,201.2l-83,38.3"/>
<path id="path11050" d="M437.4,239.5c0,2.7-2.2,4.9-4.9,4.9c-2.7,0-4.9-2.2-4.9-4.9c0,0,0,0,0,0c0-2.7,2.2-4.9,4.9-4.9
	C435.2,234.6,437.4,236.8,437.4,239.5C437.4,239.5,437.4,239.5,437.4,239.5z"/>
<text transform="matrix(1 0 0 1 29.5093 311.6)" class="st3 st4 st5">Ansteuerung</text>
<text transform="matrix(1 0 0 1 198.946 53.8322)" class="st3 st4 st5">Farbbband</text>
<path id="path9102" class="st2" d="M137.6,285.1l39.4-23.4"/>
<path id="path11052" d="M181.6,262c0,2.7-2.2,4.9-4.9,4.9c-2.7,0-4.9-2.2-4.9-4.9c0,0,0,0,0,0c0-2.7,2.2-4.9,4.9-4.9
	C179.4,257.1,181.6,259.3,181.6,262C181.6,262,181.6,262,181.6,262z"/>
<text transform="matrix(1 0 0 1 62.1918 489.3263)" class="st3 st4 st5">Druckkopf mit Nadeln</text>
<path id="path9100" class="st2" d="M228.4,458.5l31.9-74.5"/>
<path id="path11054" d="M265.6,384c0,2.7-2.2,4.9-4.9,4.9c-2.7,0-4.9-2.2-4.9-4.9c0,0,0,0,0,0c0-2.7,2.2-4.9,4.9-4.9
	C263.4,379.1,265.6,381.3,265.6,384C265.6,384,265.6,384,265.6,384z"/>
<text transform="matrix(1 0 0 1 563.8419 265.8808)" class="st3 st4 st5">Vorschubwalze</text>
<path id="path9074" class="st2" d="M652.4,276.5L612,368"/>
<path id="path11056" d="M616.9,368.1c0,2.7-2.2,4.9-4.9,4.9c-2.7,0-4.9-2.2-4.9-4.9c0,0,0,0,0,0c0-2.7,2.2-4.9,4.9-4.9
	C614.7,363.2,616.9,365.4,616.9,368.1C616.9,368.1,616.9,368.1,616.9,368.1z"/>
<path id="path2221_2_" class="st6" d="M775,482.9c-91,78.6-176,103.4-246.8,103.4S400,528.9,400,458.1s0-335.2,0-395.1"/>
<g class="st7">
	<path d="M512.1,85.6c1.3-0.2,2.9-0.4,5-0.4c2.6,0,4.4,0.6,5.6,1.7c1.1,1,1.8,2.4,1.8,4.2c0,1.8-0.5,3.2-1.5,4.3
		c-1.4,1.5-3.6,2.2-6.1,2.2c-0.8,0-1.5,0-2.1-0.2v8h-2.6V85.6z M514.7,95.3c0.6,0.1,1.3,0.2,2.1,0.2c3.1,0,5-1.5,5-4.3
		c0-2.7-1.9-3.9-4.7-3.9c-1.1,0-2,0.1-2.4,0.2V95.3z"/>
	<path d="M535.1,105.5l-0.2-1.8h-0.1c-0.8,1.1-2.4,2.1-4.4,2.1c-2.9,0-4.4-2.1-4.4-4.1c0-3.5,3.1-5.4,8.7-5.4V96
		c0-1.2-0.3-3.3-3.3-3.3c-1.3,0-2.7,0.4-3.8,1.1L527,92c1.2-0.8,2.9-1.3,4.7-1.3c4.4,0,5.5,3,5.5,5.9v5.4c0,1.3,0.1,2.5,0.2,3.5
		H535.1z M534.7,98.1c-2.9-0.1-6.1,0.4-6.1,3.2c0,1.7,1.1,2.5,2.5,2.5c1.9,0,3.1-1.2,3.5-2.4c0.1-0.3,0.1-0.6,0.1-0.8V98.1z"/>
	<path d="M541.4,95.7c0-1.8-0.1-3.3-0.1-4.7h2.4l0.1,2.5h0.1c1.1-1.8,2.8-2.8,5.1-2.8c3.5,0,6.1,2.9,6.1,7.3c0,5.2-3.2,7.7-6.6,7.7
		c-1.9,0-3.6-0.8-4.4-2.3H544v7.8h-2.6V95.7z M544,99.6c0,0.4,0.1,0.7,0.1,1.1c0.5,1.8,2.1,3.1,3.9,3.1c2.8,0,4.4-2.3,4.4-5.6
		c0-2.9-1.5-5.4-4.3-5.4c-1.8,0-3.5,1.3-4,3.2c-0.1,0.3-0.2,0.7-0.2,1.1V99.6z"/>
	<path d="M561.3,87c0,0.9-0.6,1.6-1.7,1.6c-0.9,0-1.6-0.7-1.6-1.6c0-0.9,0.7-1.6,1.6-1.6C560.7,85.3,561.3,86.1,561.3,87z
		 M558.4,105.5V91h2.6v14.4H558.4z"/>
	<path d="M566.8,98.7c0.1,3.5,2.3,5,4.9,5c1.9,0,3-0.3,4-0.7l0.4,1.9c-0.9,0.4-2.5,0.9-4.8,0.9c-4.4,0-7.1-2.9-7.1-7.3
		s2.6-7.8,6.8-7.8c4.7,0,6,4.1,6,6.8c0,0.5-0.1,1-0.1,1.2H566.8z M574.5,96.8c0-1.7-0.7-4.3-3.6-4.3c-2.7,0-3.8,2.4-4,4.3H574.5z"/>
	<path d="M580.3,95.5c0-1.7,0-3.2-0.1-4.5h2.3l0.1,2.8h0.1c0.7-1.9,2.2-3.2,4-3.2c0.3,0,0.5,0,0.7,0.1v2.5c-0.3-0.1-0.5-0.1-0.9-0.1
		c-1.8,0-3.2,1.4-3.5,3.4c-0.1,0.4-0.1,0.8-0.1,1.2v7.7h-2.6V95.5z"/>
</g>
<g class="st7">
	<path d="M533.7,194.9l-2.1,6.3h-2.7l6.8-20.1h3.1l6.8,20.1H543l-2.1-6.3H533.7z M540.3,192.9l-2-5.8c-0.4-1.3-0.7-2.5-1-3.7h-0.1
		c-0.3,1.2-0.6,2.4-1,3.6l-2,5.8H540.3z"/>
	<path d="M548.5,190.7c0-1.5,0-2.7-0.1-3.9h2.3l0.1,2.4h0.1c0.7-1.4,2.4-2.7,4.8-2.7c2,0,5.1,1.2,5.1,6.1v8.6h-2.6v-8.3
		c0-2.3-0.9-4.3-3.3-4.3c-1.7,0-3.1,1.2-3.5,2.7c-0.1,0.3-0.2,0.8-0.2,1.2v8.7h-2.6V190.7z"/>
	<path d="M564.7,198.5c0.8,0.5,2.1,1,3.5,1c1.9,0,2.8-1,2.8-2.1c0-1.3-0.7-1.9-2.7-2.7c-2.6-0.9-3.8-2.4-3.8-4.1
		c0-2.3,1.9-4.2,5-4.2c1.5,0,2.7,0.4,3.5,0.9l-0.7,1.9c-0.6-0.4-1.6-0.8-2.9-0.8c-1.5,0-2.4,0.9-2.4,2c0,1.2,0.9,1.7,2.7,2.4
		c2.5,1,3.8,2.2,3.8,4.3c0,2.5-2,4.3-5.4,4.3c-1.6,0-3-0.4-4.1-1L564.7,198.5z"/>
	<path d="M587.1,200.7c-0.7,0.4-2.2,0.8-4.1,0.8c-4.3,0-7.2-2.9-7.2-7.4c0-4.4,3-7.7,7.7-7.7c1.5,0,2.9,0.4,3.6,0.7l-0.6,2
		c-0.6-0.4-1.6-0.7-3-0.7c-3.3,0-5.1,2.4-5.1,5.5c0,3.3,2.1,5.4,5,5.4c1.5,0,2.5-0.4,3.2-0.7L587.1,200.7z"/>
	<path d="M590.2,180h2.6v9h0.1c0.4-0.7,1.1-1.4,1.9-1.8c0.8-0.4,1.7-0.7,2.7-0.7c1.9,0,5,1.2,5,6.2v8.6h-2.6v-8.3
		c0-2.3-0.9-4.3-3.3-4.3c-1.7,0-3,1.2-3.5,2.6c-0.1,0.4-0.2,0.7-0.2,1.3v8.7h-2.6V180z"/>
	<path d="M606.7,180h2.6v21.1h-2.6V180z"/>
	<path d="M621.7,201.2l-0.2-1.8h-0.1c-0.8,1.1-2.4,2.1-4.4,2.1c-2.9,0-4.4-2.1-4.4-4.1c0-3.5,3.1-5.4,8.7-5.4v-0.3
		c0-1.2-0.3-3.3-3.3-3.3c-1.3,0-2.7,0.4-3.8,1.1l-0.6-1.7c1.2-0.8,2.9-1.3,4.7-1.3c4.4,0,5.5,3,5.5,5.9v5.4c0,1.3,0.1,2.5,0.2,3.5
		H621.7z M621.3,193.8c-2.9-0.1-6.1,0.4-6.1,3.2c0,1.7,1.1,2.5,2.5,2.5c1.9,0,3.1-1.2,3.5-2.4c0.1-0.3,0.1-0.6,0.1-0.8V193.8z"/>
	<path d="M640.5,186.8c-0.1,1-0.1,2.2-0.1,4v8.4c0,3.3-0.7,5.3-2.1,6.6c-1.4,1.3-3.4,1.7-5.2,1.7c-1.7,0-3.6-0.4-4.8-1.2l0.7-2
		c1,0.6,2.4,1.1,4.2,1.1c2.7,0,4.6-1.4,4.6-5v-1.6h-0.1c-0.8,1.3-2.4,2.4-4.6,2.4c-3.6,0-6.1-3-6.1-7c0-4.9,3.2-7.7,6.5-7.7
		c2.5,0,3.9,1.3,4.5,2.5h0.1l0.1-2.2H640.5z M637.8,192.5c0-0.4,0-0.8-0.1-1.2c-0.5-1.5-1.8-2.8-3.7-2.8c-2.5,0-4.3,2.1-4.3,5.5
		c0,2.8,1.4,5.2,4.3,5.2c1.6,0,3.1-1,3.6-2.7c0.1-0.4,0.2-1,0.2-1.4V192.5z"/>
</g>
<g class="st7">
	<path d="M35,305.3l-2.1,6.3h-2.7l6.8-20.1h3.1l6.9,20.1h-2.8l-2.1-6.3H35z M41.6,303.3l-2-5.8c-0.4-1.3-0.7-2.5-1-3.7h-0.1
		c-0.3,1.2-0.6,2.4-1,3.6l-2,5.8H41.6z"/>
	<path d="M49.8,301.1c0-1.5,0-2.7-0.1-3.9H52l0.1,2.4h0.1c0.7-1.4,2.4-2.7,4.8-2.7c2,0,5.1,1.2,5.1,6.1v8.6h-2.6v-8.3
		c0-2.3-0.9-4.3-3.3-4.3c-1.7,0-3.1,1.2-3.5,2.7c-0.1,0.3-0.2,0.8-0.2,1.2v8.7h-2.6V301.1z"/>
	<path d="M66,308.9c0.8,0.5,2.1,1,3.5,1c1.9,0,2.8-1,2.8-2.1c0-1.3-0.7-1.9-2.7-2.7c-2.6-0.9-3.8-2.4-3.8-4.1c0-2.3,1.9-4.2,5-4.2
		c1.5,0,2.7,0.4,3.5,0.9l-0.7,1.9c-0.6-0.4-1.6-0.8-2.9-0.8c-1.5,0-2.4,0.9-2.4,2c0,1.2,0.9,1.7,2.7,2.4c2.5,1,3.8,2.2,3.8,4.3
		c0,2.5-2,4.3-5.4,4.3c-1.6,0-3-0.4-4.1-1L66,308.9z"/>
	<path d="M81.3,293v4.1h3.8v2h-3.8v7.8c0,1.8,0.5,2.8,2,2.8c0.7,0,1.2-0.1,1.5-0.2l0.1,2c-0.5,0.2-1.3,0.4-2.3,0.4
		c-1.2,0-2.2-0.4-2.8-1.1c-0.7-0.8-1-2.1-1-3.8v-7.9h-2.2v-2h2.2v-3.5L81.3,293z"/>
	<path d="M89.3,304.9c0.1,3.5,2.3,5,4.9,5c1.9,0,3-0.3,4-0.7l0.4,1.9c-0.9,0.4-2.5,0.9-4.8,0.9c-4.4,0-7.1-2.9-7.1-7.3
		c0-4.3,2.6-7.8,6.8-7.8c4.7,0,6,4.1,6,6.8c0,0.5-0.1,1-0.1,1.2H89.3z M97,303c0-1.7-0.7-4.3-3.6-4.3c-2.7,0-3.8,2.4-4,4.3H97z"/>
	<path d="M114.8,307.7c0,1.5,0,2.8,0.1,3.9h-2.3l-0.1-2.4h-0.1c-0.7,1.2-2.2,2.7-4.8,2.7c-2.3,0-5-1.3-5-6.3v-8.4h2.6v8
		c0,2.7,0.8,4.6,3.2,4.6c1.8,0,3-1.2,3.5-2.4c0.1-0.4,0.2-0.9,0.2-1.3v-8.8h2.6V307.7z"/>
	<path d="M120.6,304.9c0.1,3.5,2.3,5,4.9,5c1.9,0,3-0.3,4-0.7l0.4,1.9c-0.9,0.4-2.5,0.9-4.8,0.9c-4.4,0-7.1-2.9-7.1-7.3
		c0-4.3,2.6-7.8,6.8-7.8c4.7,0,6,4.1,6,6.8c0,0.5-0.1,1-0.1,1.2H120.6z M128.3,303c0-1.7-0.7-4.3-3.6-4.3c-2.7,0-3.8,2.4-4,4.3
		H128.3z"/>
	<path d="M134.1,301.7c0-1.7,0-3.2-0.1-4.5h2.3l0.1,2.8h0.1c0.7-1.9,2.2-3.2,4-3.2c0.3,0,0.5,0,0.7,0.1v2.5
		c-0.3-0.1-0.5-0.1-0.9-0.1c-1.8,0-3.2,1.4-3.5,3.4c-0.1,0.4-0.1,0.8-0.1,1.2v7.7h-2.6V301.7z"/>
	<path d="M155.9,307.7c0,1.5,0,2.8,0.1,3.9h-2.3l-0.1-2.4h-0.1c-0.7,1.2-2.2,2.7-4.8,2.7c-2.3,0-5-1.3-5-6.3v-8.4h2.6v8
		c0,2.7,0.8,4.6,3.2,4.6c1.8,0,3-1.2,3.5-2.4c0.1-0.4,0.2-0.9,0.2-1.3v-8.8h2.6V307.7z"/>
	<path d="M160.2,301.1c0-1.5,0-2.7-0.1-3.9h2.3l0.1,2.4h0.1c0.7-1.4,2.4-2.7,4.8-2.7c2,0,5.1,1.2,5.1,6.1v8.6h-2.6v-8.3
		c0-2.3-0.9-4.3-3.3-4.3c-1.7,0-3.1,1.2-3.5,2.7c-0.1,0.3-0.2,0.8-0.2,1.2v8.7h-2.6V301.1z"/>
	<path d="M189.2,297.2c-0.1,1-0.1,2.2-0.1,4v8.4c0,3.3-0.7,5.3-2.1,6.6c-1.4,1.3-3.4,1.7-5.2,1.7c-1.7,0-3.6-0.4-4.8-1.2l0.7-2
		c1,0.6,2.4,1.1,4.2,1.1c2.7,0,4.6-1.4,4.6-5v-1.6h-0.1c-0.8,1.3-2.4,2.4-4.6,2.4c-3.6,0-6.1-3-6.1-7c0-4.9,3.2-7.7,6.5-7.7
		c2.5,0,3.9,1.3,4.5,2.5h0.1l0.1-2.2H189.2z M186.5,302.9c0-0.4,0-0.8-0.1-1.2c-0.5-1.5-1.8-2.8-3.7-2.8c-2.5,0-4.3,2.1-4.3,5.5
		c0,2.8,1.4,5.2,4.3,5.2c1.6,0,3.1-1,3.6-2.7c0.1-0.4,0.2-1,0.2-1.4V302.9z"/>
</g>
<g class="st7">
	<path d="M201.2,33.8H212v2.2h-8.2v6.7h7.6v2.1h-7.6v9.1h-2.6V33.8z"/>
	<path d="M222.3,53.8l-0.2-1.8H222c-0.8,1.1-2.4,2.1-4.4,2.1c-2.9,0-4.4-2.1-4.4-4.1c0-3.5,3.1-5.4,8.7-5.4v-0.3
		c0-1.2-0.3-3.3-3.3-3.3c-1.3,0-2.7,0.4-3.8,1.1l-0.6-1.7c1.2-0.8,2.9-1.3,4.7-1.3c4.4,0,5.5,3,5.5,5.9v5.4c0,1.3,0.1,2.5,0.2,3.5
		H222.3z M221.9,46.5c-2.9-0.1-6.1,0.4-6.1,3.2c0,1.7,1.1,2.5,2.5,2.5c1.9,0,3.1-1.2,3.5-2.4c0.1-0.3,0.1-0.6,0.1-0.8V46.5z"/>
	<path d="M228.6,43.9c0-1.7,0-3.2-0.1-4.5h2.3l0.1,2.8h0.1c0.7-1.9,2.2-3.2,4-3.2c0.3,0,0.5,0,0.7,0.1v2.5c-0.3-0.1-0.5-0.1-0.9-0.1
		c-1.8,0-3.2,1.4-3.5,3.4c-0.1,0.4-0.1,0.8-0.1,1.2v7.7h-2.6V43.9z"/>
	<path d="M238.4,53.8c0.1-1,0.1-2.4,0.1-3.7V32.7h2.6v9.1h0.1c0.9-1.6,2.6-2.7,4.9-2.7c3.6,0,6.1,3,6.1,7.4c0,5.2-3.2,7.7-6.5,7.7
		c-2.1,0-3.8-0.8-4.8-2.7h-0.1l-0.1,2.4H238.4z M241.1,48.1c0,0.3,0.1,0.7,0.1,1c0.5,1.8,2,3.1,3.9,3.1c2.7,0,4.4-2.2,4.4-5.5
		c0-2.9-1.5-5.4-4.3-5.4c-1.8,0-3.5,1.2-4,3.2c-0.1,0.3-0.1,0.7-0.1,1.1V48.1z"/>
	<path d="M255.3,53.8c0.1-1,0.1-2.4,0.1-3.7V32.7h2.6v9.1h0.1c0.9-1.6,2.6-2.7,4.9-2.7c3.6,0,6.1,3,6.1,7.4c0,5.2-3.2,7.7-6.5,7.7
		c-2.1,0-3.8-0.8-4.8-2.7h-0.1l-0.1,2.4H255.3z M258,48.1c0,0.3,0.1,0.7,0.1,1c0.5,1.8,2,3.1,3.9,3.1c2.7,0,4.4-2.2,4.4-5.5
		c0-2.9-1.5-5.4-4.3-5.4c-1.8,0-3.5,1.2-4,3.2c-0.1,0.3-0.1,0.7-0.1,1.1V48.1z"/>
	<path d="M272.3,53.8c0.1-1,0.1-2.4,0.1-3.7V32.7h2.6v9.1h0.1c0.9-1.6,2.6-2.7,4.9-2.7c3.6,0,6.1,3,6.1,7.4c0,5.2-3.2,7.7-6.5,7.7
		c-2.1,0-3.8-0.8-4.8-2.7h-0.1l-0.1,2.4H272.3z M275,48.1c0,0.3,0.1,0.7,0.1,1c0.5,1.8,2,3.1,3.9,3.1c2.7,0,4.4-2.2,4.4-5.5
		c0-2.9-1.5-5.4-4.3-5.4c-1.8,0-3.5,1.2-4,3.2c-0.1,0.3-0.1,0.7-0.1,1.1V48.1z"/>
	<path d="M297.3,53.8l-0.2-1.8H297c-0.8,1.1-2.4,2.1-4.4,2.1c-2.9,0-4.4-2.1-4.4-4.1c0-3.5,3.1-5.4,8.7-5.4v-0.3
		c0-1.2-0.3-3.3-3.3-3.3c-1.3,0-2.7,0.4-3.8,1.1l-0.6-1.7c1.2-0.8,2.9-1.3,4.7-1.3c4.4,0,5.5,3,5.5,5.9v5.4c0,1.3,0.1,2.5,0.2,3.5
		H297.3z M296.9,46.5c-2.9-0.1-6.1,0.4-6.1,3.2c0,1.7,1.1,2.5,2.5,2.5c1.9,0,3.1-1.2,3.5-2.4c0.1-0.3,0.1-0.6,0.1-0.8V46.5z"/>
	<path d="M303.7,43.3c0-1.5,0-2.7-0.1-3.9h2.3l0.1,2.4h0.1c0.7-1.4,2.4-2.7,4.8-2.7c2,0,5.1,1.2,5.1,6.1v8.6h-2.6v-8.3
		c0-2.3-0.9-4.3-3.3-4.3c-1.7,0-3.1,1.2-3.5,2.7c-0.1,0.3-0.2,0.8-0.2,1.2v8.7h-2.6V43.3z"/>
	<path d="M332.7,32.7v17.4c0,1.3,0,2.7,0.1,3.7h-2.4l-0.1-2.5h-0.1c-0.8,1.6-2.6,2.8-4.9,2.8c-3.5,0-6.2-2.9-6.2-7.3
		c0-4.8,2.9-7.7,6.5-7.7c2.2,0,3.7,1,4.3,2.2h0.1v-8.6H332.7z M330.1,45.3c0-0.3,0-0.8-0.1-1.1c-0.4-1.7-1.8-3-3.8-3
		c-2.7,0-4.3,2.4-4.3,5.6c0,2.9,1.4,5.3,4.3,5.3c1.8,0,3.4-1.2,3.8-3.1c0.1-0.4,0.1-0.7,0.1-1.1V45.3z"/>
</g>
<g class="st7">
	<path d="M64.5,469.5c1.6-0.2,3.5-0.4,5.5-0.4c3.7,0,6.4,0.9,8.1,2.5c1.8,1.6,2.8,4,2.8,7.2c0,3.3-1,6-2.9,7.8
		c-1.9,1.9-5,2.9-8.9,2.9c-1.8,0-3.4-0.1-4.7-0.2V469.5z M67,487.3c0.7,0.1,1.6,0.1,2.6,0.1c5.5,0,8.5-3.1,8.5-8.5
		c0-4.7-2.7-7.7-8.1-7.7c-1.3,0-2.4,0.1-3,0.3V487.3z"/>
	<path d="M84.2,479.4c0-1.7,0-3.2-0.1-4.5h2.3l0.1,2.8h0.1c0.7-1.9,2.2-3.2,4-3.2c0.3,0,0.5,0,0.7,0.1v2.5c-0.3-0.1-0.5-0.1-0.9-0.1
		c-1.8,0-3.2,1.4-3.5,3.4c-0.1,0.4-0.1,0.8-0.1,1.2v7.7h-2.6V479.4z"/>
	<path d="M106,485.4c0,1.5,0,2.8,0.1,3.9h-2.3l-0.1-2.4h-0.1c-0.7,1.2-2.2,2.7-4.8,2.7c-2.3,0-5-1.2-5-6.3v-8.4h2.6v8
		c0,2.7,0.8,4.6,3.2,4.6c1.8,0,3-1.2,3.5-2.4c0.1-0.4,0.2-0.9,0.2-1.3v-8.8h2.6V485.4z"/>
	<path d="M120.6,488.8c-0.7,0.4-2.2,0.8-4.1,0.8c-4.3,0-7.2-2.9-7.2-7.4c0-4.4,3-7.7,7.7-7.7c1.5,0,2.9,0.4,3.6,0.7l-0.6,2
		c-0.6-0.4-1.6-0.7-3-0.7c-3.3,0-5.1,2.4-5.1,5.5c0,3.3,2.1,5.4,5,5.4c1.5,0,2.5-0.4,3.2-0.7L120.6,488.8z"/>
	<path d="M126.3,481.5L126.3,481.5c0.4-0.5,0.9-1.1,1.3-1.6l4.2-5h3.2l-5.6,5.9l6.3,8.5h-3.2l-5-6.9l-1.3,1.5v5.4h-2.6v-21.1h2.6
		V481.5z"/>
	<path d="M140.8,481.5L140.8,481.5c0.4-0.5,0.9-1.1,1.3-1.6l4.2-5h3.2l-5.6,5.9l6.3,8.5h-3.2l-5-6.9l-1.3,1.5v5.4h-2.6v-21.1h2.6
		V481.5z"/>
	<path d="M165.2,482c0,5.3-3.7,7.7-7.2,7.7c-3.9,0-6.9-2.9-6.9-7.4c0-4.8,3.2-7.7,7.1-7.7C162.4,474.6,165.2,477.6,165.2,482z
		 M153.8,482.1c0,3.2,1.8,5.5,4.4,5.5c2.5,0,4.4-2.4,4.4-5.6c0-2.4-1.2-5.5-4.3-5.5S153.8,479.4,153.8,482.1z"/>
	<path d="M168.5,479.6c0-1.8-0.1-3.3-0.1-4.7h2.4l0.1,2.5h0.1c1.1-1.8,2.8-2.8,5.1-2.8c3.5,0,6.1,2.9,6.1,7.3c0,5.2-3.2,7.7-6.6,7.7
		c-1.9,0-3.6-0.8-4.4-2.3h-0.1v7.8h-2.6V479.6z M171.1,483.5c0,0.4,0.1,0.7,0.1,1.1c0.5,1.8,2.1,3.1,3.9,3.1c2.8,0,4.4-2.3,4.4-5.6
		c0-2.9-1.5-5.4-4.3-5.4c-1.8,0-3.5,1.3-4,3.2c-0.1,0.3-0.2,0.7-0.2,1.1V483.5z"/>
	<path d="M185.7,489.3v-12.4h-2v-2h2v-0.7c0-2,0.4-3.9,1.7-5c1-1,2.3-1.3,3.5-1.3c0.9,0,1.7,0.2,2.2,0.4l-0.4,2
		c-0.4-0.2-0.9-0.3-1.7-0.3c-2.2,0-2.8,2-2.8,4.2v0.8h3.5v2h-3.5v12.4H185.7z"/>
	<path d="M200.5,478.8c0-1.5,0-2.7-0.1-3.9h2.3l0.1,2.3h0.1c0.8-1.4,2.1-2.7,4.5-2.7c2,0,3.5,1.2,4.1,2.9h0.1c0.4-0.8,1-1.4,1.6-1.9
		c0.9-0.7,1.8-1,3.2-1c1.9,0,4.7,1.2,4.7,6.3v8.5h-2.6v-8.2c0-2.8-1-4.4-3.1-4.4c-1.5,0-2.7,1.1-3.1,2.4c-0.1,0.4-0.2,0.8-0.2,1.3
		v8.9h-2.6v-8.6c0-2.3-1-4-3-4c-1.6,0-2.8,1.3-3.2,2.6c-0.1,0.4-0.2,0.8-0.2,1.3v8.7h-2.6V478.8z"/>
	<path d="M228.2,470.9c0,0.9-0.6,1.6-1.7,1.6c-0.9,0-1.6-0.7-1.6-1.6c0-0.9,0.7-1.6,1.6-1.6C227.6,469.2,228.2,469.9,228.2,470.9z
		 M225.3,489.3v-14.4h2.6v14.4H225.3z"/>
	<path d="M235.4,470.8v4.1h3.8v2h-3.8v7.8c0,1.8,0.5,2.8,2,2.8c0.7,0,1.2-0.1,1.5-0.2l0.1,2c-0.5,0.2-1.3,0.4-2.3,0.4
		c-1.2,0-2.2-0.4-2.8-1.1c-0.7-0.8-1-2.1-1-3.8v-7.9h-2.2v-2h2.2v-3.5L235.4,470.8z"/>
	<path d="M248.5,489.3v-20.1h2.8l6.4,10.2c1.5,2.4,2.7,4.5,3.6,6.5l0.1,0c-0.2-2.7-0.3-5.1-0.3-8.3v-8.4h2.4v20.1H261l-6.4-10.2
		c-1.4-2.2-2.7-4.5-3.8-6.7l-0.1,0c0.1,2.5,0.2,4.9,0.2,8.3v8.6H248.5z"/>
	<path d="M276,489.3l-0.2-1.8h-0.1c-0.8,1.1-2.4,2.1-4.4,2.1c-2.9,0-4.4-2.1-4.4-4.1c0-3.5,3.1-5.4,8.7-5.4v-0.3
		c0-1.2-0.3-3.3-3.3-3.3c-1.3,0-2.7,0.4-3.8,1.1l-0.6-1.7c1.2-0.8,2.9-1.3,4.7-1.3c4.4,0,5.5,3,5.5,5.9v5.4c0,1.3,0.1,2.5,0.2,3.5
		H276z M275.6,482c-2.9-0.1-6.1,0.4-6.1,3.2c0,1.7,1.1,2.5,2.5,2.5c1.9,0,3.1-1.2,3.5-2.4c0.1-0.3,0.1-0.6,0.1-0.8V482z"/>
	<path d="M294.9,468.2v17.4c0,1.3,0,2.7,0.1,3.7h-2.4l-0.1-2.5h-0.1c-0.8,1.6-2.6,2.8-4.9,2.8c-3.5,0-6.2-2.9-6.2-7.3
		c0-4.8,2.9-7.7,6.5-7.7c2.2,0,3.7,1,4.3,2.2h0.1v-8.6H294.9z M292.2,480.8c0-0.3,0-0.8-0.1-1.1c-0.4-1.7-1.8-3-3.8-3
		c-2.7,0-4.3,2.4-4.3,5.6c0,2.9,1.4,5.3,4.3,5.3c1.8,0,3.4-1.2,3.8-3.1c0.1-0.4,0.1-0.7,0.1-1.1V480.8z"/>
	<path d="M300.7,482.6c0.1,3.5,2.3,5,4.9,5c1.9,0,3-0.3,4-0.7l0.4,1.9c-0.9,0.4-2.5,0.9-4.8,0.9c-4.4,0-7.1-2.9-7.1-7.3
		s2.6-7.8,6.8-7.8c4.7,0,6,4.1,6,6.8c0,0.5-0.1,1-0.1,1.2H300.7z M308.4,480.7c0-1.7-0.7-4.3-3.6-4.3c-2.7,0-3.8,2.4-4,4.3H308.4z"
		/>
	<path d="M314.1,468.2h2.6v21.1h-2.6V468.2z"/>
	<path d="M321.2,478.8c0-1.5,0-2.7-0.1-3.9h2.3l0.1,2.4h0.1c0.7-1.4,2.4-2.7,4.8-2.7c2,0,5.1,1.2,5.1,6.1v8.6h-2.6V481
		c0-2.3-0.9-4.3-3.3-4.3c-1.7,0-3.1,1.2-3.5,2.7c-0.1,0.3-0.2,0.8-0.2,1.2v8.7h-2.6V478.8z"/>
</g>
<g class="st7">
	<path d="M570.5,265.9l-6.6-20.1h2.8l3.1,9.9c0.9,2.7,1.6,5.2,2.1,7.5h0.1c0.6-2.3,1.4-4.9,2.3-7.5l3.4-9.9h2.8l-7.2,20.1H570.5z"/>
	<path d="M594.7,258.6c0,5.3-3.7,7.7-7.2,7.7c-3.9,0-6.9-2.9-6.9-7.4c0-4.8,3.2-7.7,7.1-7.7C591.9,251.1,594.7,254.1,594.7,258.6z
		 M583.3,258.7c0,3.2,1.8,5.5,4.4,5.5c2.5,0,4.4-2.4,4.4-5.6c0-2.4-1.2-5.5-4.3-5.5S583.3,256,583.3,258.7z"/>
	<path d="M598,256c0-1.7,0-3.2-0.1-4.5h2.3l0.1,2.8h0.1c0.7-1.9,2.2-3.2,4-3.2c0.3,0,0.5,0,0.7,0.1v2.5c-0.3-0.1-0.5-0.1-0.9-0.1
		c-1.8,0-3.2,1.4-3.5,3.4c-0.1,0.4-0.1,0.8-0.1,1.2v7.7H598V256z"/>
	<path d="M607.4,263.2c0.8,0.5,2.1,1,3.5,1c1.9,0,2.8-1,2.8-2.1c0-1.3-0.7-1.9-2.7-2.7c-2.6-0.9-3.8-2.4-3.8-4.1
		c0-2.3,1.9-4.2,5-4.2c1.5,0,2.7,0.4,3.5,0.9l-0.7,1.9c-0.6-0.4-1.6-0.8-2.9-0.8c-1.5,0-2.4,0.9-2.4,2c0,1.2,0.9,1.7,2.7,2.4
		c2.5,1,3.8,2.2,3.8,4.3c0,2.5-2,4.3-5.4,4.3c-1.6,0-3-0.4-4.1-1L607.4,263.2z"/>
	<path d="M629.8,265.3c-0.7,0.4-2.2,0.8-4.1,0.8c-4.3,0-7.2-2.9-7.2-7.4c0-4.4,3-7.7,7.7-7.7c1.5,0,2.9,0.4,3.6,0.7l-0.6,2
		c-0.6-0.4-1.6-0.7-3-0.7c-3.3,0-5.1,2.4-5.1,5.5c0,3.3,2.1,5.4,5,5.4c1.5,0,2.5-0.4,3.2-0.7L629.8,265.3z"/>
	<path d="M632.9,244.7h2.6v9h0.1c0.4-0.7,1.1-1.4,1.9-1.8c0.8-0.4,1.7-0.7,2.7-0.7c1.9,0,5,1.2,5,6.2v8.6h-2.6v-8.3
		c0-2.3-0.9-4.3-3.3-4.3c-1.7,0-3,1.2-3.5,2.6c-0.1,0.4-0.2,0.7-0.2,1.3v8.7h-2.6V244.7z"/>
	<path d="M661.5,261.9c0,1.5,0,2.8,0.1,3.9h-2.3l-0.1-2.4h-0.1c-0.7,1.2-2.2,2.7-4.8,2.7c-2.3,0-5-1.3-5-6.3v-8.4h2.6v8
		c0,2.7,0.8,4.6,3.2,4.6c1.8,0,3-1.2,3.5-2.4c0.1-0.4,0.2-0.9,0.2-1.3v-8.8h2.6V261.9z"/>
	<path d="M665.7,265.9c0.1-1,0.1-2.4,0.1-3.7v-17.4h2.6v9.1h0.1c0.9-1.6,2.6-2.7,4.9-2.7c3.6,0,6.1,3,6.1,7.4c0,5.2-3.2,7.7-6.5,7.7
		c-2.1,0-3.8-0.8-4.8-2.7h-0.1l-0.1,2.4H665.7z M668.4,260.1c0,0.3,0.1,0.7,0.1,1c0.5,1.8,2,3.1,3.9,3.1c2.7,0,4.4-2.2,4.4-5.5
		c0-2.9-1.5-5.4-4.3-5.4c-1.8,0-3.5,1.2-4,3.2c-0.1,0.3-0.1,0.7-0.1,1.1V260.1z"/>
	<path d="M683.6,251.5l1.9,7.3c0.4,1.6,0.8,3.1,1.1,4.6h0.1c0.3-1.5,0.8-3,1.3-4.6l2.4-7.4h2.2l2.2,7.2c0.5,1.7,1,3.2,1.3,4.7h0.1
		c0.2-1.5,0.6-3,1.1-4.7l2.1-7.2h2.6l-4.6,14.4h-2.4l-2.2-6.9c-0.5-1.6-0.9-3-1.3-4.7h-0.1c-0.4,1.7-0.8,3.2-1.3,4.8l-2.3,6.9h-2.4
		l-4.3-14.4H683.6z"/>
	<path d="M712.4,265.9l-0.2-1.8h-0.1c-0.8,1.1-2.4,2.1-4.4,2.1c-2.9,0-4.4-2.1-4.4-4.1c0-3.5,3.1-5.4,8.7-5.4v-0.3
		c0-1.2-0.3-3.3-3.3-3.3c-1.3,0-2.7,0.4-3.8,1.1l-0.6-1.7c1.2-0.8,2.9-1.3,4.7-1.3c4.4,0,5.5,3,5.5,5.9v5.4c0,1.3,0.1,2.5,0.2,3.5
		H712.4z M712,258.5c-2.9-0.1-6.1,0.4-6.1,3.2c0,1.7,1.1,2.5,2.5,2.5c1.9,0,3.1-1.2,3.5-2.4c0.1-0.3,0.1-0.6,0.1-0.8V258.5z"/>
	<path d="M718.7,244.7h2.6v21.1h-2.6V244.7z"/>
	<path d="M724.1,264.4l6.5-8.5c0.6-0.8,1.2-1.5,1.9-2.2v-0.1h-7.8v-2.1h11l0,1.6l-6.4,8.4c-0.6,0.8-1.2,1.5-1.8,2.3v0.1h8.4v2.1
		h-11.7V264.4z"/>
	<path d="M739.8,259.1c0.1,3.5,2.3,5,4.9,5c1.9,0,3-0.3,4-0.7l0.4,1.9c-0.9,0.4-2.5,0.9-4.8,0.9c-4.4,0-7.1-2.9-7.1-7.3
		s2.6-7.8,6.8-7.8c4.7,0,6,4.1,6,6.8c0,0.5-0.1,1-0.1,1.2H739.8z M747.4,257.3c0-1.7-0.7-4.3-3.6-4.3c-2.7,0-3.8,2.4-4,4.3H747.4z"
		/>
</g>
</svg>
