<svg id="Layer_1" data-name="Layer 1" xmlns="http://www.w3.org/2000/svg" xmlns:xlink="http://www.w3.org/1999/xlink" viewBox="0 0 330 53.52"><defs><style>.cls-1,.cls-7{fill:none;}.cls-2{clip-path:url(#clip-path);}.cls-3{font-size:4.38px;font-family:RedactedScript-Bold, Redacted Script;}.cls-3,.cls-4{font-weight:700;}.cls-4{font-size:7px;font-family:OpenSans-Bold, Open Sans;}.cls-4,.cls-6,.cls-8{fill:#20201e;}.cls-5{fill:#e1e2e2;}.cls-6{font-size:8px;font-family:SourceCodePro-Regular, Source Code Pro;}.cls-7{stroke:#20201e;}</style><clipPath id="clip-path"><rect class="cls-1" x="27.32" y="-175.07" width="172.37" height="112.11"/></clipPath></defs><title>breadcrumb</title><g class="cls-2"><text class="cls-3" transform="translate(97.01 2.53)">qui nihil ium hitat aspe ni ut essimaiore </text><text class="cls-3" transform="translate(97.01 7.78)">nus est remperc iliquam consectum est, </text><text class="cls-3" transform="translate(97.01 13.03)">ut fugit, nimil maios reni denistio. Itat </text></g><text class="cls-4" transform="translate(26.93 53.36)">Level 1</text><rect class="cls-5" width="289.13" height="30"/><text class="cls-6" transform="translate(11.2 17.65)">Kategorie A › Unterkategorie A.A › Unterkategorie A.A.A</text><line class="cls-7" x1="38.69" y1="42" x2="38.69" y2="26.91"/><path class="cls-8" d="M34.69,26.91a4,4,0,1,0,4-4,4,4,0,0,0-4,4"/><text class="cls-4" transform="translate(102.02 53.36)">Level 2</text><line class="cls-7" x1="114.09" y1="42" x2="114.09" y2="26.91"/><path class="cls-8" d="M110.09,26.91a4,4,0,1,0,4-4,4,4,0,0,0-4,4"/><text class="cls-4" transform="translate(202.65 53.36)">Level 3</text><line class="cls-7" x1="214.72" y1="42" x2="214.72" y2="26.91"/><path class="cls-8" d="M210.72,26.91a4,4,0,1,0,4-4,4,4,0,0,0-4,4"/></svg>