<svg id="Layer_1" data-name="Layer 1" xmlns="http://www.w3.org/2000/svg" viewBox="0 0 289.14 103"><defs><style>.cls-1{fill:none;stroke:#20201e;stroke-width:3px;}.cls-2{fill:#fff;}.cls-3{font-size:9px;font-family:OpenSans-Bold, Open Sans;font-weight:700;}.cls-3,.cls-6{fill:#20201e;}.cls-4{letter-spacing:0em;}.cls-5{letter-spacing:0.01em;}.cls-6{font-size:7px;font-family:OpenSans, Open Sans;}</style></defs><title>Linking</title><path class="cls-1" d="M52.71,54c11.47,9.61,24.19,13.94,39.87,13.94S121,63.59,132.45,54"/><polyline class="cls-1" points="53.76 62.32 52.72 53.98 61.11 53.55"/><polyline class="cls-1" points="124.06 53.55 132.45 53.98 131.41 62.32"/><path class="cls-1" d="M156.69,54c11.47,9.61,24.19,13.94,39.87,13.94S225,63.59,236.42,54"/><polyline class="cls-1" points="157.73 62.32 156.69 53.98 165.08 53.55"/><polyline class="cls-1" points="228.03 53.55 236.43 53.98 235.38 62.32"/><rect class="cls-2" x="1.5" y="1.5" width="82.04" height="23"/><text class="cls-3" transform="translate(22.75 16.44)"><tspan class="cls-4">Th</tspan><tspan class="cls-5" x="11.2" y="0">ema </tspan><tspan x="33.31" y="0">A</tspan></text><rect class="cls-1" x="1.5" y="1.5" width="82.04" height="23"/><rect class="cls-2" x="103.55" y="1.5" width="82.04" height="23"/><text class="cls-3" transform="translate(124.88 16.44)"><tspan class="cls-4">Th</tspan><tspan class="cls-5" x="11.2" y="0">ema </tspan><tspan x="33.31" y="0">B</tspan></text><rect class="cls-1" x="103.55" y="1.5" width="82.04" height="23"/><rect class="cls-2" x="205.6" y="1.5" width="82.04" height="23"/><text class="cls-3" transform="translate(227.09 16.44)"><tspan class="cls-4">Th</tspan><tspan class="cls-5" x="11.2" y="0">ema </tspan><tspan x="33.31" y="0">C</tspan></text><rect class="cls-1" x="205.6" y="1.5" width="82.04" height="23"/><text class="cls-6" transform="translate(0 37.36)">www.test.ch/A.html</text><text class="cls-6" transform="translate(117.74 79.36)">Links für Bezüge</text><text class="cls-6" transform="translate(102.05 37.36)">www.test.ch/B.html</text><text class="cls-6" transform="translate(204.09 37.36)">www.test.ch/C.html</text><path class="cls-1" d="M19.88,54.26c34.88,27.29,77,42.24,124.69,42.24s89.81-14.95,124.69-42.24"/><polyline class="cls-1" points="21.2 62.56 19.88 54.26 28.25 53.55"/><polyline class="cls-1" points="260.88 53.55 269.26 54.26 267.94 62.56"/></svg>