<svg id="Layer_1" data-name="Layer 1" xmlns="http://www.w3.org/2000/svg" viewBox="0 0 470.52 278.17"><defs><style>.cls-1{fill:#e1e2e2;}.cls-2{font-size:4.1px;}.cls-11,.cls-14,.cls-15,.cls-16,.cls-2,.cls-5,.cls-8{fill:#20201e;}.cls-16,.cls-2{font-family:OpenSans, Open Sans;}.cls-13,.cls-3{fill:none;stroke:#20201e;}.cls-3{stroke-width:1.76px;}.cls-4{fill:#fff;}.cls-11,.cls-5,.cls-8{font-size:5.28px;}.cls-11,.cls-15,.cls-5,.cls-8{font-family:OpenSans-Bold, Open Sans;font-weight:700;}.cls-6,.cls-8{letter-spacing:0em;}.cls-11,.cls-7{letter-spacing:0em;}.cls-9{letter-spacing:0em;}.cls-10{letter-spacing:0em;}.cls-12{letter-spacing:0em;}.cls-15,.cls-16{font-size:7px;}</style></defs><title>meta_navigation</title><rect class="cls-1" width="303.31" height="278.17"/><text class="cls-2" transform="translate(7.09 74.57)">www.test.ch/A/</text><text class="cls-2" transform="translate(216.46 74.57)">www.test.ch/C/</text><polyline class="cls-3" points="102.63 25.17 27.91 25.17 27.91 57.36"/><polyline class="cls-3" points="184.32 25.17 237.28 25.17 237.28 60.88"/><text class="cls-2" transform="translate(96.82 74.57)">www.test.ch/B/</text><text class="cls-2" transform="translate(96.82 39.4)">www.test.ch</text><rect class="cls-4" x="7.97" y="53.55" width="78" height="13.48"/><text class="cls-5" transform="translate(31.6 62.31)"><tspan class="cls-6">Kat</tspan><tspan class="cls-7" x="9.04" y="0">eg</tspan><tspan class="cls-6" x="15.19" y="0">ori</tspan><tspan class="cls-7" x="22.53" y="0">e </tspan><tspan x="27.07" y="0">A</tspan></text><rect class="cls-3" x="7.97" y="53.55" width="78" height="13.48"/><rect class="cls-4" x="217.34" y="53.55" width="78" height="13.48"/><text class="cls-8" transform="translate(241.11 62.31)">Kat<tspan class="cls-7" x="9.04" y="0">eg</tspan><tspan x="15.19" y="0">ori</tspan><tspan class="cls-7" x="22.53" y="0">e </tspan><tspan class="cls-9" x="27.07" y="0">C</tspan></text><rect class="cls-3" x="217.34" y="53.55" width="78" height="13.48"/><line class="cls-3" x1="117.64" y1="42.74" x2="117.64" y2="60.88"/><rect class="cls-4" x="97.7" y="53.55" width="107.91" height="13.48"/><text class="cls-5" transform="translate(136.33 62.31)"><tspan class="cls-6">Kat</tspan><tspan class="cls-7" x="9.04" y="0">eg</tspan><tspan class="cls-6" x="15.19" y="0">ori</tspan><tspan class="cls-7" x="22.53" y="0">e </tspan><tspan x="27.07" y="0">B</tspan></text><rect class="cls-3" x="97.7" y="53.55" width="107.91" height="13.48"/><rect class="cls-4" x="97.7" y="18.96" width="107.91" height="13.48"/><text class="cls-5" transform="translate(143.81 27.72)"><tspan class="cls-10">Hom</tspan><tspan x="12.55" y="0">e</tspan></text><rect class="cls-3" x="97.7" y="18.96" width="107.91" height="13.48"/><polyline class="cls-3" points="27.91 78.47 27.91 95.17 37 95.17"/><polyline class="cls-3" points="237.28 78.47 237.28 95.17 246.37 95.17"/><polyline class="cls-3" points="117.64 78.47 117.64 95.17 126.73 95.17"/><rect class="cls-4" x="37.88" y="88.72" width="48.09" height="13.48"/><text class="cls-5" transform="translate(47.74 97.48)"><tspan class="cls-6">Th</tspan><tspan class="cls-7" x="6.56" y="0">ema A</tspan><tspan class="cls-6" x="23.19" y="0">.</tspan><tspan x="24.72" y="0">A</tspan></text><rect class="cls-3" x="37.88" y="88.72" width="48.09" height="13.48"/><rect class="cls-4" x="247.25" y="88.72" width="48.09" height="13.48"/><text class="cls-5" transform="translate(257.25 97.48)"><tspan class="cls-6">Th</tspan><tspan class="cls-7" x="6.56" y="0">em</tspan><tspan class="cls-6" x="14.92" y="0">a</tspan><tspan class="cls-7" x="18.12" y="0"> </tspan><tspan class="cls-6" x="19.52" y="0">C.</tspan><tspan x="24.43" y="0">A</tspan></text><rect class="cls-3" x="247.25" y="88.72" width="48.09" height="13.48"/><text class="cls-2" transform="translate(37 109.74)">www.test.ch/A/A.html</text><text class="cls-2" transform="translate(246.37 109.74)">www.test.ch/C/A.html</text><rect class="cls-4" x="37.88" y="120.38" width="48.09" height="13.48"/><text class="cls-5" transform="translate(47.78 129.14)"><tspan class="cls-6">Th</tspan><tspan class="cls-7" x="6.56" y="0">em</tspan><tspan class="cls-6" x="14.92" y="0">a</tspan><tspan class="cls-7" x="18.12" y="0" xml:space="preserve"> A</tspan><tspan class="cls-6" x="23.19" y="0">.</tspan><tspan x="24.71" y="0">B</tspan></text><rect class="cls-3" x="37.88" y="120.38" width="48.09" height="13.48"/><rect class="cls-4" x="247.25" y="120.38" width="48.09" height="13.48"/><text class="cls-5" transform="translate(257.3 129.14)"><tspan class="cls-6">Th</tspan><tspan class="cls-7" x="6.56" y="0">em</tspan><tspan class="cls-6" x="14.92" y="0">a</tspan><tspan class="cls-7" x="18.12" y="0"> </tspan><tspan class="cls-6" x="19.52" y="0">C.</tspan><tspan x="24.43" y="0">B</tspan></text><rect class="cls-3" x="247.25" y="120.38" width="48.09" height="13.48"/><text class="cls-2" transform="translate(37 141.4)">www.test.ch/A/B.html</text><text class="cls-2" transform="translate(246.37 141.4)">www.test.ch/C/B.html</text><rect class="cls-4" x="37.88" y="152.03" width="48.09" height="13.48"/><text class="cls-5" transform="translate(47.88 160.79)"><tspan class="cls-6">Th</tspan><tspan class="cls-7" x="6.56" y="0">ema A</tspan><tspan class="cls-6" x="23.19" y="0">.</tspan><tspan x="24.72" y="0">C</tspan></text><rect class="cls-3" x="37.88" y="152.03" width="48.09" height="13.48"/><rect class="cls-4" x="247.25" y="152.03" width="48.09" height="13.48"/><text class="cls-8" transform="translate(257.39 160.79)">Th<tspan class="cls-7" x="6.56" y="0">em</tspan><tspan x="14.92" y="0">a</tspan><tspan class="cls-7" x="18.12" y="0"> </tspan><tspan x="19.52" y="0">C.</tspan><tspan class="cls-9" x="24.43" y="0">C</tspan></text><rect class="cls-3" x="247.25" y="152.03" width="48.09" height="13.48"/><text class="cls-2" transform="translate(37 173.05)">www.test.ch/A/C.html</text><text class="cls-2" transform="translate(246.37 173.05)">www.test.ch/C/C.html</text><polyline class="cls-3" points="27.91 92.53 27.91 126.83 37 126.83"/><polyline class="cls-3" points="237.28 92.53 237.28 126.83 246.37 126.83"/><polyline class="cls-3" points="27.91 124.19 27.91 158.48 37 158.48"/><polyline class="cls-3" points="237.28 124.19 237.28 158.48 246.37 158.48"/><rect class="cls-4" x="127.61" y="88.72" width="78" height="13.48"/><text class="cls-5" transform="translate(152.47 97.48)"><tspan class="cls-6">Th</tspan><tspan class="cls-7" x="6.56" y="0">em</tspan><tspan class="cls-6" x="14.92" y="0">a</tspan><tspan class="cls-7" x="18.12" y="0" xml:space="preserve"> B</tspan><tspan class="cls-6" x="23.09" y="0">.</tspan><tspan x="24.62" y="0">A</tspan></text><rect class="cls-3" x="127.61" y="88.72" width="78" height="13.48"/><text class="cls-2" transform="translate(126.73 109.74)">www.test.ch/B/A.html</text><rect class="cls-4" x="127.61" y="120.38" width="78" height="13.48"/><text class="cls-5" transform="translate(152.52 129.14)"><tspan class="cls-6">Th</tspan><tspan class="cls-7" x="6.56" y="0">em</tspan><tspan class="cls-6" x="14.92" y="0">a</tspan><tspan class="cls-7" x="18.12" y="0" xml:space="preserve"> B</tspan><tspan class="cls-6" x="23.09" y="0">.</tspan><tspan x="24.62" y="0">B</tspan></text><rect class="cls-3" x="127.61" y="120.38" width="78" height="13.48"/><text class="cls-2" transform="translate(126.73 141.4)">www.test.ch/B/B.html</text><polyline class="cls-3" points="117.64 92.53 117.64 126.83 126.73 126.83"/><rect class="cls-4" x="127.61" y="152.03" width="78" height="13.48"/><text class="cls-5" transform="translate(152.61 160.79)"><tspan class="cls-6">Th</tspan><tspan class="cls-7" x="6.56" y="0">em</tspan><tspan class="cls-6" x="14.92" y="0">a</tspan><tspan class="cls-7" x="18.12" y="0" xml:space="preserve"> B</tspan><tspan class="cls-6" x="23.09" y="0">.</tspan><tspan x="24.62" y="0">C</tspan></text><rect class="cls-3" x="127.61" y="152.03" width="78" height="13.48"/><text class="cls-2" transform="translate(126.73 173.05)">www.test.ch/B/C.html</text><polyline class="cls-3" points="117.64 124.19 117.64 158.48 126.73 158.48"/><rect class="cls-4" x="127.61" y="183.69" width="78" height="13.48"/><text class="cls-11" transform="translate(140.98 192.45)">Un<tspan class="cls-6" x="7.5" y="0">t</tspan><tspan x="9.81" y="0">e</tspan><tspan class="cls-6" x="12.96" y="0">rkat</tspan><tspan x="24.19" y="0">eg</tspan><tspan class="cls-6" x="30.34" y="0">ori</tspan><tspan x="37.67" y="0">e B</tspan><tspan class="cls-6" x="45.78" y="0">.</tspan><tspan class="cls-9" x="47.31" y="0">D</tspan></text><rect class="cls-3" x="127.61" y="183.69" width="78" height="13.48"/><text class="cls-2" transform="translate(126.73 204.71)">www.test.ch/B/D/</text><polyline class="cls-3" points="117.64 154.02 117.64 190.14 126.73 190.14"/><rect class="cls-4" x="157.52" y="211.83" width="48.09" height="13.48"/><text class="cls-8" transform="translate(164.69 220.59)">Th<tspan class="cls-7" x="6.56" y="0">em</tspan><tspan x="14.92" y="0">a</tspan><tspan class="cls-7" x="18.12" y="0" xml:space="preserve"> B</tspan><tspan x="23.09" y="0">.D.</tspan><tspan class="cls-12" x="30.07" y="0">A</tspan></text><rect class="cls-3" x="157.52" y="211.83" width="48.09" height="13.48"/><text class="cls-2" transform="translate(156.64 232.85)">www.test.ch/B/D/A.html</text><rect class="cls-4" x="157.52" y="243.48" width="48.09" height="13.48"/><text class="cls-8" transform="translate(164.74 252.24)">Th<tspan class="cls-7" x="6.56" y="0">em</tspan><tspan x="14.92" y="0">a</tspan><tspan class="cls-7" x="18.12" y="0" xml:space="preserve"> B</tspan><tspan x="23.09" y="0">.D.</tspan><tspan class="cls-12" x="30.07" y="0">B</tspan></text><rect class="cls-3" x="157.52" y="243.48" width="48.09" height="13.48"/><text class="cls-2" transform="translate(156.64 264.5)">www.test.ch/BD/B.html</text><polyline class="cls-3" points="147.55 208.6 147.55 218.28 156.64 218.28"/><polyline class="cls-3" points="147.55 215.64 147.55 249.93 156.64 249.93"/><line class="cls-13" x1="347.24" y1="46.85" x2="66.79" y2="46.85"/><path class="cls-14" d="M66.79,50.85a4,4,0,1,0-4-4,4,4,0,0,0,4,4"/><line class="cls-13" x1="398.27" y1="114.38" x2="193.92" y2="114.38"/><path class="cls-14" d="M193.92,118.38a4,4,0,1,0-4-4,4,4,0,0,0,4,4"/><line class="cls-13" x1="347.24" y1="146.5" x2="279.39" y2="146.5"/><path class="cls-14" d="M279.39,150.5a4,4,0,1,0-4-4,4,4,0,0,0,4,4"/><polyline class="cls-13" points="185.84 13.09 347.24 13.09 347.24 238.27 193.48 238.27"/><path class="cls-14" d="M185.84,17.09a4,4,0,1,0-4-4,4,4,0,0,0,4,4"/><path class="cls-14" d="M193.48,242.27a4,4,0,1,0-4-4,4,4,0,0,0,4,4"/><text class="cls-15" transform="translate(415.28 113.88)">Metanavigation</text><text class="cls-16" transform="translate(415.28 125.87)">– Home</text><text class="cls-16" transform="translate(415.28 137.87)">– Kategorie A</text><text class="cls-16" transform="translate(415.28 149.87)">– Thema B.B</text><text class="cls-16" transform="translate(415.28 161.87)">– Thema C.C</text><text class="cls-16" transform="translate(415.28 173.87)">– Thema B.D.B</text></svg>