<svg id="Layer_1" data-name="Layer 1" xmlns="http://www.w3.org/2000/svg" xmlns:xlink="http://www.w3.org/1999/xlink" viewBox="0 0 238.44 249.63"><defs><style>.cls-1,.cls-10,.cls-16,.cls-9{fill:none;}.cls-2{fill:#fff;}.cls-3{fill:#b8b8b8;}.cls-4{fill:#dedede;}.cls-5{font-size:6.97px;}.cls-17,.cls-5{font-family:RedactedScript-Bold, Redacted Script;}.cls-11,.cls-17,.cls-5,.cls-7{font-weight:700;}.cls-6{clip-path:url(#clip-path);}.cls-7{font-size:4.29px;font-family:MyriadPro-Bold, Myriad Pro;letter-spacing:0.15em;}.cls-8{letter-spacing:0em;}.cls-10,.cls-9{stroke:#232321;stroke-miterlimit:10;stroke-width:1.75px;}.cls-10{stroke-linecap:round;}.cls-11,.cls-12{font-size:7px;fill:#20201e;}.cls-11{font-family:OpenSans-Bold, Open Sans;}.cls-12{font-family:OpenSans, Open Sans;}.cls-13{clip-path:url(#clip-path-2);}.cls-14{clip-path:url(#clip-path-4);}.cls-15{fill:#5e5e5e;}.cls-16{stroke:#000;stroke-width:0.27px;}.cls-17{font-size:7.45px;}</style><clipPath id="clip-path"><rect class="cls-1" x="9.18" y="32.27" width="85.84" height="153.45"/></clipPath><clipPath id="clip-path-2"><rect id="SVGID" class="cls-1" x="144.57" y="32.27" width="85.84" height="153.45"/></clipPath><clipPath id="clip-path-4"><rect id="SVGID-3" data-name="SVGID" class="cls-1" x="126.86" y="20.46" width="122.05" height="229.88"/></clipPath></defs><title>mobile_slidein</title><rect class="cls-2" x="9.18" y="32.27" width="85.84" height="153.45"/><rect class="cls-3" x="9.18" y="48.9" width="41.31" height="41.85"/><rect class="cls-3" x="53.7" y="48.9" width="41.31" height="41.85"/><rect class="cls-4" x="9.18" y="32.27" width="85.84" height="12.88"/><text class="cls-5" transform="translate(13.2 102.22)">Acea di volor samus </text><text class="cls-5" transform="translate(13.2 110.59)">aut arcid quo volore </text><text class="cls-5" transform="translate(13.2 118.96)">voluptatur sitatur? </text><text class="cls-5" transform="translate(13.2 127.33)">Nequamusdae parum re-</text><text class="cls-5" transform="translate(13.2 135.7)">prae. Itia volupta non </text><text class="cls-5" transform="translate(13.2 144.07)">providis nam fugitiu nto-</text><text class="cls-5" transform="translate(13.2 152.44)">tatu rescim rat.</text><text class="cls-5" transform="translate(13.2 160.8)">Mo iusanihit exeria so-</text><text class="cls-5" transform="translate(13.2 169.17)">luption nos ese por mil </text><text class="cls-5" transform="translate(13.2 177.54)">mo consed ex eosto do-</text><g class="cls-6"><text class="cls-5" transform="translate(13.2 185.91)">lupta quiderferum quas </text><text class="cls-5" transform="translate(13.2 194.28)">que non eatium laborit </text><text class="cls-5" transform="translate(13.2 202.65)">dolores denitios ipsa-</text><text class="cls-5" transform="translate(13.2 211.02)">perrore modi dolorum </text><text class="cls-5" transform="translate(13.2 219.39)">quia vellaborum rehent </text><text class="cls-5" transform="translate(13.2 227.76)">voluptur? Evellate eos </text><text class="cls-5" transform="translate(13.2 236.13)">sum lam alias ex etur?</text><text class="cls-5" transform="translate(13.2 244.5)">Tem nim facearitas erum </text><text class="cls-5" transform="translate(13.2 252.86)">estrupit velluptae no-</text></g><rect x="12.54" y="35.22" width="7.78" height="1.42"/><rect x="12.54" y="37.86" width="7.78" height="1.42"/><rect x="12.54" y="40.5" width="7.78" height="1.42"/><text class="cls-7" transform="translate(23.42 40.27)">MEN<tspan class="cls-8" x="10.8" y="0">Ü</tspan></text><rect class="cls-9" x="0.88" y="31.07" width="2.83" height="9.67" rx="0.55" ry="0.55"/><rect class="cls-9" x="0.88" y="51.61" width="1.64" height="6.85" rx="0.37" ry="0.37"/><rect class="cls-9" x="0.88" y="69.23" width="1.64" height="6.85" rx="0.37" ry="0.37"/><path class="cls-10" d="M16.72,2.46h71A14.43,14.43,0,0,1,102.17,16.9v183.5a14.43,14.43,0,0,1-14.43,14.43h-71A14.43,14.43,0,0,1,2.28,200.39V16.9A14.44,14.44,0,0,1,16.72,2.46Z"/><rect class="cls-9" x="69.46" y="0.88" width="16.43" height="1.41" rx="0.5" ry="0.5"/><path class="cls-2" d="M87.74,2.46h-71A14.44,14.44,0,0,0,2.28,16.89v183.5a14.44,14.44,0,0,0,14.44,14.43h71a14.44,14.44,0,0,0,14.43-14.43V16.89A14.44,14.44,0,0,0,87.74,2.46m7.68,183H9V32.14H95.42Z"/><path class="cls-10" d="M87.74,2.46h-71A14.44,14.44,0,0,0,2.28,16.89v183.5a14.44,14.44,0,0,0,14.44,14.43h71a14.44,14.44,0,0,0,14.43-14.43V16.89A14.44,14.44,0,0,0,87.74,2.46Zm7.68,183H9V32.14H95.42Z"/><circle class="cls-9" cx="52.23" cy="198.77" r="9.61" transform="translate(-142.64 133.46) rotate(-56.75)"/><rect class="cls-9" x="49.18" y="195.72" width="6.09" height="6.1" rx="1.42" ry="1.42"/><circle class="cls-9" cx="52.23" cy="12.33" r="1.96" transform="translate(4.9 37.62) rotate(-41.4)"/><rect class="cls-9" x="42.74" y="17.8" width="18.97" height="4.64" rx="2.2" ry="2.2"/><text class="cls-11" transform="translate(9.04 234.99)">Menü minimiert</text><text class="cls-12" transform="translate(9.04 246.98)">Inhalt ist zugänglich.</text><rect class="cls-2" x="144.57" y="32.27" width="85.84" height="153.45"/><rect class="cls-3" x="144.57" y="48.9" width="41.31" height="41.85"/><rect class="cls-3" x="189.09" y="48.9" width="41.31" height="41.85"/><rect class="cls-4" x="144.57" y="32.27" width="85.84" height="12.88"/><text class="cls-5" transform="translate(148.59 102.22)">Acea di volor samus </text><text class="cls-5" transform="translate(148.59 110.59)">aut arcid quo volore </text><text class="cls-5" transform="translate(148.59 118.96)">voluptatur sitatur? </text><text class="cls-5" transform="translate(148.59 127.33)">Nequamusdae parum re-</text><text class="cls-5" transform="translate(148.59 135.7)">prae. Itia volupta non </text><text class="cls-5" transform="translate(148.59 144.07)">providis nam fugitiu nto-</text><text class="cls-5" transform="translate(148.59 152.44)">tatu rescim rat.</text><text class="cls-5" transform="translate(148.59 160.8)">Mo iusanihit exeria so-</text><text class="cls-5" transform="translate(148.59 169.17)">luption nos ese por mil </text><text class="cls-5" transform="translate(148.59 177.54)">mo consed ex eosto do-</text><g class="cls-13"><text class="cls-5" transform="translate(148.59 185.91)">lupta quiderferum quas </text><text class="cls-5" transform="translate(148.59 194.28)">que non eatium laborit </text><text class="cls-5" transform="translate(148.59 202.65)">dolores denitios ipsa-</text><text class="cls-5" transform="translate(148.59 211.02)">perrore modi dolorum </text><text class="cls-5" transform="translate(148.59 219.39)">quia vellaborum rehent </text><text class="cls-5" transform="translate(148.59 227.76)">voluptur? Evellate eos </text><text class="cls-5" transform="translate(148.59 236.13)">sum lam alias ex etur?</text><text class="cls-5" transform="translate(148.59 244.5)">Tem nim facearitas erum </text><text class="cls-5" transform="translate(148.59 252.86)">estrupit velluptae no-</text></g><rect x="147.93" y="35.22" width="7.78" height="1.42"/><rect x="147.93" y="37.86" width="7.78" height="1.42"/><rect x="147.93" y="40.5" width="7.78" height="1.42"/><text class="cls-7" transform="translate(158.82 40.27)">MEN<tspan class="cls-8" x="10.8" y="0">Ü</tspan></text><g class="cls-13"><g class="cls-14"><rect class="cls-15" x="129.28" y="22.34" width="117.22" height="227.73"/></g></g><rect class="cls-4" x="144.57" y="32.27" width="54.99" height="153.45"/><g class="cls-13"><rect class="cls-16" x="136.79" y="27.17" width="62.77" height="205.34"/></g><text class="cls-17" transform="translate(155.3 54.85)">volor amus </text><text class="cls-17" transform="translate(155.3 65.4)">autarcid </text><text class="cls-17" transform="translate(155.3 75.95)">qusdsadfo </text><text class="cls-17" transform="translate(155.3 86.5)">oluptatur</text><text class="cls-7" transform="translate(158.82 40.27)">MEN<tspan class="cls-8" x="10.8" y="0">Ü</tspan></text><rect x="147.93" y="37.86" width="7.78" height="1.42" transform="translate(17.19 118.65) rotate(-45)"/><rect x="151.11" y="34.68" width="1.42" height="7.78" transform="translate(17.19 118.65) rotate(-45)"/><rect class="cls-9" x="136.27" y="31.07" width="2.83" height="9.67" rx="0.55" ry="0.55"/><rect class="cls-9" x="136.27" y="51.61" width="1.64" height="6.85" rx="0.37" ry="0.37"/><rect class="cls-9" x="136.27" y="69.23" width="1.64" height="6.85" rx="0.37" ry="0.37"/><path class="cls-10" d="M152.11,2.46h71A14.43,14.43,0,0,1,237.56,16.9v183.5a14.43,14.43,0,0,1-14.43,14.43h-71a14.43,14.43,0,0,1-14.43-14.43V16.9A14.44,14.44,0,0,1,152.11,2.46Z"/><rect class="cls-9" x="204.85" y="0.88" width="16.43" height="1.41" rx="0.5" ry="0.5"/><path class="cls-2" d="M223.13,2.46h-71a14.44,14.44,0,0,0-14.44,14.43v183.5a14.44,14.44,0,0,0,14.44,14.43h71a14.44,14.44,0,0,0,14.43-14.43V16.89A14.44,14.44,0,0,0,223.13,2.46m7.68,183H144.42V32.14h86.39Z"/><path class="cls-10" d="M223.13,2.46h-71a14.44,14.44,0,0,0-14.44,14.43v183.5a14.44,14.44,0,0,0,14.44,14.43h71a14.44,14.44,0,0,0,14.43-14.43V16.89A14.44,14.44,0,0,0,223.13,2.46Zm7.68,183H144.42V32.14h86.39Z"/><circle class="cls-9" cx="187.62" cy="198.77" r="9.61" transform="translate(-81.48 246.69) rotate(-56.75)"/><rect class="cls-9" x="184.57" y="195.72" width="6.09" height="6.1" rx="1.42" ry="1.42"/><circle class="cls-9" cx="187.62" cy="12.33" r="1.96" transform="translate(38.74 127.17) rotate(-41.4)"/><rect class="cls-9" x="178.13" y="17.8" width="18.97" height="4.64" rx="2.2" ry="2.2"/><text class="cls-11" transform="translate(144.57 234.99)">Menü aktiv</text><text class="cls-12" transform="translate(144.57 246.98)">Inhalt ist nicht zugänglich.</text></svg>