<svg id="Layer_1" data-name="Layer 1" xmlns="http://www.w3.org/2000/svg" xmlns:xlink="http://www.w3.org/1999/xlink" viewBox="0 0 330 152.52"><defs><style>.cls-1,.cls-14,.cls-16{fill:none;}.cls-2{fill:#f5f5f5;}.cls-3{fill:#fff;}.cls-4{fill:#b8b8b8;}.cls-5{fill:#dedede;}.cls-6{font-size:4.38px;}.cls-12,.cls-6{font-family:RedactedScript-Bold, Redacted Script;}.cls-12,.cls-15,.cls-6{font-weight:700;}.cls-7{letter-spacing:-0.14em;}.cls-8{letter-spacing:-0.35em;}.cls-9{letter-spacing:-0.35em;}.cls-10{letter-spacing:0em;}.cls-11{clip-path:url(#clip-path);}.cls-12{font-size:6.06px;}.cls-13{letter-spacing:1.76em;}.cls-14{stroke:#232321;stroke-miterlimit:10;stroke-width:0.63px;}.cls-15{font-size:7px;font-family:OpenSans-Bold, Open Sans;}.cls-15,.cls-17{fill:#20201e;}.cls-16{stroke:#20201e;}</style><clipPath id="clip-path"><rect class="cls-1" x="27.32" y="9.52" width="172.37" height="112.11"/></clipPath></defs><title>navigation_spread</title><rect class="cls-2" x="5.43" y="3.9" width="216.14" height="121.54"/><rect class="cls-3" x="27.32" y="9.52" width="172.37" height="112.11"/><rect class="cls-4" x="84.89" y="23.99" width="114.8" height="97.64"/><rect class="cls-5" x="27.32" y="9.52" width="172.37" height="16.83"/><text class="cls-6" transform="translate(97.01 39.75)">Acea di volor samus aut arcid quo volore </text><text class="cls-6" transform="translate(97.01 45)">voluptatur sitatur? Nequamusdae parum </text><text class="cls-6" transform="translate(97.01 50.26)">reprae. Itia volupta non providis nam fugi-</text><text class="cls-6" transform="translate(97.01 55.51)">tiu ntotatu rescim rat.</text><text class="cls-6" transform="translate(97.01 60.76)">Mo iusanihit exeria soluption nos ese por </text><text class="cls-6" transform="translate(97.01 66.01)">mil mo consed ex eosto dolupta quiderfe-</text><text class="cls-6" transform="translate(97.01 71.26)">rum quas que non eatium laborit dolores </text><text class="cls-6" transform="translate(97.01 76.51)">denitios ipsaperrore modi dolorum quia </text><text class="cls-6" transform="translate(97.01 81.77)">vellaborum rehent voluptur? Evellate eos </text><text class="cls-6" transform="translate(97.01 87.02)">sum lam alias ex etur?</text><text class="cls-6" transform="translate(97.01 92.27)">Tem nim facearitas erum estrupit vel-</text><text class="cls-6" transform="translate(97.01 97.52)">luptae nobit poreperro quae volorit lab </text><text class="cls-6" transform="translate(97.01 102.77)">ipiet vit, aut vendanditat.</text><text class="cls-6" transform="translate(97.01 108.02)">Icius, volorio et aut et of<tspan class="cls-7" x="52.33" y="0">ﬁ</tspan><tspan class="cls-8" x="52.94" y="0"> </tspan><tspan x="53.54" y="0">ciunt of</tspan><tspan class="cls-7" x="68.09" y="0">ﬁ</tspan><tspan class="cls-9" x="68.7" y="0"> </tspan><tspan class="cls-10" x="69.3" y="0">cimen-</tspan></text><text class="cls-6" transform="translate(97.01 113.28)">dem aniam quatur sitat alit velis quo qui </text><text class="cls-6" transform="translate(97.01 118.53)">aliquis delliciam re nes rehenda sus et </text><g class="cls-11"><text class="cls-6" transform="translate(97.01 123.78)">antem. Ut poreici pictes volut aliae vo-</text><text class="cls-6" transform="translate(97.01 129.03)">lestius, sitiatur aut alit optae dolenih </text><text class="cls-6" transform="translate(97.01 134.28)">icitiuriore apitate nis que nam neturia </text><text class="cls-6" transform="translate(97.01 139.54)">volore quatur am, explabo. Us, consequos </text><text class="cls-6" transform="translate(97.01 144.79)">nus aut reiur ad moluptassit fuga. Id ut </text><text class="cls-6" transform="translate(97.01 150.04)">ulla vel iur sum am, optibus ciderfe rum-</text><text class="cls-6" transform="translate(97.01 155.29)">que si voluptatus, simi, of<tspan class="cls-7" x="51.76" y="0">ﬁ</tspan><tspan class="cls-8" x="52.36" y="0"> </tspan><tspan x="52.97" y="0">cid ex et har-</tspan></text></g><text class="cls-12" transform="translate(39.44 41.1)">volor amus </text><text class="cls-12" transform="translate(39.44 49.69)">autarcid </text><text class="cls-12" transform="translate(39.44 58.27)">qusdsadfo </text><text class="cls-12" transform="translate(39.44 66.86)">oluptatur</text><text class="cls-12" transform="translate(39.44 18.74)">volus<tspan class="cls-13" x="13.01" y="0"> </tspan><tspan x="26.61" y="0">aasdf</tspan><tspan class="cls-13" x="41.52" y="0"> </tspan><tspan x="55.11" y="0">utarcid</tspan><tspan class="cls-13" x="75.95" y="0"> </tspan><tspan x="89.55" y="0">qusdsadfo</tspan><tspan class="cls-13" x="116.32" y="0"> </tspan><tspan x="129.91" y="0">oluptatur</tspan></text><rect class="cls-3" x="96.36" y="121.32" width="33.37" height="28.3"/><rect class="cls-14" x="96.36" y="121.32" width="33.37" height="28.3"/><rect class="cls-3" x="84.01" y="144.56" width="58.06" height="7.15"/><rect class="cls-14" x="84.01" y="144.56" width="58.06" height="7.15"/><path class="cls-3" d="M5.2.31H220.89a4.89,4.89,0,0,1,4.89,4.89V124a4.89,4.89,0,0,1-4.89,4.89H5.2A4.89,4.89,0,0,1,.31,124V5.2A4.89,4.89,0,0,1,5.2.31m8,117.38H213V11.35H13.15Z"/><path class="cls-14" d="M5.2.31H220.88a4.89,4.89,0,0,1,4.89,4.89V124a4.89,4.89,0,0,1-4.89,4.89H5.2A4.89,4.89,0,0,1,.31,124V5.2A4.89,4.89,0,0,1,5.2.31Zm8,117.38H213V11.35H13.15Z"/><text class="cls-15" transform="translate(255.9 20.87)">Navigation (Level 1)</text><text class="cls-15" transform="translate(255.9 45.88)">Navigation (Level 2)</text><text class="cls-15" transform="translate(255.9 92.87)">Inhalt</text><line class="cls-16" x1="252.79" y1="18.51" x2="204.63" y2="18.51"/><path class="cls-17" d="M204.63,22.51a4,4,0,1,0-4-4,4,4,0,0,0,4,4"/><line class="cls-16" x1="252.79" y1="48.48" x2="58.64" y2="48.48"/><path class="cls-17" d="M58.64,52.48a4,4,0,1,0-4-4,4,4,0,0,0,4,4"/><line class="cls-16" x1="252.79" y1="90.41" x2="189.61" y2="90.41"/><path class="cls-17" d="M189.61,94.41a4,4,0,1,0-4-4,4,4,0,0,0,4,4"/></svg>