<svg id="Layer_1" data-name="Layer 1" xmlns="http://www.w3.org/2000/svg" viewBox="0 0 289.14 141"><defs><style>.cls-1{fill:none;stroke:#20201e;stroke-width:3px;}.cls-2{fill:#fff;}.cls-3{font-size:9px;font-family:OpenSans-Bold, Open Sans;font-weight:700;}.cls-3,.cls-8{fill:#20201e;}.cls-4{letter-spacing:0em;}.cls-5{letter-spacing:0.01em;}.cls-6{letter-spacing:0em;}.cls-7{letter-spacing:0em;}.cls-8{font-size:7px;font-family:OpenSans, Open Sans;}</style></defs><title>paging</title><path class="cls-1" d="M191.91,11.63c6.69,6.23,10.68,14.07,10.68,22.59s-2.38,14.85-9.07,21.09"/><polyline class="cls-1" points="194.13 46.92 193.53 55.31 201.93 55.3"/><path class="cls-1" d="M191.91,73.85c6.69,6.23,10.68,14.07,10.68,22.59s-2.38,14.85-9.07,21.09"/><polyline class="cls-1" points="194.13 109.14 193.53 117.53 201.93 117.52"/><rect class="cls-2" x="1.5" y="4.5" width="184.09" height="23"/><text class="cls-3" transform="translate(57.64 19.44)"><tspan class="cls-4">Th</tspan><tspan class="cls-5" x="11.2" y="0">ema A – </tspan><tspan class="cls-6" x="48.87" y="0">T</tspan><tspan class="cls-5" x="54.12" y="0">e</tspan><tspan class="cls-6" x="59.48" y="0">il</tspan><tspan class="cls-7" x="65.05" y="0"> </tspan><tspan x="67.43" y="0">1</tspan></text><rect class="cls-1" x="1.5" y="4.5" width="184.09" height="23"/><rect class="cls-2" x="1.5" y="52.5" width="184.09" height="23"/><text class="cls-3" transform="translate(57.24 67.44)"><tspan class="cls-4">Th</tspan><tspan class="cls-5" x="11.2" y="0">em</tspan><tspan class="cls-4" x="25.44" y="0">a</tspan><tspan class="cls-7" x="30.92" y="0" xml:space="preserve"> A – </tspan><tspan class="cls-4" x="48.86" y="0">T</tspan><tspan class="cls-7" x="54.11" y="0">e</tspan><tspan class="cls-4" x="59.47" y="0">il</tspan><tspan class="cls-7" x="65.04" y="0"> </tspan><tspan x="67.42" y="0">2</tspan></text><rect class="cls-1" x="1.5" y="52.5" width="184.09" height="23"/><rect class="cls-2" x="1.5" y="100.5" width="184.09" height="23"/><text class="cls-3" transform="translate(57.24 115.44)"><tspan class="cls-4">Th</tspan><tspan class="cls-5" x="11.2" y="0">em</tspan><tspan class="cls-4" x="25.44" y="0">a</tspan><tspan class="cls-7" x="30.92" y="0" xml:space="preserve"> A – </tspan><tspan class="cls-4" x="48.86" y="0">T</tspan><tspan class="cls-7" x="54.11" y="0">e</tspan><tspan class="cls-4" x="59.47" y="0">il</tspan><tspan class="cls-7" x="65.04" y="0"> </tspan><tspan x="67.42" y="0">3</tspan></text><rect class="cls-1" x="1.5" y="100.5" width="184.09" height="23"/><text class="cls-8" transform="translate(0 40.36)">www.test.ch/A1.html</text><text class="cls-8" transform="translate(0 88.36)">www.test.ch/A2.html</text><text class="cls-8" transform="translate(0 136.35)">www.test.ch/A3.html</text></svg>