<svg id="Layer_1" data-name="Layer 1" xmlns="http://www.w3.org/2000/svg" xmlns:xlink="http://www.w3.org/1999/xlink" viewBox="0 0 330 152.03"><defs><style>.cls-1,.cls-15,.cls-17{fill:none;}.cls-2{clip-path:url(#clip-path);}.cls-3{font-size:4.38px;}.cls-13,.cls-3{font-family:RedactedScript-Bold, Redacted Script;}.cls-13,.cls-16,.cls-3{font-weight:700;}.cls-4{letter-spacing:-0.14em;}.cls-5{letter-spacing:-0.35em;}.cls-6{letter-spacing:-0.35em;}.cls-7{letter-spacing:0em;}.cls-8{fill:#f5f5f5;}.cls-9{fill:#fff;}.cls-10{fill:#b8b8b8;}.cls-11{fill:#dedede;}.cls-12{clip-path:url(#clip-path-2);}.cls-13{font-size:6.06px;}.cls-14{letter-spacing:1.76em;}.cls-15{stroke:#232321;stroke-miterlimit:10;stroke-width:0.63px;}.cls-16{font-size:7px;font-family:OpenSans-Bold, Open Sans;}.cls-16,.cls-18{fill:#20201e;}.cls-17{stroke:#20201e;}</style><clipPath id="clip-path"><rect class="cls-1" x="27.4" y="-257.97" width="172.37" height="112.11"/></clipPath><clipPath id="clip-path-2"><rect class="cls-1" x="27.32" y="9.52" width="172.37" height="112.11"/></clipPath></defs><title>scroll_navigation</title><g class="cls-2"><text class="cls-3" transform="translate(101.83 9.89)">it lab ipiet vit, aut vendanditat.</text><text class="cls-3" transform="translate(101.83 15.14)">Icius, volorio et aut et of<tspan class="cls-4" x="52.33" y="0">ﬁ</tspan><tspan class="cls-5" x="52.94" y="0"> </tspan><tspan x="53.54" y="0">ciunt of</tspan><tspan class="cls-4" x="68.09" y="0">ﬁ</tspan><tspan class="cls-6" x="68.7" y="0"> </tspan><tspan class="cls-7" x="69.3" y="0">cimen-</tspan></text><text class="cls-3" transform="translate(101.83 20.39)">dem aniam quatur sitat alit velis </text></g><rect class="cls-8" x="5.43" y="3.9" width="216.14" height="121.54"/><rect class="cls-9" x="27.32" y="9.52" width="172.37" height="112.11"/><rect class="cls-10" x="27.32" y="20.53" width="172.37" height="101.09"/><rect class="cls-11" x="27.32" y="9.52" width="172.37" height="12.12"/><text class="cls-3" transform="translate(95.7 34.81)">Acea di volor samus aut arcid quo volore </text><text class="cls-3" transform="translate(95.7 40.06)">voluptatur sitatur? Nequamusdae parum </text><text class="cls-3" transform="translate(95.7 45.31)">reprae. Itia volupta non providis nam fugi-</text><text class="cls-3" transform="translate(95.7 50.56)">tiu ntotatu rescim rat.</text><text class="cls-3" transform="translate(95.7 55.81)">Mo iusanihit exeria soluption nos ese por </text><text class="cls-3" transform="translate(95.7 61.06)">mil mo consed ex eosto dolupta quiderfe-</text><text class="cls-3" transform="translate(95.7 66.32)">rum quas que non eatium laborit dolores </text><text class="cls-3" transform="translate(95.7 71.57)">denitios ipsaperrore modi dolorum quia </text><text class="cls-3" transform="translate(95.7 76.82)">vellaborum rehent voluptur? Evellate eos </text><text class="cls-3" transform="translate(95.7 82.07)">sum lam alias ex etur?</text><text class="cls-3" transform="translate(95.7 87.32)">Tem nim facearitas erum estrupit vel-</text><text class="cls-3" transform="translate(95.7 92.58)">luptae nobit poreperro quae volorit lab </text><text class="cls-3" transform="translate(95.7 97.83)">ipiet vit, aut vendanditat.</text><text class="cls-3" transform="translate(95.7 103.08)">Icius, volorio et aut et of<tspan class="cls-4" x="52.33" y="0">ﬁ</tspan><tspan class="cls-5" x="52.94" y="0"> </tspan><tspan x="53.54" y="0">ciunt of</tspan><tspan class="cls-4" x="68.09" y="0">ﬁ</tspan><tspan class="cls-6" x="68.7" y="0"> </tspan><tspan class="cls-7" x="69.3" y="0">cimen-</tspan></text><text class="cls-3" transform="translate(95.7 108.33)">dem aniam quatur sitat alit velis quo qui </text><text class="cls-3" transform="translate(95.7 113.58)">aliquis delliciam re nes rehenda sus et </text><text class="cls-3" transform="translate(95.7 118.83)">antem. Ut poreici pictes volut aliae vo-</text><g class="cls-12"><text class="cls-3" transform="translate(95.7 124.09)">lestius, sitiatur aut alit optae dolenih </text><text class="cls-3" transform="translate(95.7 129.34)">icitiuriore apitate nis que nam neturia </text><text class="cls-3" transform="translate(95.7 134.59)">volore quatur am, explabo. Us, consequos </text><text class="cls-3" transform="translate(95.7 139.84)">nus aut reiur ad moluptassit fuga. Id ut </text><text class="cls-3" transform="translate(95.7 145.09)">ulla vel iur sum am, optibus ciderfe rum-</text><text class="cls-3" transform="translate(95.7 150.35)">que si voluptatus, simi, of<tspan class="cls-4" x="51.76" y="0">ﬁ</tspan><tspan class="cls-5" x="52.36" y="0"> </tspan><tspan x="52.97" y="0">cid ex et har-</tspan></text><text class="cls-3" transform="translate(95.7 155.6)">umque molores tinctore, sa porerum que </text></g><text class="cls-13" transform="translate(39.44 17.55)">volus<tspan class="cls-14" x="13.01" y="0"> </tspan><tspan x="26.61" y="0">aasdf</tspan><tspan class="cls-14" x="41.52" y="0"> </tspan><tspan x="55.11" y="0">utarcid</tspan><tspan class="cls-14" x="75.95" y="0"> </tspan><tspan x="89.55" y="0">qusdsadfo</tspan><tspan class="cls-14" x="116.32" y="0"> </tspan><tspan x="129.91" y="0">oluptatur</tspan></text><rect class="cls-9" x="39.44" y="32.74" width="43.86" height="43.86"/><rect class="cls-9" x="39.44" y="80.03" width="43.86" height="41.6"/><rect class="cls-9" x="96.36" y="121.32" width="33.37" height="28.3"/><rect class="cls-15" x="96.36" y="121.32" width="33.37" height="28.3"/><rect class="cls-9" x="84.01" y="144.56" width="58.06" height="7.15"/><rect class="cls-15" x="84.01" y="144.56" width="58.06" height="7.15"/><path class="cls-9" d="M5.2.31H220.89a4.89,4.89,0,0,1,4.89,4.89V124a4.89,4.89,0,0,1-4.89,4.89H5.2A4.89,4.89,0,0,1,.31,124V5.2A4.89,4.89,0,0,1,5.2.31m8,117.38H213V11.35H13.15Z"/><path class="cls-15" d="M5.2.31H220.88a4.89,4.89,0,0,1,4.89,4.89V124a4.89,4.89,0,0,1-4.89,4.89H5.2A4.89,4.89,0,0,1,.31,124V5.2A4.89,4.89,0,0,1,5.2.31Zm8,117.38H213V11.35H13.15Z"/><text class="cls-16" transform="translate(231.9 15.91)">Navigation (Level 1) <tspan x="0" y="12">aktiviert Scroll zur</tspan><tspan x="0" y="24">gewünschten Position </tspan></text><text class="cls-16" transform="translate(231.9 68.87)">Inhalt (scrollt)</text><line class="cls-17" x1="228.79" y1="17.8" x2="204.63" y2="17.8"/><path class="cls-18" d="M204.63,21.8a4,4,0,1,0-4-4,4,4,0,0,0,4,4"/><line class="cls-17" x1="228.79" y1="66.41" x2="189.61" y2="66.41"/><path class="cls-18" d="M189.61,70.41a4,4,0,1,0-4-4,4,4,0,0,0,4,4"/></svg>