<svg id="Layer_1" data-name="Layer 1" xmlns="http://www.w3.org/2000/svg" xmlns:xlink="http://www.w3.org/1999/xlink" viewBox="0 0 330 152.03"><defs><style>.cls-1,.cls-14{fill:none;}.cls-2{fill:#f5f5f5;}.cls-3{fill:#fff;}.cls-4{fill:#dedede;}.cls-5{fill:#b8b8b8;}.cls-6{font-size:4.38px;}.cls-12,.cls-6{font-family:RedactedScript-Bold, Redacted Script;font-weight:700;}.cls-7{clip-path:url(#clip-path);}.cls-8{letter-spacing:-0.14em;}.cls-9{letter-spacing:-0.35em;}.cls-10{letter-spacing:-0.35em;}.cls-11{letter-spacing:0em;}.cls-12{font-size:6.06px;}.cls-13{letter-spacing:1.76em;}.cls-14{stroke:#232321;stroke-miterlimit:10;stroke-width:0.63px;}</style><clipPath id="clip-path"><rect class="cls-1" x="27.32" y="9.52" width="172.37" height="112.11"/></clipPath></defs><title>time_navigation</title><rect class="cls-2" x="5.43" y="3.9" width="216.14" height="121.54"/><rect class="cls-3" x="27.32" y="9.52" width="172.37" height="112.11"/><rect class="cls-4" x="27.32" y="9.52" width="172.37" height="12.12"/><rect class="cls-5" x="96.34" y="36.25" width="91.23" height="21.88"/><text class="cls-6" transform="translate(101.76 42.73)">Acea di volor samus aut arcid quo vo-</text><text class="cls-6" transform="translate(101.76 47.98)">lore voluptatur sitatur? Nequamusdae </text><text class="cls-6" transform="translate(101.76 53.23)">parum reprae. Itia volupta non providis </text><rect class="cls-5" x="96.34" y="62.32" width="91.23" height="21.88"/><text class="cls-6" transform="translate(101.76 68.8)">nam fugitiu ntotatu rescim rat.</text><text class="cls-6" transform="translate(101.76 74.06)">Mo iusanihit exeria soluption nos ese </text><text class="cls-6" transform="translate(101.76 79.31)">por mil mo consed ex eosto dolupta qui</text><rect class="cls-5" x="96.34" y="88.39" width="91.23" height="21.88"/><text class="cls-6" transform="translate(101.76 94.87)">iderferum quas que non eatium laborit </text><text class="cls-6" transform="translate(101.76 100.13)">dolores denitios ipsaperrore modi do-</text><text class="cls-6" transform="translate(101.76 105.38)">lorum quia vellaborum rehent volup</text><rect class="cls-5" x="96.34" y="114.47" width="91.23" height="7.16"/><text class="cls-6" transform="translate(101.76 120.95)">Evellate eos sum lam alias ex etur?</text><g class="cls-7"><text class="cls-6" transform="translate(101.76 126.2)">Tem nim facearitas erum estrupit vel-</text><text class="cls-6" transform="translate(101.76 131.45)">luptae nobit poreperro quae volorit </text><text class="cls-6" transform="translate(101.76 147.02)">it lab ipiet vit, aut vendanditat.</text><text class="cls-6" transform="translate(101.76 152.27)">Icius, volorio et aut et of<tspan class="cls-8" x="52.33" y="0">ﬁ</tspan><tspan class="cls-9" x="52.94" y="0"> </tspan><tspan x="53.54" y="0">ciunt of</tspan><tspan class="cls-8" x="68.09" y="0">ﬁ</tspan><tspan class="cls-10" x="68.7" y="0"> </tspan><tspan class="cls-11" x="69.3" y="0">cimen-</tspan></text></g><text class="cls-12" transform="translate(39.44 17.55)">volus<tspan class="cls-13" x="13.01" y="0"> </tspan><tspan x="26.61" y="0">aasdf</tspan><tspan class="cls-13" x="41.52" y="0"> </tspan><tspan x="55.11" y="0">utarcid</tspan><tspan class="cls-13" x="75.95" y="0"> </tspan><tspan x="89.55" y="0">qusdsadfo</tspan><tspan class="cls-13" x="116.32" y="0"> </tspan><tspan x="129.91" y="0">oluptatur</tspan></text><rect class="cls-5" x="27.32" y="23.99" width="57.57" height="97.63"/><text class="cls-12" transform="translate(39.44 41.1)">volor amus </text><text class="cls-12" transform="translate(39.44 49.69)">autarcid </text><text class="cls-12" transform="translate(39.44 58.27)">qusdsadfo </text><text class="cls-12" transform="translate(39.44 66.86)">oluptatur</text><rect class="cls-3" x="96.36" y="121.32" width="33.37" height="28.3"/><rect class="cls-14" x="96.36" y="121.32" width="33.37" height="28.3"/><rect class="cls-3" x="84.01" y="144.56" width="58.06" height="7.15"/><rect class="cls-14" x="84.01" y="144.56" width="58.06" height="7.15"/><path class="cls-3" d="M5.2.31H220.89a4.89,4.89,0,0,1,4.89,4.89V124a4.89,4.89,0,0,1-4.89,4.89H5.2A4.89,4.89,0,0,1,.31,124V5.2A4.89,4.89,0,0,1,5.2.31m8,117.38H213V11.35H13.15Z"/><path class="cls-14" d="M5.2.31H220.88a4.89,4.89,0,0,1,4.89,4.89V124a4.89,4.89,0,0,1-4.89,4.89H5.2A4.89,4.89,0,0,1,.31,124V5.2A4.89,4.89,0,0,1,5.2.31Zm8,117.38H213V11.35H13.15Z"/></svg>