<svg id="Layer_1" data-name="Layer 1" xmlns="http://www.w3.org/2000/svg" viewBox="0 0 560 300"><defs><style>.cls-1,.cls-7{font-size:22px;}.cls-1{font-family:OpenSans, Open Sans;}.cls-2,.cls-3{fill:#fff;}.cls-2,.cls-4,.cls-5{stroke:#000;stroke-miterlimit:10;}.cls-4,.cls-5{fill:none;}.cls-5{stroke-dasharray:2.99 2.99;}.cls-6{font-family:MyriadPro-Regular, Myriad Pro;}.cls-7{font-family:OpenSans-Bold, Open Sans;font-weight:700;}</style></defs><title>storey</title><text class="cls-1" transform="translate(347.89 274)">1st Floor</text><text class="cls-1" transform="translate(114.64 274)">EG</text><rect class="cls-2" x="172.63" y="64.3" width="145.52" height="232.26"/><rect class="cls-2" x="160.1" y="289.43" width="170.58" height="10.57"/><rect class="cls-2" x="191.6" y="81.83" width="23.99" height="23.99"/><rect class="cls-2" x="233.39" y="81.83" width="23.99" height="23.99"/><rect class="cls-2" x="275.18" y="81.83" width="23.99" height="23.99"/><rect class="cls-2" x="191.6" y="124.05" width="23.99" height="23.99"/><rect class="cls-2" x="233.39" y="124.05" width="23.99" height="23.99"/><rect class="cls-2" x="275.18" y="124.05" width="23.99" height="23.99"/><rect class="cls-2" x="191.6" y="166.26" width="23.99" height="23.99"/><rect class="cls-2" x="233.39" y="166.26" width="23.99" height="23.99"/><rect class="cls-2" x="275.18" y="166.26" width="23.99" height="23.99"/><rect class="cls-2" x="191.6" y="250.69" width="23.99" height="23.99"/><rect class="cls-2" x="233.39" y="250.69" width="23.99" height="23.99"/><rect class="cls-3" x="275.18" y="250.69" width="23.99" height="23.99"/><rect class="cls-2" x="191.6" y="208.47" width="23.99" height="23.99"/><rect class="cls-2" x="233.39" y="208.47" width="23.99" height="23.99"/><rect class="cls-2" x="275.18" y="208.47" width="23.99" height="23.99"/><rect class="cls-2" x="287.9" y="250.8" width="20.62" height="38.63"/><rect class="cls-2" x="267.26" y="250.8" width="20.62" height="38.63"/><line class="cls-4" x1="149.82" y1="241.5" x2="151.32" y2="241.5"/><line class="cls-5" x1="154.3" y1="241.5" x2="338.01" y2="241.5"/><line class="cls-4" x1="339.5" y1="241.5" x2="341" y2="241.5"/><text class="cls-1" transform="translate(347.5 232)">2nd Floor</text><text class="cls-1" transform="translate(64.25 232)">1.<tspan class="cls-6" x="18.43" y="0"> </tspan><tspan x="23.1" y="0">Stock</tspan></text><line class="cls-4" x1="149.39" y1="199.5" x2="150.89" y2="199.5"/><line class="cls-5" x1="153.87" y1="199.5" x2="337.58" y2="199.5"/><line class="cls-4" x1="339.07" y1="199.5" x2="340.57" y2="199.5"/><text class="cls-1" transform="translate(347.5 190)">3rd Floor</text><text class="cls-1" transform="translate(63.2 190)">2. Stock</text><line class="cls-4" x1="149.39" y1="157.5" x2="150.89" y2="157.5"/><line class="cls-5" x1="153.87" y1="157.5" x2="337.58" y2="157.5"/><line class="cls-4" x1="339.07" y1="157.5" x2="340.57" y2="157.5"/><text class="cls-1" transform="translate(347.5 147)">4th Floor</text><text class="cls-1" transform="translate(63.2 147)">3. Stock</text><text class="cls-1" transform="translate(347.5 104)">5th Floor</text><text class="cls-1" transform="translate(63.2 104)">4. Stock</text><text class="cls-7" transform="translate(347.5 45)">USA</text><text class="cls-7" transform="translate(64.9 45)">Europa</text><line class="cls-4" x1="149.39" y1="114.5" x2="150.89" y2="114.5"/><line class="cls-5" x1="153.87" y1="114.5" x2="337.58" y2="114.5"/><line class="cls-4" x1="339.07" y1="114.5" x2="340.57" y2="114.5"/></svg>