<svg xmlns="http://www.w3.org/2000/svg" xmlns:xlink="http://www.w3.org/1999/xlink" viewBox="0 0 226.08 155.82"><defs><style>.cls-1,.cls-15{fill:none;}.cls-2{fill:#f5f5f5;}.cls-3{fill:#fff;}.cls-4{fill:#b9b9b9;}.cls-5{fill:#dfdfdf;}.cls-6{font-size:3.29px;}.cls-11,.cls-6{font-family:RedactedScript-Bold, Redacted Script;font-weight:700;}.cls-7{letter-spacing:-0.14em;}.cls-8{letter-spacing:-0.35em;}.cls-9{letter-spacing:-0.14em;}.cls-10{clip-path:url(#clip-path);}.cls-11{font-size:4.56px;}.cls-12{letter-spacing:1.76em;}.cls-13{letter-spacing:0em;}.cls-14{letter-spacing:1.76em;}.cls-15{stroke:#1d1e1c;stroke-miterlimit:10;stroke-width:0.63px;}</style><clipPath id="clip-path"><rect class="cls-1" x="51.14" y="10.49" width="129.6" height="111"/></clipPath></defs><title>screensize-desktop</title><g id="Layer_2" data-name="Layer 2"><g id="Layer_1-2" data-name="Layer 1"><rect class="cls-2" x="5.43" y="3.9" width="216.14" height="121.54"/><rect class="cls-3" x="51.14" y="10.49" width="129.6" height="111"/><rect class="cls-4" x="94.43" y="21.37" width="86.32" height="100.12"/><rect class="cls-5" x="51.14" y="10.49" width="129.6" height="12.66"/><text class="cls-6" transform="translate(103.54 33.22)">Acea di volor samus aut arcid quo volore </text><text class="cls-6" transform="translate(103.54 37.17)">voluptatur sitatur? Nequamusdae parum </text><text class="cls-6" transform="translate(103.54 41.12)">reprae. Itia volupta non providis nam fugi-</text><text class="cls-6" transform="translate(103.54 45.07)">tiu ntotatu rescim rat.</text><text class="cls-6" transform="translate(103.54 49.02)">Mo iusanihit exeria soluption nos ese por </text><text class="cls-6" transform="translate(103.54 52.97)">mil mo consed ex eosto dolupta quiderfe-</text><text class="cls-6" transform="translate(103.54 56.91)">rum quas que non eatium laborit dolores </text><text class="cls-6" transform="translate(103.54 60.86)">denitios ipsaperrore modi dolorum quia </text><text class="cls-6" transform="translate(103.54 64.81)">vellaborum rehent voluptur? Evellate eos </text><text class="cls-6" transform="translate(103.54 68.76)">sum lam alias ex etur?</text><text class="cls-6" transform="translate(103.54 72.71)">Tem nim facearitas erum estrupit vel-</text><text class="cls-6" transform="translate(103.54 76.66)">luptae nobit poreperro quae volorit lab </text><text class="cls-6" transform="translate(103.54 80.61)">ipiet vit, aut vendanditat.</text><text class="cls-6" transform="translate(103.54 84.56)">Icius, volorio et aut et of<tspan class="cls-7" x="39.33" y="0">ﬁ</tspan><tspan class="cls-8" x="39.76" y="0"> </tspan><tspan x="40.22" y="0">ciunt of</tspan><tspan class="cls-9" x="51.15" y="0">ﬁ</tspan><tspan class="cls-8" x="51.6" y="0"> </tspan><tspan x="52.05" y="0">cimen-</tspan></text><text class="cls-6" transform="translate(103.54 88.5)">dem aniam quatur sitat alit velis quo qui </text><text class="cls-6" transform="translate(103.54 92.45)">aliquis delliciam re nes rehenda sus et </text><text class="cls-6" transform="translate(103.54 96.4)">antem. Ut poreici pictes volut aliae vo-</text><text class="cls-6" transform="translate(103.54 100.35)">lestius, sitiatur aut alit optae dolenih </text><text class="cls-6" transform="translate(103.54 104.3)">icitiuriore apitate nis que nam neturia </text><text class="cls-6" transform="translate(103.54 108.25)">volore quatur am, explabo. Us, consequos </text><text class="cls-6" transform="translate(103.54 112.2)">nus aut reiur ad moluptassit fuga. Id ut </text><text class="cls-6" transform="translate(103.54 116.15)">ulla vel iur sum am, optibus ciderfe rum-</text><text class="cls-6" transform="translate(103.54 120.09)">que si voluptatus, simi, of<tspan class="cls-7" x="38.9" y="0">ﬁ</tspan><tspan class="cls-8" x="39.33" y="0"> </tspan><tspan x="39.79" y="0">cid ex et har-</tspan></text><g class="cls-10"><text class="cls-6" transform="translate(103.54 124.04)">umque molores tinctore, sa porerum que </text><text class="cls-6" transform="translate(103.54 127.99)">eatur? Epel iniamus mo etur as asperum, </text><text class="cls-6" transform="translate(103.54 131.94)">optiae quodi aut et parupiendit andi ipi-</text><text class="cls-6" transform="translate(103.54 135.89)">tasim fugiae. Dolores quam, tempor autet </text><text class="cls-6" transform="translate(103.54 139.84)">lacepudae sinullessit mod ut qui utem ute </text><text class="cls-6" transform="translate(103.54 143.79)">lacillaut assiminciis quo exeruptas nonse </text><text class="cls-6" transform="translate(103.54 147.74)">qui nihil ium hitat aspe ni ut essimaiore </text><text class="cls-6" transform="translate(103.54 151.69)">nus est remperc iliquam consectum est, </text><text class="cls-6" transform="translate(103.54 155.63)">ut fugit, nimil maios reni denistio. Itat </text></g><text class="cls-11" transform="translate(60.25 34.23)">volor amus </text><text class="cls-11" transform="translate(60.25 40.69)">autarcid </text><text class="cls-11" transform="translate(60.25 47.15)">qusdsadfo </text><text class="cls-11" transform="translate(60.25 53.6)">oluptatur</text><text class="cls-11" transform="translate(60.25 17.43)">volus<tspan class="cls-12" x="9.78" y="0"> </tspan><tspan class="cls-13" x="20" y="0">aasdf</tspan><tspan class="cls-14" x="31.21" y="0"> </tspan><tspan x="41.44" y="0">utarcid</tspan><tspan class="cls-12" x="57.1" y="0"> </tspan><tspan x="67.33" y="0">qusdsadfo</tspan><tspan class="cls-12" x="87.44" y="0"> </tspan><tspan x="97.67" y="0">oluptatur</tspan></text><rect class="cls-3" x="96.36" y="121.32" width="33.37" height="28.3"/><rect class="cls-15" x="96.36" y="121.32" width="33.37" height="28.3"/><rect class="cls-3" x="84.01" y="144.56" width="58.06" height="7.15"/><rect class="cls-15" x="84.01" y="144.56" width="58.06" height="7.15"/><path class="cls-3" d="M5.2.31H220.89a4.89,4.89,0,0,1,4.89,4.89V124a4.89,4.89,0,0,1-4.89,4.89H5.2A4.89,4.89,0,0,1,.31,124V5.2A4.89,4.89,0,0,1,5.2.31m8,117.38H213V11.35H13.15Z"/><path class="cls-15" d="M5.2.31H220.88a4.89,4.89,0,0,1,4.89,4.89V124a4.89,4.89,0,0,1-4.89,4.89H5.2A4.89,4.89,0,0,1,.31,124V5.2A4.89,4.89,0,0,1,5.2.31Zm8,117.38H213V11.35H13.15Z"/></g></g></svg>