<svg xmlns="http://www.w3.org/2000/svg" viewBox="0 0 679 265"><defs><style>.cls-1,.cls-2{fill:none;}.cls-1,.cls-2,.cls-3,.cls-4{stroke:#1d1e1b;stroke-miterlimit:10;}.cls-2,.cls-3{stroke-linecap:round;}.cls-3,.cls-4,.cls-5{fill:#fff;}</style></defs><title>tft</title><g id="TFT"><rect class="cls-1" x="15.52" y="114.78" width="1.62" height="5.53" rx="0.31" ry="0.31"/><rect class="cls-1" x="15.52" y="126.52" width="0.94" height="3.91" rx="0.21" ry="0.21"/><rect class="cls-1" x="15.52" y="136.59" width="0.94" height="3.91" rx="0.21" ry="0.21"/><rect class="cls-2" x="16.33" y="98.43" width="57.08" height="121.35" rx="8.25" ry="8.25"/><rect class="cls-1" x="54.71" y="97.53" width="9.39" height="0.81" rx="0.29" ry="0.29"/><path class="cls-3" d="M65.16,98.43H24.58a8.25,8.25,0,0,0-8.25,8.25V211.54a8.25,8.25,0,0,0,8.25,8.25H65.16a8.26,8.26,0,0,0,8.25-8.25V106.68A8.26,8.26,0,0,0,65.16,98.43ZM69.55,203H20.19V115.4H69.55Z"/><path class="cls-1" d="M40.27,207.6a5.49,5.49,0,1,1,1.59,7.6A5.49,5.49,0,0,1,40.27,207.6Z"/><rect class="cls-1" x="43.13" y="208.87" width="3.48" height="3.48" rx="0.81" ry="0.81"/><path class="cls-1" d="M44.13,103.24a1.12,1.12,0,1,1-.1,1.57A1.1,1.1,0,0,1,44.13,103.24Z"/><path class="cls-1" d="M40.7,107.2H49a1.26,1.26,0,0,1,1.26,1.26v.14A1.26,1.26,0,0,1,49,109.86H40.7a1.25,1.25,0,0,1-1.25-1.25v-.14A1.26,1.26,0,0,1,40.7,107.2Z"/><rect class="cls-4" x="452.19" y="207.66" width="53.43" height="45.32"/><rect class="cls-4" x="432.42" y="244.89" width="92.96" height="11.45"/><path class="cls-4" d="M306.23,13.91H651.59a7.82,7.82,0,0,1,7.82,7.82V212a7.83,7.83,0,0,1-7.82,7.83H306.23A7.84,7.84,0,0,1,298.4,212V21.73A7.83,7.83,0,0,1,306.23,13.91Zm12.73,188h320V31.59H319Z"/><path class="cls-4" d="M260,213.24V34a6.54,6.54,0,0,0-6.54-6.54H118.32A6.54,6.54,0,0,0,111.78,34V213.24a6.55,6.55,0,0,0,6.54,6.55H253.49A6.55,6.55,0,0,0,260,213.24ZM126.77,202.56v-158H245.24v158Z"/><path class="cls-1" d="M185.19,35.14a1,1,0,0,1,1.42-.23,1,1,0,0,1,.22,1.43,1,1,0,0,1-1.64-1.2Z"/><path class="cls-1" d="M189.26,209a4.27,4.27,0,1,1-6-.72A4.28,4.28,0,0,1,189.26,209Z"/><rect class="cls-1" x="184.54" y="210.21" width="2.74" height="2.82" rx="0.39" ry="0.39"/><rect class="cls-1" x="111.78" y="27.44" width="148.26" height="192.35" rx="6.54" ry="6.54"/></g><g id="eReader"><rect class="cls-5" x="167.66" y="63.65" width="106.04" height="147.97"/><path class="cls-4" d="M281.05,213.24V61.9a6.54,6.54,0,0,0-6.54-6.55H167.44a6.54,6.54,0,0,0-6.54,6.55V213.24a6.55,6.55,0,0,0,6.54,6.55H274.51A6.55,6.55,0,0,0,281.05,213.24ZM175.89,202.56v-130h90.37V202.56Z"/><rect class="cls-1" x="216.91" y="207.43" width="8.13" height="8.38" rx="1.15" ry="1.15"/><rect class="cls-1" x="160.9" y="55.35" width="120.15" height="164.43" rx="6.54" ry="6.54"/></g></svg>